<?xml version="1.0" encoding="UTF-8" standalone="no"?>
<svg
   xmlns:dc="http://purl.org/dc/elements/1.1/"
   xmlns:cc="http://creativecommons.org/ns#"
   xmlns:rdf="http://www.w3.org/1999/02/22-rdf-syntax-ns#"
   xmlns:svg="http://www.w3.org/2000/svg"
   xmlns="http://www.w3.org/2000/svg"
   width="8.5in"
   height="11in"
   viewBox="0 0 765 990"
   id="svg2"
   version="1.1">
  <defs
     id="defs4" />
  <metadata
     id="metadata7">
    <rdf:RDF>
      <cc:Work
         rdf:about="">
        <dc:format>image/svg+xml</dc:format>
        <dc:type
           rdf:resource="http://purl.org/dc/dcmitype/StillImage" />
        <dc:title></dc:title>
      </cc:Work>
    </rdf:RDF>
  </metadata>
  <g
     transform="translate(0,-62.362205)"
     id="layer1">
    <path
       style="fill:#000000"
       d="m 504.40616,916.57427 c -0.53921,0.73626 -0.60201,0.74095 -1.31315,0.0969 -1.44755,-1.30999 -2.97108,-0.55239 -2.43685,1.21207 0.60687,2.00477 1.65684,4.15074 2.55049,5.21282 0.49776,0.59129 1.0229,1.86283 1.16728,2.82534 0.31205,2.08074 -0.32371,3.30325 -2.20636,4.24245 -1.96829,0.98188 -3.3087,0.79452 -4.61868,-0.6453 -1.69665,-1.86509 -1.55213,-2.39538 0.57357,-2.10406 2.97894,0.40831 5.53019,-1.09265 4.25396,-2.50281 -0.93633,-1.03471 -2.88768,-6.12088 -2.88768,-7.52681 0,-2.42776 2.77584,-3.78162 4.64456,-2.26507 0.75563,0.61308 0.78287,0.75805 0.27286,1.45406 z m -11.62245,11.06356 c -0.52287,0.99474 -2.50963,1.89945 -4.27953,1.94878 -1.48235,0.0409 -2.43351,-1.5096 -2.33363,-3.80509 0.0817,-1.89596 1.46707,-6.51752 2.06304,-6.88588 0.19749,-0.12258 0.35882,-0.83599 0.35882,-1.58663 0,-1.25943 0.0832,-1.35538 1.07026,-1.24172 1.4601,0.16799 1.54335,1.2555 0.28784,3.7553 -0.89486,1.7817 -2.13628,5.67471 -2.13628,6.69942 0,0.63653 1.69378,0.40226 3.04432,-0.42117 1.16182,-0.70841 1.26609,-0.91575 1.02682,-2.04169 -0.14679,-0.6892 -0.53756,-1.56076 -0.86914,-1.93653 -0.33157,-0.37592 -0.50031,-0.78605 -0.375,-0.91136 0.38137,-0.38137 2.16459,2.67248 2.40824,4.12427 0.13317,0.79437 0.0227,1.75385 -0.26576,2.3023 z m -8.86114,-2.38418 c -0.21081,4.33795 -0.52816,4.9542 -2.33483,4.53212 -1.74554,-0.40771 -2.59378,-1.65291 -3.71686,-5.45634 -0.59839,-2.02596 -1.27154,-3.62257 -1.49598,-3.54766 -0.22429,0.0741 -0.87973,1.76308 -1.45617,3.75181 -1.17756,4.06177 -1.5612,4.67453 -2.4597,3.92889 -0.87761,-0.72854 -0.73914,-2.82851 0.43585,-6.60621 1.86479,-5.99554 2.39356,-6.70926 3.70733,-5.00383 0.72718,0.94389 2.6419,6.40099 2.66294,7.58975 0.0182,1.05739 1.03107,2.19167 1.72011,1.92728 0.61852,-0.23745 0.8534,-2.82002 0.63214,-6.95049 -0.11956,-2.23677 0.14982,-2.78432 1.11657,-2.26704 1.25051,0.66922 1.47539,2.20196 1.1886,8.10172 z m -14.99243,-4.9772 c -0.28073,1.17726 -0.83115,3.35002 -1.22297,4.82859 -0.74261,2.80081 -1.66154,3.91269 -2.5222,3.05188 -0.45553,-0.45537 0.29951,-3.92632 2.25342,-10.36014 0.31661,-1.04271 0.47854,-2.1493 0.35958,-2.45893 -0.15588,-0.4065 0.0272,-0.52863 0.65772,-0.43904 0.72763,0.10291 0.88291,0.38425 0.92921,1.68075 0.0303,0.85613 -0.17403,2.51979 -0.45476,3.69689 z m -6.30293,-8.19601 c -0.57705,1.3802 -1.28032,5.71831 -2.24359,13.8388 -0.30464,2.56835 -0.56176,4.71357 -0.57129,4.76714 -0.0152,0.053 -0.21505,0.0969 -0.45659,0.0969 -0.53967,0 -0.0863,-7.57869 0.5209,-8.71403 0.37184,-0.69464 0.27514,-0.72173 -1.66199,-0.46476 -2.8686,0.38061 -3.47866,0.7853 -3.47866,2.3079 0,0.7007 -0.25712,1.61387 -0.57129,2.02929 -0.31433,0.41558 -0.5769,1.25157 -0.58371,1.85798 0,0.70766 -0.18675,1.04318 -0.49881,0.93664 -0.29557,-0.1014 -0.4587,-0.76275 -0.41573,-1.68637 0.0394,-0.83614 0.12713,-2.87723 0.19462,-4.5356 0.0787,-1.91426 0.28482,-3.0157 0.56479,-3.016 0.56131,-7.7e-4 0.90894,-1.29426 0.91576,-3.40799 l 0,-1.65639 -2.04307,0.17842 c -1.12368,0.0984 -2.70319,0.1866 -3.50983,0.1969 -1.33328,0.0166 -1.44633,0.0999 -1.24188,0.91453 0.1241,0.49276 -0.0499,2.6071 -0.38712,4.69859 -0.33642,2.09134 -0.5147,3.95961 -0.39605,4.15165 0.27543,0.44555 -0.87958,2.70683 -1.38262,2.70683 -0.45901,0 -0.44796,-2.98362 0.0256,-7.19929 0.63668,-5.65717 0.64485,-5.44544 -0.21127,-5.47556 -2.55306,-0.0893 -5.25354,-0.66422 -5.25354,-1.11793 0,-0.63835 3.57703,-1.07344 8.43316,-1.02577 1.96285,0.0197 3.9767,-0.11502 4.47521,-0.29904 0.49866,-0.18373 1.56332,-0.25304 2.36586,-0.15407 l 1.45936,0.17979 0,2.65613 c 0,1.46087 -0.17071,3.10546 -0.37941,3.65436 -0.46325,1.21812 0.16042,1.32345 2.17533,0.3673 1.6561,-0.7859 1.64127,-0.76032 2.54217,-4.36534 0.40907,-1.63703 0.99702,-3.22971 1.30681,-3.53935 0.82374,-0.82388 0.93679,-0.40376 0.30056,1.11794 z m -37.07779,-0.94903 c -0.42814,0.38727 -0.77833,0.94238 -0.77833,1.2334 0,0.72838 -2.30473,2.07105 -3.55795,2.07287 -1.61735,0 -2.1316,-2.09073 -0.62549,-2.54505 1.00958,-0.30449 3.28858,-1.24642 4.27545,-1.76687 1.52685,-0.80542 1.96997,-0.15618 0.68632,1.00565 z m -2.24631,14.06125 c -1.52881,1.88734 -3.32338,1.95559 -4.91651,0.18705 -0.60884,-0.67587 -0.73444,-1.38504 -0.70115,-3.95551 0.0741,-5.73632 0.82494,-6.21469 1.64777,-1.05044 l 0.57342,3.59972 2.04306,-0.0529 c 1.12368,-0.0287 2.03927,0.0575 2.03444,0.19461 0,0.13621 -0.31116,0.62155 -0.68103,1.07814 z m -0.0213,-6.72773 c -0.89924,0.8139 -1.7708,0.82041 -2.43653,0.0182 -0.4413,-0.53181 -0.40801,-0.70736 0.2214,-1.16758 0.40725,-0.29783 0.95555,-0.54164 1.21812,-0.54164 0.26272,0 0.75457,-0.10593 1.09312,-0.23608 0.87866,-0.33718 0.80648,1.11036 -0.0953,1.92699 z m -4.16814,99.24677 c -0.91378,0.3506 -0.95752,0.325 -0.95752,-0.5644 0,-0.5439 0.21142,-0.7656 0.64878,-0.681 0.88851,0.1724 1.08102,0.9491 0.30874,1.2454 z m 0.10139,-12.0158 c -0.36926,4.2648 -0.98021,6.4404 -1.02803,3.6604 -0.0545,-3.1899 0.46868,-10.08149 0.76576,-10.08149 0.47506,0 0.58507,2.69349 0.26227,6.42109 z m -3.77361,-79.79074 c -1.21161,1.84693 -1.912,2.02217 -2.96062,0.7405 -0.50199,-0.61353 -1.1075,-1.68469 -1.34569,-2.38039 -0.23821,-0.69556 -0.6506,-1.26474 -0.91651,-1.26474 -0.26575,0 -0.99096,1.13836 -1.61144,2.52962 -1.25112,2.8052 -2.05971,3.19656 -3.15374,1.52669 -0.71583,-1.0925 -0.88986,-2.02217 -1.17801,-6.29384 -0.10442,-1.55182 -0.26151,-2.82139 -0.34884,-2.82139 -0.0878,0 -0.7691,0.65665 -1.51535,1.45935 -1.48583,1.59812 -1.59661,2.20303 -0.93118,5.08556 0.53393,2.31335 0.22701,3.63514 -0.64228,2.76585 -0.30585,-0.30586 -0.65983,-1.25641 -0.78665,-2.11207 -0.40664,-2.74527 -0.47489,-2.83183 -2.35512,-2.98135 -2.11389,-0.16815 -2.4998,0.15602 -2.4998,2.09905 0,1.00821 -0.20188,1.56847 -0.62306,1.73009 -1.13866,0.43692 -1.77928,-1.81303 -0.93526,-3.28463 0.21308,-0.37169 0.75865,-1.98919 1.21236,-3.59443 0.45357,-1.60524 1.18271,-4.18828 1.62007,-5.7401 0.68678,-2.43578 0.91561,-2.82123 1.67516,-2.82123 0.70736,0 0.9949,0.36185 1.46814,1.84843 0.3237,1.0167 0.70432,2.76767 0.84598,3.89105 0.14226,1.12353 0.41254,2.13841 0.60202,2.25555 0.33021,0.204 2.61693,-1.19603 3.14495,-1.92578 0.14074,-0.19342 0.37124,-1.28502 0.51379,-2.42595 0.50229,-4.02059 0.87383,-2.39235 0.68057,2.98227 -0.12712,3.54781 -0.059,5.43817 0.19915,5.43817 0.21718,0 1.44558,-1.35719 2.72954,-3.01601 2.72151,-3.51574 6.16611,-6.85652 6.71804,-6.5154 0.61458,0.37986 0.44387,2.38191 -0.25228,2.95972 -0.35019,0.29056 -1.04877,1.14381 -1.55242,1.89611 -0.50382,0.7523 -1.20601,1.76793 -1.56045,2.2572 -0.61171,0.84401 -0.58976,0.99762 0.43147,3.01587 1.09644,2.16715 1.59464,2.45152 2.98786,1.70588 1.09961,-0.58855 1.19421,-0.31282 0.33945,0.99035 z m -16.55757,-9.89432 c 0.26665,-0.43162 -0.20628,-2.73906 -0.56147,-2.73906 -0.15346,0 -0.58916,1.09447 -0.96841,2.43214 -0.37911,1.33768 -0.84704,2.94656 -1.03955,3.57507 -0.41707,1.36128 0.0242,1.95966 1.17514,1.59434 1.56242,-0.49579 1.94077,-1.21403 1.55168,-2.94564 -0.19674,-0.87595 -0.26758,-1.73858 -0.15739,-1.91685 z m 12.59873,98.79216 c -1.54048,0.5369 -3.27178,0.547 -4.24821,0.024 -0.5825,-0.3117 -0.75276,-0.8223 -0.75276,-2.257 0,-1.0199 0.17056,-2.025 0.37895,-2.2333 0.24577,-0.2458 0.17737,-0.7674 -0.19462,-1.4844 -0.3154,-0.6079 -0.57342,-1.1542 -0.57342,-1.2139 0,-0.2071 1.37128,-0.6378 3.01586,-0.9473 1.80607,-0.3399 2.31819,0.1929 0.58371,0.6072 -1.5494,0.3702 -1.95756,0.8091 -1.75203,1.8839 0.15632,0.8181 0.34081,0.9206 1.30756,0.7272 1.57119,-0.3141 1.44694,0.5058 -0.17964,1.1855 -1.32996,0.5556 -1.95619,1.7091 -1.40881,2.5946 0.21975,0.3556 0.96039,0.4231 2.67641,0.2436 2.55292,-0.2669 3.13679,0.1758 1.147,0.8696 z m -8.879,0.037 c -1.12717,0 -1.65155,-0.2029 -1.94575,-0.7528 -0.70796,-1.3226 -0.43434,-1.6633 0.65045,-0.8101 0.68995,0.5427 1.36129,0.7512 1.94575,0.6046 0.63713,-0.1599 0.89244,-0.055 0.89244,0.3672 0,0.4293 -0.42224,0.5911 -1.54289,0.5911 z m -2.02869,-5.6427 c -0.83084,1.0702 -2.07438,3.1224 -2.76373,4.5608 -0.68918,1.4383 -1.37308,2.6204 -1.51974,2.6267 -0.38046,0.017 0.1014,-7.1124 0.51016,-7.5573 0.1978,-0.215 0.34006,0.4769 0.34006,1.6539 0,1.113 0.17434,2.0236 0.38727,2.0236 0.21294,0 0.74247,-0.7558 1.17666,-1.6797 0.95448,-2.0306 2.89615,-4.4356 3.17704,-3.9353 0.11198,0.1989 -0.47687,1.237 -1.30772,2.3073 z m -9.23736,5.8167 c -0.82206,0.5081 -1.92184,-3.9319 -1.26413,-5.1037 0.46582,-0.8297 0.66877,-0.4496 0.96917,1.8163 0.0999,0.7492 0.30177,1.7364 0.44978,2.1939 0.1527,0.472 0.0862,0.9449 -0.15482,1.0935 z m -1.29016,-90.2839 c -0.64122,1.14578 -1.32042,0.60262 -1.79895,-1.43863 -2.35179,-10.03143 -2.69094,-10.60304 -4.5468,-7.6633 -0.58628,0.92862 -0.90379,1.8722 -0.77091,2.29066 0.25304,0.79754 -1.48266,3.13496 -2.32803,3.13496 -0.69768,0 -2.52962,-2.22921 -2.52962,-3.07822 0,-0.37592 -0.1256,-0.8095 -0.27967,-0.96325 -0.15376,-0.15391 -0.55359,-1.18877 -0.8885,-2.29974 -0.4121,-1.36704 -0.84341,-2.06516 -1.33451,-2.15974 -0.69342,-0.13319 -0.71446,0.16087 -0.47217,6.61286 0.13923,3.71384 0.36397,7.34655 0.49896,8.07251 0.35277,1.89626 -0.49835,1.21691 -1.06496,-0.84991 -0.74382,-2.71394 -1.46647,-8.22657 -1.13292,-8.6423 0.3337,-0.41587 0.74338,-2.83623 0.76759,-4.53455 0.0151,-0.79225 0.28784,-1.12731 1.18982,-1.44163 1.14411,-0.39893 1.19844,-0.3617 2.06667,1.42121 0.49049,1.007 1.08721,2.18108 1.32603,2.60922 0.23895,0.42798 0.52923,1.08478 0.64514,1.45935 0.38153,1.2328 0.95948,0.71461 1.81258,-1.62538 1.28622,-3.52753 2.66611,-4.59234 4.60566,-3.55417 1.18468,0.63396 2.87421,3.47215 3.20504,5.38385 0.17495,1.01124 0.5542,2.92385 0.84295,4.25018 0.31494,1.44694 0.38954,2.65326 0.1866,3.01602 z m -2.6186,88.3125 c -2.42821,1.3216 -5.55092,1.7661 -6.40522,0.9118 -0.53967,-0.5395 -0.52348,-0.8258 0.16132,-2.8728 0.4183,-1.2505 0.76502,-2.4049 0.77031,-2.5655 0.0182,-0.5517 -1.16,-0.2898 -3.49651,0.7772 -1.73055,0.7904 -2.27582,1.2215 -2.09148,1.654 0.13771,0.3217 0.3399,1.0049 0.45037,1.5183 0.30328,1.4089 -0.61156,0.646 -0.99383,-0.8288 -0.17374,-0.6707 -0.5032,-1.2817 -0.73233,-1.358 -0.22897,-0.076 -1.2555,0.7369 -2.28111,1.807 -2.00599,2.0932 -3.21246,2.313 -1.56681,0.2855 2.30125,-2.8353 3.48925,-4.7786 3.69492,-6.0445 0.11956,-0.7405 0.45643,-1.4257 0.74685,-1.5223 0.42148,-0.1408 0.47279,0.2259 0.25426,1.8148 -0.35081,2.5505 0.0197,2.7046 3.42689,1.4223 2.78371,-1.0479 4.15482,-1.2394 4.15482,-0.5802 0,0.2227 -0.32885,1.0545 -0.7308,1.8485 -0.4018,0.7943 -0.85355,2.0131 -1.00368,2.7087 -0.26816,1.242 -0.24804,1.2648 1.11839,1.2648 0.76531,0 2.4544,-0.368 3.75349,-0.8176 1.29923,-0.4495 2.4391,-0.7405 2.53309,-0.6465 0.0938,0.094 -0.69933,0.6443 -1.76294,1.2233 z m -10.52313,1.6028 c -0.21399,-0.1317 -0.38909,-0.4053 -0.38909,-0.6067 0,-0.2015 0.1751,-0.3661 0.38909,-0.3661 0.21399,0 0.38924,0.273 0.38924,0.6066 0,0.3337 -0.17525,0.4984 -0.38924,0.3662 z m -17.26595,-88.95339 c -1.71391,1.05921 -1.84208,1.04075 -3.53647,-0.51122 -1.52473,-1.39669 -2.12538,-3.42992 -1.61462,-5.46541 0.42965,-1.71179 0.90818,-1.08888 0.71431,0.92966 -0.22715,2.3639 0.5032,3.36151 2.15717,2.9464 2.54385,-0.63849 2.73741,-2.31457 0.52288,-4.52909 -1.10885,-1.10886 -1.8336,-1.51081 -2.72409,-1.51081 -1.46858,0 -1.58828,-0.65499 -0.21504,-1.1771 1.58889,-0.604 2.02459,-0.46991 3.60442,1.10991 1.17045,1.17045 1.58707,1.97602 1.94574,3.76181 0.65499,3.26163 0.60021,3.54706 -0.8543,4.44585 z m -0.24592,79.50299 c -0.32114,0.1317 -1.10916,0.3522 -1.75129,0.4891 -2.83002,0.6027 -4.08612,1.043 -4.08612,1.432 0,0.2754 0.59899,0.3287 1.75128,0.1559 2.82367,-0.4236 2.20636,0.4346 -1.07027,1.4875 -1.82104,0.5852 0.17344,2.686 2.19699,2.3142 l 1.20812,-0.222 -0.82994,0.8675 c -1.16726,1.2204 -2.93428,0.8041 -3.76921,-0.8877 -0.80225,-1.6258 -1.09812,-4.4152 -0.51803,-4.8833 0.71855,-0.5799 4.60732,-1.3116 6.09014,-1.1457 0.82207,0.092 1.13064,0.2475 0.77833,0.3925 z m -9.24251,5.0204 c -1.36431,0.5291 -4.67362,0.1601 -5.53217,-0.6168 -1.04346,-0.9444 -1.29847,-0.7104 -1.07146,0.9828 0.17146,1.2782 0.0984,1.5558 -0.38229,1.4593 -0.69222,-0.1393 -0.8313,-2.7532 -0.3237,-6.0841 0.26166,-1.7172 0.48534,-2.1376 1.30226,-2.4482 1.26277,-0.4802 2.91916,-0.115 3.77588,0.8312 0.64198,0.7095 0.60247,0.8081 -0.93254,2.3279 -0.8817,0.8728 -1.60313,1.7522 -1.60313,1.9537 0,0.5862 1.85147,0.8903 3.92419,0.6448 2.11102,-0.2499 2.57835,0.2764 0.84296,0.9494 z m -4.44116,-5.8049 c -1.26216,-0.1513 -1.83634,0.5783 -2.11889,2.6912 l -0.22807,1.7066 1.7929,-1.7391 c 1.94318,-1.8848 2.06682,-2.4774 0.55406,-2.6587 z m 5.13807,-75.3886 c -1.30075,0.8039 -2.73997,-2.4771 -2.73997,-6.24647 0,-1.99389 -0.30948,-2.09907 -3.23848,-1.10114 -2.0411,0.69554 -2.06395,0.77319 -1.24204,4.21506 0.60051,2.51494 0.51834,2.94776 -0.55979,2.94776 -1.16879,0 -1.4704,-1.2054 -2.33712,-9.33981 -0.55011,-5.16199 -0.83493,-6.03189 -1.97465,-6.03189 -0.61201,0 -1.21706,0.42678 -1.77141,1.2496 -1.11613,1.65595 -2.30034,6.7129 -1.90974,8.1547 0.16436,0.60656 0.35216,1.51625 0.41754,2.02141 0.0651,0.50517 0.19886,0.99853 0.29678,1.09646 0.29072,0.29056 -0.57236,3.01994 -1.05286,3.33003 -1.39896,0.90258 -3.58217,-0.63335 -5.11568,-3.59896 -0.77787,-1.50415 -1.19844,-1.46707 -1.73297,0.15269 -0.23866,0.72325 -0.77772,1.62598 -1.19769,2.00615 -0.41996,0.38 -0.76364,0.97203 -0.76364,1.31541 0,0.7228 -1.41259,1.72496 -1.95696,1.38838 -0.54859,-0.339 -2.29822,-3.43642 -2.78023,-4.92196 -0.73141,-2.25372 -1.42545,-9.43274 -0.94268,-9.74888 0.97159,-0.63593 1.91533,1.20949 2.5561,4.99823 0.35276,2.08619 0.83993,3.85927 1.08252,3.94008 0.24729,0.0832 0.62291,-0.59052 0.8549,-1.53199 1.15577,-4.68951 1.73843,-5.95545 2.79764,-6.07848 1.16425,-0.13469 2.65174,1.40895 2.69517,2.79793 0.0379,1.21887 1.35221,5.04439 1.78201,5.18756 0.45673,0.15225 1.69468,-2.56155 1.69468,-3.71535 0,-2.79627 3.55948,-9.40504 5.06559,-9.40504 1.43755,0 3.49576,4.15301 3.49576,7.05371 0,1.35916 0.0984,1.50777 0.99852,1.50777 2.2171,0 4.83873,-2.24086 4.83873,-4.13607 0,-0.69645 0.19038,-1.38382 0.42313,-1.52775 0.95524,-0.59037 1.26155,0.73824 1.34768,5.84573 0.0681,4.07842 0.23078,5.48797 0.71567,6.22801 0.71764,1.09523 0.78575,1.61811 0.25349,1.94712 z m -13.55095,83.6574 c -0.54028,0.5404 -0.86354,0.1014 -0.86354,-1.1705 0,-1.3607 -0.0256,-1.3832 -1.44406,-1.2647 -1.16015,0.097 -1.4872,0.3062 -1.66457,1.0647 -0.12107,0.5192 -0.46128,1.0243 -0.75548,1.1224 -0.40058,0.1331 -0.46445,-0.055 -0.25485,-0.7495 0.15391,-0.5103 0.42163,-1.4531 0.59475,-2.0951 0.97448,-3.6137 2.51494,-6.1767 2.88466,-4.7995 0.0771,0.2852 0.43601,1.4819 0.7986,2.6592 0.70676,2.295 1.05514,4.8824 0.70449,5.233 z m -2.03701,-5.6223 c -0.34066,-0.5188 -0.42572,-0.5188 -0.76637,0 -0.49458,0.7534 -0.49685,1.4479 0,1.7513 0.94707,0.5854 1.49325,-0.653 0.77228,-1.7513 z m -6.50496,6.2269 c -0.46748,-4e-4 -0.74806,-0.7817 -0.96871,-2.6977 -0.0969,-0.8388 -0.32205,-0.9585 -1.98874,-1.0537 l -1.87991,-0.1076 0.25333,1.5003 c 0.16195,0.9582 0.0938,1.5991 -0.18901,1.7737 -0.64076,0.396 -0.77607,0.1467 -1.40926,-2.5903 -0.77757,-3.3617 -0.81087,-3.9184 -0.24623,-4.1148 0.26757,-0.094 0.48655,0.086 0.48655,0.3994 0,0.8919 0.89773,1.4201 2.87376,1.691 1.77352,0.2432 1.83482,0.2169 2.28505,-0.9759 0.2544,-0.6742 0.60898,-1.177 0.78786,-1.1174 0.55496,0.185 0.55042,7.2935 0,7.293 z m -9.27671,-2.2402 c -0.31872,0.5875 -1.26791,1.4192 -2.10935,1.8486 -1.77413,0.905 -5.06316,1.0769 -5.06316,0.2645 0,-0.6031 1.84572,-2.4379 2.14825,-2.1355 0.1135,0.1136 -0.0621,0.427 -0.38758,0.6979 -1.61357,1.3389 0.80965,1.3917 2.90342,0.064 3.01298,-1.9121 1.77791,-3.5578 -3.2285,-4.3027 -1.85964,-0.2767 -3.38135,-0.6603 -3.38135,-0.8524 0,-0.5829 4.85267,-2.6834 6.19927,-2.6834 1.99009,0 1.22599,0.9435 -0.94572,1.1677 -1.77807,0.1833 -3.02978,1.1648 -1.49174,1.1695 2.2168,0 5.99208,2.064 5.95152,3.243 -0.0151,0.2485 -0.27634,0.9324 -0.59506,1.5199 z m -8.44753,-40.17793 c -0.4973,1.92548 -0.95433,2.33484 -2.6074,2.33484 -1.00958,0 -1.77202,-0.29647 -2.50192,-0.97295 -0.57735,-0.53497 -1.47403,-0.97279 -1.99252,-0.97279 -0.65408,0 -1.12776,-0.35762 -1.54652,-1.16742 -0.33203,-0.64213 -0.77106,-1.16758 -0.97552,-1.16758 -0.21505,0 -0.27347,-0.71658 -0.13924,-1.69982 0.30602,-2.23194 -0.17085,-2.4712 -2.79898,-1.40458 -2.27159,0.92195 -2.46636,1.26747 -1.49522,2.65387 0.9451,1.34933 0.25212,1.55832 -0.79877,0.24078 -0.80512,-1.00943 -1.17696,-1.15577 -2.99876,-1.18013 -1.14366,-0.0152 -2.33136,-0.10291 -2.63918,-0.19462 -0.38909,-0.11654 -0.63623,0.27165 -0.81101,1.27229 -0.34507,1.97526 -0.99294,2.66097 -2.27219,2.40506 -0.94148,-0.18826 -8.30105,1.01458 -9.85423,1.61069 -1.08826,0.41754 -1.16136,-0.47384 -0.35942,-4.38168 0.42859,-2.08847 0.89607,-4.80407 1.03893,-6.03475 0.23443,-2.02022 0.62821,-2.7421 1.06103,-1.94575 0.31751,0.58385 -0.4254,6.57865 -1.03924,8.38653 -0.34656,1.02078 -0.63002,2.02491 -0.63002,2.23149 0,0.53708 1.74795,0.45476 4.66984,-0.22021 3.55704,-0.82161 4.60855,-1.30997 4.88247,-2.2675 0.13165,-0.45854 0.50531,-1.42378 0.83144,-2.1449 0.32629,-0.72113 0.96901,-2.80914 1.42848,-4.63988 0.45931,-1.83088 1.03485,-3.3942 1.27881,-3.47411 0.2438,-0.0802 0.78257,0.43207 1.19708,1.13761 3.68947,6.28067 3.32248,5.8365 4.58584,5.5482 0.64213,-0.1468 1.77853,-0.38091 2.52553,-0.52075 1.28017,-0.23957 1.3737,-0.36336 1.63021,-2.15627 0.39106,-2.73376 0.96084,-3.14496 4.35838,-3.14496 5.48267,0 6.50315,1.84543 2.19303,3.96582 -1.466,0.72112 -2.28171,1.31497 -1.94574,1.41638 5.23357,1.58132 6.59319,3.12194 5.7242,6.48709 z m -3.89483,-4.43722 c -3.1896,-1.06512 -4.83465,-0.6108 -4.16573,1.15031 0.21278,0.56025 0.90667,0.9386 2.31971,1.26474 2.61346,0.60338 2.59559,0.60505 3.55235,-0.35171 0.9725,-0.9725 0.74807,-1.24385 -1.70633,-2.06334 z m -3.33125,-6.07002 c -0.8826,0 -2.17594,1.35599 -1.82893,1.91761 0.16149,0.2612 0.66937,0.10291 1.40018,-0.43782 1.31483,-0.9722 1.46193,-1.47979 0.42875,-1.47979 z m -10.98911,2.46302 c -0.65983,-1.35462 -1.41182,-2.46302 -1.67092,-2.46302 -0.54315,0 -1.62295,4.3994 -1.23415,5.02851 0.2774,0.44886 4.10503,0.59672 4.10503,0.1586 0,-0.14377 -0.53997,-1.36945 -1.19996,-2.72409 z m 11.02603,-46.82198 c -1.07434,1.18892 -2.2339,1.53517 -7.42509,2.21726 -1.4819,0.19461 -1.65851,0.32038 -1.46465,1.04271 0.12107,0.4519 0.22292,0.95282 0.2258,1.11339 0.0151,0.49381 4.00229,0.28951 5.62236,-0.28769 2.0768,-0.73989 2.71258,-0.31659 1.6688,1.11082 -0.75382,1.03092 -3.52103,1.52443 -5.39671,0.96236 -1.29743,-0.38864 -1.62068,-0.3735 -1.91382,0.0893 -1.03228,1.63127 0.39212,3.6527 2.53127,3.59216 1.78413,-0.0515 2.20545,0.7635 0.94057,1.81741 -1.18725,0.98915 -2.31472,0.98628 -3.5799,-0.0152 -1.34373,-1.05694 -1.76853,-2.88071 -1.74447,-7.49032 0.0182,-3.47531 0.0953,-3.8635 0.86626,-4.36882 1.78775,-1.17136 10.73984,-2.30276 10.73984,-1.35734 0,0.21065 -0.48156,0.91604 -1.07026,1.5674 z m -6.14871,-50.29519 c -1.56498,5.81273 -3.5398,7.2892 -8.46356,6.3279 -4.3148,-0.8425 -7.76107,-2.64025 -10.48818,-5.47147 -2.38417,-2.47529 -1.87871,-3.10652 0.88457,-1.10478 4.12744,2.98984 8.64594,3.89908 11.37516,2.28883 2.5797,-1.52214 3.95249,-7.59458 2.48119,-10.97547 -0.90288,-2.07439 -2.67868,-3.23015 -8.49082,-5.52595 -2.14899,-0.84886 -4.7741,-3.48667 -5.9618,-5.99072 -0.92937,-1.95937 -1.035,-2.57304 -0.88699,-5.15275 0.21005,-3.66026 1.83361,-6.98909 4.24169,-8.69694 1.35554,-0.9613 1.71133,-1.05679 2.53628,-0.68102 0.52771,0.24047 1.54273,0.43722 2.25569,0.43722 2.39765,0 6.45017,2.33863 6.45017,3.72216 0,0.25485 0.25909,0.67814 0.57569,0.94086 0.42723,0.35474 0.47384,0.66771 0.18086,1.21525 -0.47324,0.88396 -1.64248,0.96175 -2.31306,0.15361 -0.2665,-0.32099 -0.72566,-0.58372 -1.02062,-0.58372 -0.29481,0 -0.53604,-0.3113 -0.53604,-0.69177 0,-1.30452 -1.13473,-2.4214 -2.46031,-2.4214 -1.48946,0 -3.75862,1.13943 -4.32977,2.17412 -0.22518,0.40756 -0.68389,1.17968 -1.01971,1.71572 -2.14537,3.42523 -1.60267,8.54423 1.10552,10.42825 0.58386,0.40618 2.11222,1.21887 3.39647,1.80591 6.54598,2.9921 7.55949,3.72246 8.94574,6.44684 1.03606,2.03671 2.15657,5.62236 2.11949,6.78357 -0.0151,0.44282 -0.27407,1.72783 -0.57766,2.85575 z m -1.98782,151.17892 c -0.60898,1.468 -1.30044,1.9439 -1.30044,0.8947 0,-1.6144 0.8935,-4.4945 1.39427,-4.4945 0.72975,0 0.68481,1.7222 -0.0938,3.5998 z m -7.26043,-90.42552 c -1.74933,1.08101 -2.572,1.03773 -3.91331,-0.20598 -1.70148,-1.57768 -2.1729,-3.07321 -1.76127,-5.58694 0.19266,-1.17725 0.24866,-2.62192 0.12411,-3.21063 -0.1347,-0.63683 -0.059,-1.0701 0.18644,-1.0701 0.61081,0 1.01003,1.85419 0.92195,4.28073 -0.0423,1.17711 0.002,2.51222 0.0984,2.96669 0.21959,1.03151 2.01612,1.80621 3.82703,1.65018 1.91277,-0.1648 2.07788,0.21112 0.51668,1.17605 z m -1.04469,81.57222 c -1.65398,1.6148 -1.92048,2.5212 -0.97296,3.3077 0.71372,0.5924 0.77213,1.9458 0.0832,1.9458 -0.27482,0 -0.82494,-0.5502 -1.2222,-1.223 l -0.72249,-1.2231 -2.33484,2.4008 c -1.2841,1.3203 -2.41899,2.3165 -2.52204,2.2134 -0.10291,-0.103 0.70962,-1.3146 1.80591,-2.6922 1.09614,-1.3778 1.99312,-2.7059 1.99312,-2.9518 0,-0.2456 -0.35019,-1.1331 -0.77833,-1.9723 -0.80254,-1.5733 -1.00443,-2.7241 -0.47762,-2.7241 0.16541,0 0.63864,0.6568 1.05164,1.4594 1.31755,2.5602 1.32664,2.5636 2.97819,1.0714 0.82993,-0.7497 1.77125,-1.3634 2.09164,-1.3634 0.80269,0 0.78271,0.037 -0.97401,1.7514 z m -8.25897,-87.58185 c -0.47565,0.33325 -1.44951,0.6058 -2.16412,0.6058 l -1.29924,0 0.25122,1.84845 c 0.13771,1.01668 0.51606,2.43578 0.83962,3.15373 0.42117,0.93452 0.469,1.42439 0.16798,1.7254 -0.30101,0.30102 -0.85747,-0.053 -1.96012,-1.24764 -1.66972,-1.80848 -1.95968,-2.96061 -2.09831,-8.33371 -0.0575,-2.22981 0.053,-2.7483 0.68542,-3.21048 1.44527,-1.05695 4.88593,-0.47627 4.88593,0.82433 0,0.31357 0.158,0.5701 0.35112,0.5701 0.36276,0 1.2054,2.06546 1.2054,2.95471 0,0.27695 -0.38909,0.77622 -0.8649,1.10931 z m -1.69225,-3.06338 c -0.62549,-0.62548 -2.09423,-0.84523 -2.13554,-0.31963 -0.2438,3.09774 -0.23033,3.21048 0.38545,3.21048 0.87474,0 2.36149,-1.09886 2.36149,-1.74538 0,-0.29373 -0.27513,-0.80905 -0.6114,-1.14547 z m 0.66482,96.06033 c -0.57705,0.3568 -1.08948,-0.7936 -1.5948,-3.5799 -0.2665,-1.4699 -0.30237,-2.6705 -0.0908,-3.0484 0.31099,-0.5555 0.38259,-0.5448 0.65969,0.1 0.171,0.398 0.4419,1.5994 0.60216,2.6694 0.16027,1.0702 0.41195,2.3201 0.55935,2.7775 0.1468,0.4574 0.0862,0.9439 -0.1347,1.0811 z m -4.59008,-0.8136 c -0.54981,0.5499 -1.30287,-0.6899 -1.3466,-2.2171 -0.0257,-0.8833 -0.15754,-2.1263 -0.29375,-2.7619 l -0.24759,-1.1558 -1.30347,2.0312 c -1.80592,2.8144 -2.56684,2.6851 -3.50484,-0.5952 -0.26015,-0.9098 -0.61095,-1.6541 -0.77969,-1.6541 -0.34142,0 -1.21858,3.4668 -1.21858,4.8164 0,0.9642 -0.66845,1.7993 -1.43997,1.7993 -0.77561,0 -0.6164,-2.3345 0.27241,-3.9931 0.42814,-0.7987 0.77833,-1.7075 0.77833,-2.0197 0,-0.9081 -2.33863,-1.1089 -5.67533,-0.4872 -2.96774,0.553 -4.05343,0.5216 -4.05343,-0.1166 0,-0.36 4.3269,-1.1657 6.26085,-1.1657 0.73308,0 1.87734,0.1562 2.54278,0.347 1.33087,0.3818 1.82695,0.1944 2.20605,-0.8334 0.56403,-1.5286 1.52292,-0.4632 2.01097,2.2346 0.15468,0.8547 0.36473,1.6889 0.46673,1.8539 0.1014,0.1651 0.80936,-0.4465 1.57181,-1.3592 1.92577,-2.3047 2.51084,-2.1811 3.07805,0.6502 0.2544,1.2702 0.38107,2.5222 0.28134,2.782 -0.0999,0.2601 0,0.5883 0.23427,0.7297 0.47203,0.2918 0.53604,0.7391 0.15966,1.1156 z m -2.25796,-85.49134 c -1.51867,2.16806 -4.05797,2.01068 -6.39085,-0.3962 -1.02138,-1.05392 -1.23113,-1.58527 -1.26776,-3.2117 -0.0272,-1.22522 0.26333,-2.64341 0.78363,-3.81962 0.45508,-1.02894 0.82752,-2.0317 0.82752,-2.22814 0,-0.52166 -2.57517,0.0242 -5.14458,1.08964 -1.22508,0.50803 -3.01843,0.92316 -3.98882,0.92316 -1.88536,0 -2.047,0.17615 -1.1939,1.3021 0.46582,0.61489 0.7871,0.6665 2.23087,0.35853 2.34937,-0.50094 2.69366,-0.31434 1.9966,1.08282 -0.42692,0.85582 -0.84628,1.14821 -1.64686,1.14821 -0.59083,0 -1.19255,0.11804 -1.33707,0.26286 -0.50198,0.50199 1.41985,2.07197 2.53597,2.07197 0.68057,0 1.09962,0.20673 1.09962,0.54209 0,0.57932 -0.8204,1.01896 -1.88022,1.00761 -1.32739,-0.0152 -4.34628,-4.59612 -4.34628,-6.59622 0,-1.11384 -0.67542,-0.98309 -1.94574,0.37668 -0.87127,0.9327 -1.4138,1.16743 -2.69776,1.16743 -1.71269,0 -2.29277,0.60687 -1.76702,1.84859 0.1586,0.37456 0.77001,2.03821 1.35886,3.69688 1.09433,3.08245 0.94405,4.02196 -0.27982,1.75128 -1.87886,-3.48561 -2.94307,-9.57606 -2.18426,-12.50126 0.98431,-3.79435 2.77902,-4.37912 5.22706,-1.70286 l 1.51308,1.65382 6.41067,-0.0953 6.41082,-0.0954 0.5928,1.14609 c 0.65696,1.27063 0.77273,2.58409 0.25591,2.90357 -0.18524,0.11502 -0.44297,0.86338 -0.57296,1.66426 -0.43298,2.66809 1.66729,4.31041 3.02797,2.36768 0.83296,-1.18921 0.75638,-2.9694 -0.19493,-4.52985 -0.83931,-1.37672 -0.72157,-2.15323 0.18176,-1.19769 0.95767,1.01322 2.95215,5.20997 2.95305,6.21394 4.6e-4,0.54104 -0.25485,1.34873 -0.56736,1.79487 z M 250.04674,916.1551 c 0,-0.23322 -0.4298,-0.61732 -0.94873,-0.85386 -0.74505,-0.33945 -1.04349,-0.30887 -1.42032,0.14529 -0.54481,0.65635 -0.96325,4.1008 -0.60989,5.02139 0.21429,0.55858 0.34309,0.55814 1.42999,0 1.31498,-0.67996 1.99677,-1.9055 1.72829,-3.10651 -0.0953,-0.42798 -0.17647,-0.96901 -0.17934,-1.20223 z m 18.38211,-83.35966 c -0.82752,0.71568 -3.00239,1.47736 -4.2184,1.47736 -1.27396,0 -1.4598,0.57055 -0.66179,2.03171 0.63017,1.15411 0.70175,2.61618 0.74881,15.28574 0.0288,7.70522 0.16829,14.88514 0.31055,15.9554 0.50532,3.7992 0.14074,5.64264 -1.11537,5.64264 -0.63848,0 -1.97586,-1.89581 -2.33332,-3.30779 -0.66316,-2.61982 -0.49578,-20.47936 0.30192,-32.20259 0.1241,-1.81485 0.0393,-2.63797 -0.26968,-2.66325 -0.24668,-0.0197 -2.05048,0 -4.00849,0.0303 -2.70078,0.0515 -3.87486,-0.0938 -4.86446,-0.60142 -0.71733,-0.36776 -1.39185,-0.79044 -1.49899,-0.93936 -0.10746,-0.14831 -0.53967,-0.45961 -0.96146,-0.69025 -0.68753,-0.37607 -0.6167,-0.44766 0.68572,-0.69192 0.79891,-0.14982 1.83724,-0.17192 2.30729,-0.0485 0.47021,0.12258 2.08801,0.0651 3.59518,-0.13015 1.50703,-0.19448 4.97298,-0.44555 7.70189,-0.55814 3.95008,-0.16284 4.96162,-0.0999 4.96162,0.30843 0,0.28209 -0.30646,0.77802 -0.68102,1.10188 z m -4.42361,-31.21163 c -0.35852,1.99418 -2.30927,4.04496 -5.16017,5.42516 -1.95105,0.94451 -5.22222,1.06361 -6.80022,0.24759 -1.1936,-0.61731 -4.3384,-3.87667 -4.3384,-4.49655 0,-0.21884 -0.36124,-0.75896 -0.8027,-1.20042 -0.44145,-0.44145 -0.73353,-1.00972 -0.64908,-1.2629 0.0893,-0.2703 0.69206,0.0787 1.45844,0.84491 2.42337,2.42338 4.0159,3.24832 5.69318,2.94958 2.80883,-0.50033 6.06805,-2.92506 6.72592,-5.00369 0.86777,-2.7427 0.88274,-4.50774 0.0499,-5.91928 -0.4407,-0.7467 -0.80118,-1.59222 -0.80118,-1.87885 0,-0.76683 -2.57078,-2.89147 -3.8013,-3.14164 -3.21352,-0.65362 -6.66039,-3.48213 -8.45859,-6.94126 -1.25202,-2.40838 -1.63748,-6.22558 -0.82494,-8.17028 1.22356,-2.92838 5.51082,-4.77486 8.66757,-3.7329 1.62053,0.53468 3.91496,3.17416 4.43345,5.09994 0.21687,0.80496 0.5645,1.56891 0.77273,1.69755 0.20825,0.12864 0.37865,0.57055 0.37865,0.98188 0,0.9271 -1.70815,1.44452 -2.52659,0.76532 -0.59324,-0.49245 -1.75416,-2.59756 -1.75416,-3.18097 0,-0.85596 -1.81938,-3.03887 -2.53642,-3.04325 -1.24672,0 -3.71095,1.8958 -4.30965,3.32897 -1.84133,4.40666 0.85732,9.20543 6.21257,11.04783 2.65039,0.91195 4.12653,1.98086 5.63401,4.08006 2.31108,3.21806 3.40192,7.80329 2.73679,11.5032 z m -3.45671,208.19769 c -1.35326,0.6904 -1.55666,0.9662 -1.55666,2.1119 0,1.1293 0.11199,1.2884 0.78408,1.1126 1.06557,-0.2786 0.62034,0.9287 -0.47005,1.2747 -1.01548,0.3223 -1.39746,-0.1091 -1.55091,-1.7494 -0.10443,-1.1107 -0.32235,-1.3896 -1.29258,-1.6516 -0.79029,-0.2133 -1.64913,-0.1241 -2.65855,0.2757 -1.14866,0.4552 -1.81863,0.5 -2.91856,0.1944 -2.07378,-0.576 -2.08059,-0.5708 -1.95649,1.4477 0.0878,1.4166 -0.0197,1.8485 -0.45705,1.8485 -0.66845,0 -1.08297,-2.2241 -1.12413,-6.032 -0.056,-5.1526 2.82078,-6.8262 5.21132,-3.0319 l 0.66407,1.054 -1.77626,1.252 c -1.37853,0.9718 -1.68045,1.3673 -1.34856,1.7672 0.5324,0.6416 3.45307,0.6725 4.81724,0.052 0.81267,-0.3702 1.08326,-0.3603 1.33676,0.051 0.17479,0.2826 0.52772,0.3844 0.78438,0.2257 0.33597,-0.2075 0.34808,-0.4067 0.0438,-0.7113 -0.23275,-0.2327 -0.42313,-0.6508 -0.42313,-0.929 0,-0.716 1.14426,-0.6301 1.42712,0.1075 0.18977,0.4943 0.60156,0.5624 2.12811,0.3526 1.04121,-0.1438 1.89294,-0.16 1.89294,-0.037 0,0.1225 -0.7004,0.5805 -1.55651,1.0173 z m -9.5815,-4.4669 c -0.34702,-0.3471 -0.91,-0.5772 -1.25096,-0.5116 -0.72083,0.1393 -1.44513,2.3033 -1.08495,3.2422 0.21294,0.5546 0.42829,0.4912 1.57861,-0.4647 1.55151,-1.289 1.59722,-1.4259 0.7573,-2.2659 z m 9.38219,-33.77013 c -1.64021,1.91609 -3.12044,2.35346 -4.97963,1.47131 -1.83663,-0.87156 -2.4099,-2.16262 -2.40732,-5.42138 0,-2.47982 0.13014,-2.94595 1.26972,-4.58887 0.69722,-1.00564 1.40729,-1.91488 1.578,-2.02036 0.17056,-0.10593 1.05301,0 1.96088,0.22716 1.3566,0.34444 1.62961,0.56555 1.53305,1.24218 -0.0878,0.60943 -0.46717,0.87352 -1.46555,1.01759 -1.78261,0.25743 -3.12709,2.18577 -3.12709,4.48521 0,2.48663 0.64591,2.82548 3.8296,2.00962 3.82946,-0.98128 3.92632,-0.89684 1.80834,1.57754 z M 247.48945,865.8859 c -1.34039,2.57472 -2.34815,3.13422 -5.5217,3.06535 -3.9012,-0.0847 -6.56761,-1.65987 -8.01546,-4.73536 -1.27458,-2.70743 -2.19456,-8.77806 -2.37692,-15.68239 -0.1975,-7.48427 0.0832,-9.28654 1.85358,-11.88805 1.77096,-2.60272 2.45804,-3.15056 3.95144,-3.15056 1.95044,0 3.6993,1.72875 5.60541,5.54109 1.81529,3.63061 1.92728,4.18767 0.84204,4.18767 -0.96538,0 -3.5575,-2.55049 -3.29281,-3.23999 0.2771,-0.72218 -1.24385,-4.12229 -1.9683,-4.4003 -0.75715,-0.29057 -1.5895,0.39832 -2.87694,2.381 -1.00094,1.54153 -1.01533,1.66502 -1.06406,9.23298 -0.0272,4.21869 0.0938,8.42165 0.26985,9.33967 0.17569,0.91802 0.53315,2.94835 0.79436,4.51184 0.59764,3.57822 1.72042,4.7458 4.56344,4.7458 1.80033,0 1.85814,-0.0393 3.95068,-2.72409 1.16803,-1.49824 2.24601,-2.72407 2.39568,-2.72407 0.54014,0 1.88461,2.06969 1.86691,2.8739 -0.0152,0.45266 -0.44977,1.65216 -0.9772,2.66551 z m 0,106.9263 c -0.32143,0 -0.77197,-0.48171 -1.00109,-1.07026 -0.44918,-1.15396 -0.57933,-8.94075 -0.15648,-9.36358 0.14075,-0.14075 0.57886,0.17116 0.97295,0.69373 0.97522,1.29288 1.13533,9.74011 0.18462,9.74011 z m -4.70736,-0.63714 c -2.21922,2.38797 -5.22584,2.80445 -5.97724,0.82813 -0.19023,-0.50048 -0.35323,-3.28737 -0.362,-6.19321 -0.0151,-4.32675 0.0848,-5.28335 0.53982,-5.28335 0.86883,0 0.94072,0.34989 1.03213,5.0223 0.0666,3.43113 0.2099,4.43814 0.65348,4.60839 0.482,0.18493 1.43104,-0.0727 5.04545,-1.36734 0.93421,-0.33476 0.45431,0.89366 -0.93164,2.38508 z m -1.55272,-235.46273 c -0.0635,0.0635 -0.20885,2.45258 -0.3216,5.30773 -0.18962,4.80452 -0.51576,6.24995 -1.41016,6.24995 -0.49125,0 -1.07844,-2.59136 -1.25959,-5.55864 -0.0893,-1.45209 -0.26137,-2.74029 -0.38379,-2.86287 -0.12258,-0.12258 -1.15274,0.7293 -2.28929,1.89279 -2.12841,2.17896 -3.22471,2.62223 -6.51132,2.63283 -2.31305,0 -5.74705,-4.24322 -6.44154,-7.9734 -0.50457,-2.70955 -0.26863,-16.22918 0.35443,-20.31075 0.64425,-4.22112 1.75144,-8.35628 2.82548,-10.55356 0.55254,-1.13064 1.06875,-1.55166 2.43018,-1.98222 1.5774,-0.49896 1.84951,-0.48186 3.10848,0.19448 1.62143,0.87124 2.90191,3.08032 3.99533,6.89312 0.6061,2.11345 0.66346,2.76541 0.2833,3.22351 -0.4136,0.49835 -0.59718,0.46082 -1.39095,-0.28497 -0.50304,-0.47247 -0.91453,-1.12126 -0.91453,-1.44164 0,-0.32039 -0.30646,-0.9212 -0.68102,-1.33511 -0.44024,-0.4864 -0.68314,-1.39141 -0.68692,-2.56019 0,-2.40399 -0.37532,-2.91824 -1.87115,-2.61905 -3.96475,0.79301 -5.23417,5.94471 -5.38747,21.86183 -0.0318,3.2303 0.0485,6.04352 0.17721,6.25161 0.12864,0.20794 0.2768,1.20889 0.32932,2.22437 0.0529,1.01532 0.23744,1.93379 0.41088,2.04094 0.17328,0.10745 0.31523,0.51107 0.31523,0.89759 0,1.21055 1.50975,2.75359 2.69427,2.75359 2.02521,0 3.49349,-0.81587 4.88882,-2.71667 1.49537,-2.03701 2.13946,-4.79121 1.43045,-6.11617 -0.22883,-0.42753 -0.59234,-1.8722 -0.80785,-3.21049 -0.43918,-2.7268 -0.91378,-3.51679 -2.12417,-3.5357 -0.77818,-0.0151 -2.86786,-1.4085 -2.53703,-1.69529 1.4987,-1.29924 5.48176,-1.6974 8.17784,-0.81753 1.15093,0.37563 2.29202,0.84008 2.53567,1.03229 0.24366,0.19204 0.56949,1.35098 0.724,2.57531 0.29254,2.31773 0.54073,9.33906 0.33749,9.54231 z m -3.54751,68.02852 c -1.92472,1.80546 -3.17341,2.2914 -5.88674,2.2914 -2.18942,0 -2.31608,-0.059 -4.68604,-2.20408 -3.34986,-3.03161 -4.43571,-5.39853 -4.62761,-10.08819 -0.21036,-5.13868 1.44316,-13.85605 3.49864,-18.44355 0.98248,-2.19289 3.70868,-5.46876 4.53498,-5.44938 0.14226,0 1.28153,0.24654 2.53113,0.54058 2.64977,0.62335 5.23282,2.70244 4.48188,3.60729 -0.66014,0.79543 -1.87978,0.61565 -3.33095,-0.49139 -0.72642,-0.5539 -1.56136,-0.91484 -1.85556,-0.80195 -1.09296,0.41951 -3.68281,4.51699 -4.61414,7.3004 -1.65246,4.93845 -2.50343,13.13749 -1.75204,16.87947 0.42707,2.126 2.30186,5.43924 3.49228,6.17141 1.02576,0.63093 4.09036,-0.77969 6.28067,-2.8907 l 1.94046,-1.87039 0.71325,0.8543 c 1.19345,1.42969 0.94178,3.03569 -0.72021,4.59478 z m -3.22274,209.22435 c -0.19357,0.4815 -0.63411,0.8756 -0.97917,0.8756 -0.51227,0 -0.56993,-0.2317 -0.31432,-1.2647 0.17207,-0.6957 0.30418,-1.8339 0.2936,-2.5296 -0.0152,-0.7452 0.17555,-1.2648 0.45476,-1.2648 0.928,0 1.24597,2.44 0.54513,4.1835 z m -1.85617,-49.1565 c -1.06239,0.35291 -2.22512,0.96598 -2.58395,1.36234 -0.61896,0.68389 -0.57205,0.77727 0.91878,1.83239 2.63933,1.86767 3.52739,4.81482 1.93168,6.41053 -1.19617,1.19617 -3.52133,0.81162 -5.25552,-0.86913 -1.56437,-1.51625 -1.66395,-2.00267 -0.34202,-1.67077 l 0.97281,0.2441 0,-4.71205 c 0,-4.79378 -0.24018,-5.48343 -1.47873,-4.24503 -0.36322,0.36321 -0.46703,0.32613 -0.46703,-0.16678 0,-1.31663 1.11839,-1.85676 3.84504,-1.85676 2.88269,0 3.76378,0.42556 4.14303,2.00129 0.22973,0.95403 0.10745,1.07466 -1.68409,1.66987 z m -1.67,4.4861 c -1.00459,-0.41602 -1.26262,-0.40786 -1.56167,0.0499 -0.19704,0.30177 -0.27089,0.89879 -0.16405,1.32693 0.10745,0.42798 0.19674,0.97295 0.19977,1.2107 0,0.53725 2.02883,0.21021 2.43154,-0.39317 0.59521,-0.89199 0.25638,-1.71315 -0.90559,-2.19455 z m -0.66362,-6.74664 c -0.17086,-0.10594 -0.56344,-0.0363 -0.87247,0.15543 -0.42465,0.26257 -0.4522,0.45688 -0.11199,0.79664 0.24713,0.24698 0.63971,0.33158 0.87247,0.18781 0.49714,-0.30737 0.55253,-0.86792 0.11199,-1.13988 z m -0.94497,49.06994 c -0.27271,0.2149 -1.14774,0.4906 -1.94438,0.6131 -2.02188,0.3102 -3.01813,-0.5737 -3.09562,-2.7467 -0.0712,-1.9946 -0.73519,-2.7347 -1.64111,-1.8288 -0.34368,0.344 -0.62487,0.7491 -0.62487,0.9005 0,0.5759 -2.84303,3.1713 -3.47366,3.1713 -1.7301,0 -3.21653,-4.1462 -2.00825,-5.6021 0.69463,-0.8369 1.30014,-0.3831 0.72264,0.5417 -0.6217,0.9954 0.5542,3.6213 1.53698,3.432 0.36079,-0.07 1.53987,-1.3017 2.62011,-2.7383 1.80138,-2.3957 2.93701,-3.2577 2.93701,-2.2295 0,0.2682 0.78469,0.3196 2.28445,0.1498 1.5208,-0.172 2.37404,-0.1136 2.55247,0.1753 0.16133,0.261 -0.0272,0.4337 -0.4752,0.4337 -1.52473,0 -3.1943,0.8406 -3.1943,1.6082 0,0.6249 0.12865,0.685 0.75277,0.3512 1.00306,-0.5369 1.19314,-0.5095 1.19314,0.1719 0,0.3161 -0.42722,0.8548 -0.94949,1.1969 -1.46359,0.9588 -0.86732,1.8055 1.18301,1.6794 1.85435,-0.1134 2.38478,0.1211 1.6243,0.7203 z m -1.7531,-85.70809 c -1.06087,0.84643 -1.80469,1.1261 -2.88162,1.08312 -2.13008,-0.0847 -4.89002,-1.47176 -5.57861,-2.80323 -0.71341,-1.37945 -0.53151,-3.94266 0.37833,-5.33118 0.91213,-1.39186 0.2865,-1.95181 -1.647,-1.47419 l -1.46676,0.36231 0.0485,2.14037 c 0.059,2.58319 0.63426,5.2139 1.32088,6.04126 0.64984,0.78303 -0.0197,1.52487 -1.07374,1.19027 -1.57695,-0.50047 -1.85874,-1.75915 -1.72541,-7.70795 0.0651,-2.93095 0.0969,-3.0213 1.25565,-3.6206 0.65364,-0.33793 2.04171,-0.71552 3.08472,-0.83902 1.71527,-0.20325 1.99161,-0.12107 2.89465,0.85264 l 0.99837,1.07722 -1.35902,1.50415 c -1.48855,1.64762 -1.84026,3.73139 -0.77862,4.61248 0.31931,0.26484 2.11418,0.65529 3.98896,0.86762 1.87462,0.21232 3.5348,0.50244 3.68947,0.64485 0.15451,0.14226 -0.36261,0.77228 -1.14911,1.39988 z m -4.12486,-57.83515 c -0.3959,0.32855 -0.74382,0.17933 -1.47781,-0.63335 -1.1765,-1.30287 -1.7021,-2.82639 -2.42807,-7.03798 -0.30812,-1.7879 -0.73746,-3.42796 -0.95403,-3.64452 -0.26545,-0.26544 -0.97704,-0.17086 -2.18532,0.29058 -1.71497,0.65499 -1.85843,0.65422 -3.34488,-0.0166 -0.85414,-0.38516 -1.62309,-0.62926 -1.70874,-0.54225 -0.0862,0.0878 -0.43193,1.38399 -0.76971,2.88239 -0.33764,1.49824 -1.11203,4.6503 -1.72087,7.00467 -1.21645,4.70435 -1.72464,5.25007 -3.41251,3.66435 -1.55984,-1.4654 -1.15487,-5.10342 1.1995,-10.77435 1.09115,-2.62829 2.30685,-7.59793 4.30586,-17.60136 0.32085,-1.60525 0.67119,-3.35638 0.77849,-3.8915 0.10745,-0.53514 0.41921,-1.84361 0.69282,-2.90796 0.45174,-1.75719 0.6049,-1.94046 1.66653,-1.99388 2.09604,-0.10594 2.38993,0.3452 4.64093,7.11531 0.84735,2.54837 1.48781,5.43288 2.01432,9.0721 0.10896,0.74912 0.43086,1.6287 0.71658,1.95467 0.28572,0.32584 0.38727,0.80649 0.22564,1.06785 -0.27225,0.44055 0.15149,3.43628 1.66397,11.76531 0.7311,4.02619 0.72369,3.70597 0.0969,4.22596 z m -6.30186,-20.95955 c -0.32054,-1.81938 -0.74852,-4.09596 -0.95085,-5.05908 -0.20235,-0.96311 -0.37563,-1.88249 -0.38486,-2.04306 -0.0151,-0.16057 -0.18417,-0.29193 -0.38848,-0.29193 -0.20431,0 -0.47929,0.65681 -0.61095,1.45935 -0.58341,3.55675 -2.2218,11.28618 -2.60287,12.28001 -0.70159,1.82984 0.0666,2.07394 2.67611,0.85097 3.00179,-1.40653 3.24317,-1.63399 3.02797,-2.85225 -0.0999,-0.56994 -0.44539,-2.52478 -0.76607,-4.34401 z m 2.60226,124.35165 c -0.28815,0.65151 -1.10811,1.58466 -1.82196,2.07393 l -1.29803,0.88942 -1.75189,-0.77501 c -2.23193,-0.98733 -3.09697,-2.56048 -3.13844,-5.70755 -0.0393,-2.98439 0.69616,-3.49213 0.78696,-0.54316 0.0953,3.08487 0.99201,4.6255 2.68474,4.61036 1.87673,-0.0166 3.69687,-2.81442 3.69687,-5.68244 0,-2.54504 0.61065,-1.70118 1.0279,1.42062 0.25243,1.88975 0.2055,2.82896 -0.18615,3.71383 z m -4.94814,-20.11842 c -0.38138,-0.0741 -0.77198,-0.37001 -0.86793,-0.65801 -0.11199,-0.33491 0.0757,-0.4752 0.51923,-0.38909 0.38154,0.0742 0.77213,0.37002 0.86793,0.65802 0.11199,0.3349 -0.0757,0.4752 -0.51923,0.38908 z m -0.91303,58.58976 c -0.99247,0.9509 -1.23779,1.0243 -2.04306,0.6112 -0.50336,-0.2584 -1.18996,-0.8144 -1.52579,-1.2358 -0.56766,-0.7124 -0.77878,-0.7331 -3.00239,-0.2957 -1.31544,0.2589 -2.83562,0.3857 -3.37817,0.282 -0.82479,-0.1576 -0.98643,-0.042 -0.98643,0.7074 0,1.1679 -0.55525,1.4851 -1.21281,0.6927 -1.04212,-1.2557 -0.10896,-6.9198 1.20874,-7.3381 0.84386,-0.2678 2.39628,0.2976 3.08032,1.1217 0.44176,0.5325 0.34279,0.7715 -0.6969,1.684 -2.71834,2.385 -0.81345,2.6396 3.72125,0.4971 3.3597,-1.5873 3.98775,-1.5421 5.30469,0.3822 0.89335,1.3054 0.83932,1.6375 -0.46945,2.8913 z m -0.89577,-3.192 c -0.56842,-0.5686 -1.73297,-0.6109 -2.0641,-0.076 -0.37667,0.6095 1.30151,2.7209 1.96135,2.4677 0.68767,-0.2639 0.75123,-1.7441 0.1029,-2.3926 z m -9.5644,-1.7804 c -0.36867,0.2311 -0.72976,0.8225 -0.80224,1.3144 l -0.13167,0.894 1.15804,-0.9338 c 1.23279,-0.9943 1.04408,-2.0693 -0.22383,-1.2746 z m 9.84937,-77.53812 c -1.51943,1.51958 -4.16043,1.45344 -5.65004,-0.14074 -0.59704,-0.63911 -1.20451,-1.64596 -1.35009,-2.23769 -0.14529,-0.59158 -0.52121,-1.47252 -0.83509,-1.95771 -0.49683,-0.76804 -0.68238,-0.82071 -1.43302,-0.40741 -0.47429,0.26107 -1.82544,0.67422 -3.0027,0.91817 -2.40778,0.49866 -2.33544,0.30873 -1.80727,4.74928 0.27301,2.29489 0.24381,2.43232 -0.51787,2.43232 -0.94132,0 -1.58966,-1.36553 -1.75553,-3.69704 -0.49548,-6.96714 -0.63274,-7.59111 -1.80364,-8.19661 -0.61625,-0.31857 -1.12036,-0.75624 -1.12036,-0.97234 0,-0.69935 6.42551,-3.14602 9.63069,-3.66707 1.3233,-0.21521 1.70073,-0.14378 1.89203,0.35397 0.38606,1.0061 -1.54108,2.65901 -3.68039,3.15676 -0.96265,0.22383 -3.29978,1.11627 -3.85457,1.47175 -0.367,0.23504 -0.38168,0.51002 -0.059,1.11204 0.37789,0.70614 0.65998,0.7691 2.40885,0.5371 1.08948,-0.14377 2.94957,-0.72098 4.13349,-1.28123 l 2.15278,-1.01835 2.12085,1.15305 c 2.30306,1.25232 4.89942,4.01938 5.30046,5.64913 0.19432,0.78953 0.0197,1.2549 -0.7691,2.04307 z m -3.37105,-4.78138 c -0.65605,-0.70417 -0.89835,-0.7803 -1.16152,-0.36518 -0.5424,0.85597 -0.39332,2.67067 0.23942,2.91341 1.69619,0.65091 2.31351,-1.05468 0.9221,-2.54823 z m 3.31218,-137.28362 c -0.0333,0.0394 -0.16995,1.73508 -0.3051,3.76846 -0.13469,2.03324 -0.44554,4.74763 -0.6901,6.03188 -0.24441,1.28425 -0.45643,4.91788 -0.47097,8.07494 -0.0227,4.98885 -0.10744,5.74009 -0.64847,5.74009 -0.34203,0 -1.04651,-0.45189 -1.56544,-1.00412 -0.81602,-0.86838 -0.96221,-1.45315 -1.08268,-4.32933 -0.0771,-1.82892 0.0651,-5.0108 0.31328,-7.07096 0.24879,-2.06 0.53195,-4.446 0.6291,-5.30213 0.25047,-2.20756 0.99294,-11.11576 1.22433,-14.69066 0.10745,-1.65882 0.35806,-3.01587 0.55708,-3.01587 0.93677,0 1.8666,3.57339 1.98162,7.61608 0.0635,2.26054 0.0908,4.14227 0.0575,4.18162 z m -0.79513,-41.85992 c -0.10744,0.26757 -0.42965,0.48639 -0.71492,0.48639 -0.55465,0 -2.39371,-2.16911 -3.46413,-4.08611 -0.35851,-0.64213 -1.1662,-1.86797 -1.79456,-2.72409 -1.62431,-2.21271 -5.07724,-9.4067 -6.81747,-14.20411 -0.8151,-2.24738 -1.71511,-4.3425 -1.99978,-4.65592 -0.61973,-0.68238 -0.56782,-1.30151 -0.51788,6.18169 0.0363,5.47814 -0.45084,11.29618 -1.24157,14.81872 -0.21612,0.96311 -0.48156,2.50812 -0.58992,3.43325 -0.11956,1.02123 -0.43389,1.77292 -0.80042,1.91366 -0.77879,0.29875 -2.5272,-1.68998 -2.25373,-2.56366 0.11047,-0.35367 0.28875,-1.2558 0.39574,-2.00492 0.10746,-0.74912 0.47248,-2.76298 0.81224,-4.47537 0.43918,-2.21362 0.67739,-6.40235 0.82449,-14.4956 0.19871,-10.93795 0.176,-11.43464 -0.58326,-12.72132 -0.54678,-0.92663 -0.64848,-1.38716 -0.33052,-1.49522 0.66907,-0.22746 2.96819,0.9952 2.97939,1.58451 0.0212,1.08495 2.92945,9.37933 4.46402,12.72889 0.29419,0.64213 2.06938,4.30193 3.94491,8.13275 2.9511,6.02823 3.45506,6.8432 3.74577,6.05744 0.18479,-0.49941 0.24185,-1.15318 0.12713,-1.45269 -0.11502,-0.29964 -0.31629,-4.40377 -0.44751,-9.12022 -0.18751,-6.73998 -0.13167,-8.64109 0.25803,-8.88232 0.38849,-0.24018 0.35579,-0.44782 -0.14981,-0.95389 -0.70646,-0.70629 -0.84509,-1.59026 -0.30209,-1.92593 0.33674,-0.20809 -0.32037,-2.66218 -0.85641,-3.19822 -0.32992,-0.32992 -0.35202,-3.35335 -0.0303,-4.19115 0.31599,-0.82329 1.2844,-0.78348 1.59056,0.0651 0.13469,0.37456 0.55964,1.13488 0.94344,1.68968 1.02077,1.476 1.5326,5.46452 1.71723,13.38131 0.0893,3.85745 0.4304,10.15901 0.75669,14.00329 0.62684,7.38514 0.64682,7.90226 0.33551,8.67379 z m -3.25437,224.31987 c -0.89062,0.89063 -1.40442,1.12036 -2.1095,0.9433 -1.86615,-0.46839 -2.16141,-0.0166 -2.16141,3.30945 0,2.49299 -0.11199,3.07156 -0.5934,3.07156 -0.32643,0 -0.78558,-0.48156 -1.02031,-1.07011 -0.59885,-1.50067 -1.52942,-5.76204 -1.76354,-8.07494 -0.10897,-1.07026 -0.35595,-2.11223 -0.55027,-2.31547 -0.19432,-0.2034 -0.35322,-1.03772 -0.35322,-1.85419 0,-1.25732 0.19371,-1.60267 1.26472,-2.25569 2.20213,-1.34267 3.46989,-1.05361 5.56562,1.26897 1.8156,2.01204 2.89856,3.94523 2.89856,5.17379 0,0.34429 -0.52983,1.15592 -1.17725,1.80333 z m -4.05631,-5.89747 c -1.11884,-1.07648 -1.53774,-1.26943 -2.05184,-0.94512 -0.95978,0.60552 -1.01896,1.19951 -0.14226,1.42879 0.45673,0.11955 0.87732,0.66074 1.02139,1.31437 0.13469,0.6111 0.3122,1.33011 0.39468,1.59767 0.20945,0.68011 1.5547,0.60686 2.28597,-0.12409 0.74457,-0.74459 0.44659,-1.39096 -1.50794,-3.27133 z m 0.65348,-185.58524 c -0.58447,0.2282 -2.59106,0.78271 -4.45887,1.23203 l -3.39618,0.81693 0.19099,6.24677 c 0.2821,9.22026 0.54331,14.63604 0.77999,16.17016 0.11502,0.74912 0.23821,2.54792 0.27241,3.99728 0.053,2.24132 -0.0651,2.76268 -0.78983,3.48728 -1.16152,1.16152 -1.74402,0.50592 -1.88749,-2.12433 -0.0621,-1.12883 -0.29782,-3.62863 -0.52484,-5.55485 -0.66906,-5.6776 -0.82538,-8.18299 -0.95902,-15.3717 l -0.12713,-6.81021 -3.0593,-0.45159 c -5.2894,-0.78075 -6.36708,-1.00413 -6.36708,-1.31982 0,-0.55087 2.46091,-0.89531 5.93472,-0.83084 2.4777,0.0454 3.40662,-0.0681 3.411,-0.41845 0,-0.26485 0.17964,-0.74428 0.39196,-1.06542 0.32781,-0.49563 0.49624,-0.4416 1.11566,0.35791 l 0.72961,0.94163 3.53601,-0.68344 c 1.94469,-0.37577 4.05223,-0.56995 4.68315,-0.43131 1.58905,0.34897 1.861,1.28969 0.52378,1.81197 z m -1.19814,59.27648 c -0.3956,0.12561 -0.91318,0.65378 -1.15018,1.17393 -0.73322,1.60918 -3.10833,2.00099 -7.19854,1.1874 -3.56476,-0.70903 -4.22777,-0.63395 -3.38345,0.38349 0.33006,0.39756 0.6394,2.9971 0.90394,7.59792 0.26469,4.60204 0.54936,6.99333 0.8322,6.99333 0.41224,0 4.44267,-1.31634 7.13544,-2.33031 0.70644,-0.26604 1.36401,-0.40437 1.46101,-0.30736 0.32598,0.32598 -1.13518,2.82456 -2.11147,3.61062 -1.43195,1.15275 -3.54418,2.12963 -5.16516,2.38887 -1.74402,0.27891 -1.95181,0.86247 -1.47675,4.1465 0.49381,3.41388 0.45704,10.53418 -0.0575,11.04828 -0.75336,0.7532 -1.71965,0.11653 -2.55458,-1.68439 -0.68027,-1.46692 -0.75457,-2.03398 -0.44403,-3.38271 0.31948,-1.38746 0.10896,-14.40768 -0.29602,-18.35396 -0.0666,-0.64213 -0.14226,-3.65904 -0.17101,-6.70442 -0.0287,-3.04537 -0.21368,-5.63764 -0.4127,-5.76053 -0.19885,-0.12258 -0.0302,-0.57962 0.37547,-1.01472 0.67452,-0.72415 0.81451,-0.7417 1.6499,-0.20763 0.50214,0.32099 2.22632,0.79073 3.83157,1.04392 2.7887,0.43995 4.93876,0.27408 8.07493,-0.62274 1.05483,-0.30178 1.20511,0.46156 0.15633,0.79451 z m -5.0951,170.0791 c -0.18221,0.4281 -0.86399,1.2823 -1.51505,1.8981 -1.08918,1.0305 -1.16575,1.2712 -0.95902,3.016 0.18917,1.5977 0.12258,1.8961 -0.42178,1.8961 -0.35549,0 -0.83645,-0.4815 -1.0689,-1.07 -0.23261,-0.5887 -0.58901,-1.3904 -0.7924,-1.7818 -0.25137,-0.4838 -0.21521,-0.8975 0.11349,-1.2931 0.2656,-0.32 0.44403,-1.33 0.39666,-2.2446 -0.10594,-2.0451 0.54316,-2.6795 2.78629,-2.7236 1.35886,-0.027 1.64595,0.098 1.71254,0.7464 0.0439,0.428 -0.0696,1.1286 -0.25138,1.5565 z m -1.89097,-1.362 c -0.617,0 -1.24535,0.9531 -1.24535,1.8894 0,0.9306 0.0197,0.9371 0.77833,0.251 0.76364,-0.691 1.07979,-2.1404 0.46702,-2.1404 z m -5.00716,6.7454 c -0.60036,0.6002 -1.32814,0.1644 -2.1611,-1.2942 -0.95389,-1.6701 -1.47101,-1.9755 -1.47101,-0.868 0,0.7993 -1.04575,2.4216 -1.56106,2.4216 -0.46611,0 -2.33045,-1.8821 -2.33045,-2.3526 0,-0.2043 -0.19158,-0.3715 -0.42571,-0.3715 -0.28815,0 -0.33748,0.6407 -0.153,1.9824 0.24682,1.7948 0.2046,1.9691 -0.44705,1.8436 -1.0739,-0.2068 -1.55273,-3.6571 -0.7682,-5.5347 0.81284,-1.9457 1.63415,-1.7778 2.64675,0.5414 0.46734,1.07 0.97749,1.9456 1.13367,1.9456 0.23806,0 1.19406,-2.298 1.75068,-4.208 0.19205,-0.6596 0.87958,-0.2298 1.34494,0.8409 0.36654,0.843 0.76607,1.5205 2.01991,3.4256 0.76198,1.1576 0.78878,1.2608 0.42163,1.6279 z m -5.97043,-43.51838 c -0.48141,0.29753 -1.94243,-0.12863 -1.94243,-0.5666 0,-0.39363 1.57453,-0.83252 2.0134,-0.56117 0.43963,0.27165 0.40423,0.83402 -0.0712,1.12777 z m -1.98466,-231.35451 c -0.16874,0.74912 -0.42737,3.05414 -0.57477,5.12233 -0.32069,4.50321 -0.50608,4.92908 -1.87387,4.30587 -1.41969,-0.64697 -1.57845,-1.86812 -1.04045,-8.00805 0.58961,-6.73076 0.58053,-13.63933 -0.0318,-23.90065 -0.37607,-6.30428 -0.37259,-7.98337 0.0166,-8.36671 0.38758,-0.38108 0.62958,-0.30631 1.17817,0.36456 1.11128,1.35887 2.26432,12.98889 2.27658,22.96039 0,3.03296 0.0848,5.65974 0.18115,5.83741 0.0953,0.17752 0.0363,0.93572 -0.13167,1.68485 z m -2.33014,66.35092 c -0.67103,3.24939 -0.97249,3.89757 -1.74962,3.76363 -1.70951,-0.29451 -1.82437,-0.81465 -1.40154,-6.34878 0.21838,-2.85877 0.33839,-6.42384 0.26681,-7.92208 -0.34248,-7.15814 -0.27483,-15.92742 0.12409,-16.06029 0.71356,-0.2379 2.33561,2.72045 2.72454,4.96949 0.45311,2.61905 0.4811,19.44314 0.0363,21.59803 z m -2.19561,208.51317 c -0.11653,1.1382 -0.3042,1.4538 -0.80769,1.3568 -0.5601,-0.1075 -0.65922,-0.6809 -0.67664,-3.9153 -0.0151,-2.652 0.11654,-3.7888 0.43632,-3.7888 0.2544,0 0.57145,0.8641 0.71552,1.9504 0.14226,1.0728 0.30948,2.1673 0.37138,2.4322 0.0621,0.2649 0.0439,1.149 -0.0393,1.9647 z m -1.36659,-92.09874 c -0.69553,0.65045 -1.96527,1.53881 -2.82139,1.9739 -3.95734,2.01174 -4.86445,2.55095 -4.86445,2.89177 0,0.6329 1.87841,2.27628 2.60922,2.28248 0.38424,0 0.9501,0.16511 1.25731,0.35943 0.4631,0.29314 0.47157,0.4587 0.0499,0.96705 -0.52758,0.63561 -2.22755,0.81495 -2.99121,0.31553 -0.82434,-0.53937 -2.48148,-3.31324 -2.48148,-4.15392 0,-0.46249 -0.20673,-1.04741 -0.45916,-1.29985 -0.34747,-0.34747 -0.35065,-0.6742 -0.0152,-1.34267 0.24502,-0.48594 0.59719,-1.49627 0.78258,-2.24539 0.27937,-1.12943 0.49775,-1.34676 1.27835,-1.27214 2.80899,0.26846 5.05211,0.2665 6.87604,0 1.12368,-0.168 2.04306,-0.15846 2.04306,0.0212 0,0.17949 -0.56917,0.85839 -1.26488,1.50899 z m -7.45082,0.91424 c -0.57431,0.57432 0.33583,1.33253 1.19815,0.99822 0.67421,-0.2612 0.67179,-0.3001 -0.0499,-0.83144 -0.50668,-0.37291 -0.88654,-0.42814 -1.1479,-0.16678 z m 6.44942,-47.47547 c -1.93424,0 -2.85877,-1.69316 -2.81745,-5.15986 0.0182,-1.54971 0.12863,-3.34306 0.24472,-3.98518 0.11652,-0.64213 0.31053,-7.1654 0.4319,-14.49606 0.12107,-7.33065 0.35308,-13.32848 0.51501,-13.32848 0.64501,0 1.10462,1.12929 1.84179,4.52651 0.80208,3.69583 0.79527,3.36637 0.50924,24.27082 -0.0454,3.31764 0.0393,6.51359 0.18766,7.10214 0.25047,0.99203 0.18387,1.07011 -0.91287,1.07011 z m -6.11208,-128.02235 c -0.49291,0.40907 -0.75245,0.34611 -1.51111,-0.36669 -0.69661,-0.65438 -1.12081,-1.85706 -1.77035,-5.01882 -1.10371,-5.3722 -1.98722,-8.72917 -2.4258,-9.21602 -0.22201,-0.24623 -1.01729,0.33793 -2.17987,1.60145 -1.0067,1.09403 -2.23919,2.20198 -2.73891,2.46227 -1.47388,0.76729 -1.93274,2.50904 -1.81243,6.88027 0.059,2.16731 0.2199,4.2918 0.3561,4.72114 0.4416,1.39111 -0.9227,1.43409 -2.32667,0.0727 l -1.25292,-1.21433 -0.0379,-9.20845 c -0.0379,-9.31229 -0.0923,-10.37861 -0.78439,-15.62959 -0.21157,-1.60524 -0.50516,-5.21495 -0.65211,-8.02166 -0.28952,-5.52551 -0.0999,-6.15265 1.53835,-5.07935 0.79483,0.5209 0.92694,1.01486 1.17922,4.41149 0.15634,2.10375 0.44977,5.05091 0.65211,6.54915 0.60096,4.4504 0.64546,4.89125 0.90076,8.92546 0.1347,2.12645 0.32463,3.94644 0.42255,4.0442 0.28981,0.28981 1.35235,-0.74837 2.55534,-2.49692 1.06693,-1.55076 1.65443,-3.0248 2.62298,-6.58124 0.63396,-2.32817 1.60525,-9.74479 1.68182,-12.84208 0.0363,-1.49824 0.14831,-2.94292 0.24593,-3.21048 0.23942,-0.65166 1.25293,-0.6161 2.01173,0.0712 0.53347,0.48276 0.57872,1.32647 0.33946,6.32365 -0.15181,3.17173 -0.46446,7.75909 -0.6945,10.19428 -0.36684,3.88075 -0.34096,4.54558 0.20855,5.38429 0.6562,1.00156 2.36753,7.08656 2.93156,10.42416 0.18085,1.07027 0.50623,2.64629 0.72309,3.50241 0.54209,2.14037 0.50895,2.74361 -0.18236,3.31733 z m -0.78045,61.87739 c -0.53619,0.44508 -7.27996,2.55262 -9.52067,2.9753 -1.40124,0.26439 -3.2232,-1.70981 -3.18339,-3.44899 0.42314,-18.47004 0.43615,-30.81255 0.0333,-31.2985 -0.7464,-0.8994 -0.0969,-1.0804 1.37354,-0.38257 1.66366,0.78937 1.94303,1.69332 2.53688,8.21052 0.39666,4.35081 0.26999,15.03877 -0.18691,15.77805 -0.11198,0.18054 -0.26816,2.10511 -0.34792,4.27651 -0.14226,3.88907 -0.13318,3.94431 0.69056,3.68765 0.45946,-0.14378 2.10345,-0.57387 3.65315,-0.95691 1.54954,-0.38305 3.09516,-0.92695 3.4346,-1.20874 0.5132,-0.42587 0.68012,-0.41799 0.98976,0.0469 1.03681,1.55484 1.10249,1.84405 0.52755,2.32122 z M 170.6664,963.509 c -0.53725,1.77308 -0.74549,6.53069 -0.34884,7.96719 0.46552,1.6859 -0.11804,2.65084 -1.37657,2.27794 -2.1098,-0.62503 -5.29697,-3.20852 -7.26165,-5.88614 -1.1314,-1.54198 -2.17684,-2.72968 -2.32318,-2.63933 -0.1468,0.0908 -0.37275,1.30741 -0.5032,2.7044 -0.13015,1.39685 -0.43601,2.91144 -0.67921,3.36577 -0.41012,0.76637 -0.48807,0.77968 -1.08191,0.18583 -0.49412,-0.49411 -0.62972,-1.33494 -0.59491,-3.68916 0.0242,-1.67697 0.21233,-3.3479 0.41678,-3.71322 0.46325,-0.82767 -0.27407,-3.41692 -0.90394,-3.17523 -0.24063,0.0923 -1.29167,0.27725 -2.3356,0.41088 -4.55859,0.58356 -4.42785,0.52923 -4.42785,1.8365 l 0,1.20343 2.14038,-0.25153 c 1.94439,-0.22851 2.14037,-0.18251 2.14037,0.50245 0,1.29711 -1.11505,2.04018 -2.87119,1.91336 -1.85827,-0.13469 -2.28292,0.62851 -1.23809,2.223 0.49261,0.752 0.95782,0.95374 2.19834,0.95374 1.4869,0 1.5668,0.059 1.45042,1.07026 -0.18267,1.58738 -2.13764,1.70058 -3.72503,0.21565 -1.59601,-1.4931 -2.1826,-3.53419 -1.88778,-6.56882 l 0.24062,-2.4768 -1.24067,-0.32144 c -1.37143,-0.35534 -1.96301,-1.25126 -0.83947,-1.27123 0.39241,0 2.81488,-0.1014 5.3834,-0.20885 2.56834,-0.10745 5.15758,-0.21444 5.75385,-0.237 1.27685,-0.0485 2.86135,1.55606 5.57621,5.64612 1.83466,2.76419 3.88469,4.89941 4.7225,4.91908 0.29828,0.0152 0.48655,-0.51303 0.48655,-1.34343 0,-0.74517 0.20869,-2.57199 0.4637,-4.05948 0.36276,-2.11524 0.36018,-2.93187 -0.0152,-3.74773 -0.58129,-1.27578 -0.0303,-2.14385 1.16227,-1.83195 0.62957,0.16466 2.024,2.35014 1.85435,2.90645 -0.0182,0.0605 -0.17101,0.56418 -0.33915,1.11929 z m -1.69106,-126.5754 c -0.30024,0.24925 -2.39825,0.56645 -4.66211,0.70508 -2.26372,0.13772 -4.32054,0.3782 -4.57056,0.53271 -0.34596,0.21384 -0.34686,0.82782 0,2.56941 0.24773,1.25853 0.5486,2.55095 0.66862,2.8721 0.11955,0.32098 0.25893,1.02152 0.30857,1.55651 0.0499,0.53513 0.39908,3.42462 0.77652,6.42111 0.37728,2.99649 0.75896,6.32381 0.84794,7.39392 0.0893,1.07026 0.31251,2.80459 0.49669,3.85443 0.18418,1.04967 0.3101,3.411 0.27968,5.24734 -0.0454,2.77296 -0.16451,3.36 -0.70071,3.46398 -1.52078,0.29495 -2.81261,-2.43428 -2.67473,-5.65158 0.0666,-1.56892 -0.30525,-5.39761 -1.21177,-12.45723 -0.22655,-1.76444 -0.46143,-3.77845 -0.52182,-4.47536 -0.34277,-3.95764 -0.74352,-6.57034 -1.03529,-6.75073 -0.18252,-0.11199 -0.33174,-0.79725 -0.33174,-1.52109 0,-0.72386 -0.19931,-1.43923 -0.44281,-1.58981 -0.24365,-0.15134 -1.83286,-0.237 -3.53177,-0.19205 -3.16115,0.0832 -4.49474,-0.36276 -5.62251,-1.88158 -0.69025,-0.92967 -0.18493,-1.30893 1.40502,-1.05467 1.38656,0.22171 6.45502,-0.52667 7.36168,-1.08707 0.24275,-0.14983 0.44115,-0.61261 0.44115,-1.02803 0,-0.98568 1.04423,-0.9784 1.35781,0.0152 0.28874,0.90969 1.22659,1.09069 6.74256,1.30105 2.86784,0.10896 4.17934,0.31812 4.59219,0.73097 0.49458,0.49456 0.49911,0.64318 0.0318,1.03106 z m -2.47286,81.13393 c -0.14527,0.14528 -1.28455,0.26302 -2.5331,0.26302 -1.24853,0 -2.27006,0.0969 -2.27006,0.21641 0,0.11956 0.87004,1.29167 1.93335,2.60589 3.15947,3.90467 3.0599,7.12923 -0.24851,8.0427 -1.46373,0.40423 -4.79802,-0.11502 -4.79802,-0.74776 0,-0.35579 1.40064,-0.76486 2.64449,-0.77227 1.16409,0 2.80369,-1.66381 2.80369,-2.83336 0,-0.54027 -0.71462,-1.70754 -1.73827,-2.83894 -1.38581,-1.532 -1.74085,-2.21271 -1.75113,-3.35879 -0.0152,-1.74509 1.04816,-2.64872 3.11892,-2.64872 1.3976,0 3.42825,1.48219 2.83864,2.07182 z m -2.54959,89.90817 c -0.49034,0.1317 -1.91125,0.2413 -3.15767,0.2441 -1.95028,0 -2.24797,-0.09 -2.13506,-0.6756 0.11046,-0.5755 0.5778,-0.681 3.01207,-0.681 2.86876,0 4.13259,0.6164 2.28066,1.1125 z m -8.41272,-78.35958 c -1.13398,0 -1.5208,-0.92044 -1.8044,-4.2927 -0.13469,-1.59874 -0.33204,-3.47593 -0.43888,-4.17148 -0.1468,-0.95736 -0.0499,-1.26473 0.39711,-1.26473 1.15471,0 1.72071,1.79638 2.42126,7.68584 0.22534,1.89385 0.18326,2.04307 -0.57509,2.04307 z m -4.31479,-125.87548 c -0.50426,3.06763 -2.83547,5.77597 -6.0178,6.99137 -1.43046,0.54618 -1.97482,0.58325 -3.10304,0.21081 -1.77837,-0.58689 -3.96778,-3.03478 -4.60914,-5.15321 -0.72658,-2.39977 -0.58825,-18.77769 0.1981,-23.46858 0.32279,-1.92638 0.47142,-3.54887 0.32991,-3.60577 -1.16408,-0.46809 -2.10782,-1.1305 -2.06999,-1.4533 0.0242,-0.21398 0.6441,-0.44235 1.37581,-0.50759 0.93042,-0.0832 1.38973,-0.34595 1.5282,-0.87548 0.26303,-1.0058 1.1588,-0.96357 1.63794,0.0771 0.28193,0.61215 1.09008,1.00927 3.03644,1.49218 3.59382,0.89169 4.78833,2.11919 5.94743,6.11193 0.82342,2.83685 1.58238,7.51531 1.38821,8.55772 -0.0469,0.25152 0.0938,0.56827 0.31434,0.70402 0.44009,0.27196 0.47217,8.31193 0.0439,10.91888 z m -3.28706,-19.47385 c -0.53408,-3.51346 -2.47892,-5.25354 -5.87191,-5.25354 l -1.77051,0 -0.0727,2.04306 c -0.0953,2.68715 -0.2332,4.42482 -0.4991,6.32365 -0.11956,0.85612 -0.23049,4.44616 -0.24593,7.97778 -0.0227,5.3439 0.10744,6.91054 0.775,9.33967 0.4416,1.60524 0.80709,3.04991 0.81208,3.21048 0.0242,0.76547 2.72802,0.21112 4.21128,-0.86338 1.83421,-1.32875 2.31562,-2.0874 2.64251,-4.16482 0.12864,-0.8195 0.32009,-1.5777 0.42481,-1.68469 0.31448,-0.3213 -0.0227,-14.41251 -0.40528,-16.92821 z m 0.0151,143.72502 c -1.84677,1.82377 -2.17821,2.00568 -3.05052,1.6741 -1.35341,-0.51455 -3.03963,-2.62177 -3.10001,-3.87395 -0.14074,-2.92627 0.18962,-4.97312 1.01367,-6.26963 1.36688,-2.1502 2.30048,-2.81942 3.73728,-2.67853 1.78398,0.17494 1.98269,1.09766 0.23639,1.09766 -1.06285,0 -1.61386,0.29572 -2.56199,1.3755 -1.02123,1.16334 -1.20754,1.68879 -1.20632,3.4051 0.002,2.29157 1.11309,4.56149 2.23057,4.55528 0.37759,0 1.606,-0.43191 2.72968,-0.95495 1.12368,-0.52316 2.04306,-0.82191 2.04306,-0.66406 0,0.158 -0.93224,1.20813 -2.07181,2.33348 z m 0.30615,-54.93839 c -0.32901,0.12561 -0.95797,-0.0953 -1.39775,-0.49397 -0.83797,-0.75851 -2.61285,-4.32099 -3.45747,-6.9402 -0.27271,-0.84553 -0.8988,-2.44866 -1.39125,-3.56234 -1.03334,-2.33636 -1.87522,-2.75057 -5.99736,-2.95004 -2.33408,-0.1135 -2.52281,-0.0621 -2.44305,0.6559 1.09902,9.90461 1.26503,12.72056 0.78559,13.32848 -0.57281,0.72642 -0.95585,0.60399 -2.08862,-0.66709 -0.98959,-1.11083 -1.03121,-1.34601 -1.11777,-6.32382 -0.0923,-5.3003 -0.1907,-6.63298 -1.25913,-17.03928 -0.34051,-3.31762 -0.67573,-8.00729 -0.74489,-10.42174 l -0.12562,-4.3897 0.99264,-0.37744 c 1.98828,-0.75594 3.50423,-0.44977 5.47964,1.10674 1.03575,0.81616 2.93413,1.98449 4.21823,2.5962 3.43175,1.6346 3.72897,1.96527 3.4664,3.8564 -0.2883,2.07787 -0.85537,3.57232 -2.08166,5.48659 -1.02273,1.59662 -1.54773,2.23602 -4.31463,5.25613 -1.83331,2.00113 -2.85151,3.74137 -2.51115,4.29208 0.12863,0.20779 0.84598,0.37775 1.5948,0.37775 3.24074,0 7.25226,1.71344 8.51169,3.63559 1.00912,1.54001 4.47975,10.80205 4.47975,11.95494 0,0.21414 -0.26923,0.4926 -0.59824,0.61882 z m -9.79022,-34.07827 c -1.54001,-0.77712 -3.20367,-1.78231 -3.69703,-2.2336 -1.06329,-0.97295 -3.1613,-2.07924 -3.94326,-2.07924 -0.86899,0 -1.57906,1.02654 -0.89228,1.29017 0.30599,0.11804 0.73655,0.96962 0.9569,1.89384 0.2202,0.92421 0.6736,2.81867 1.00746,4.20991 0.334,1.39125 0.73973,4.19312 0.90167,6.2265 0.16178,2.03338 0.46748,3.68841 0.67921,3.67796 0.61623,-0.0302 5.55772,-6.04805 6.45379,-7.85928 0.44948,-0.90847 0.98702,-1.75672 1.19482,-1.88521 0.20778,-0.12863 0.32401,-0.59218 0.25817,-1.03076 -0.0817,-0.54906 -0.99171,-1.23765 -2.91945,-2.21029 z m 9.23933,-93.16377 c -1.36552,2.24539 -4.12063,3.62605 -7.23607,3.62605 -1.95423,0 -2.24419,-0.12258 -3.66722,-1.54532 -3.0838,-3.08366 -4.92695,-8.3316 -5.87917,-16.73903 -0.65968,-5.82454 -0.27271,-13.58198 0.81556,-16.34903 0.46263,-1.17635 1.02623,-2.25312 1.25217,-2.39295 0.2261,-0.13924 0.30343,-0.53438 0.17207,-0.87702 -0.13166,-0.34262 -0.0696,-0.6229 0.13771,-0.6229 0.20734,0 0.3835,-0.21899 0.39167,-0.48655 0,-0.26756 0.71098,-0.96796 1.5618,-1.55651 3.3031,-2.28505 6.75285,-1.0792 9.06469,3.16826 1.05725,1.94257 1.09009,2.76631 0.11048,2.76631 -0.57524,0 -2.57941,-2.00493 -2.57941,-2.58032 0,-0.21853 -0.42434,-0.79588 -0.94299,-1.28304 -0.93344,-0.877 -0.95509,-0.87866 -2.1617,-0.16587 -2.41838,1.42848 -4.42906,5.71468 -4.90245,10.45019 -0.34686,3.47184 0.45175,13.61739 1.38248,17.56079 1.08858,4.61249 2.66703,7.69327 4.02483,7.85611 1.22886,0.1468 4.15619,-1.49249 5.48645,-3.07337 1.09448,-1.3006 1.80426,-1.42273 2.63661,-0.45356 1.03001,1.19936 1.06602,1.49144 0.33249,2.69776 z m -3.22879,222.63155 c -0.74217,0.60429 -6.17595,1.206 -7.25347,0.8033 -0.51122,-0.19115 -0.99702,-0.27983 -1.07965,-0.19735 -0.0817,0.0832 0.11653,1.17499 0.44312,2.42761 0.71824,2.75723 0.72309,2.89222 0.10291,2.89222 -0.6049,0 -2.44986,-3.96566 -3.21926,-6.91978 -1.03591,-3.97685 -0.64666,-5.46904 1.65442,-6.34408 1.05498,-0.40104 5.16638,-0.48201 6.1089,-0.12107 1.15017,0.44146 0.62125,1.66003 -1.52473,3.51255 -3.10212,2.67823 -2.92913,2.97182 1.55667,2.64252 3.1619,-0.23215 3.69687,-0.18615 3.69687,0.31795 0,0.32418 -0.21882,0.76774 -0.48639,0.98551 z m -5.64279,-6.52646 c -1.70966,7.6e-4 -4.14135,1.10765 -4.27272,1.94515 -0.0499,0.32099 0.16587,0.92089 0.48065,1.33283 0.50259,0.65787 0.68874,0.68707 1.52458,0.23972 1.36294,-0.72945 3.72684,-2.73225 3.72684,-3.15751 0,-0.19841 -0.65681,-0.36065 -1.45935,-0.36019 z m 4.58675,50.38603 c -0.40786,0.252 -1.41531,-0.6404 -2.36905,-2.0985 -0.56539,-0.8645 -0.696,-0.8923 -2.06363,-0.4408 -0.80316,0.265 -1.87024,0.3789 -2.37132,0.2532 -0.78166,-0.1963 -0.99989,0 -1.53593,1.3328 -0.34368,0.8589 -0.62487,1.9872 -0.62487,2.5073 0,2.1224 -3.12347,1.7685 -3.67176,-0.416 l -0.26061,-1.0383 -2.86694,0.2598 c -2.90417,0.2632 -4.42815,-0.2639 -2.26447,-0.783 1.69468,-0.4067 3.22653,-1.2878 3.22653,-1.8559 0,-0.7015 -1.4362,-2.1054 -3.82992,-3.7437 -2.37101,-1.6228 -2.52067,-2.4655 -0.74261,-4.1805 1.38399,-1.3351 2.92204,-2.0459 4.42618,-2.0459 1.44724,0 0.77636,0.6403 -0.96206,0.9182 -0.83296,0.1331 -1.73387,0.5065 -2.00205,0.8294 -0.26801,0.323 -0.70977,0.5872 -0.98173,0.5872 -0.71582,0 -0.98974,0.9984 -0.4537,1.6537 0.25288,0.3091 1.16016,0.9665 2.01642,1.4611 2.27431,1.3135 4.01575,3.0731 4.29361,4.3382 0.26575,1.21 1.1594,1.5232 1.21994,0.4275 0.0212,-0.3746 0.90273,-2.5725 1.95998,-4.8846 1.37989,-3.017 2.20634,-4.3506 2.92854,-4.7253 0.93496,-0.4851 1.08509,-0.4356 2.12371,0.7009 2.17639,2.3818 3.68977,4.5766 3.49878,5.0743 -0.10593,0.2774 0.22762,1.5382 0.74246,2.8018 1.0571,2.5953 1.08479,2.7456 0.5645,3.0671 z m -4.5123,-8.0129 c -0.33369,-0.6452 -0.81359,-1.1041 -1.06647,-1.0198 -0.49366,0.1646 -1.44754,3.0116 -1.1715,3.4961 0.31962,0.5608 2.03095,0.286 2.42413,-0.3893 0.50637,-0.8691 0.51939,-0.7227 -0.18616,-2.087 z m -3.65601,-76.69718 c -2.08378,0.48096 -2.87451,0.34611 -4.10428,-0.70038 -0.42799,-0.36442 -1.1078,-0.7794 -1.51036,-0.92241 -0.68208,-0.24213 -0.71401,-0.0999 -0.46717,2.08241 0.26105,2.3076 0.25061,2.34226 -0.70418,2.34226 -0.53317,0 -1.07026,-0.1633 -1.19375,-0.36306 -0.29906,-0.48398 -0.92619,-3.53344 -1.35539,-6.59015 -0.19129,-1.36297 -0.51969,-2.64994 -0.7299,-2.86015 -0.75185,-0.75184 -6.63404,-0.11653 -6.96745,0.75245 -0.39166,1.02063 0.46567,1.3628 2.22649,0.88866 1.23901,-0.33354 1.76551,-0.33415 2.09254,0 0.66801,0.67799 -1.7932,2.72635 -3.27585,2.72635 -0.91106,0 -1.25868,0.23079 -1.56635,1.03999 -0.68829,1.81061 -0.29224,2.07333 3.12664,2.07333 1.7363,0 3.12543,0.16587 3.12543,0.37336 0,0.20536 -0.47989,0.81828 -1.06618,1.36204 -0.81813,0.75866 -1.47947,0.98869 -2.84242,0.98869 -1.5102,0 -1.96876,-0.19886 -3.06278,-1.32769 -1.27063,-1.31088 -1.28365,-1.36098 -1.03031,-3.98881 0.43858,-4.55134 0.38607,-5.52807 -0.34035,-6.33077 -0.37668,-0.41618 -0.55784,-0.96205 -0.40257,-1.21328 0.30601,-0.49517 0.62957,-0.45598 6.40962,0.77652 4.28937,0.91454 4.66983,0.9451 4.66983,0.37441 0,-0.6842 1.6511,-1.86524 2.97531,-2.12827 1.54575,-0.3069 3.04159,0.61262 3.59942,2.21302 0.50849,1.45875 0.0152,2.35951 -1.77943,3.2126 -0.71114,0.33915 -1.29288,0.78711 -1.29288,0.99566 0,0.67798 3.4343,2.41232 5.30788,2.68034 2.46014,0.35186 2.52643,0.99852 0.15844,1.54515 z m -4.37669,-8.40576 c -1.58193,-1.58192 -3.941,1.31423 -3.26481,4.00835 0.3122,1.24368 1.00776,1.26563 1.00776,0.0318 0,-0.65591 0.41285,-1.19633 1.36204,-1.78291 1.4321,-0.88518 1.6691,-1.48298 0.89501,-2.25721 z m 2.96607,-135.89282 c -1.09115,6.84244 -1.26548,7.37318 -3.45277,10.50618 -1.41668,2.02944 -2.59439,3.45474 -4.47325,5.41336 l -1.3407,1.39791 -0.053,6.61559 c -0.0453,5.66018 -0.16102,6.83638 -0.79967,8.14424 -0.86156,1.76445 -1.27654,1.99418 -2.27884,1.26125 -0.67905,-0.49654 -0.69268,-0.74988 -0.22565,-4.18873 0.27331,-2.01309 0.42889,-5.73102 0.3455,-8.26214 -0.12711,-3.86881 -0.25923,-4.66242 -0.82872,-4.98098 -0.84749,-0.47445 -0.88033,-1.1187 -0.0575,-1.1187 0.51394,0 0.57947,-0.31704 0.38243,-1.84859 -0.26923,-2.09134 -1.31438,-12.85388 -1.6629,-17.12282 -0.49321,-6.04035 2.05562,-1.79125 3.32656,5.54547 0.35201,2.03247 0.64243,4.75444 1.02228,9.58302 0.056,0.70357 0.26499,1.33404 0.46598,1.40109 0.6229,0.20764 1.95876,-1.51853 3.53117,-4.563 1.90201,-3.68265 2.38492,-5.37157 2.47377,-8.65289 0.0605,-2.24616 -0.10443,-2.96955 -1.15396,-5.05908 -1.39761,-2.78129 -2.08105,-3.65602 -3.81205,-4.87868 -1.77596,-1.25444 -3.16963,-1.11384 -4.92332,0.49684 -1.68228,1.54501 -2.60515,1.73797 -2.60515,0.54467 0,-0.78424 1.27534,-2.93701 2.12162,-3.58111 1.27501,-0.97053 7.32476,1.05861 9.42154,3.15993 2.30139,2.30639 4.90774,8.10839 4.57631,10.18717 z m -2.40173,188.34201 c -0.37456,0 -1.81121,-0.61776 -3.19247,-1.36204 -3.46201,-1.86539 -3.63529,-1.82408 -3.30916,0.78711 0.19477,1.55817 0.13924,2.14036 -0.20143,2.14036 -0.70116,0 -1.88401,-1.50247 -2.97228,-3.77572 -0.87125,-1.81984 -0.92422,-2.19334 -0.52438,-3.69688 0.45659,-1.71693 1.76506,-4.1742 2.4933,-4.68255 1.46313,-1.02092 5.40381,0.38939 6.4706,2.31577 0.66195,1.19557 0.0741,1.79517 -2.58154,2.63026 -1.18481,0.37259 -2.09753,0.84764 -2.02822,1.05542 0.153,0.45916 1.33223,1.12203 4.28891,2.41097 2.16262,0.94284 3.05915,2.19682 1.55667,2.1773 z m -5.55153,-8.9418 c -0.68557,0 -1.16137,0.73066 -1.16137,1.78307 0,0.72778 0.78288,0.69993 1.87764,-0.0666 0.70086,-0.49079 0.7894,-0.73218 0.42814,-1.16742 -0.25046,-0.30177 -0.76546,-0.54876 -1.14441,-0.54876 z m -1.17313,-216.85634 c -0.47172,1.17241 -0.77499,1.11096 -2.30472,-0.46734 -0.87156,-0.8991 -1.32754,-1.76732 -1.38005,-2.62677 -0.10443,-1.70694 -1.76944,-9.37447 -2.11949,-9.75827 -0.15149,-0.16617 -1.08221,0.14831 -2.06834,0.69979 -1.03696,0.57962 -2.24903,0.95312 -2.87496,0.88593 -0.73051,-0.0787 -1.10689,0.0742 -1.15789,0.46763 -0.78771,6.08212 -2.19349,13.21983 -2.68382,13.62692 -0.65787,0.54588 -1.47463,0.15921 -2.45001,-1.16 l -0.82479,-1.11582 0.928,-5.57816 c 0.51046,-3.06808 1.22645,-8.20508 1.59117,-11.41572 0.36472,-3.21048 0.82448,-6.03945 1.02183,-6.28643 0.19734,-0.24713 0.2441,-0.90605 0.10442,-1.46435 -0.14075,-0.55843 -0.0696,-1.23778 0.15558,-1.50959 0.22565,-0.27196 0.41769,-1.36417 0.42662,-2.42715 0.0529,-6.2769 0.10593,-6.8712 0.79164,-8.93757 0.62124,-1.87115 0.95525,-2.12675 2.78856,-2.13447 1.78336,0 2.11979,0.41572 2.79249,3.51301 0.30025,1.38216 0.91226,4.17662 1.35992,6.20999 0.4478,2.03323 1.11505,5.18544 1.48282,7.00469 0.3806,1.88248 0.9855,3.66328 1.40365,4.13273 0.59899,0.67225 0.68828,1.17681 0.48231,2.72861 -0.17192,1.29637 -0.0439,2.61951 0.39968,4.14727 0.35868,1.23387 0.72839,2.89539 0.82146,3.69234 0.0938,0.79695 0.32705,1.88673 0.52015,2.42187 0.19311,0.53513 0.44131,1.49824 0.55134,2.14037 0.11046,0.64213 0.28904,1.43014 0.39755,1.75114 0.10897,0.32112 0.0393,0.97779 -0.15466,1.45935 z m -7.9289,-24.02248 c -1.68075,-7.97809 -2.03306,-8.50731 -2.36344,-3.55115 -0.10291,1.54788 -0.26075,2.93475 -0.35019,3.0817 -0.32675,0.5371 -0.683,10.271 -0.37017,10.11527 0.17751,-0.0878 1.23793,-0.58901 2.35662,-1.11279 1.23841,-0.57992 2.03747,-1.20465 2.04308,-1.59767 0,-0.35489 -0.5872,-3.47593 -1.3159,-6.93536 z m 7.65468,153.22193 c -0.24123,0.69842 -1.44422,0.59914 -2.35558,-0.19462 -0.75275,-0.65545 -2.06894,-4.26804 -2.58742,-7.10214 -0.13772,-0.74913 -0.40861,-2.06243 -0.60339,-2.91855 -0.19477,-0.85627 -0.46021,-2.22179 -0.58991,-3.03463 l -0.23564,-1.47812 -1.36401,0.8431 c -1.65442,1.02245 -4.11427,0.79514 -5.50203,-0.50864 -1.33525,-1.25444 -1.44724,-0.984 -2.61679,6.31851 -0.38001,2.37282 -1.46752,6.45744 -1.83829,6.90419 -0.61096,0.7361 -1.55108,0.57281 -2.74347,-0.47671 -1.26472,-1.1131 -1.3292,-2.12177 -0.2833,-4.4268 0.4233,-0.933 0.76971,-2.10481 0.76971,-2.60391 0,-0.49912 0.15194,-1.00126 0.33764,-1.11598 0.18553,-0.11501 0.4363,-0.9569 0.55707,-1.87143 0.12107,-0.91453 0.77606,-4.20206 1.45632,-7.3057 1.66532,-7.59715 1.9344,-9.52021 2.09679,-14.98245 0.0757,-2.56835 0.15754,-4.79287 0.18039,-4.9433 0.0621,-0.40316 2.73756,-1.07495 3.3485,-0.84053 0.71342,0.27377 1.45996,1.95665 2.91068,6.56216 0.67422,2.14037 1.56484,4.74672 1.97936,5.79201 0.41451,1.04514 0.75366,2.10526 0.75366,2.35588 0,0.25046 0.59203,2.28474 1.31543,4.52062 0.72354,2.23586 1.87584,6.60438 2.56079,9.70786 1.37506,6.23074 1.89778,8.36794 2.33181,9.53429 0.15921,0.42813 0.214,0.99732 0.12107,1.26489 z m -8.90019,-22.9896 c -2.39991,-7.38634 -2.6758,-8.1055 -3.09865,-8.08083 -0.19945,0.0152 -0.48004,1.55666 -0.62334,3.43324 -0.25804,3.37969 -0.66392,5.85118 -1.45513,8.86039 -0.36471,1.38731 -0.32007,1.63127 0.41059,2.24267 1.21085,1.01307 2.60861,1.24143 4.18525,0.68345 1.37188,-0.48534 2.37343,-1.09569 2.37343,-1.4465 0,-0.0968 -0.80648,-2.65854 -1.79215,-5.69242 z m 2.65704,121.54282 c -0.81842,0 -2.00734,-1.33223 -2.76917,-3.10319 -0.75201,-1.7478 -0.9324,-1.92289 -1.60919,-1.56074 -0.4363,0.23366 -0.94676,1.14108 -1.19404,2.12281 -0.4852,1.92684 -1.50173,3.06565 -2.55565,2.86271 -0.97976,-0.18871 -1.0804,-1.20495 -0.28527,-2.88042 0.56494,-1.19072 0.59339,-1.55302 0.17388,-2.2245 -0.42571,-0.68179 -0.39968,-0.87626 0.17359,-1.29546 0.90061,-0.65847 1.75279,-2.35588 1.75279,-3.49091 0,-1.20208 1.75083,-2.41838 2.6578,-1.84632 0.34839,0.21974 0.74776,0.95903 0.88775,1.64306 0.13923,0.6839 0.54178,1.56121 0.89335,1.94955 0.3514,0.38832 0.54058,0.9625 0.42026,1.27578 -0.12107,0.31341 0.22414,1.52078 0.76517,2.68322 0.96644,2.07606 1.28516,3.86441 0.68873,3.86441 z m -0.97415,35.33292 c -1.25823,1.182 -3.97731,1.174 -5.7448,-0.017 -0.71461,-0.4816 -1.30952,-1.0507 -1.32223,-1.2648 -0.0151,-0.2265 1.35901,-0.4127 3.28478,-0.4459 1.8194,-0.032 3.56007,-0.118 3.86851,-0.1945 0.93966,-0.2311 0.88411,1.0109 -0.0862,1.9223 z M 110.71978,920.86 c -2.27173,4.55543 -2.54777,5.53988 -1.78851,6.3789 0.68011,0.7514 0.83917,1.98798 0.25576,1.98798 -0.20143,0 -0.47444,-0.17511 -0.60671,-0.38909 -0.53665,-0.86853 -1.91245,-0.31555 -3.38906,1.36205 -1.64686,1.87084 -1.7581,1.9297 -2.61755,1.38579 -0.45583,-0.28845 -0.2609,-0.79679 1.06074,-2.76495 l 1.61931,-2.41141 -1.24384,-1.80168 c -2.4376,-3.53102 -2.47014,-3.55206 -5.518089,-3.56143 -1.514434,0 -4.316153,-0.35384 -6.225893,-0.77592 -1.909731,-0.42223 -3.546148,-0.69358 -3.636647,-0.60323 -0.0908,0.0908 -0.04841,0.6945 0.09383,1.34221 0.318119,1.44847 1.128834,1.73707 3.905577,1.39004 2.306847,-0.28814 2.380548,-0.2155 1.715573,1.69212 -0.396203,1.13625 -0.550272,1.21373 -2.626776,1.32284 -2.169883,0.11351 -2.208021,0.13621 -2.326667,1.3625 -0.250164,2.58621 1.108697,3.45519 3.482885,2.22738 0.650759,-0.33642 1.408507,-0.52544 1.683789,-0.41981 0.688282,0.26408 0.315693,1.93622 -0.666187,2.99014 -0.643643,0.69086 -1.087516,0.8139 -2.333634,0.64683 -3.032205,-0.4068 -3.912535,-2.17293 -4.402419,-8.83163 -0.311605,-4.23671 -0.533768,-4.82299 -2.143399,-5.65535 -0.6447,-0.3334 -1.053463,-0.79074 -0.91166,-1.02002 0.442664,-0.71644 4.334318,-0.14225 11.025572,1.62581 l 6.392667,1.6894 1.94347,2.06924 c 1.06891,1.13805 2.13237,2.06424 2.3633,2.05835 0.40725,-0.0152 3.72777,-6.50465 3.72777,-7.29071 0,-0.71976 1.49778,-0.80239 2.11812,-0.11653 0.33324,0.36821 0.60474,0.74323 0.60338,0.83342 -8.3e-4,0.0908 -0.701,1.56484 -1.555,3.27707 z m -3.91677,42.807 c -0.19159,0.64212 -0.32734,2.65599 -0.30162,4.47521 0.0863,6.17157 -1.56029,8.21947 -4.17646,5.1921 -1.27004,-1.46964 -2.11132,-3.77512 -2.11132,-5.78595 0,-0.6111 -0.18449,-0.96614 -0.454928,-0.87594 -0.699632,0.23322 -1.353115,2.52401 -1.662141,5.82605 -0.162082,1.73207 -0.502752,3.1787 -0.808,3.43205 -1.388363,1.15229 -3.328368,-1.77474 -3.885142,-5.86177 -0.15891,-1.16666 -0.62609,-2.97985 -1.038028,-4.02937 -0.794224,-2.02324 -0.50002,-3.0764 0.529074,-1.89506 0.547698,0.62836 1.794115,4.14803 2.415206,6.81928 0.1362,0.5887 0.391055,1.07026 0.564944,1.07026 0.17374,0 0.738833,-1.26608 1.255501,-2.81351 1.992665,-5.9665 3.870464,-6.01553 4.974314,-0.13015 0.50261,2.67883 0.98068,3.36954 1.75719,2.53762 0.69965,-0.74972 1.80016,-5.33859 1.80016,-7.50681 0,-1.6175 0.72128,-2.91083 1.30045,-2.33166 0.30041,0.30025 0.29602,0.35217 -0.1592,1.87749 z m -2.28536,-238.32681 c -0.20702,0.33778 -0.6559,1.43726 -0.99731,2.4432 -0.34157,1.00594 -1.05014,2.46151 -1.57483,3.2344 -0.52453,0.77302 -0.95373,1.61659 -0.95373,1.87462 0,0.25788 -0.34867,0.78453 -0.77485,1.17029 -0.426014,0.38562 -1.187997,1.4197 -1.693165,2.29792 -0.879126,1.52867 -0.910446,1.84163 -0.732771,7.33671 0.17736,5.48267 0.151785,5.7401 -0.568282,5.7401 -0.41467,0 -1.137303,-0.357 -1.605695,-0.79347 -0.794673,-0.74034 -0.851576,-1.14411 -0.851576,-6.03566 0,-4.76064 -0.07116,-5.30348 -0.778332,-5.90869 -0.939509,-0.8045 -0.998072,-1.49325 -0.154368,-1.81711 0.532411,-0.20431 0.586433,-0.70962 0.368511,-3.44672 -0.234121,-2.93944 -1.180737,-10.689 -1.53275,-12.54697 -0.294354,-1.55409 -0.76865,-5.8483 -0.692982,-6.27524 0.04235,-0.24077 -0.362906,-0.72626 -0.901213,-1.07903 -1.946964,-1.27578 -0.977189,-4.90411 1.310893,-4.90411 1.453146,0 6.388123,2.30291 7.74562,3.61456 2.35118,2.27188 4.25366,7.43084 4.62262,12.53533 0.0771,1.07026 -0.0287,2.22209 -0.23579,2.55987 z m -4.32039,-8.26637 c -0.840684,-3.29267 -1.257463,-4.24035 -2.513272,-5.71407 -0.986879,-1.15834 -3.60169,-2.51418 -4.318427,-2.2392 -0.810865,0.31115 -0.665432,2.24147 0.398021,5.28532 0.826309,2.36511 2.200905,7.40285 2.776137,10.17385 0.105943,0.50865 0.300258,2.01915 0.43253,3.35697 0.131658,1.33768 0.385002,2.43216 0.561465,2.43216 0.544817,0 2.328636,-4.03179 2.856196,-6.45547 0.70009,-3.21653 0.69616,-3.35865 -0.19265,-6.83956 z m 0.69737,290.24708 c -0.48172,0.4337 -1.162734,0.889 -1.513684,1.0121 -0.486402,0.1707 -0.704631,0.9772 -0.918617,3.3945 -0.297842,3.3648 -0.665141,3.9029 -2.129339,3.1193 -0.731866,-0.3918 -0.805268,-0.6904 -0.631827,-2.5681 0.107445,-1.1686 0.303131,-2.2976 0.433576,-2.5089 0.370629,-0.5996 -0.171306,-1.8703 -0.902874,-2.1166 -0.363513,-0.1226 -1.098866,-0.8327 -1.634001,-1.5782 -0.801025,-1.116 -1.144569,-1.3123 -1.945751,-1.1119 -0.535127,0.1347 -1.484475,0.31 -2.10995,0.3911 -1.40003,0.1813 -2.559883,1.1789 -2.559883,2.2018 0,0.4416 1.018048,1.7034 2.399918,2.9741 l 2.399763,2.2073 -1.158186,1.2964 c -0.942838,1.0552 -1.515953,1.3305 -3.082452,1.4811 -3.405709,0.3272 -6.665377,-1.7774 -4.569497,-2.9502 0.557832,-0.3122 0.645153,-0.9302 0.566155,-4.0082 -0.05146,-2.0016 -0.173282,-3.9018 -0.271197,-4.2229 -0.09837,-0.321 -0.878063,-0.9183 -1.733728,-1.3274 -2.798087,-1.3375 -1.644287,-1.979 2.46242,-1.369 1.535776,0.2281 3.807207,0.6907 5.047572,1.028 1.92623,0.524 2.39992,0.5362 3.245143,0.083 0.871405,-0.4663 1.034699,-0.4495 1.364915,0.1407 0.206272,0.3687 0.776206,1.1367 1.266545,1.7068 l 0.891531,1.0364 0.733536,-1.2419 0.733685,-1.242 0.680418,0.8844 0.680419,0.8842 0.951756,-1.1674 c 0.721134,-0.8845 0.997924,-1.0261 1.141994,-0.5838 0.54255,1.6642 1.03712,3.2372 1.03712,3.2982 0,0.037 -0.39393,0.4232 -0.87548,0.8568 z m -14.666315,3.7013 c -0.29193,-0.097 -0.43782,0.048 -0.34051,0.3406 0.09383,0.2809 0.400137,0.5873 0.68102,0.681 0.29178,0.097 0.437821,-0.048 0.340511,-0.3405 -0.09383,-0.2811 -0.400138,-0.5876 -0.681021,-0.6811 z m -1.475544,-6.5346 c -0.395597,0.3956 0.199916,0.7221 0.725059,0.3975 0.396808,-0.2451 0.397111,-0.3369 0.0016,-0.4687 -0.27029,-0.09 -0.597331,-0.058 -0.726724,0.071 z m 16.239009,-19.61165 c -0.21398,0 -0.38909,-0.17509 -0.38909,-0.38924 0,-0.21399 0.17511,-0.38909 0.38909,-0.38909 0.21415,0 0.38925,0.1751 0.38925,0.38909 0,0.21415 -0.1751,0.38924 -0.38925,0.38924 z M 91.622304,777.55208 c -0.586284,0.36744 -2.415655,0.68436 -4.834644,0.83765 -5.434091,0.34429 -6.139173,0.52999 -5.886137,1.55001 0.11199,0.45355 0.238358,3.24513 0.279824,6.20364 0.08929,6.41294 0.2376,6.70442 3.219714,6.3512 2.09709,-0.24834 2.970309,0.14831 2.970309,1.34676 0,1.22129 -1.640956,1.38732 -5.156234,0.52166 l -1.070111,-0.26348 -0.07869,3.06126 c -0.04388,1.68379 -0.09837,3.64876 -0.124096,4.3667 -0.06962,2.00675 0.490788,5.5594 0.948586,6.0172 0.286935,0.28694 0.907118,0.16375 2.069546,-0.41118 1.412739,-0.69873 4.39697,-1.12959 6.427017,-0.92785 0.982188,0.0984 0.448265,1.07328 -0.84265,1.54001 -0.730961,0.26438 -2.35073,1.17468 -3.599571,2.02308 -2.648413,1.79895 -3.700666,1.90429 -5.668966,0.56676 -1.46026,-0.99232 -2.241012,-2.73891 -2.304272,-5.15517 -0.04843,-1.87402 0.448111,-24.99013 0.547693,-25.46654 0.05297,-0.25198 -0.560859,-0.77682 -1.363556,-1.16621 -1.768534,-0.85794 -1.880373,-1.48024 -0.266204,-1.48024 0.656202,0 1.49068,-0.15921 1.854344,-0.35382 0.363665,-0.19463 3.29947,-0.45478 6.523724,-0.57781 4.58297,-0.1751 6.01916,-0.10896 6.580019,0.30071 0.684961,0.50077 0.674665,0.55146 -0.225644,1.11566 z m -7.202022,245.04102 c -0.453257,-0.018 -0.545574,-0.1105 -0.235029,-0.235 0.280883,-0.112 0.616552,-0.098 0.745793,0.03 0.130151,0.1286 -0.09988,0.2213 -0.510764,0.2043 z m 0.388029,-272.86374 c -0.361698,0.77894 -1.902015,0.56221 -2.767061,-0.38925 -1.058005,-1.16363 -7.883345,-14.78844 -9.50372,-18.97126 -1.273812,-3.28827 -2.566993,-5.83726 -2.961229,-5.83726 -0.113503,0 -0.08172,0.91938 0.06961,2.04306 0.15149,1.1237 0.305401,6.68112 0.342024,12.35009 0.06053,9.34951 0,10.31867 -0.583105,10.43233 -0.357309,0.0696 -1.186036,-0.36639 -1.841481,-0.96736 l -1.191785,-1.09265 0.02118,-4.47522 c 0.01513,-2.46151 0.0333,-6.2265 0.04994,-8.36687 0.03935,-5.45437 -0.32008,-12.86175 -0.650148,-13.39597 -0.152397,-0.24654 -0.428891,-2.06153 -0.614432,-4.03332 -0.18554,-1.97178 -0.389998,-4.0174 -0.454467,-4.54573 -0.161629,-1.32663 1.04181,-1.50521 2.287774,-0.3393 0.535434,0.50092 1.453148,1.87402 2.039431,3.05113 0.586435,1.17725 1.252171,2.49056 1.47963,2.91869 1.503392,2.83033 2.955025,5.98436 3.466547,7.5324 0.328403,0.99399 1.132007,3.03311 1.785636,4.53136 2.807622,6.4361 3.816289,8.40667 4.186008,8.17815 0.215807,-0.13318 0.386516,-1.67774 0.379403,-3.4319 -0.01513,-1.7543 0.10291,-3.95475 0.24305,-4.88987 0.185841,-1.23447 0.110476,-1.79608 -0.275739,-2.05017 -0.442209,-0.29103 -0.43207,-0.40907 0.06053,-0.70176 0.622756,-0.36973 0.642128,-1.1933 0.233365,-9.90447 -0.122585,-2.61254 -0.346716,-3.95491 -0.697821,-4.17752 -0.284514,-0.18024 -0.337482,-0.33053 -0.118043,-0.33385 0.535888,-0.0152 0.455679,-2.71622 -0.110476,-3.74547 -0.511825,-0.92952 -0.209452,-3.69083 0.452652,-4.13486 0.687225,-0.46097 2.436389,-0.34005 2.884047,0.19948 0.229578,0.27664 0.419054,2.27218 0.426923,4.49654 0.01513,2.19955 0.08778,4.12094 0.178579,4.2697 0.182212,0.29995 0.623059,10.60954 0.802091,18.75561 0.06356,2.88934 0.226099,7.79269 0.361546,10.89633 0.136205,3.10349 0.145286,5.86163 0.01968,6.12919 z m -3.890292,240.95309 c -0.453408,-0.0182 -0.545573,-0.11047 -0.23518,-0.23502 0.280884,-0.11199 0.616552,-0.0984 0.745946,0.0303 0.128636,0.13016 -0.09988,0.22126 -0.510766,0.20432 z m -1.191483,-28.4745 c -1.178621,1.04983 -4.314039,2.02929 -5.667757,1.7705 -0.547086,-0.10442 -1.113242,0.002 -1.258072,0.23563 -0.145284,0.23428 -0.115018,0.42587 0.06508,0.42587 0.180546,0 0.638646,0.52529 1.017899,1.16742 0.541487,0.9165 0.961753,1.16742 1.955285,1.16742 0.696156,0 1.605696,-0.25712 2.021119,-0.57129 1.148353,-0.86868 2.218765,-0.7685 1.949081,0.1822 -0.12107,0.42799 -0.325225,1.14442 -0.452955,1.59208 -0.241081,0.84568 -2.273398,1.91034 -3.646941,1.91034 -0.578413,0 -0.79074,0.2544 -0.79074,0.94752 0,1.42092 -0.685258,2.94398 -1.324661,2.94398 -1.156676,0 -1.760363,-1.07904 -1.361134,-2.43276 0.205063,-0.69524 0.256821,-2.40248 0.115017,-3.79373 -0.334911,-3.28524 -0.327192,-3.23984 -0.625026,-3.71551 -0.140743,-0.22428 -0.122583,-0.62199 0.03935,-0.88396 0.699938,-1.13246 8.205088,-2.97802 8.720394,-2.14431 0.115016,0.1866 -0.224738,0.72582 -0.75548,1.1986 z m -3.084873,46.11445 c -0.567063,1.0452 -1.259889,1.2843 -3.219261,1.1102 -1.141843,-0.1014 -3.59488,-1.6586 -3.429165,-2.177 0.07114,-0.2232 1.281227,-0.3323 2.870124,-0.2589 1.688628,0.079 2.847271,-0.037 3.00769,-0.2953 0.359124,-0.581 1.385952,-0.5327 1.366732,0.065 -0.01513,0.2676 -0.276797,0.9682 -0.59612,1.5567 z m -2.56094,-156.95193 c -0.19674,0.52121 -0.274376,1.16501 -0.172375,1.43091 0.360942,0.94057 -2.537633,2.66718 -4.827225,2.87527 l -2.140372,0.19462 -0.09686,7.76924 c -0.07869,6.26614 -0.209451,7.88152 -0.676783,8.3487 -0.513035,0.51304 -0.702207,0.48762 -1.653668,-0.22186 l -1.0745,-0.80119 -0.248345,-11.2444 c -0.136204,-6.18443 -0.460975,-12.47024 -0.720975,-13.96848 -0.259998,-1.49826 -0.512581,-3.64876 -0.561009,-4.77881 -0.04843,-1.13004 -0.293293,-2.25947 -0.543757,-2.51009 -0.674211,-0.67421 -0.552233,-1.46722 0.225644,-1.46676 0.374562,1.4e-4 1.994482,0.2774 3.599724,0.61625 3.039168,0.64151 5.652169,0.5268 6.986515,-0.30647 0.586284,-0.36609 0.887143,-0.37516 1.225384,-0.0363 0.682837,0.68284 0.101396,2.2619 -1.021531,2.77342 -1.208584,0.55072 -5.20315,0.60035 -6.567612,0.0817 -1.121111,-0.42632 -1.724647,0.0999 -1.048772,0.91363 0.230487,0.27786 0.326587,0.59778 0.213386,0.71099 -0.188415,0.18857 1.161368,8.93892 1.622948,10.52162 0.378648,1.29787 3.806452,0.57099 6.420361,-1.3616 1.296965,-0.95872 1.55424,-0.84703 1.060424,0.46052 z m -4.707669,116.37115 c -1.270935,0.72884 -2.596353,1.17303 -3.506954,1.1753 l -1.464042,0 0.261663,1.65397 c 0.143771,0.90954 0.261057,1.82891 0.260453,2.04306 0,1.55302 -0.198405,2.14037 -0.707506,2.14037 -0.337635,0 -0.595363,-0.36911 -0.611405,-0.87565 -0.04691,-1.49143 -0.353374,-3.94249 -0.619728,-4.96175 -0.139232,-0.53514 -0.279673,-1.14805 -0.310546,-1.36205 -0.143771,-0.99323 -0.741859,-2.76963 -1.074954,-3.19338 -0.566911,-0.72128 -0.03027,-1.22947 1.560143,-1.47494 0.795129,-0.12259 2.72711,-0.5032 4.293306,-0.84506 3.398292,-0.74203 4.278777,-0.35671 2.645085,1.15742 -1.130495,1.04772 -2.538846,1.43757 -5.194372,1.43757 -1.708758,0 -1.739176,0.0227 -1.476302,1.06934 0.403164,1.60616 -0.05297,1.60147 5.030322,0.053 3.369084,-1.02652 3.953097,0.23714 0.914837,1.97965 z m 1.243545,-154.27508 c -0.220955,0.1362 -0.981731,-0.19433 -1.690748,-0.7352 -1.580119,-1.20527 -1.790479,-2.38691 -1.790479,-10.062 l 0,-5.42184 -2.237683,0.26696 c -1.23068,0.1468 -2.39916,0.41724 -2.596656,0.60097 -0.197496,0.18387 -0.41285,1.52109 -0.478682,2.97166 -0.06508,1.45058 -0.179789,3.96142 -0.25334,5.57953 -0.19235,4.23352 -0.600054,4.66136 -2.58924,2.71697 l -1.17756,-1.15123 0.36987,-4.78349 c 0.551323,-7.12695 0.426016,-13.4771 -0.38576,-19.57132 -0.399231,-2.99649 -0.849613,-5.86555 -1.00095,-6.37587 -0.205063,-0.69131 -0.139231,-0.88245 0.256215,-0.75048 0.634863,0.21158 2.367228,3.63438 3.212905,6.34816 0.66967,2.14916 1.491283,8.00155 1.495066,10.65011 l 0,1.69953 1.365825,-0.22171 c 0.751242,-0.12259 1.97375,-0.68526 2.716969,-1.25218 l 1.350995,-1.03045 -0.271804,-6.70352 c -0.27846,-6.86756 0.01513,-12.67606 0.638647,-12.67606 0.681021,0 1.588896,2.96683 2.14355,7.00467 0.30873,2.24737 0.647575,8.46418 0.752906,13.81504 0.105937,5.35085 0.276647,11.77742 0.380464,14.28116 0.121071,2.91204 0.04388,4.64183 -0.212781,4.80059 z m -6.236486,115.07931 c -0.999284,1.71572 -5.466174,-0.10593 -7.153744,-2.9187 -0.353222,-0.58856 -0.783021,-1.0701 -0.955093,-1.0701 -0.172071,0 -0.420567,0.90878 -0.552081,2.0196 -0.287996,2.43078 -1.060424,3.43794 -2.023842,2.63858 -0.493967,-0.41013 -0.575689,-0.88276 -0.364119,-2.10693 0.149825,-0.86808 0.296623,-3.11091 0.325529,-4.98386 0.03026,-1.98298 0.215354,-3.40147 0.441906,-3.39588 0.214144,0 0.914535,0.73718 1.556662,1.62658 0.642127,0.88927 2.196216,2.82715 3.453531,4.30647 1.992213,2.34408 2.358148,2.6174 2.847726,2.12781 0.547541,-0.54768 0.585223,-1.37837 0.374107,-8.26426 -0.0454,-1.49672 0.07567,-1.94574 0.523931,-1.94574 0.434644,0 0.660591,0.6957 0.884419,2.72408 0.165261,1.49824 0.470813,3.33699 0.678903,4.08613 0.487308,1.75476 0.468694,4.28649 -0.03783,5.15622 z m -2.327728,83.62575 c -1.330109,2.5837 -4.896993,3.0564 -7.925567,1.0504 l -1.856614,-1.2298 -0.968563,1.2375 c -1.301506,1.663 -2.827294,2.3895 -5.018819,2.3895 -4.900776,0 -7.93389,-2.8886 -7.942669,-7.5645 0,-2.5539 2.697902,-4.9409 6.460163,-5.7056 2.25221,-0.4578 2.441383,-0.4366 3.621365,0.4035 2.364201,1.6835 0.789681,3.5616 -1.844204,2.1995 -1.077979,-0.5574 -1.236129,-0.54 -2.435481,0.2683 -0.705386,0.4753 -1.702098,1.6796 -2.21483,2.6758 -1.114756,2.1663 -0.788775,3.1886 1.29409,4.0589 1.893994,0.7913 3.977463,0.6723 6.196682,-0.3542 l 1.934705,-0.8949 0.03633,-2.1832 c 0.04388,-2.6525 0.487762,-3.2472 2.79521,-3.7394 2.955177,-0.6302 3.823252,0.3522 1.699072,1.9225 -2.00553,1.4829 -1.783972,3.7458 0.457192,4.6743 0.970378,0.4018 1.592983,0.37 3.690677,-0.189 1.38792,-0.3699 2.574865,-0.6193 2.637518,-0.5546 0.06205,0.065 -0.214294,0.7557 -0.615491,1.535 z m -3.94538,-37.10234 c -0.501382,0.50137 -2.185319,0.61942 -3.212602,0.22518 -1.202682,-0.46157 -2.869366,-4.87822 -3.139505,-8.31965 -0.208997,-2.66385 -0.01665,-2.97712 1.86297,-3.02888 0.906514,-0.0257 1.991758,-0.0984 2.411722,-0.16208 0.469148,-0.0726 0.816316,0.13923 0.900763,0.54663 0.09837,0.47399 -0.23079,0.75867 -1.15259,0.99763 -1.721468,0.44599 -1.802586,1.74492 -0.127124,2.03504 1.64913,0.28572 1.782609,1.46813 0.232001,2.05334 -0.849914,0.32084 -1.200109,0.70796 -1.200109,1.32694 0,1.05846 1.076314,1.69665 2.140372,1.26882 1.475091,-0.59294 1.751132,-0.41785 1.751132,1.11127 0,0.8133 -0.210209,1.68893 -0.46703,1.94576 z m -0.92755,52.19374 c -0.453258,-0.018 -0.545422,-0.1104 -0.235028,-0.2351 0.280883,-0.1119 0.61655,-0.098 0.745794,0.03 0.128636,0.1302 -0.09988,0.2212 -0.510766,0.2044 z m 0.28285,-292.45328 c -0.188567,0.11652 -0.465969,1.62157 -0.616248,3.34456 -0.580683,6.65735 -2.856654,13.17471 -5.408514,15.48747 -0.889413,0.80603 -5.951364,1.13745 -7.999572,0.52378 -0.787864,-0.23594 -2.222851,-1.25006 -3.261634,-2.30473 -1.658816,-1.68409 -2.043062,-2.43609 -3.634835,-7.115 -2.767061,-8.13305 -3.244836,-12.0692 -3.384369,-27.88023 -0.06961,-7.93752 -0.04388,-8.25745 0.700846,-8.45192 0.425561,-0.11047 1.388676,0.0984 2.140372,0.46657 1.36189,0.6665 1.367338,0.67967 1.567407,3.78209 0.110477,1.71224 0.05448,5.38975 -0.124097,8.17225 -0.205214,3.19701 -0.176915,6.13326 0.07718,7.97762 0.220953,1.60525 0.518483,4.36731 0.661498,6.13782 0.142258,1.7705 0.411942,3.31309 0.597935,3.4281 0.185996,0.11502 0.33809,0.68269 0.33809,1.26171 0,0.57887 0.362908,2.01325 0.806631,3.18747 0.92861,2.45804 1.243392,3.40421 1.940152,5.83182 0.776363,2.70425 1.737964,3.56143 3.840352,3.42296 1.551818,-0.10291 1.874168,-0.29511 2.871787,-1.71783 1.208737,-1.7239 1.977836,-4.74566 2.613153,-10.26647 0.209299,-1.81938 0.665735,-4.59901 1.014115,-6.17701 0.437518,-1.98086 0.551929,-3.60759 0.369415,-5.25369 -0.320079,-2.88905 -0.277099,-5.79473 0.08929,-6.07229 0.723547,-0.54693 -0.165715,-9.20845 -0.977491,-9.51991 -0.406948,-0.15618 -0.51228,-0.52227 -0.343538,-1.19451 0.179184,-0.71432 0.08778,-0.96917 -0.347925,-0.96917 -0.613675,0 -0.831905,-1.36189 -0.273619,-1.7071 0.602022,-0.37198 3.350016,0.84781 4.239428,1.88174 0.540429,0.62836 0.89123,1.54289 0.89123,2.32334 0,0.70796 0.170406,2.18623 0.378798,3.28479 0.880485,4.64305 1.510655,12.00352 1.227805,14.34064 -0.161023,1.3292 -0.148311,2.67473 0.02875,2.98998 0.176309,0.31523 0.166321,0.66845 -0.0227,0.78515 z m -2.805048,129.62289 c -0.157845,1.49824 -0.479136,3.21607 -0.713861,3.81749 -0.444328,1.13822 -5.418502,6.11844 -6.906457,6.91479 -1.42182,0.76092 -3.468514,0.12258 -4.827528,-1.50582 -2.250849,-2.69698 -4.86052,-10.83156 -5.441205,-16.96089 -0.519996,-5.48812 0,-10.26813 1.677431,-15.29709 0.635467,-1.90973 0.999133,-2.45621 1.761724,-2.6475 0.528624,-0.13318 1.53154,-0.67648 2.228905,-1.20829 1.353718,-1.03257 3.122858,-1.18316 5.534882,-0.47126 1.984949,0.58583 3.480015,3.59927 4.381081,8.83026 0.198556,1.15319 0.608076,2.37904 0.909995,2.72409 0.339754,0.38818 0.71825,2.40672 0.993382,5.29713 0.693431,7.28419 0.706143,7.61714 0.401651,10.50709 z m -4.127288,-14.20413 c -0.133177,-1.37097 -0.468088,-2.38538 -0.931182,-2.82215 -0.397565,-0.37501 -0.896071,-1.33828 -1.107793,-2.14037 -1.418188,-5.37461 -1.336012,-5.20087 -2.736342,-5.78595 -0.738982,-0.30873 -1.582086,-0.46991 -1.873563,-0.35806 -0.739438,0.28375 -2.724082,4.8024 -3.385883,7.7093 -0.303584,1.33344 -0.658321,4.43828 -0.78832,6.89965 -0.241383,4.57146 -0.211419,4.77258 1.714508,11.48004 0.776968,2.70576 2.612244,6.61513 3.15464,6.71956 0.751846,0.14527 4.518646,-3.18038 5.287897,-4.66803 0.323712,-0.62593 0.708413,-1.83875 0.855059,-2.69503 0.281791,-1.64655 0.162083,-10.72789 -0.189021,-14.33896 z m -7.739723,-1.55666 c -0.333701,0 -0.496691,-0.17798 -0.362303,-0.39544 0.13469,-0.21748 0.407552,-0.29481 0.606713,-0.17162 0.539822,0.33355 0.439182,0.56706 -0.24441,0.56706 z m 9.88161,113.62724 c -0.499416,0.47474 -1.808338,1.37672 -2.908716,2.00432 l -2.000687,1.14123 -0.0454,2.97743 c -0.03178,2.15263 -0.232758,3.2412 -0.723395,3.92979 -0.373351,0.52378 -0.860659,1.2608 -1.082975,1.63778 -1.279108,2.16776 -2.28142,2.43079 -4.382141,1.15002 -1.573611,-0.95948 -1.307105,-1.54925 0.70024,-1.54925 1.682727,0 2.116916,-0.42434 2.190314,-2.14022 0.02724,-0.64213 0.186448,-2.11434 0.353224,-3.27148 l 0.303431,-2.1039 -1.5102,0.24502 c -0.830695,0.1347 -2.153842,0.053 -2.940345,-0.18326 -1.282891,-0.3844 -1.69559,-0.82798 -2.616935,-2.81277 -0.08778,-0.18887 0.432221,-0.24789 1.155011,-0.13167 0.722941,0.11654 1.927289,0.059 2.676411,-0.12864 0.749122,-0.18765 2.500254,-0.6276 3.891503,-0.97779 6.518276,-1.64051 8.815888,-1.56983 6.939904,0.21339 z M 50.777104,777.79437 c -0.667551,0.49351 -2.233293,1.04574 -3.599723,1.26957 -3.59912,0.58962 -3.512856,0.53089 -2.801568,1.90656 0.339299,0.6562 0.801182,2.71697 1.026222,4.57963 0.225191,1.86252 0.466726,3.73669 0.536948,4.16482 0.498506,3.03978 1.723435,14.97005 1.799256,17.52236 0.128637,4.32403 -0.36306,4.91349 -2.583187,3.0994 -1.063754,-0.86913 -1.183009,-1.21706 -1.428479,-4.16935 -0.146797,-1.77171 -0.28164,-4.56693 -0.298741,-6.21182 -0.01665,-1.64474 -0.183724,-3.39602 -0.370324,-3.89151 -0.186751,-0.49548 -0.447506,-2.12675 -0.579624,-3.62499 -0.131664,-1.49825 -0.411639,-4.62278 -0.621393,-6.94339 -0.209756,-2.32046 -0.366087,-4.33431 -0.347321,-4.47521 0.168137,-1.2611 -0.06508,-1.34025 -3.192474,-1.0795 -3.009052,0.25093 -7.761818,-0.33596 -7.761818,-0.95841 0,-0.53665 2.217402,-1.14488 4.864453,-1.33451 8.897158,-0.63698 13.232232,-1.06345 14.076546,-1.38443 2.470138,-0.93906 3.292659,0.0439 1.281227,1.53078 z m -0.907119,154.735 c -0.48171,0.65878 -0.616399,0.44206 -1.430144,-2.29882 -0.494118,-1.66441 -1.086605,-3.08154 -1.316639,-3.14934 -0.230186,-0.0681 -1.231437,-0.21959 -2.225122,-0.33764 -2.000536,-0.23745 -2.140069,-0.0742 -2.915222,3.41812 -0.402408,1.81272 -1.341309,2.57062 -2.250244,1.81635 -0.854454,-0.70916 -0.770159,-2.18803 0.24441,-4.28225 0.473386,-0.97719 0.984454,-2.73981 1.135641,-3.91707 0.549961,-4.28166 1.187397,-8.3702 1.32693,-8.51081 0.0787,-0.0787 0.587796,-0.0318 1.131706,0.10444 1.015022,0.25485 2.674594,3.02237 3.687801,6.15037 0.261967,0.8089 0.797552,1.54577 1.220844,1.68015 0.584618,0.18554 0.757446,0.60581 0.768191,1.8672 0,0.89517 0.267566,2.67839 0.577657,3.96249 0.689496,2.85575 0.686468,2.61875 0.04388,3.49712 z m -3.696429,-9.82606 c -0.185086,-0.37169 -0.796038,-1.68273 -1.357804,-2.91341 -0.561616,-1.23067 -1.198142,-2.23768 -1.414556,-2.23768 -0.426469,0 -0.539216,4.66968 -0.148311,6.12918 0.254702,0.95055 1.257921,1.13989 2.50434,0.47278 0.857481,-0.45885 0.876853,-0.5262 0.41618,-1.45087 z m -19.145307,85.52179 c -0.226553,0 -0.303886,-0.1751 -0.171466,-0.3891 0.131664,-0.2141 0.317659,-0.3893 0.412094,-0.3893 0.09383,0 0.171617,0.1752 0.171617,0.3893 0,0.214 -0.185541,0.3891 -0.412245,0.3891 z"
       id="path8353" />
  </g>
</svg>
