<?xml version="1.0" encoding="UTF-8" standalone="no"?>
<svg
   xmlns:dc="http://purl.org/dc/elements/1.1/"
   xmlns:cc="http://creativecommons.org/ns#"
   xmlns:rdf="http://www.w3.org/1999/02/22-rdf-syntax-ns#"
   xmlns:svg="http://www.w3.org/2000/svg"
   xmlns="http://www.w3.org/2000/svg"
   xmlns:sodipodi="http://sodipodi.sourceforge.net/DTD/sodipodi-0.dtd"
   xmlns:inkscape="http://www.inkscape.org/namespaces/inkscape"
   version="1.1"
   id="svg2"
   viewBox="0 0 765 990"
   height="11in"
   width="8.5in"
   inkscape:version="0.91 r13725"
   sodipodi:docname="artifacts-document.svg">
  <sodipodi:namedview
     pagecolor="#ffffff"
     bordercolor="#666666"
     borderopacity="1"
     objecttolerance="10"
     gridtolerance="10"
     guidetolerance="10"
     inkscape:pageopacity="0"
     inkscape:pageshadow="2"
     inkscape:window-width="1920"
     inkscape:window-height="1035"
     id="namedview11"
     showgrid="false"
     inkscape:zoom="0.31714784"
     inkscape:cx="1100.4461"
     inkscape:cy="1210.4535"
     inkscape:window-x="0"
     inkscape:window-y="1"
     inkscape:window-maximized="1"
     inkscape:current-layer="layer1"
     units="in" />
  <defs
     id="defs4" />
  <metadata
     id="metadata7">
    <rdf:RDF>
      <cc:Work
         rdf:about="">
        <dc:format>image/svg+xml</dc:format>
        <dc:type
           rdf:resource="http://purl.org/dc/dcmitype/StillImage" />
        <dc:title></dc:title>
      </cc:Work>
    </rdf:RDF>
  </metadata>
  <g
     id="layer1"
     transform="translate(0,-62.362205)">
    <path
       inkscape:connector-curvature="0"
       id="path8361"
       d="m 465.39734,148.70579 c -0.1503,0.56086 -0.98008,0.79869 -3.47098,0.99406 -1.80083,0.14146 -5.52506,0.55999 -8.2758,0.93024 -2.75075,0.37044 -7.35442,0.80082 -10.23014,0.95642 -2.87583,0.15559 -6.40527,0.40351 -7.84319,0.55079 -2.53879,0.26027 -2.61443,0.23605 -2.61443,-0.83653 0,-0.60737 0.2244,-1.32862 0.49846,-1.60285 0.36138,-0.36143 0.18598,-1.41738 -0.63819,-3.84192 -1.00706,-2.96313 -1.1731,-4.41817 -1.45785,-12.78238 -0.17683,-5.19122 -0.50342,-9.55122 -0.72595,-9.68878 -0.22253,-0.13792 -0.4019,-0.80045 -0.39881,-1.47342 0,-0.90672 0.44561,-1.51393 1.70493,-2.34498 1.63754,-1.08071 2.00586,-1.12492 10.111,-1.2112 4.62624,-0.0496 10.91556,-0.27388 13.97627,-0.49933 4.76222,-0.35099 5.71709,-0.55327 6.62208,-1.40342 0.58148,-0.54636 1.17101,-0.99336 1.30997,-0.99336 0.13973,0 0.51366,0.93218 0.83264,2.07161 0.64932,2.31897 0.35345,9.20569 -0.48987,11.40249 -0.33253,0.86641 -0.3845,2.82591 -0.1557,5.84969 0.18994,2.50057 0.29763,5.60956 0.23949,6.90847 -0.0639,1.4402 0.16968,2.89523 0.60098,3.72857 0.7069,1.36716 0.77307,1.90417 0.40454,3.28583 z m -4.58561,-27.78156 c -1.18786,0 -3.48958,0.19468 -5.11501,0.42153 -1.62555,0.22686 -7.14984,0.55292 -12.2763,0.72443 -5.12658,0.17151 -9.49604,0.41659 -9.70998,0.54443 -0.35334,0.21112 -0.12387,8.82536 0.42447,15.89227 0.12024,1.56237 0.71813,3.94517 1.34168,5.35548 0.61804,1.3974 1.12378,3.04782 1.12378,3.66775 0,1.12121 0.0176,1.1258 3.46491,0.89735 7.94306,-0.52657 18.68421,-1.63999 20.01125,-2.07425 1.84169,-0.60279 2.08073,-1.79117 1.7296,-8.5955 -0.19787,-3.83573 -0.0903,-6.04367 0.40156,-8.20368 0.36986,-1.6255 0.69292,-4.23409 0.71803,-5.79717 l 0.0462,-2.84162 -2.15957,0.0177 z m -45.41234,201.6334 c -0.86337,0.8634 -1.07841,0.85227 -2.27541,-0.11668 -1.27738,-1.03474 -1.8059,-2.16868 -2.16728,-4.65032 -0.1645,-1.12545 -0.5805,-2.86446 -0.92547,-3.8649 l -0.6274,-1.81858 -4.02053,-0.10086 c -2.21121,-0.0548 -7.76391,0.30396 -12.33906,0.79923 -8.50208,0.92035 -10.28871,0.86765 -10.74324,-0.31704 -0.34585,-0.90124 0.51002,-2.42682 1.3615,-2.42682 0.37514,0 1.18676,-0.33065 1.80348,-0.73487 0.61694,-0.4042 1.61189,-0.64114 2.21132,-0.52657 0.59944,0.11497 3.82156,-0.0672 7.16029,-0.40279 3.33884,-0.33595 7.66261,-0.74263 9.60824,-0.90336 1.94574,-0.16091 3.63173,-0.44453 3.7468,-0.63071 0.23585,-0.38158 -0.28496,-3.13622 -1.2667,-6.69876 -0.72617,-2.63602 -0.58545,-4.33277 0.42954,-5.17514 0.54063,-0.44858 0.8616,-0.3043 1.73862,0.78189 0.96522,1.19566 1.43241,2.70923 3.00764,9.74359 0.25204,1.12528 0.64083,2.76209 0.86435,3.63733 0.2233,0.87526 0.74456,3.43295 1.15835,5.68348 0.41368,2.25073 1.02479,4.75412 1.35787,5.56324 0.51971,1.26232 0.50782,1.56909 -0.0837,2.15985 z m -3.67853,-201.18781 c -0.29102,1.62956 -1.832,7.36926 -2.33024,8.67985 -0.23233,0.61108 -1.26196,2.17292 -2.28807,3.47093 -1.43451,1.81505 -2.65121,2.73805 -5.26708,3.99628 -7.44437,3.58058 -14.81156,2.18955 -21.49353,-4.05817 -0.55837,-0.52214 -1.01863,-1.19828 -1.02303,-1.50259 0,-0.30431 -1.35566,-2.04332 -3.00312,-3.86473 -2.7481,-3.03826 -4.73425,-6.02825 -4.73425,-7.12719 0,-0.24295 0.634,-0.89312 1.40884,-1.44497 1.33519,-0.95056 1.48747,-0.96561 2.90887,-0.28785 1.28233,0.61161 1.62235,0.6247 2.34224,0.0902 0.65449,-0.48608 2.1599,-0.57342 6.75311,-0.39218 3.25086,0.1291 8.46817,0 11.59417,-0.27213 3.126,-0.27795 7.26831,-0.62893 9.20535,-0.77977 2.10925,-0.16444 3.72731,-0.52196 4.03407,-0.8917 1.61861,-1.95031 2.61289,0.35258 1.89267,4.38423 z m -4.60664,-1.0526 c -1.41281,0.1308 -3.89853,0.54478 -5.52396,0.92194 -3.05971,0.70974 -20.65098,1.47748 -23.64331,1.03191 -0.9868,-0.14676 -1.59581,-0.49262 -1.60319,-0.9101 -0.0198,-1.09096 -0.64964,-1.78904 -1.36668,-1.51391 -1.02798,0.39449 -0.79543,1.73317 0.58281,3.35745 4.1063,4.83863 6.09972,6.91361 8.09809,8.42876 1.23532,0.9366 2.31285,1.8709 2.39455,2.07638 0.27847,0.70002 6.61569,2.30164 9.3758,2.36955 6.53223,0.1609 11.56444,-3.21245 13.12645,-8.7985 0.45442,-1.62549 0.98041,-3.45929 1.16881,-4.07497 0.18839,-0.61569 0.25622,-1.57067 0.1503,-2.12218 -0.17739,-0.92776 -0.38318,-0.98487 -2.76022,-0.76633 z m -17.59975,-0.76598 c -0.38989,0 -0.58247,0.20458 -0.42799,0.4546 0.15393,0.25003 0.47369,0.45478 0.70888,0.45478 0.23541,0 0.42789,-0.20475 0.42789,-0.45478 0,-0.25002 -0.31888,-0.4546 -0.70878,-0.4546 z m 19.88297,121.1007 c -0.72385,0.65529 -2.21154,0.75254 -11.51158,0.75254 -8.41191,0 -11.19415,0.15206 -13.10025,0.71859 -1.99683,0.59304 -2.48736,0.61286 -2.8036,0.11313 -0.67354,-1.0625 -0.43889,-1.55619 1.46754,-3.0885 2.41745,-1.9427 4.48783,-2.4134 10.8659,-2.47086 l 5.22865,-0.0478 -0.0473,-1.13677 c -0.0264,-0.62523 -0.47281,-2.96595 -0.99285,-5.20164 -0.86094,-3.70045 -0.88528,-4.20971 -0.27208,-5.6773 0.37063,-0.88673 1.11111,-2.07797 1.6458,-2.64697 l 0.97216,-1.03474 -1.33486,0.23057 c -3.1293,0.54071 -10.43879,1.14455 -13.85383,1.14455 -3.17885,0 -3.66829,-0.10262 -3.54166,-0.7476 0.0815,-0.41109 0.69952,-1.15956 1.37471,-1.66332 1.04659,-0.78065 2.4888,-1.0022 9.77065,-1.50137 4.69847,-0.32198 9.79862,-0.71999 11.33354,-0.88427 1.88331,-0.20175 2.89411,-0.13261 3.10861,0.21519 0.62828,1.01653 -1.33904,3.36928 -3.993,4.77499 l -2.63866,1.39775 0.2788,2.60382 c 0.15382,1.43206 0.58512,3.63469 0.95927,4.89469 0.71714,2.41552 0.98041,2.61568 6.21071,4.72548 1.50046,0.60526 1.70493,0.87296 1.70493,2.23198 0,0.9184 -0.33683,1.84881 -0.83144,2.29652 z m -0.64149,25.75963 c -1.8549,0 -3.2676,-4.18158 -3.19042,-9.44512 l 0.0352,-2.39784 -5.90582,0.0672 c -4.41318,0.0496 -5.96373,0.21802 -6.13517,0.66484 -0.35665,0.92937 0.74918,5.61575 1.74214,7.38376 0.69028,1.22906 0.76339,1.67041 0.3213,1.94359 -0.6786,0.4196 -2.56301,-0.47722 -3.74327,-1.78144 -1.11442,-1.23154 -1.38363,-5.3516 -0.44506,-6.81794 0.37404,-0.5844 0.59569,-1.14668 0.49263,-1.24976 -0.10241,-0.10252 -1.70482,-0.3142 -3.56005,-0.46928 -3.04937,-0.25514 -3.45501,-0.1906 -4.23128,0.6728 -0.60626,0.67455 -0.72353,1.12439 -0.39926,1.53177 0.2527,0.31741 0.59701,2.02758 0.76526,3.80071 0.23839,2.51278 0.1645,3.34187 -0.33891,3.75899 -1.04362,0.86606 -1.96446,0.15737 -2.98529,-2.29953 -1.14205,-2.74794 -1.22959,-6.03074 -0.22748,-8.53485 1.04978,-2.6238 2.38827,-2.91909 10.86436,-2.39624 5.97684,0.36867 12.64241,0.3692 15.4589,0.001 0.77858,-0.10251 0.96048,0.24083 1.26449,2.38175 0.19512,1.37547 0.47237,4.90494 0.61617,7.84331 0.21923,4.48448 0.15559,5.34239 -0.39815,5.34239 z m -1.36249,7.55757 c -0.81602,0.76032 -3.12072,2.04774 -5.12118,2.86075 -4.88478,1.98514 -6.60579,2.74617 -7.95683,3.51851 -1.48173,0.84713 -4.53011,2.28591 -5.6835,2.68269 -1.79192,0.6164 2.00597,1.61754 7.92004,2.0877 3.14615,0.25019 6.84549,0.59358 8.22098,0.76315 l 2.5008,0.30802 0.13609,2.09848 c 0.12905,1.97788 0.0639,2.1128 -1.13677,2.35009 -0.69996,0.13793 -3.42109,0.0619 -6.04686,-0.16797 -2.62567,-0.23075 -6.92246,-0.54619 -9.54812,-0.70073 -4.90427,-0.28875 -6.42102,-0.74583 -7.90111,-2.3814 -1.38804,-1.5339 -1.08436,-3.19599 0.91038,-4.9808 0.96918,-0.86695 2.37572,-1.85695 3.126,-2.20015 0.75018,-0.34302 1.67091,-0.81991 2.04594,-1.05984 0.37526,-0.23978 2.09549,-1.05703 3.82277,-1.81595 1.72751,-0.75889 3.04452,-1.47624 2.9266,-1.59418 -0.11848,-0.11853 -1.83828,-0.31704 -3.82288,-0.44276 -6.94558,-0.4401 -11.78048,-1.24038 -14.87994,-2.46308 -1.09097,-0.43038 -1.2003,-0.62859 -0.77947,-1.4149 0.70613,-1.3189 3.60146,-2.44399 4.7674,-1.85235 3.99741,2.02882 9.49461,2.48872 25.42939,2.12677 1.22739,-0.0283 2.30448,0.16267 2.39301,0.42259 0.0881,0.26011 -0.50661,1.09523 -1.32263,1.85554 z m -1.61387,-97.10767 c -0.62113,0.48856 -1.53295,0.88835 -2.02667,0.88835 -0.89739,0 -0.91788,-0.70374 -0.0826,-2.87756 0.18146,-0.4728 -0.49296,-1.19865 -2.15175,-2.31561 -1.32869,-0.89487 -2.60717,-1.62708 -2.84093,-1.62708 -0.23376,0 -1.66881,-0.49103 -3.18876,-1.09132 -3.92848,-1.55122 -7.77239,-1.89745 -10.91744,-0.98311 -2.62357,0.76261 -2.67984,0.83794 -2.53703,3.38926 0.12024,2.1342 4.58704,10.08819 6.23307,11.09766 0.32603,0.19997 0.59293,0.76261 0.59293,1.25046 0,0.7108 -0.31667,0.88674 -1.59603,0.88674 -1.25117,0 -2.04131,-0.41746 -3.65717,-1.93245 -5.12503,-4.80452 -6.7008,-11.69743 -3.44278,-15.0591 2.31648,-2.38987 5.84471,-3.92361 9.02653,-3.92361 5.09343,0 12.76672,2.34851 16.60634,5.08264 1.17333,0.83548 1.26879,1.12457 1.19403,3.61719 -0.0694,2.29051 -0.2559,2.84643 -1.21065,3.59754 z m 0.35741,67.95296 c -0.25006,0.15382 -0.45464,0.0636 -0.45464,-0.20052 0,-0.26469 0.20458,-0.48148 0.45464,-0.48148 0.24995,0 0.45453,0.0902 0.45453,0.20052 0,0.10967 -0.20458,0.32694 -0.45453,0.48148 z m -0.5402,-35.99902 c -2.1675,1.3615 -4.55643,1.7917 -8.65205,1.55812 -3.54882,-0.20228 -4.4755,-0.44734 -7.52827,-1.99132 -2.41007,-1.21881 -4.03132,-2.42259 -5.26972,-3.91246 -1.64701,-1.98161 -1.80458,-2.41322 -1.99133,-5.4561 -0.20117,-3.27928 -0.18993,-3.31906 1.4987,-5.27344 1.01179,-1.1707 2.73148,-2.44009 4.24207,-3.13109 2.54781,-1.16542 8.1124,-2.08309 10.43196,-1.72063 5.06976,0.79251 4.69187,0.61038 4.53926,2.1862 -0.13434,1.38518 -0.22419,1.44777 -1.95918,1.36132 -9.12596,-0.45479 -12.05596,-0.0689 -14.51746,1.91141 -1.30545,1.0503 -1.32009,1.11006 -0.74444,3.03544 0.82438,2.7559 2.0619,4.32144 4.80076,6.07336 2.61851,1.67518 8.63388,3.27132 13.15166,3.48988 2.94719,0.1432 3.67016,0.81902 1.99804,1.86931 z m -1.47502,-53.5219 c -0.47391,1.0885 -1.43847,1.82159 -4.188,3.18273 -3.14803,1.55848 -3.95028,1.76606 -6.75509,1.74804 -2.86449,-0.0177 -3.59199,-0.22917 -7.27492,-2.10892 -2.25052,-1.14862 -4.4744,-2.51241 -4.9417,-3.03049 -2.42802,-2.69171 2.40776,-8.10608 8.57927,-9.60567 1.88254,-0.45743 2.84941,-0.43002 5.62416,0.15913 2.45477,0.52162 3.59209,0.5828 4.25363,0.22881 0.49648,-0.26576 1.55221,-0.36142 2.34598,-0.21236 1.34653,0.25249 1.49606,0.47653 2.22938,3.33797 0.92878,3.62426 0.94485,4.4217 0.12729,6.30023 z m -2.8907,-4.8657 c -1.88132,-2.10554 -4.03341,-2.6917 -7.97201,-2.17133 -1.79467,0.23712 -4.13648,0.53824 -5.20387,0.6691 -1.11629,0.13615 -2.46865,0.69631 -3.18282,1.31675 -1.10451,0.9596 -1.16639,1.15481 -0.55991,1.76395 0.37515,0.37662 2.21661,1.44602 4.0921,2.37627 3.01435,1.49498 3.80604,1.69198 6.82017,1.69763 3.3297,0 4.81485,-0.42348 6.47926,-1.87516 1.13215,-0.98754 0.98746,-2.1427 -0.47292,-3.77721 z M 358.0827,311.34892 c -0.46213,0.24721 -1.65472,0.58846 -2.65055,0.75804 -0.99572,0.16974 -2.97901,0.62186 -4.40778,1.00485 -2.85943,0.76669 -4.45029,0.54548 -3.58395,-0.49827 0.28265,-0.34056 1.78895,-0.8574 3.34754,-1.14862 5.08672,-0.9504 5.33468,-1.01724 5.33468,-1.44055 0,-0.2302 -0.36369,-0.41852 -0.80831,-0.41852 -0.44451,0 -1.21164,-0.28132 -1.70504,-0.62524 -0.49307,-0.34371 -2.07743,-0.99636 -3.52041,-1.44989 -3.59859,-1.13147 -3.10387,-1.98285 1.56817,-2.69897 0.91997,-0.14145 2.14273,-0.63707 2.71717,-1.10229 l 1.04449,-0.84571 -1.62466,-0.67882 c -0.89364,-0.37343 -2.73004,-0.82804 -4.08108,-1.01034 -2.97042,-0.40085 -3.33059,-0.58508 -2.67984,-1.36927 0.35895,-0.43251 1.21153,-0.53276 2.97757,-0.35046 1.36095,0.13969 2.47438,0.0902 2.47438,-0.10955 0,-0.66272 -1.5325,-3.85377 -1.85061,-3.85377 -0.17144,0 -1.07962,0.32075 -2.0183,0.71311 -1.11607,0.46627 -1.86118,0.55857 -2.15297,0.26683 -0.60384,-0.60385 -0.0264,-1.43472 0.99704,-1.43472 0.45762,0 1.26284,-0.35806 1.78928,-0.79569 0.83561,-0.69453 0.88527,-0.9366 0.39143,-1.9038 -0.34475,-0.67509 -1.18785,-1.26567 -2.15715,-1.51108 -2.50707,-0.6346 -2.98274,-1.33038 -2.35138,-3.43843 0.293,-0.97744 0.5326,-2.4003 0.5326,-3.16186 0,-1.00221 0.40586,-1.72592 1.46941,-2.62098 l 1.4693,-1.23632 -1.58304,0.35188 c -2.44861,0.54442 -2.9005,0.50446 -3.06192,-0.27054 -0.11672,-0.5598 0.55165,-0.85157 3.01336,-1.31606 3.42021,-0.64538 6.21214,-0.41587 7.2214,0.5934 0.90036,0.90036 1.27297,4.22632 0.5686,5.07488 -0.97215,1.17142 -2.34444,0.76456 -4.20331,-1.24587 l -1.78652,-1.93245 -0.80435,0.99035 c -1.03458,1.27382 -1.59228,5.60957 -0.81634,6.34602 0.30775,0.2921 2.29544,0.97428 4.41703,1.51588 2.12169,0.54158 3.96327,1.09556 4.09209,1.23099 0.12916,0.13617 -0.26591,0.58211 -0.87757,0.99232 -2.94608,1.97648 -2.88618,1.82282 -1.86657,4.77781 0.50618,1.46724 0.82659,2.81955 0.71186,3.00503 -0.11495,0.18549 0.60417,0.65652 1.59735,1.04676 1.44651,0.56812 1.74303,0.8749 1.49044,1.54169 -0.4684,1.23613 -1.25546,1.90257 -3.35833,2.84413 -1.78575,0.79939 -1.83167,0.8664 -0.81426,1.18697 0.59305,0.18689 2.2709,1.11343 3.72874,2.05888 2.3211,1.5056 2.54595,1.77508 1.81031,2.16887 z m -5.35516,-30.76234 c -0.31315,-0.33101 -1.19887,-0.53559 -1.96821,-0.4546 l -1.39882,0.14675 1.59988,1.7392 c 1.75261,1.90557 3.18877,2.01165 2.64395,0.19538 -0.16968,-0.56387 -0.56365,-1.29609 -0.8768,-1.62727 z m -0.92437,11.21859 c -0.23751,0 -0.50518,0.21998 -0.59492,0.48891 -0.0903,0.26877 0.17816,0.48872 0.59492,0.48872 0.41676,0 0.68444,-0.21995 0.59492,-0.48872 -0.0903,-0.26893 -0.35731,-0.48891 -0.59492,-0.48891 z m 3.33631,-52.44683 c -0.61122,2.16638 -2.7774,5.75968 -4.02615,6.67915 -1.69546,1.24814 -3.8242,0.65227 -6.21621,-1.73973 -1.07808,-1.07807 -1.96017,-2.13721 -1.96017,-2.35381 0,-0.73538 2.10287,-1.35531 5.71688,-1.68561 4.09562,-0.37415 5.19539,-0.79834 5.19539,-2.00405 0,-0.96845 1.19149,-1.61137 1.48196,-0.79958 0.1057,0.29671 0.0198,1.15339 -0.1917,1.90363 z m -6.17801,2.35504 c -1.93814,0.13439 -3.57965,0.29546 -3.64814,0.35753 -0.0694,0.0619 0,0.45637 0.16979,0.87667 0.3453,0.9 2.48781,2.09423 3.75737,2.09423 0.84464,0 3.24569,-2.35645 3.24569,-3.18557 0,-0.21322 -1.58569,-0.27742 -3.52383,-0.14322 z m 5.00149,17.69581 c -0.43768,0.13439 -1.64173,0.62506 -2.67576,1.09116 -1.87219,0.84361 -1.87913,0.85597 -1.64603,2.92457 0.26272,2.33047 -0.51299,2.91132 -0.95255,0.7133 -0.2146,-1.07311 -0.5119,-1.36399 -1.39398,-1.36399 -1.48571,0 -1.88562,-0.74033 -0.733,-1.35726 1.33342,-0.71364 1.15339,-1.55122 -0.94342,-4.38969 -1.41688,-1.91796 -1.73818,-2.65157 -1.33573,-3.0496 0.4008,-0.39677 0.64469,-0.32075 1.00166,0.3121 0.58039,1.02908 5.45184,3.39596 7.76942,3.77507 1.80359,0.29494 2.23797,0.93714 0.90939,1.34434 z m -4.70342,-1.18184 c -1.20537,0 -1.30083,0.0972 -0.87383,0.89576 0.40729,0.76067 0.64722,0.8192 1.59317,0.38811 1.40642,-0.64079 1.04626,-1.28387 -0.71934,-1.28387 z m 4.72798,-36.37404 c -0.38968,0 -0.58865,-0.26488 -0.45685,-0.60844 0.12905,-0.33455 -0.0264,-1.20413 -0.34376,-1.93227 -0.31755,-0.72831 -0.83672,-1.93775 -1.15372,-2.68799 -0.99638,-2.35719 -1.02941,-0.36673 -0.0385,2.28308 1.11111,2.96983 1.10825,2.9472 0.37646,2.94048 -0.60934,0 -1.94629,-2.58314 -2.43396,-4.69205 -0.1644,-0.70781 -0.58843,-1.39863 -0.94419,-1.53515 -0.91005,-0.34921 -2.87385,1.63346 -2.87385,2.90161 0,0.58156 -0.19236,1.05736 -0.42766,1.05736 -0.76251,0 -0.91127,-0.73467 -0.47127,-2.32763 0.48514,-1.7574 2.03548,-2.87454 4.67601,-3.36963 2.6315,-0.49333 3.21508,-1.72452 2.8494,-6.01218 -0.1645,-1.93722 -0.41004,-4.08487 -0.54405,-4.77251 -0.32041,-1.64317 1.04968,-1.75051 1.46027,-0.11497 0.22551,0.89823 0.0176,8.92209 -0.32361,12.50441 -0.0352,0.37522 0.25094,1.96075 0.63709,3.52383 0.62652,2.53592 0.62796,2.84165 0.0176,2.84165 z m -1.3843,-34.7077 c -1.40092,0.58525 -1.9682,0.6139 -3.21684,0.16266 -0.83386,-0.30148 -1.57357,-0.47813 -1.64393,-0.39272 -0.0705,0.0849 -0.54779,1.5537 -1.06101,3.26249 l -0.93351,3.10722 1.20889,0.4318 c 0.66484,0.23746 2.02733,0.83546 3.02767,1.32896 1.44078,0.71099 1.55893,0.84767 0.56839,0.6583 -1.26516,-0.24206 -1.4715,0.0371 -0.97876,1.32101 0.24213,0.6309 0.41313,0.63496 1.56872,0.0371 1.5346,-0.79373 1.79699,-0.82415 1.79699,-0.20881 0,0.25409 -0.72221,0.80647 -1.60507,1.22746 -1.14139,0.54425 -1.52071,0.96914 -1.31261,1.47043 0.64744,1.55866 0.7254,2.29616 0.24268,2.29616 -0.27923,0 -0.50771,-0.28185 -0.50771,-0.62628 0,-0.34445 -0.32042,-0.89223 -0.71186,-1.21704 -0.58963,-0.48944 -0.93317,-0.46008 -2.00244,0.17151 -0.70999,0.41941 -1.515,0.76244 -1.78884,0.76244 -0.79543,0 -0.57576,-0.82221 0.29741,-1.11343 0.43757,-0.14676 1.26702,-0.62929 1.8429,-1.07399 0.92535,-0.71417 0.98823,-0.96384 0.54008,-2.14286 -0.58688,-1.54346 -1.19182,-2.01839 -2.58349,-2.02812 -1.47469,-0.0177 -1.61916,-0.63724 -0.65009,-2.81902 0.47964,-1.07911 1.25228,-3.18715 1.71738,-4.68463 0.55583,-1.79028 1.11606,-2.77463 1.63589,-2.87471 0.56244,-0.1078 0.71076,0.0566 0.51399,0.56865 -0.67882,1.76889 2.34412,2.78754 4.17127,1.4057 1.05385,-0.79709 1.56454,-0.86853 1.56454,-0.21871 0,0.26292 -0.76526,0.79779 -1.70064,1.18857 z m 0.60131,-4.08982 c -0.43647,-0.16797 -2.94234,-0.30465 -5.56844,-0.30465 -3.61973,0 -4.7282,-0.13792 -4.58198,-0.56831 0.122,-0.35788 1.18808,-0.59322 2.87947,-0.63566 4.11357,-0.10251 4.16554,-0.11311 4.92782,-0.87455 0.39287,-0.39288 0.7145,-0.5361 0.7145,-0.31826 0,0.21801 -0.22495,0.62098 -0.49967,0.89593 -0.36303,0.36301 -0.11496,0.58385 0.9041,0.80789 0.77209,0.16974 1.54197,0.53187 1.71088,0.80523 0.19941,0.32268 0.0286,0.39023 -0.48668,0.19238 z m -1.43197,87.74988 c -0.39188,0.15031 -0.9443,0.0425 -1.2275,-0.2417 -0.62113,-0.62098 -3.06126,-0.69047 -3.06126,-0.0865 0,0.23534 0.21714,0.5621 0.48272,0.72619 1.73951,1.07505 1.54164,5.21933 -0.28892,6.05339 -1.84764,0.84182 -3.67523,-0.56513 -4.77269,-3.67431 -0.56034,-1.58765 -0.52764,-1.77259 0.51245,-2.90034 1.22937,-1.33286 3.51348,-2.4514 5.00601,-2.4514 1.20966,0 4.06171,1.32348 4.06171,1.88469 0,0.22951 -0.32053,0.5402 -0.71252,0.69066 z m -4.95569,0.72197 c -0.94374,-1.0176 -1.06872,-1.042 -1.76571,-0.34516 -0.8997,0.89966 -0.92679,1.29096 -0.18179,2.62381 1.21616,2.17575 1.76803,2.60649 2.70076,2.10733 1.11728,-0.59801 0.74379,-2.77128 -0.75326,-4.38598 z m 4.87256,-20.35943 c -0.43769,0.17152 -2.33014,0.42437 -4.20563,0.56035 -2.64614,0.19202 -3.29523,0.12552 -2.89741,-0.29971 0.66154,-0.70568 3.50544,-1.36098 5.96649,-1.37476 1.9791,-0.0177 2.55706,0.55538 1.13655,1.11412 z m -0.87141,-44.30311 c -0.70844,0.0177 -1.79984,0.30855 -2.42482,0.6659 -1.37604,0.78667 -3.78567,0.89948 -3.54123,0.16622 0.24885,-0.74653 4.40459,-2.28132 5.74297,-2.12095 1.63799,0.19627 1.82363,1.26921 0.22308,1.28918 z m 0.75788,-27.2967 c -0.25016,0 -0.45475,-0.66484 -0.45497,-1.47768 -1.1e-4,-0.81266 -0.40927,-2.55397 -0.90939,-3.86968 -0.91765,-2.41427 -1.13996,-4.43441 -0.63313,-5.7549 0.52588,-1.37016 1.001,-0.7094 1.03591,1.44036 0.0198,1.18787 0.34343,3.28511 0.72022,4.66058 0.79246,2.89257 0.8942,5.00132 0.24136,5.00132 z m -0.90939,-52.39362 c -1.85886,0.85509 -14.19847,2.91237 -14.66566,2.44522 -0.63619,-0.6362 -0.0661,-0.81107 5.3447,-1.63769 2.75096,-0.4203 5.72656,-0.97446 6.61283,-1.23155 0.88615,-0.25692 2.11387,-0.3844 2.72817,-0.28309 l 1.11662,0.18426 -1.13666,0.52285 z m -0.40168,36.93473 c -0.22088,0 -0.50859,-0.40934 -0.6394,-0.90939 -0.32141,-1.22942 -1.07346,-1.1493 -1.39938,0.14854 -0.71285,2.84041 -4.22951,4.48288 -5.93863,2.77375 -0.81833,-0.81832 -0.96312,-3.62478 -0.21108,-4.08964 0.33738,-0.20847 0.40399,0.001 0.20205,0.63797 -0.50496,1.59135 0.50463,2.87665 2.13315,2.71504 1.15394,-0.11496 1.61244,-0.51648 2.49232,-2.1853 1.49165,-2.82927 1.76802,-3.02925 2.84247,-2.05676 0.9138,0.82698 1.28762,2.96526 0.5185,2.96526 z m -3.20616,8.63881 c -0.73387,0 -1.82528,0.18655 -2.42504,0.41465 -0.59977,0.2281 -1.33882,0.26116 -1.64239,0.0743 -1.26053,-0.77905 1.66331,-1.70806 4.60631,-1.4637 1.35225,0.11313 0.87559,0.97551 -0.53888,0.97551 z m 0.25799,147.71968 c -0.47347,0.39306 -0.7613,0.34761 -1.20834,-0.19097 -0.72122,-0.86906 0.0385,-1.83874 1.1175,-1.42499 0.87768,0.33684 0.91137,0.93502 0.0903,1.61596 z m -2.43881,-176.3793 c -3.92099,0.6827 -4.40206,1.06091 -3.5203,2.76615 0.82417,1.59348 0.83088,1.7956 0.0606,1.7956 -0.91204,0 -1.94288,-3.43559 -1.27308,-4.24277 0.52412,-0.63143 4.7076,-1.66794 6.7324,-1.66794 2.18754,0 0.94892,0.83548 -1.99991,1.34896 z m 1.89333,83.52269 c -0.855,0.32818 -1.78763,-0.47652 -1.35798,-1.17177 0.46312,-0.74936 2.0706,-0.59251 2.0706,0.20211 0,0.38298 -0.32074,0.81937 -0.71262,0.96966 z m -1.20548,-75.77822 c -1.80678,0 -3.53803,1.09362 -3.53803,2.23482 0,0.46804 1.02259,1.55051 2.38706,2.52655 2.07523,1.48457 2.20879,1.66653 1.02292,1.39315 -1.77717,-0.40969 -4.17325,-2.25002 -4.57416,-3.51303 -0.4553,-1.43436 1.98835,-3.55086 4.09991,-3.55086 0.85654,0 1.6839,0.20457 1.83839,0.45477 0.16626,0.26841 -0.34057,0.4546 -1.23609,0.4546 z m 1.01686,-17.50998 c -0.25369,0.15737 -1.90059,0.4058 -3.65959,0.55327 -1.75888,0.14676 -3.30162,0.4355 -3.42803,0.63991 -0.12552,0.20457 0.20139,1.2172 0.72848,2.25037 1.02204,2.00334 0.87152,2.98664 -0.23431,1.52964 -0.84905,-1.11873 -2.25515,-4.69081 -1.96192,-4.98415 0.122,-0.12196 1.43097,-0.328 2.90743,-0.45636 1.47645,-0.12738 3.33333,-0.3365 4.12656,-0.46274 1.42559,-0.22686 2.4147,0.37786 1.52138,0.93006 z m -17.23433,80.45083 c -0.22172,0.13793 -0.68216,-0.0884 -1.02308,-0.49986 -1.01528,-1.22712 -4.1119,-2.40297 -6.35555,-2.41375 -2.537,-0.0177 -4.49455,1.2982 -4.49455,3.00839 0,2.90656 2.38722,4.00476 3.32206,1.52843 0.60772,-1.61046 1.23102,-1.78604 1.20961,-0.34109 -0.0177,1.17054 -1.1914,2.73873 -2.3957,3.19971 -1.10848,0.42454 -2.82202,-0.76739 -3.51763,-2.44663 -0.65034,-1.57033 -0.31687,-2.58704 1.59349,-4.85738 1.14455,-1.36009 1.43452,-1.46514 4.03446,-1.46088 3.93439,0 8.03005,1.98037 8.03005,3.87055 0,0.0902 -0.18142,0.27548 -0.40316,0.41251 z m -1.25629,45.44306 c -0.97462,0.90372 -1.76147,1.193 -3.24481,1.193 -1.71106,0 -2.05586,-0.17506 -2.73272,-1.38802 -0.81955,-1.46902 -0.60207,-1.44301 -4.57076,-0.54814 -1.8214,0.41057 -0.98681,-1.25594 1.0312,-2.05959 1.48882,-0.5927 2.41058,-0.63141 5.60728,-0.23533 2.23887,0.27723 4.10997,0.75818 4.51099,1.15939 0.6109,0.61091 0.54549,0.81531 -0.60118,1.87869 z m -3.22836,-1.52046 c -1.94906,0.0177 -2.07778,0.076 -1.31976,0.65069 0.46184,0.34992 1.12685,0.54814 1.47767,0.44029 0.3508,-0.1078 0.94474,-0.29211 1.31977,-0.40916 1.30014,-0.40616 0.67156,-0.69632 -1.47768,-0.68182 z m 0.99531,-31.04614 c -1.41419,1.77879 -1.98601,1.82865 -3.76799,0.32923 -1.65237,-1.39032 -1.80886,-1.19795 -2.53611,3.1175 -0.4599,2.72953 -0.69207,3.25963 -1.42816,3.25963 -0.61799,0 -0.84131,-0.26983 -0.75201,-0.90919 0.25479,-1.82866 0.63566,-3.53319 1.2333,-5.51904 l 0.61144,-2.03146 -1.39545,0.13791 c -2.07885,0.20511 -2.0145,-0.77959 0.10614,-1.62814 2.04226,-0.81709 4.26434,-0.94227 7.04711,-0.39696 2.2647,0.44363 2.53506,1.56078 0.88161,3.64052 z m -2.62186,-2.52815 c -1.87834,-0.15915 -2.09972,0.25284 -0.75518,1.40411 1.08442,0.92848 1.4476,0.96702 2.18282,0.23163 0.88657,-0.88657 0.36476,-1.48438 -1.42764,-1.63574 z m 2.6537,-47.94098 c -0.84909,1.95385 -1.67359,1.86402 -3.13287,-0.34092 -1.49678,-2.26185 -2.94917,-2.4035 -4.87702,-0.47581 -1.09574,1.09574 -1.28459,1.57704 -1.02626,2.61444 0.28575,1.14737 0.24278,1.2105 -0.4408,0.64733 -2.15859,-1.77845 0.40986,-5.51408 3.79135,-5.51408 1.43169,0 1.96462,0.26947 2.92334,1.47767 0.97816,1.23278 1.2478,1.36468 1.62691,0.79568 1.53973,-2.31067 -1.1304,-3.7811 -6.08504,-3.35071 -2.52107,0.21908 -3.08425,0.15207 -2.91768,-0.3487 0.11497,-0.34496 1.27026,-0.79002 2.60577,-1.00361 2.65193,-0.42401 5.76182,0.43603 7.36166,2.03589 1.00257,1.00256 1.02679,1.49322 0.16975,3.46282 z m -0.44029,7.84314 c -0.34497,0.62522 -1.55211,1.90397 -2.68269,2.84182 -2.76578,2.29404 -4.89928,2.3722 -6.20704,0.22739 -1.04146,-1.70825 -1.16699,-2.68676 -0.302,-2.35487 0.33119,0.12724 1.57581,-0.18618 2.76579,-0.69632 2.27813,-0.97656 3.90681,-1.19689 3.90681,-0.52885 0,0.21925 -1.12156,0.88409 -2.49225,1.47766 -2.45354,1.06251 -2.96843,1.84086 -1.41686,2.14181 1.23084,0.23853 4.13915,-1.94447 4.99601,-3.74996 0.42596,-0.89754 1.0717,-1.63203 1.43508,-1.63203 0.81812,0 0.81706,0.78718 0,2.27335 z m -0.44999,-35.46467 c -0.11311,0 -0.84448,-1.34205 -1.62745,-2.98222 -1.1769,-2.4661 -1.59401,-2.958 -2.41021,-2.84182 -1.25365,0.17858 -1.45433,1.47712 -0.60772,3.9342 0.35805,1.03933 0.47564,1.88984 0.26134,1.88984 -0.45762,0 -1.77403,-2.41588 -1.78428,-3.2738 0,-0.32498 -0.18618,-0.87402 -0.40527,-1.22005 -0.32146,-0.50747 -0.714,-0.38829 -2.03006,0.61533 -1.35742,1.03545 -1.55387,1.38927 -1.16982,2.10681 0.30518,0.5704 0.30748,0.86234 0,0.86234 -0.2502,0 -0.66786,-0.3982 -0.92831,-0.88463 -0.395,-0.7384 -0.19077,-1.16064 1.23438,-2.55096 1.76041,-1.71727 2.88726,-2.32127 5.48898,-2.94244 1.21067,-0.28892 1.55494,-0.21113 1.74679,0.39466 0.13081,0.41499 0.73184,1.90557 1.3341,3.31216 1.0487,2.45 1.33002,3.58058 0.89081,3.58058 z m -0.0921,-14.20861 c -0.32271,0.78313 -1.29167,0.71206 -2.00461,-0.14676 -1.10581,-1.33232 -3.99839,-2.53487 -4.91591,-2.04384 -1.32242,0.70781 -2.33134,2.5835 -2.33134,4.33453 0,0.89665 -0.22846,1.60728 -0.51648,1.60728 -0.81266,0 -0.0921,-3.96251 0.99867,-5.49482 1.35565,-1.9038 3.92465,-1.74749 6.23922,0.3798 1.17231,1.07737 1.46281,0.55822 1.46281,-2.61443 0,-3.54114 0.72019,-4.42452 0.83423,-1.02307 0.0406,1.18787 0.1609,2.67121 0.27001,3.29644 0.10967,0.62522 0.0919,1.39244 -0.0371,1.70505 z m -0.67793,116.85174 c -0.59711,0.59358 -2.2479,0.72885 -3.79984,0.3112 -0.50021,-0.13437 -1.35866,-0.93041 -1.90786,-1.7687 -0.8337,-1.27238 -0.92706,-1.78252 -0.56582,-3.09098 0.63496,-2.29952 1.90133,-3.23488 4.42346,-3.26724 1.6133,-0.0213 2.14233,0.14145 2.14233,0.65458 0,0.44788 -0.54636,0.73326 -1.59135,0.83122 -4.37874,0.41058 -4.40174,4.88586 -0.0283,5.49641 1.52171,0.21254 1.78553,0.37821 1.32756,0.83351 z m -0.9115,-11.27659 c -0.83848,0.51117 -1.79577,0.93006 -2.12766,0.93094 -0.93042,0 -3.26142,-2.54582 -3.26142,-3.56571 0,-1.31854 2.1724,-3.70735 3.37122,-3.70735 1.38679,0 2.85597,1.69569 3.23137,3.72946 0.28803,1.56059 0.19945,1.7512 -1.21351,2.61266 z m -0.88746,-4.5476 c -0.64786,-0.34673 -1.06302,-0.23163 -1.79116,0.49633 -0.52108,0.52127 -0.88197,1.28902 -0.80152,1.70613 0.2014,1.04623 2.38829,1.77755 3.22905,1.07983 0.84414,-0.70056 0.45708,-2.69719 -0.63637,-3.28229 z m -0.44629,-80.8568 c -3.8237,-2.13278 -5.41931,-1.7772 -5.41931,1.20803 0,1.72592 2.01148,4.98662 3.79843,6.15752 0.61691,0.4042 1.36485,1.47132 1.66174,2.37096 0.46485,1.40837 0.42895,1.75863 -0.25727,2.51684 -0.9711,1.07311 -2.58014,1.13093 -4.08221,0.14675 -1.35814,-0.88991 -1.45416,-2.46042 -0.21873,-3.57844 1.08832,-0.98489 0.83282,-2.57625 -0.7124,-4.43727 -0.56989,-0.6864 -1.14933,-1.6071 -1.28759,-2.04614 -0.40386,-1.28123 0.37414,-3.39704 1.57721,-4.28944 1.52205,-1.12899 3.83025,-0.4569 5.90645,1.71956 l 1.5712,1.64723 -2.53752,-1.41542 z m -1.13711,8.86356 c -1.35673,-0.52073 -2.43197,-0.27513 -2.93837,0.67102 -0.92937,1.73654 1.70471,3.55193 3.112,2.14463 0.77942,-0.7794 0.67404,-2.49048 -0.17328,-2.81565 z m -1.66775,-34.42621 c -2.06312,0.29405 -4.51843,0.65158 -5.45627,0.79445 -2.34408,0.35735 -2.17451,-0.49988 0.22739,-1.14916 2.44787,-0.66164 7.14188,-1.26655 8.18422,-1.05489 1.75086,0.35577 0.60507,0.90232 -2.95534,1.4096 z m 2.09335,139.32237 c -0.61923,0.61921 -4.13278,0.2937 -6.89381,-0.63866 -3.15656,-1.06604 -3.39827,-2.0824 -0.36954,-1.55353 1.03049,0.17983 3.08513,0.45902 4.56581,0.62028 2.50392,0.27266 3.44707,0.82238 2.69754,1.57191 z m -3.19228,-72.73871 c -0.56953,0.56971 -4.12518,0.31173 -4.66464,-0.33843 -0.75644,-0.91131 -0.14854,-1.10953 2.58083,-0.84131 2.27159,0.22333 2.76243,0.5011 2.08381,1.17974 z m -14.23884,30.76643 c -0.24578,0 -0.94297,-0.97871 -1.54911,-2.1747 -1.31005,-2.58545 -1.71921,-5.32737 -0.79479,-5.32737 0.46414,0 2.44521,5.27804 2.77322,7.38837 0.0177,0.0619 -0.18337,0.11311 -0.42932,0.11311 z m 0,-34.78269 c -0.73115,0.45196 -1.36398,-0.19326 -1.36398,-1.39084 0,-2.28874 -1.79807,-0.97569 -3.617,2.64113 -1.08549,2.15877 -3.09892,1.33498 -4.41074,-1.80444 -0.63779,-1.5263 -0.41287,-3.76535 0.37821,-3.76535 0.23978,0 0.33154,0.35806 0.20388,0.79569 -0.31881,1.09273 1.13181,3.93226 2.10467,4.11952 0.43815,0.0849 0.79427,-0.12196 0.79427,-0.45885 0,-1.16223 2.74741,-4.00158 3.87197,-4.00158 1.71673,0 3.33339,3.06461 2.03872,3.86472 z m -0.87313,-6.13807 c -0.23022,0 -0.56088,-0.66503 -0.73468,-1.47768 -0.44505,-2.08203 -1.00857,-2.61443 -2.76721,-2.61443 -1.40324,0 -1.53567,0.1184 -1.53567,1.36398 0,1.6879 -0.77535,1.77595 -1.39051,0.15737 l -0.45866,-1.20608 -1.00433,1.07805 c -0.95128,1.02096 -1.01352,1.03122 -1.17496,0.19274 -0.25232,-1.3104 2.94704,-3.98407 4.05674,-3.39014 0.4516,0.24171 1.2388,0.43956 1.7491,0.43956 0.78844,0 0.88692,-0.20493 0.65512,-1.36414 -0.20406,-1.02007 -0.10439,-1.36399 0.39465,-1.36399 0.44735,0 0.99107,1.18063 1.64812,3.57845 1.09327,3.98903 1.16859,4.60577 0.56229,4.60577 z m -0.47618,27.28045 c -0.31402,0.48306 -0.62647,0.54937 -1.07064,0.22739 -0.34497,-0.25003 -1.51656,-1.12687 -2.60383,-1.94838 -1.08725,-0.82149 -2.29421,-1.43346 -2.68232,-1.36008 -0.95713,0.18123 -1.14969,2.33506 -0.27372,3.06214 0.76933,0.63849 0.93661,1.38307 0.31085,1.38307 -0.21696,0 -0.95323,-0.84466 -1.63646,-1.8771 l -1.24215,-1.87693 1.1265,-1.12669 c 1.3631,-1.36291 3.2243,-1.13994 5.33905,0.63938 1.61664,1.36043 1.73848,1.15975 1.91211,-3.15126 0.0672,-1.69038 0.32853,-3.0724 0.57855,-3.07152 0.60171,0 0.82009,8.21129 0.24206,9.09998 z m -0.0177,-37.13313 c -0.37503,0.12553 -2.18353,0.35097 -4.01855,0.50057 -2.5469,0.20794 -3.29218,0.13968 -3.14879,-0.29122 0.10251,-0.30997 0.84786,-0.69861 1.65467,-0.86358 0.80665,-0.16445 1.56696,-0.40013 1.68933,-0.5225 0.122,-0.12196 -0.34833,-1.15552 -1.04606,-2.29581 -0.97197,-1.58818 -1.57969,-2.10697 -2.59764,-2.21714 -0.73097,-0.0796 -1.39935,-0.35875 -1.48528,-0.62133 -0.0972,-0.29918 1.01495,-0.49527 2.98417,-0.52568 1.72716,-0.0265 3.57668,-0.28185 4.11015,-0.56742 0.89523,-0.479 0.91645,-0.59516 0.27724,-1.5079 -0.38086,-0.54372 -0.69578,-1.50596 -0.69949,-2.13791 -0.0177,-2.328 -0.48466,-2.53345 -4.32303,-1.8886 -1.91318,0.32163 -3.58358,0.47954 -3.71196,0.35116 -0.6201,-0.6201 0.57997,-1.12562 3.37511,-1.42162 3.85766,-0.40846 4.26098,-0.70869 3.64583,-2.7131 -0.47582,-1.55035 -0.24737,-2.97921 0.47617,-2.97921 0.21625,0 0.41075,0.25567 0.43214,0.56828 0.23588,3.44708 1.28406,9.10316 1.93899,10.46235 0.76793,1.59385 0.772,1.73779 0.0584,2.11936 -0.42083,0.22526 -1.5286,0.55273 -2.46184,0.72779 -0.93308,0.17505 -1.69658,0.58136 -1.69658,0.90265 0,0.54743 1.75281,2.20033 4.17345,3.9358 0.83316,0.59729 0.91167,0.80471 0.37326,0.98506 z m -1.47767,24.57034 c -0.56263,0.1503 -2.16779,0.2769 -3.56696,0.28044 -1.92749,0 -2.73344,-0.20317 -3.32596,-0.8581 -0.92705,-1.02432 -0.16444,-1.81222 0.89878,-0.92918 0.47139,0.39111 1.62142,0.4698 3.84491,0.26328 2.5469,-0.23677 3.17231,-0.16975 3.17231,0.3372 0,0.34779 -0.46044,0.75553 -1.02308,0.90636 z m 0.26523,-66.85383 c -0.63832,0.6383 -1.06092,0.25409 -1.06092,-0.96455 0,-0.72849 -0.55325,-1.93032 -1.30138,-2.82645 l -1.30155,-1.55901 -0.70144,1.34896 c -0.98895,1.90167 -2.64875,3.33496 -4.22826,3.65094 -1.04854,0.20971 -1.62851,0.0177 -2.59253,-0.88073 -1.22888,-1.13871 -1.66544,-2.55822 -0.78701,-2.55822 0.25002,0 0.45459,0.29972 0.45459,0.66609 0,0.77959 1.37159,1.60727 2.66325,1.60727 1.01989,0 3.69463,-2.07407 3.71672,-2.88214 0,-0.29034 0.31156,-0.92069 0.67474,-1.40058 0.63886,-0.84429 0.69012,-0.84573 1.5728,-0.0459 0.97534,0.8827 3.19405,4.44647 3.19405,5.1304 0,0.22651 -0.13615,0.54814 -0.30306,0.71488 z m -1.93245,84.87287 c -1.58075,0 -1.65679,0.31792 -0.70674,2.95536 0.76456,2.12217 0.83405,2.95533 0.24666,2.95533 -0.87968,0 -1.77968,-1.41614 -2.08947,-3.28741 -0.42047,-2.54071 -0.55609,-2.7168 -1.64317,-2.13509 -0.55327,0.29619 -0.81231,0.76387 -0.65299,1.17903 0.39448,1.02802 -0.16268,1.65255 -0.9161,1.02714 -2.30465,-1.91282 1.92538,-5.12277 5.46706,-4.14852 1.86118,0.51189 2.05232,1.45416 0.29475,1.45416 z m -2.78719,-68.21993 c -1.51215,1.31517 -2.67597,2.61125 -2.58651,2.88001 0.0902,0.26878 1.17337,0.85917 2.40846,1.31201 l 2.24541,0.82325 -2.87789,-0.14323 c -3.59685,-0.17875 -4.1174,-0.81353 -2.4783,-3.02341 0.65405,-0.88162 1.71744,-2.04508 2.36337,-2.58526 0.64573,-0.54036 1.04216,-1.11554 0.8809,-1.27839 -0.1609,-0.16268 -1.44001,-0.4143 -2.84165,-0.55894 -1.7169,-0.17715 -2.54867,-0.46485 -2.54867,-0.88142 0,-0.34021 0.40546,-0.61852 0.90107,-0.61852 1.59403,0 7.28316,1.0846 7.28316,1.38839 0,0.16089 -1.23719,1.37015 -2.74935,2.68533 z m 0.78843,-5.8923 c -0.32835,0 -1.18503,-0.61392 -1.9038,-1.36416 -1.15851,-1.20926 -1.60675,-1.36398 -3.94977,-1.36398 -2.12536,0 -2.64309,-0.14322 -2.64309,-0.73131 0,-0.55946 0.27619,-0.66201 1.1755,-0.43621 1.7314,0.43461 2.73909,-0.0478 3.77772,-1.80799 0.85952,-1.45715 2.32162,-2.16018 2.32162,-1.1166 0,0.2502 -0.19732,0.45477 -0.43868,0.45477 -0.24117,0 -0.66467,0.42226 -0.94103,0.93856 -0.41446,0.77465 -0.29405,1.21157 0.68924,2.50075 0.65529,0.85917 1.48793,1.56201 1.85041,1.56201 0.3623,0 0.65883,0.30696 0.65883,0.68217 0,0.37504 -0.26859,0.68199 -0.59695,0.68199 z m -1.33091,89.04368 c -0.82061,0.82061 -1.70966,0.62204 -1.70966,-0.38194 0,-0.59693 0.30324,-0.90938 0.88268,-0.90938 1.11979,0 1.50968,0.6088 0.82698,1.29132 z m -23.41343,-7.47395 c -0.0584,0.0584 -0.13084,1.93405 -0.15913,4.16761 -0.0283,2.23357 -0.26187,4.31685 -0.51737,4.62947 -0.26912,0.32941 -1.5148,0.56829 -2.96242,0.56829 l -2.49792,0 0.30697,2.86748 0.30712,2.86745 -2.15966,0.65635 c -1.56325,0.47495 -2.36742,1.03298 -2.91149,2.02033 -0.6735,1.22218 -0.93643,1.34418 -2.52744,1.17372 -4.34338,-0.46555 -4.07532,-0.66625 -5.18573,3.88046 -0.25144,1.02943 -0.95766,2.3722 -1.56962,2.98399 l -1.11237,1.11254 1.1136,2.4035 c 1.24127,2.67951 1.39015,3.68118 0.54514,3.66969 -0.51967,0 -2.62346,-4.18653 -2.6171,-5.19935 0.001,-0.23817 -0.65988,-1.11678 -1.46971,-1.95226 -1.225,-1.2639 -1.35867,-1.591 -0.79568,-1.94712 1.01264,-0.64008 2.13738,-0.52904 2.43267,0.24031 0.14322,0.37502 0.4675,0.68198 0.71894,0.68198 0.64061,0 1.84457,-2.46343 1.84457,-3.77438 0,-0.60029 0.23411,-1.76253 0.52002,-2.58296 l 0.52003,-1.49145 2.8535,0.26645 2.85367,0.26648 0.2875,-1.70136 c 0.15737,-0.93589 0.0937,-2.61461 -0.14499,-3.73068 -0.54813,-2.57343 -0.74917,-9.05754 -0.64999,-20.95742 l 0.0779,-9.38023 -1.68137,-0.26628 c -0.92475,-0.14677 -3.93208,0.0318 -6.68284,0.3966 -2.75077,0.36443 -6.78134,0.66449 -8.95675,0.6666 -2.17557,0 -6.16528,0.43745 -8.86618,0.96756 -2.70108,0.5301 -6.3805,0.99372 -8.1768,1.03032 -1.79612,0.0371 -3.4087,0.20936 -3.58323,0.38388 -0.2829,0.28307 -0.0301,1.54963 0.95906,4.78311 0.22793,0.74582 0.12731,1.02307 -0.37078,1.02307 -0.45832,0 -0.78136,-0.65387 -0.98099,-1.98461 -0.5377,-3.58553 -0.75007,-3.68455 -5.97134,-2.78454 -2.48553,0.42826 -5.69266,0.91663 -7.12685,1.08496 -1.43435,0.16797 -2.81353,0.51207 -3.06514,0.76368 -0.97215,0.97215 -1.21563,4.55572 -0.6316,9.29605 0.3227,2.62027 0.59447,6.04932 0.60384,7.62036 0.0195,3.17529 0.87119,5.713 2.13844,6.36758 0.45866,0.23694 2.26628,0.67651 4.01679,0.97692 1.7505,0.3006 3.77631,0.65758 4.50179,0.79373 l 1.3189,0.24737 -0.29989,-2.55183 c -0.23853,-2.02847 -0.16975,-2.55202 0.33737,-2.55202 0.75112,0 1.18663,0.96525 1.19635,2.65157 0.0177,1.78834 0.45053,2.1906 2.77323,2.53274 2.84625,0.41924 3.50207,1.02201 4.00582,3.6819 0.50004,2.64043 1.6216,5.48685 2.33559,5.92819 1.41844,0.87667 13.14856,2.80452 18.49856,3.04022 3.30845,0.14499 3.86861,0.80717 0.6834,0.80681 -2.61956,-3.4e-4 -17.54444,-1.68243 -19.40333,-2.1867 -1.14685,-0.3112 -1.4752,-0.79196 -2.38705,-3.49483 -0.58138,-1.7238 -1.0572,-3.89088 -1.0572,-4.81564 0,-1.9077 -0.4783,-2.2334 -3.27857,-2.2334 l -1.84032,0 0.31367,2.84165 c 0.17329,1.5629 0.62258,4.65193 0.99991,6.86409 0.37751,2.21236 0.56617,4.1425 0.41942,4.28909 -0.62117,0.62135 -1.3631,-1.00185 -1.66847,-3.65006 -0.57307,-4.97002 -1.30191,-10.03268 -1.46848,-10.19924 -0.0884,-0.0884 -2.54918,-0.43675 -5.46794,-0.77394 -3.71071,-0.42861 -5.56659,-0.84784 -6.1699,-1.39386 -1.10246,-0.99779 -2.01555,-4.77746 -1.7452,-7.2241 0.11493,-1.04128 -0.11669,-4.55307 -0.51401,-7.80406 l -0.72301,-5.91069 -1.91707,-0.13969 c -1.76324,-0.12737 -1.94519,-0.0371 -2.26664,1.13677 -0.19221,0.70162 -0.3524,4.03783 -0.35594,7.41382 0,7.02058 0.49846,8.76631 2.61126,9.00997 0.68571,0.0796 1.24694,-0.0743 1.24694,-0.34091 0,-0.26664 0.23622,-0.48483 0.52514,-0.48483 0.29777,0 0.16974,0.3936 -0.29776,0.90937 -0.51471,0.56865 -1.4004,0.9092 -2.36478,0.9092 -1.52648,0 -1.54097,0.0194 -1.44284,1.93245 0.14853,2.91451 -0.50057,3.6658 -4.55767,5.26902 -2.0007,0.79055 -3.8276,1.43753 -4.05975,1.43753 -0.23234,0 -1.12987,0.29564 -1.99487,0.65705 l -1.57262,0.65707 0.88215,3.32135 c 1.40764,5.29962 1.41631,5.36733 0.68251,5.36733 -0.45265,0 -0.99319,-1.23808 -1.68702,-3.86472 -1.12527,-4.25938 -1.30528,-4.39058 -4.08115,-2.97445 -0.95977,0.4898 -2.84147,0.95005 -4.18122,1.02308 -2.30785,0.12553 -2.44152,0.0725 -2.53912,-1.00397 -0.30855,-3.4004 -0.59994,-3.89621 -2.64574,-4.50021 -1.08707,-0.32094 -2.3485,-0.87155 -2.80293,-1.22341 -0.78418,-0.60719 -0.76137,-0.6979 0.4493,-1.77756 0.83724,-0.74671 1.81399,-1.13783 2.84183,-1.13783 l 1.5659,0 0,-2.57712 c 0,-1.41739 -0.22561,-3.87269 -0.50127,-5.45608 -0.36726,-2.10929 -0.36514,-3.66087 0.0177,-5.80373 0.32357,-1.85782 0.39907,-5.23453 0.20704,-9.25698 l -0.30236,-6.33221 -2.36387,0.0335 c -6.27477,0.0902 -6.39571,-5.3774 -0.13262,-5.97929 2.1929,-0.21077 2.34691,-0.16621 1.77791,0.52003 -0.34339,0.41357 -1.28105,0.75058 -2.08823,0.75058 -1.43753,0 -2.9702,1.12475 -2.9702,2.17965 0,0.87579 1.75953,1.51516 3.76836,1.36945 l 1.91494,-0.13967 0.22739,-2.95536 c 0.16798,-2.17998 0.51737,-3.34203 1.33251,-4.42858 1.47042,-1.96004 2.46414,-2.20105 4.38986,-1.06481 0.87932,0.51879 2.40686,1.07241 3.39439,1.2303 2.07426,0.33172 2.2532,-0.12737 1.11343,-2.85455 -0.37503,-0.89771 -0.68198,-2.13226 -0.68198,-2.74335 0,-0.61108 -0.20512,-1.49446 -0.45585,-1.96285 -0.27884,-0.5211 -0.29104,-0.95376 -0.0318,-1.11432 0.61905,-0.38263 0.86606,0.1915 2.06753,4.80328 0.59625,2.28856 1.25188,4.32462 1.45699,4.52461 0.39307,0.38352 3.37847,1.52595 6.05622,2.31756 2.62964,0.77747 3.68825,2.06524 3.43381,4.17698 -0.13615,1.12492 0.13261,2.88886 0.71452,4.68835 l 0.93202,2.88497 2.44964,0 c 2.26965,0 2.50217,-0.10086 3.16506,-1.38362 0.81001,-1.56642 2.23693,-2.25372 4.67986,-2.25424 0.92157,-1.9e-4 3.10776,-0.28699 4.85826,-0.63708 1.75051,-0.35028 3.94995,-0.76863 4.88762,-0.92972 0.93784,-0.16091 1.70506,-0.51366 1.70506,-0.78365 0,-0.69915 -4.4102,-9.82068 -5.46317,-11.29942 -1.31499,-1.84705 -1.91812,-3.62743 -1.22871,-3.62743 0.79109,0 2.48148,2.97887 5.35213,9.43167 l 2.47652,5.56714 3.411,0 c 1.87605,0.001 5.55847,-0.40652 8.18317,-0.90654 2.62486,-0.50023 6.51184,-0.91062 8.63791,-0.91204 2.12623,-0.001 5.89388,-0.30837 8.37288,-0.68199 2.47882,-0.37361 5.90326,-0.67934 7.60974,-0.67934 l 3.10246,0 0.66501,1.59137 c 0.62735,1.50137 1.07134,1.80001 2.41693,1.62515 0.7292,-0.0955 1.20838,1.14524 2.18265,5.64969 1.04889,4.84943 1.27769,5.22871 3.15373,5.22871 2.87931,0 3.77083,0.74052 3.94376,3.27555 0.0849,1.24128 0.10614,2.30467 0.0478,2.36337 z m -1.56661,-4.05445 c -0.16974,-0.16975 -1.05348,-0.32976 -1.96304,-0.35539 -1.80159,-0.0513 -2.64502,0.74475 -2.22366,2.0983 0.14145,0.45459 0.0177,2.97373 -0.28486,5.59826 -0.29829,2.62449 -0.46345,4.85084 -0.36708,4.94719 0.0955,0.0972 1.19176,0.0301 2.43426,-0.14675 2.2159,-0.3151 2.26417,-0.35576 2.52905,-2.13616 0.3577,-2.40348 0.26787,-9.61469 -0.12555,-10.00598 z m -6.23551,-5.12808 c -0.71522,-3.07434 -1.38925,-5.67871 -1.498,-5.78727 -0.10967,-0.10967 -0.69648,-0.25321 -1.30616,-0.32111 l -1.10864,-0.12381 -0.34003,5.91069 c -0.19379,3.37068 -0.14676,7.8647 0.10779,10.45758 0.24667,2.50074 0.57236,6.5414 0.72354,8.97919 0.15208,2.4378 0.46433,4.54955 0.69597,4.69276 0.2318,0.14323 1.14825,0.0212 2.03694,-0.27283 l 1.61559,-0.53328 -0.26186,-4.38687 c -0.14323,-2.41287 -0.0831,-5.61452 0.13438,-7.11501 0.6461,-4.44661 0.56316,-5.6389 -0.80029,-11.50043 z m -68.46294,-3.04906 c -0.33225,-1.50049 -0.74476,-3.79205 -0.91663,-5.09238 -0.17152,-1.30032 -0.55079,-2.54812 -0.84166,-2.77287 -0.84642,-0.65457 -7.08317,-2.55484 -7.38712,-2.25089 -0.15206,0.15206 -0.0672,1.25576 0.18778,2.453 0.46963,2.20227 0.3738,2.88903 -0.40367,2.88903 -0.23535,0 -0.42791,-0.82502 -0.42791,-1.83342 0,-1.00822 -0.28043,-2.50428 -0.6231,-3.32455 -0.54142,-1.29608 -0.94987,-1.5643 -3.12173,-2.05039 -1.37424,-0.30748 -2.88409,-0.85101 -3.35532,-1.20767 -1.2745,-0.96507 -1.65502,-0.83422 -2.90264,0.99726 -1.12793,1.65572 -1.13712,1.7498 -1.17903,12.15945 -0.023,5.76994 -0.19574,11.0409 -0.38334,11.71316 -0.18743,0.67228 -0.12555,3.0252 0.13968,5.22871 0.26399,2.2037 0.61268,6.31383 0.77482,9.13357 0.22492,3.91512 0.48555,5.36272 1.10176,6.12393 l 0.80717,0.99673 2.66607,-0.83036 c 4.09017,-1.27396 4.26876,-1.5406 3.95348,-5.90131 -0.21942,-3.03668 -0.1609,-3.5972 0.32819,-3.13746 0.32746,0.30802 0.74227,1.80479 0.92158,3.32613 0.17946,1.52152 0.40738,2.84749 0.50675,2.94685 0.36885,0.36885 8.52619,-2.43407 9.87125,-3.3919 l 1.39581,-0.99389 -0.25391,-11.22639 c -0.1503,-6.68975 -0.49775,-12.32885 -0.85775,-13.95434 z M 173.68872,240.502 c -0.56263,0 -1.30633,0.18636 -1.65271,0.4058 -0.50517,0.31986 -0.44364,0.49844 0.31101,0.90247 1.43948,0.77023 2.36477,0.61144 2.36477,-0.40579 0,-0.64203 -0.30076,-0.90742 -1.02307,-0.90248 z m 93.9014,23.79217 c -2.11669,0.34355 -3.03244,-0.39184 -1.30563,-1.04836 1.71922,-0.6537 2.99991,-0.58917 2.99991,0.1503 0,0.36636 -0.69719,0.73573 -1.69428,0.89753 z m -1.22535,-2.44293 c -1.24233,0.47228 -2.08185,0.30359 -2.08185,-0.41871 0,-0.60277 2.35751,-1.0296 2.86781,-0.51913 0.31421,0.3142 0.0619,0.61551 -0.78596,0.93784 z m -0.0742,72.5527 c -0.47936,0.15206 -1.52878,0.56035 -2.33206,0.90868 -1.43294,0.62133 -2.32075,0.26875 -1.72999,-0.68713 0.50587,-0.81866 3.84616,-1.58464 4.4178,-1.01317 0.38494,0.38512 0.29459,0.58616 -0.35575,0.79162 z m 0.10075,-3.48084 c -0.83105,0.68976 -5.292,1.24073 -5.292,0.65351 0,-0.35788 4.71982,-2.14198 5.44477,-2.05817 0.53027,0.0619 0.43745,0.91486 -0.15207,1.40466 z m -2.23146,-164.85868 c -0.31739,-0.19999 -1.44797,-0.95695 -2.5126,-1.68209 l -1.93545,-1.31871 -1.12315,1.05526 c -1.28476,1.20696 -2.11528,0.87949 -0.97233,-0.38351 0.96896,-1.07065 0.95358,-1.22412 -0.23499,-2.33155 -1.15286,-1.07399 -0.74494,-1.83678 0.54973,-1.02818 1.28371,0.80169 1.762,0.68657 2.33029,-0.56054 0.51171,-1.12332 1.65661,-1.85871 2.14021,-1.37511 0.14499,0.14499 0.0548,0.40509 -0.20069,0.57909 -0.25479,0.17328 -0.92847,0.98222 -1.49712,1.79629 l -1.03386,1.48016 1.44161,0.79337 c 2.0709,1.1396 3.62531,2.38086 3.62531,2.89487 0,0.24685 -0.25639,0.28274 -0.57696,0.0813 z m -1.54292,-12.98079 c -0.34674,0.85916 -1.72876,0.68164 -2.65423,-0.34107 -0.92493,-1.02203 -1.87904,-1.1831 -2.15241,-0.36337 -0.1114,0.33489 -0.28944,0.37186 -0.46043,0.0955 -0.42153,-0.68217 1.00485,-3.30279 1.96321,-3.60692 0.98258,-0.31191 2.6956,0.48484 2.6956,1.25382 0,0.39413 -0.13969,0.39006 -0.54566,-0.0177 -0.30006,-0.30023 -0.90743,-0.54567 -1.34965,-0.54567 -0.90567,0 -0.71223,1.04147 0.44345,2.38706 0.91151,1.06127 1.39794,1.00274 1.89231,-0.22738 0.37238,-0.92619 0.41058,-0.93697 0.40422,-0.11313 0,0.50021 -0.10967,1.16523 -0.23641,1.47768 z m -2.01025,165.61564 c -1.10794,0 -0.95129,-1.06232 0.18938,-1.2837 0.44858,-0.0865 0.75801,0.14499 0.75801,0.56848 0,0.4217 -0.38882,0.71522 -0.94739,0.71522 z m -3.74236,-49.63896 c -0.57891,0.5439 -1.36558,0.98877 -1.74822,0.98877 -0.90831,0 -2.20102,-1.44532 -2.20102,-2.46079 0,-0.4424 -0.25303,-0.70815 -0.5683,-0.59658 -0.31262,0.1114 -0.52975,0.74157 -0.48272,1.40199 0.11139,1.56008 -0.6613,1.5553 -1.0533,0 -0.36814,-1.46706 0.12907,-2.33807 2.10059,-3.68083 2.23393,-1.52117 3.54946,-1.35354 4.34639,0.55379 0.88957,2.12909 0.83617,2.64486 -0.39342,3.8 z m -0.6095,-3.18132 c -1.52841,-1.68862 -2.85279,-0.63796 -2.00547,1.59084 0.49438,1.3005 1.32878,1.55299 2.21234,0.6696 0.73611,-0.73609 0.68694,-1.27274 -0.20687,-2.26044 z m 0.75237,-95.85879 c -0.50005,0 -0.90938,-0.20459 -0.90938,-0.4546 0,-0.25002 0.40933,-0.45479 0.90938,-0.45479 0.50021,0 0.90937,0.20477 0.90937,0.45479 0,0.25001 -0.40916,0.4546 -0.90937,0.4546 z m -0.61905,156.67481 c -0.39695,0.15207 -1.04836,-0.0494 -1.44779,-0.4493 -0.39943,-0.39943 -1.19795,-0.7262 -1.77473,-0.7262 -1.59277,0 -2.20263,1.04713 -1.84456,3.167 0.39961,2.36459 -0.4615,2.46486 -1.11007,0.12909 -0.65123,-2.34495 -0.63124,-2.45919 0.67951,-3.87267 0.9184,-0.99037 1.4126,-1.18823 2.38704,-0.95553 1.6248,0.38811 2.54213,0.87614 3.24993,1.72893 0.4806,0.57908 0.45637,0.7497 -0.13968,0.97833 z m 0.18195,-50.29337 c -0.44417,0.70231 -0.42331,0.73095 -1.12952,-1.55124 -0.12554,-0.40473 -0.94969,-0.70851 -2.15966,-0.79567 -2.31844,-0.16622 -2.55202,-0.83831 -0.47883,-1.37566 1.19919,-0.31066 1.73583,-0.19272 2.84166,0.62506 1.4011,1.0358 1.66739,1.9259 0.92635,3.09751 z m -0.50287,3.89655 c -0.26717,0.16444 -0.59748,-0.12909 -0.73504,-0.65528 -0.28096,-1.07455 -1.96233,-1.33075 -1.96233,-0.29884 0,0.36088 0.43144,0.95836 0.95853,1.32773 1.36486,0.95588 0.78066,1.4966 -1.97312,1.82619 -1.31764,0.15736 -3.26707,0.40969 -4.33223,0.55999 -3.91334,0.55167 -5.61558,-0.86765 -4.73184,-3.94518 l 0.44842,-1.56166 0.0406,1.72821 c 0.0371,1.53797 0.22049,1.8032 1.67128,2.40952 1.20555,0.50356 2.00549,0.5674 3.06922,0.24488 0.79127,-0.23994 1.98054,-0.55556 2.64273,-0.70143 1.02113,-0.22492 1.19371,-0.49015 1.13659,-1.74591 -0.0619,-1.36043 0.0548,-1.49236 1.44019,-1.62531 2.15735,-0.20706 3.80778,1.52152 2.32657,2.43709 z m -1.06268,35.03747 c -0.9833,0.37715 -3.68084,0.0177 -3.68084,-0.50111 0,-0.25003 0.7674,-0.51808 1.70506,-0.5957 0.93785,-0.0777 1.70507,-0.32376 1.70507,-0.54689 0,-0.22333 -0.82291,-1.06712 -1.82849,-1.87534 -2.05232,-1.64919 -2.10803,-2.33206 -0.21747,-2.66555 1.89195,-0.33365 1.8168,-1.00344 -0.24472,-2.18105 -1.8246,-1.04216 -2.03501,-1.91088 -0.46274,-1.91088 0.45655,0 1.19282,0.56264 1.63611,1.25029 0.4431,0.68764 1.08053,1.41401 1.41631,1.61399 0.97532,0.58086 0.70763,1.66794 -0.52639,2.13704 -0.62506,0.23782 -1.13659,0.53045 -1.13659,0.65069 0,0.12023 0.51153,0.97214 1.13659,1.89337 1.30439,1.92202 1.38944,2.38899 0.4981,2.73114 z m -0.15737,-19.87652 c -0.8871,1.06833 -3.75121,1.85022 -3.75121,1.02395 0,-0.27796 0.71612,-0.80453 1.59137,-1.17018 0.87525,-0.36585 1.59137,-0.77518 1.59137,-0.90992 0,-0.13438 -0.81832,-0.76138 -1.81858,-1.3928 -1.98939,-1.25593 -2.33472,-2.04613 -0.89417,-2.04613 0.76863,0 4.07691,2.71398 4.07691,3.34452 0,0.10615 -0.35807,0.62346 -0.79569,1.15056 z m -1.35036,24.1191 c -1.15163,0.31792 -1.83962,0.3188 -2.15595,0 -0.65352,-0.65352 0.5354,-1.32047 2.36955,-1.32915 1.9938,-0.0177 1.87126,0.75113 -0.2136,1.32667 z m 0.66837,-18.40769 c -2.08911,0.64362 -2.99194,0.65334 -3.22924,0.0353 -0.13968,-0.36531 -0.0459,-0.79285 0.20794,-0.95023 0.25462,-0.15736 0.66113,-0.80752 0.90355,-1.44478 l 0.44044,-1.15869 1.12281,1.05473 c 1.21987,1.14596 1.45397,2.18688 0.5545,2.46397 z m -0.54195,-12.65438 c -2.19096,0.84078 -3.3111,-1.33302 -1.53797,-2.98505 0.97657,-0.9099 1.07736,-0.92121 1.61754,-0.18246 0.77499,1.06002 0.73008,2.85685 -0.0796,3.16751 z m -0.70851,-1.64422 c -0.25002,0 -0.4546,0.21677 -0.4546,0.48164 0,0.2647 0.20458,0.35506 0.4546,0.20052 0.25002,-0.1556 0.45478,-0.37132 0.45478,-0.48165 0,-0.10967 -0.20476,-0.20051 -0.45478,-0.20051 z m -5.97275,-39.06894 c -0.53435,0.28591 -1.7109,0.50305 -2.61444,0.48236 -0.90372,-0.0213 -3.89372,-0.0443 -6.64447,-0.0531 -4.48658,-0.0177 -5.1318,-0.12024 -6.26785,-1.03455 -0.80524,-0.64769 -1.30192,-1.51533 -1.36398,-2.38263 -0.11316,-1.59456 -0.58704,-1.55406 10.71713,-0.91964 6.06575,0.3402 7.74924,0.69437 6.97636,1.46706 -0.14322,0.14323 -3.84669,0 -8.23089,-0.33206 -4.38438,-0.32535 -8.0783,-0.48484 -8.20879,-0.35416 -0.13084,0.13081 0.1397,0.70338 0.60101,1.27274 0.70692,0.87313 1.26125,1.0319 3.53513,1.0121 1.48315,-0.0177 3.94339,0.19504 5.46721,0.4622 2.67739,0.46946 3.29077,0.39113 6.20916,-0.79161 1.14684,-0.46486 0.99549,0.5453 -0.17505,1.17195 z m -1.70648,-27.96968 c -0.0972,0.0972 -0.3531,0.0672 -0.5683,-0.0655 -0.5552,-0.34302 -0.49491,-7.00821 0.0636,-7.00821 0.25003,0 0.46504,0.15384 0.47777,0.34092 0.14676,2.15047 0.16445,6.59585 0.0265,6.73254 z m -0.74263,57.04448 c -0.57909,0.48042 -0.64557,0.45231 -0.40598,-0.17152 0.15737,-0.4104 0.4691,-0.74634 0.69241,-0.74634 0.58457,0 0.50253,0.26327 -0.28643,0.91803 z m -8.24733,-56.84326 c -0.41499,0 -1.51781,-3.47343 -1.51781,-4.78046 0,-0.37167 0.30696,-0.67563 0.682,-0.67563 0.40261,0 0.6841,0.41905 0.68711,1.02307 0,0.56265 0.13262,1.7903 0.2868,2.72814 0.1556,0.94279 0.0937,1.70488 -0.13792,1.70488 z m -8.24487,89.67563 c -0.42312,0.6827 -1.3279,1.47254 -2.0106,1.75527 -1.06215,0.43992 -1.52453,0.34816 -3.20271,-0.6353 -1.07878,-0.63214 -2.46521,-1.56857 -3.08089,-2.08115 -1.63787,-1.36276 -0.13791,-1.26055 2.56139,0.17505 1.17567,0.62504 2.49138,1.13658 2.9237,1.13658 1.2623,0 2.03729,-1.35478 1.99044,-3.48014 -0.0301,-1.37423 0.14322,-1.97596 0.5683,-1.97596 0.33666,0 0.61196,0.28132 0.61196,0.62524 0,0.34373 0.0919,1.21332 0.20388,1.93227 0.11847,0.76279 -0.11669,1.82424 -0.56547,2.54831 z m -2.25284,-39.20738 c -3.84828,0.76279 -4.08681,0.86128 -4.32923,1.78835 -0.49598,1.89654 -5.47323,3.65182 -6.05515,2.13542 -0.15559,-0.40703 -0.14675,-1.09822 0.023,-1.53585 0.29194,-0.75783 0.32783,-0.75783 0.75325,0 0.58174,1.03634 1.41172,1.00646 2.73822,-0.099 l 1.07329,-0.89434 -1.13659,-0.0865 c -0.62524,-0.0478 -1.39246,-0.0777 -1.70507,-0.0655 -0.31261,0.0177 -0.56847,-0.15383 -0.56847,-0.36689 0,-0.67899 1.70046,-1.32933 3.49393,-1.33622 0.9543,0 3.03067,-0.31227 4.61444,-0.68571 1.58359,-0.37327 3.06709,-0.56281 3.29625,-0.42099 0.95358,0.58933 0.2677,1.0784 -2.19733,1.56714 z m 1.47767,-49.55888 c -0.56052,0 -0.70516,-0.3577 -0.59712,-1.47766 0.0779,-0.81267 0.3471,-1.47767 0.59712,-1.47767 0.2502,0 0.51879,0.665 0.59729,1.47767 0.10791,1.11996 -0.0371,1.47766 -0.59729,1.47766 z m -1.89443,40.16309 c -0.16621,0.1662 -2.31509,0.30307 -4.77411,0.30307 -3.67109,0 -4.47085,-0.12196 -4.47085,-0.68199 0,-0.54461 0.67563,-0.68198 3.35319,-0.68198 1.84422,0 3.99256,-0.12737 4.77409,-0.28416 1.07171,-0.2143 1.42074,-0.12197 1.42074,0.37893 0,0.36459 -0.13615,0.79939 -0.30306,0.96613 z m -4.35734,4.70567 c -1.44815,0.92795 -3.74838,1.46476 -4.19961,0.98011 -0.31421,-0.33738 -0.27991,-0.56123 0.10779,-0.70322 0.31261,-0.11496 0.56829,-0.55963 0.56829,-0.98893 0,-1.81752 2.05657,-2.45814 3.33975,-1.04023 0.90178,0.99655 0.93095,1.2738 0.18407,1.75227 z m -0.67828,35.26805 c -0.29369,1.2699 -1.89567,0.94085 -2.75288,-0.56547 -1.50579,-2.64627 -2.8169,-1.14844 -1.61789,1.84811 0.40137,1.00326 0.6155,1.93846 0.47581,2.07814 -0.49209,0.49208 -1.16046,-0.32304 -1.94094,-2.36654 -0.76562,-2.00493 -0.76191,-2.10095 0.12731,-3.29165 1.31642,-1.76324 3.53443,-1.70063 4.88833,0.13791 0.55255,0.75024 0.92175,1.72222 0.82061,2.15985 z m -0.6208,-22.36685 c -0.70074,0.37505 -0.82292,0.64823 -0.45479,1.01637 0.84432,0.8443 0.58174,1.17478 -1.34452,1.69355 -2.1319,0.57414 -2.14287,1.3067 -0.0301,2.01804 1.42038,0.47829 1.51781,1.15674 0.16621,1.15674 -1.14914,0 -3.74396,-1.44671 -3.74396,-2.08734 0,-0.3409 0.56264,-0.9716 1.25028,-1.40199 0.68766,-0.43019 1.33763,-0.84625 1.44444,-0.92441 0.10614,-0.0777 -0.18796,-0.42171 -0.65477,-0.76314 -0.80257,-0.58686 -0.77093,-0.66148 0.57891,-1.35939 1.57369,-0.81389 3.74643,-0.9877 3.74643,-0.29988 0,0.24136 -0.43108,0.66944 -0.95817,0.95145 z m -0.17152,16.59638 c -0.66166,0.86588 -0.67987,0.86357 -0.95588,-0.11497 -0.19769,-0.70161 -0.69543,-1.03881 -1.67748,-1.13659 -0.76775,-0.0761 -1.48015,-0.39484 -1.5827,-0.70745 -0.2479,-0.75519 3.59225,-0.77534 4.34496,-0.023 0.70108,0.70108 0.68729,0.91379 -0.12908,1.98178 z m -0.0601,-75.68681 c -0.39838,0.33064 -0.94722,1.12103 -1.21952,1.75651 l -0.49491,1.15533 -0.16799,-1.22784 c -0.19963,-1.4621 0.57449,-3.09148 1.46884,-3.09148 0.99478,0 1.21315,0.74353 0.41323,1.40748 z m -0.59906,69.06724 c -0.23322,0 -0.54938,0.39503 -0.70269,0.87774 -0.15912,0.49915 -0.87206,1.00821 -1.65449,1.18008 -1.63963,0.36 -2.10696,0.039 -1.32029,-0.90973 0.46361,-0.55839 0.46203,-0.9649 0,-2.09901 -0.48643,-1.17443 -0.47671,-1.47343 0.0584,-1.81221 0.94562,-0.59854 1.90397,-0.50765 3.04039,0.28821 0.99407,0.69632 1.4156,2.47492 0.5865,2.47492 z m -1.88718,-1.81874 c -1.10813,0 -0.95147,1.0625 0.18918,1.2837 0.4486,0.0865 0.75803,-0.14499 0.75803,-0.5683 0,-0.42172 -0.38883,-0.7154 -0.94721,-0.7154 z m 0.0548,-100.49658 c -0.23269,0.36796 -0.56176,0.53011 -0.73115,0.36072 -0.41605,-0.41606 0.11316,-1.7116 0.69914,-1.7116 0.57749,0 0.58863,0.47086 0.0318,1.35088 z m -2.23959,125.6994 c -0.50074,0.30944 -1.51975,-0.84926 -1.10847,-1.26036 0.16444,-0.16445 0.57201,-0.29917 0.90531,-0.29917 0.67739,0 0.82999,1.17195 0.20316,1.55953 z m 0.10075,-130.53608 c -0.58332,0.58332 -1.0609,0.2951 -1.0609,-0.63991 0,-0.66962 -0.5264,-1.16417 -1.81416,-1.70506 -2.08116,-0.8742 -2.26717,-1.25311 -0.75644,-1.54186 1.80161,-0.34444 4.72919,2.78913 3.6315,3.88683 z m -0.6063,-6.97161 c -0.50517,0 -0.90939,0.30306 -0.90939,0.68199 0,0.37504 -0.20458,0.68199 -0.45459,0.68199 -0.25003,0 -0.4546,-0.22084 -0.4546,-0.49084 0,-0.30873 -0.50588,-0.37964 -1.36416,-0.19115 -0.87295,0.19168 -1.36398,0.11853 -1.36398,-0.20264 0,-0.27618 0.60243,-0.62258 1.33887,-0.76987 1.00876,-0.20173 1.373,-0.55467 1.47768,-1.43134 0.076,-0.63991 0.41605,-1.2547 0.75483,-1.3661 0.44983,-0.14852 0.53081,0.0655 0.30025,0.79268 -0.24544,0.77359 -0.10428,1.0503 0.63441,1.24338 1.20997,0.31651 1.23844,1.0519 0.0406,1.0519 z m -1.08797,15.91367 c -0.34833,0 -0.75608,-0.32004 -0.9062,-0.71099 -0.50959,-1.32808 -1.29695,-0.13615 -1.03297,1.56431 l 0.25586,1.64725 -0.88781,-1.07329 c -1.01211,-1.22394 -1.13552,-2.36177 -0.34196,-3.15515 0.78772,-0.78773 1.92784,-0.67102 2.79391,0.28591 0.91891,1.01529 0.9541,1.44196 0.11846,1.44196 z m -0.7407,-28.09329 c -1.2936,0.73611 -2.71805,0.68571 -2.71805,-0.0955 0,-0.19627 0.56246,-0.49793 1.24976,-0.6705 1.20236,-0.30183 1.21633,-0.33826 0.36778,-0.95871 -0.48501,-0.35471 -1.25206,-0.64485 -1.70435,-0.64485 -1.21493,0 -0.99868,-0.865 0.34373,-1.3753 1.72062,-0.65424 2.6132,-0.56016 2.30519,0.24259 -0.15384,0.40226 0.1079,0.91787 0.63336,1.24604 1.24091,0.77517 1.11979,1.34772 -0.47742,2.25674 z m -0.78595,7.11554 c -0.68782,-0.0725 -1.49147,0.0177 -1.78604,0.19962 -0.84095,0.51968 -1.18681,-1.32931 -0.51331,-2.74421 0.32924,-0.69171 1.05808,-1.45965 1.61966,-1.70649 0.56157,-0.24683 1.02095,-0.70709 1.02095,-1.02289 0,-0.31579 0.19503,-0.5743 0.43356,-0.5743 0.23835,0 0.39183,0.88868 0.3409,1.97506 -0.0814,1.73529 -0.18636,1.91671 -0.86747,1.49483 -0.42613,-0.26399 -0.91185,-0.34322 -1.07912,-0.17506 -0.55787,0.5577 0.22173,1.70737 1.1578,1.70737 0.508,0 0.92371,0.21995 0.92371,0.4889 0,0.26894 -0.56281,0.43003 -1.25064,0.35788 z m -0.2044,15.88537 c -0.74247,0.74246 -1.27309,0.6857 -1.27309,-0.13615 0,-0.37503 0.0849,-0.68198 0.19025,-0.68198 0.10428,0 0.51384,-0.12382 0.90937,-0.27602 0.84856,-0.32552 0.95059,0.31739 0.17329,1.09452 z m -12.28041,114.4067 c -0.5729,0.12025 -3.95721,0.29387 -7.52063,0.38565 -5.85429,0.15029 -7.27714,-0.0318 -6.07318,-0.775 0.7536,-0.46574 14.09226,-0.7085 14.36845,-0.2615 0.14676,0.23763 -0.20176,0.53062 -0.77464,0.65085 z m -0.26824,-37.06982 c -1.15869,0.62011 -1.90999,0.64575 -1.90999,0.0655 0,-0.69294 1.57792,-1.35513 2.24559,-0.94244 0.46822,0.28928 0.39201,0.48819 -0.3356,0.87755 z m -0.80293,42.34502 c -1.47537,0.56106 -2.01644,0.5607 -2.01644,-8.8e-4 0,-0.66377 2.16126,-1.95207 2.70815,-1.61417 0.807,0.49881 0.52745,1.15144 -0.69171,1.61489 z m -0.16974,-44.58089 c -1.66971,0.69171 -2.82698,0.15738 -1.60075,-0.73998 0.93696,-0.68518 2.93732,-0.83034 2.93732,-0.21307 0,0.21961 -0.60136,0.64857 -1.33657,0.95305 z m 0.0177,47.51167 c -1.15975,0.36813 -3.05047,-0.57024 -2.41976,-1.20095 0.58527,-0.58527 2.93942,-0.30236 3.16329,0.38016 0.0955,0.29122 -0.23907,0.66076 -0.74353,0.82079 z m -4.10803,-20.9256 c -1.37317,1.24286 -2.06735,0.65672 -0.93183,-0.78701 0.53806,-0.68411 1.16665,-1.12739 1.39669,-0.98523 0.63726,0.39378 0.50623,0.89364 -0.46486,1.77224 z m -1.6467,-20.20911 c -1.52418,0 -1.61206,0.0796 -1.47768,1.34382 0.18549,1.74626 -0.66377,1.78498 -1.11325,0.0513 -0.27919,-1.07718 -0.62664,-1.36539 -1.78374,-1.47978 -1.92873,-0.19062 -2.27618,-1.27877 -0.40828,-1.27877 1.26302,0 1.402,-0.13791 1.402,-1.40182 0,-0.79779 0.21058,-1.33179 0.48872,-1.23896 0.26877,0.0902 0.49369,0.3623 0.49952,0.60613 0.0265,1.12458 0.97585,2.02086 2.42736,2.29317 2.06559,0.38741 2.04314,1.10565 -0.0353,1.10565 z m -1.4844,17.88908 c -1.5118,1.36823 -3.71531,0.68695 -3.71531,-1.14843 0,-1.00416 -1.69516,-1.47908 -4.11952,-1.15392 -2.18724,0.29352 -2.55573,-0.7971 -0.42719,-1.26443 1.44019,-0.31633 2.8146,-0.11496 6.70638,0.98258 2.52567,0.71223 2.91308,1.35584 1.55564,2.5842 z m -2.01025,-1.51392 c -0.82733,0 -0.89258,0.0921 -0.34107,0.44771 0.88161,0.56972 1.36415,0.56972 1.36415,0 0,-0.25002 -0.46044,-0.45142 -1.02308,-0.44771 z m 2.53859,-8.03958 c -0.49863,0.4988 -1.06091,0.3441 -1.06091,-0.29193 0,-1.11078 -1.13129,-2.09742 -2.71417,-2.36707 -1.83591,-0.31261 -2.02935,-0.44363 -1.6239,-1.09963 0.43657,-0.70639 1.58111,-0.58138 3.76977,0.41216 1.48705,0.67511 1.93228,1.1267 1.93228,1.96021 0,0.59589 -0.13615,1.21969 -0.30307,1.38626 z m -1.04483,16.889 c -0.24259,0.1503 -0.70144,-0.14499 -1.01988,-0.65459 -0.31845,-0.50976 -0.92724,-0.92688 -1.35284,-0.92688 -1.12226,0 -0.68605,1.59172 0.78259,2.8549 l 1.20644,1.03776 -0.99779,1.6911 c -0.54884,0.93005 -1.2844,1.69109 -1.63486,1.69109 -0.74723,0 -0.82769,-0.537 -0.17788,-1.18681 0.4371,-0.4371 0.0318,-3.8458 -0.67579,-5.67428 -0.4447,-1.1502 0.929,-2.01344 2.24806,-1.41243 1.28477,0.58527 2.28219,2.17204 1.62195,2.58014 z m -1.03915,-4.14144 c -1.51057,0.40474 -3.06904,0.34408 -3.06904,-0.12025 0,-0.55361 1.16735,-0.95799 2.76526,-0.95799 1.56926,0 1.76288,0.68659 0.30378,1.07752 z m 0.11316,-7.89761 c -1.1953,1.19531 -1.75068,1.14738 -2.26116,-0.19537 -0.54001,-1.42039 -0.0707,-4.35134 0.69631,-4.35134 0.71205,0 2.47422,2.14852 2.47422,3.0167 0,0.34126 -0.40916,1.0298 -0.90937,1.53001 z m -0.40316,-2.46891 c -0.22172,-0.13615 -0.6689,0.0708 -0.99371,0.46256 -0.48661,0.58633 -0.47954,0.7803 0.0406,1.10158 0.3471,0.21465 0.79426,0.28927 0.99371,0.16622 0.4875,-0.30114 0.46133,-1.41987 -0.0406,-1.73001 z m -1.75653,-115.97278 c -3.85199,0.50728 -4.40773,0.75536 -6.17786,2.75748 -1.83167,2.07144 -1.86155,2.92457 -0.10251,2.92457 0.57978,0 1.3272,0.32907 1.66103,0.73115 0.51313,0.61834 0.48643,0.8192 -0.17152,1.30085 -0.42842,0.31333 -1.29041,0.47193 -1.91529,0.35258 -1.36468,-0.26099 -1.4874,0.36001 -0.22668,1.1472 1.13747,0.71046 1.21102,2.7513 0.11316,3.15462 -0.43762,0.16091 -0.96172,0.56794 -1.16471,0.90461 -0.20281,0.33684 -0.52125,0.51808 -0.70745,0.40296 -0.41923,-0.25904 -0.31208,-3.38854 0.15384,-4.4758 0.18867,-0.44081 0.20175,-1.74272 0.0301,-2.89346 -0.28238,-1.88383 -0.18831,-2.22296 0.94651,-3.40747 1.29856,-1.35532 1.16788,-1.99186 -0.46928,-2.28822 -0.47936,-0.0865 -0.95836,-0.41799 -1.06427,-0.73591 -0.13969,-0.42048 0.40792,-0.55944 2.00848,-0.5096 1.2105,0.0371 3.78657,-0.0849 5.7245,-0.27105 2.38546,-0.22986 3.52381,-0.18443 3.52381,0.14145 0,0.26418 -0.97179,0.60826 -2.15966,0.76473 z m -6.02439,6.36405 c -0.25019,-0.15383 -0.45477,-0.0761 -0.45477,0.17328 0,0.25002 0.20458,0.58121 0.45477,0.73575 0.25003,0.15382 0.45461,0.0761 0.45461,-0.17328 0,-0.25003 -0.20458,-0.58104 -0.45461,-0.73558 z m 6.54636,18.08181 c -0.18283,0.18283 -1.50509,0.3326 -2.93819,0.3326 l -2.6056,0 0.0672,1.45203 c 0.0513,1.12633 -0.18795,1.58376 -1.06975,2.03925 -1.34487,0.6949 -4.54671,0.7978 -4.54671,0.14676 0,-0.25002 0.60047,-0.45461 1.33445,-0.45461 1.88152,0 3.66704,-0.76439 3.66704,-1.56961 0,-0.37556 -0.50977,-1.01688 -1.13288,-1.42516 -1.59243,-1.04323 -1.00274,-1.57811 1.37989,-1.25151 2.36813,0.32463 2.62364,-0.21926 0.78313,-1.66705 -0.86693,-0.68199 -1.62213,-0.90213 -2.49579,-0.72743 -0.68889,0.13791 -1.61276,0.10615 -2.05322,-0.0725 -0.60065,-0.24189 -0.40314,-0.38069 0.79074,-0.5561 1.21616,-0.17841 1.62567,-0.47476 1.73671,-1.25664 0.18265,-1.28618 0.80629,-1.32509 1.13429,-0.0708 0.20917,0.79923 0.47334,0.903 1.64442,0.64592 0.88497,-0.19451 1.39544,-0.12737 1.39544,0.18424 0,0.27001 -0.32198,0.49085 -0.71541,0.49085 -0.43108,0 -0.65563,0.30996 -0.5651,0.77995 0.14322,0.74476 1.16929,1.41278 3.4697,2.25956 0.5789,0.21306 0.90283,0.537 0.71983,0.71999 z m -1.20396,-8.12357 c -3.39137,0.51383 -9.43451,0.70939 -9.43451,0.30519 0,-0.63496 1.11026,-0.84572 6.25178,-1.18646 3.18043,-0.21077 4.66041,-0.15559 4.66041,0.17505 0,0.26576 -0.66502,0.58387 -1.47768,0.7071 z m -12.22858,10.54297 c -0.63726,0.39361 -0.8689,-1.56412 -0.80755,-6.82147 0.0353,-3.02253 -0.19891,-7.18837 -0.52072,-9.25734 -0.44859,-2.88426 -0.46026,-3.88647 -0.0495,-4.29668 0.41022,-0.41022 0.54725,-0.38123 0.5874,0.12381 0.0283,0.36265 0.0884,0.86393 0.13437,1.11395 0.80258,4.49437 1.29201,18.74524 0.65723,19.13725 z m -16.71077,96.12314 c -0.41075,3.33922 -1.4409,5.13553 -4.88691,8.52124 -3.94005,3.87093 -9.3613,7.03225 -15.04089,8.77108 -1.69374,0.51862 -4.51188,1.52524 -6.26238,2.23711 -1.75051,0.71171 -3.54079,1.41067 -3.97841,1.55301 -1.15605,0.37608 -0.97622,-0.39591 0.22738,-0.97641 2.37556,-1.1456 -3.56077,-0.49331 -11.02587,1.21157 -5.32153,1.21545 -22.579546,-0.2967 -28.777208,-2.52144 -5.932266,-2.12942 -7.610451,-3.23311 -12.371111,-8.13576 -4.626811,-4.76473 -6.511165,-7.67163 -7.500287,-11.56977 -0.285569,-1.12528 -0.799393,-2.96666 -1.141723,-4.09194 -1.210144,-3.9777 -2.188828,-10.28075 -2.224019,-14.32229 -0.04239,-4.97373 1.292716,-13.809 2.506405,-16.57515 1.691795,-3.85535 7.174056,-8.13205 11.315142,-8.82679 1.572096,-0.26379 1.577579,-0.25903 0.454597,0.38867 -0.625222,0.36069 -1.516391,0.66305 -1.980534,0.6719 -0.898414,0.0177 -3.488987,1.8596 -6.36635,4.52761 -1.970822,1.82743 -3.471127,4.84696 -3.481565,7.0068 0,0.79196 -0.411632,3.6665 -0.906364,6.38773 -0.580496,3.19441 -0.806825,5.85288 -0.638314,7.50207 0.334005,3.27202 1.900969,11.37207 2.42913,12.55729 0.222784,0.50022 0.956761,2.75094 1.630971,5.00149 1.1014,3.67606 1.533194,4.4385 4.246472,7.49852 1.661383,1.87357 4.006533,4.36299 5.211546,5.53176 3.719731,3.60817 9.232404,5.79364 16.905442,6.70249 2.500745,0.29617 6.14462,0.74741 8.09776,1.00291 4.12783,0.54 9.25308,0.20103 15.25449,-1.00876 2.34055,-0.47174 5.1028,-0.86516 6.13808,-0.87401 1.82654,-0.0177 4.20775,-0.51877 9.38447,-1.9823 1.37528,-0.38883 3.01227,-0.83477 3.63732,-0.99089 1.75369,-0.4378 4.05869,-1.52083 7.04746,-3.31093 6.40737,-3.83785 10.55624,-8.6215 10.60291,-12.22505 0.0177,-1.06128 0.1503,-2.13333 0.30466,-2.38211 0.49633,-0.8031 -0.75217,-6.09546 -1.83996,-7.79929 -0.5805,-0.90955 -1.35037,-2.35928 -1.71073,-3.2218 -0.36035,-0.86234 -1.37352,-2.26664 -2.25142,-3.1205 -0.87809,-0.85386 -2.43992,-2.67774 -3.47095,-4.05303 -3.27574,-4.36972 -11.40462,-13.11763 -13.50929,-14.53803 -2.10414,-1.4202 -5.70346,-3.1944 -6.48022,-3.1944 -0.2449,0 -1.98797,-0.6178 -3.87356,-1.37282 -1.88542,-0.755 -4.40738,-1.5597 -5.60408,-1.78834 -2.95217,-0.56404 -11.04038,-3.77348 -8.54141,-3.38924 1.00027,0.15382 3.14861,0.65652 4.77411,1.11713 1.62549,0.46043 4.38758,1.2395 6.13807,1.73105 5.68454,1.59632 11.89813,4.00936 13.93737,5.41242 5.08123,3.49588 15.82543,15.73666 20.33289,23.16499 2.84536,4.68924 3.87391,8.99883 3.28688,13.77221 z m -4.57677,-61.8359 c -0.97339,5.59383 -3.51887,10.17466 -8.16973,14.70228 -3.86154,3.75917 -3.92996,3.80072 -7.85746,4.77517 -2.1791,0.5407 -4.83881,0.98346 -5.91068,0.98415 -2.62594,0.001 -10.51646,-1.74429 -13.31585,-2.94631 -0.75024,-0.32216 -2.79621,-1.04394 -4.54672,-1.60375 -5.15195,-1.64813 -11.92128,-7.10775 -15.609882,-12.59018 -1.042349,-1.54929 -1.895145,-2.94456 -1.895145,-3.10087 0,-0.1556 -0.572006,-1.13923 -1.271145,-2.18459 -1.677833,-2.5087 -4.422052,-8.84039 -5.552631,-12.81138 -1.067278,-3.74909 -1.191404,-8.30322 -0.260805,-9.57579 0.843415,-1.15338 1.404818,-0.57306 0.706912,0.73097 -0.654401,1.22252 -0.347086,5.55617 0.634956,8.95585 0.990543,3.42905 3.676591,9.2225 6.588088,14.20985 3.902912,6.68534 10.884772,13.09306 16.811722,15.42919 1.28087,0.50499 2.61073,0.81 2.95517,0.67773 0.34427,-0.1326 1.32065,0.15561 2.16956,0.63974 0.84891,0.48396 2.46415,1.01475 3.58942,1.17974 1.12527,0.16444 3.4209,0.62999 5.10139,1.03349 2.83563,0.68058 3.30969,0.67775 6.59286,-0.0425 6.56014,-1.43736 6.82678,-1.55724 9.49939,-4.27263 2.67438,-2.717 6.08698,-7.0494 6.08698,-7.72769 0,-0.21766 0.54265,-1.70965 1.20607,-3.3157 1.0816,-2.61886 1.21068,-3.53017 1.25029,-8.83102 0.0354,-4.83193 -0.15383,-6.69913 -1.0443,-10.23019 -1.19705,-4.7504 -1.96462,-6.57517 -3.0121,-7.1615 -0.3798,-0.21253 -0.77941,-0.84732 -0.88797,-1.41083 -0.49899,-2.59129 -6.49313,-10.60593 -8.7237,-11.66455 -0.92848,-0.44045 -2.62187,-1.46265 -3.7634,-2.27159 -2.62028,-1.85677 -6.2767,-3.0151 -12.91236,-4.09052 -2.77445,-0.44964 -8.74809,-0.31332 -10.86478,0.24808 -1.06781,0.2831 -3.7696,1.14932 -6.00423,1.92502 -3.81363,1.32385 -4.31597,1.6559 -8.184224,5.41065 -2.266632,2.20014 -4.295801,4.00282 -4.50905,4.00564 -0.585968,0 5.011037,-6.17008 6.910421,-7.62777 1.795423,-1.37794 7.632723,-3.70169 12.293833,-4.89397 2.16887,-0.55469 3.83574,-0.66449 6.59286,-0.43445 4.68675,0.3913 9.83394,1.39952 12.90864,2.5285 4.6056,1.6911 11.08793,6.63848 13.21595,10.08679 0.57695,0.93503 1.70895,2.26486 2.51559,2.95535 2.05764,1.76164 5.02924,8.46695 5.99839,13.53528 0.88126,4.60877 1.20201,11.70361 0.66767,14.77353 z m -5.88841,-53.65187 c -0.24649,0 -0.6118,-0.27689 -0.81178,-0.6155 -0.34143,-0.57819 -2.03942,-1.65785 -2.60701,-1.65785 -0.14146,0 -0.25727,0.30695 -0.25727,0.682 0,0.37519 -0.32906,0.68216 -0.73132,0.68216 -0.54831,0 -0.66166,-0.27779 -0.45283,-1.10971 0.20528,-0.81797 0.0265,-1.28636 -0.68199,-1.78234 -1.25488,-0.87896 -0.73892,-1.86438 0.60066,-1.14738 0.80222,0.42933 1.08035,0.34074 1.76005,-0.56032 1.02961,-1.36505 1.53302,-0.90302 0.7909,0.72583 -0.52037,1.14225 -0.46503,1.3196 0.67209,2.14781 1.3799,1.00521 2.44292,2.6353 1.7185,2.6353 z M 145.977,158.10775 c -0.84042,0.84042 -1.25576,0.67881 -2.91679,-1.13463 l -1.53903,-1.68014 0,1.80638 c 0,0.99337 0.32782,2.27424 0.72849,2.84626 0.99124,1.41525 0.31986,1.9312 -0.76757,0.58967 -1.51145,-1.86419 -0.85492,-6.993 0.96932,-7.57206 1.1799,-0.37452 2.56723,0.46325 3.38448,2.04366 0.8291,1.60321 0.86447,2.37751 0.14146,3.10086 z m -1.38678,-3.40164 c -1.1106,-1.6315 -1.70489,-1.91175 -1.70489,-0.80435 0,0.91629 1.27999,3.3875 1.75457,3.3875 0.41411,0 0.97339,-0.48448 0.97339,-0.84325 0,-0.13081 -0.46026,-0.91326 -1.02307,-1.7399 z m 0.77782,110.05804 c -0.40616,0.1556 -2.46078,0.28344 -4.56598,0.28344 l -3.8276,0 0,1.30827 c 0,1.63788 -0.79197,2.31279 -2.87383,2.44947 -2.11864,0.1397 -2.19485,-0.691 -0.10966,-1.18856 2.06436,-0.49244 2.0548,-1.31289 -0.0301,-2.54283 -0.90673,-0.53488 -1.53443,-1.08691 -1.39492,-1.22642 0.50198,-0.50198 13.20586,-0.36795 13.37561,0.14145 0.0902,0.27053 -0.16798,0.61958 -0.57448,0.77536 z m -1.43294,-33.81371 c -1.11289,0 -9.50328,1.62001 -12.9355,2.49279 -1.21616,0.30925 -2.17434,-0.36461 -1.29291,-0.90939 0.85192,-0.52657 11.07909,-2.47723 13.03807,-2.48694 1.04801,0 2.032,0.1952 2.18654,0.44523 0.1609,0.26169 -0.26116,0.45619 -0.9962,0.45831 z m -1.35089,-58.7704 c -0.31951,0.79161 -1.06303,0.71204 -1.06303,-0.11313 0,-0.3752 0.30695,-0.68198 0.68198,-0.68198 0.37521,0 0.6659,0.0513 0.64628,0.11311 -0.0195,0.0619 -0.13969,0.36955 -0.26523,0.68216 z M 141.0277,273.2525 c -0.52162,0.27919 -1.06233,0.39361 -1.20149,0.25444 -0.37556,-0.37556 0.79887,-1.63929 1.5233,-1.63929 0.94138,0 0.75324,0.80948 -0.32181,1.38485 z m -1.42622,17.01754 c -0.81973,0.14322 -2.5133,0.47653 -3.76376,0.73999 -1.25028,0.26327 -3.64742,0.58792 -5.32683,0.72159 -2.9237,0.23234 -3.11095,0.1853 -4.39978,-1.10334 -1.48598,-1.48616 -2.30536,-4.40967 -1.46989,-5.24515 0.3791,-0.37909 0.51171,-0.1503 0.51171,0.88198 0,1.60551 1.45575,3.67411 2.99849,4.26079 1.347,0.51207 9.27767,-0.90178 9.27767,-1.65413 0,-0.2884 -0.30679,-0.77907 -0.68199,-1.09045 -0.7285,-0.60454 -0.95288,-3.87091 -0.29387,-4.27813 0.57872,-0.3577 3.28157,0.77164 3.10616,1.29786 -0.0831,0.25001 -0.64786,0.57608 -1.25452,0.7246 -0.75502,0.18495 -1.05579,0.53364 -0.95341,1.10546 0.16621,0.92495 1.81947,2.47546 2.66519,2.49917 1.26584,0.0353 0.95076,0.90035 -0.41517,1.13976 z m 0.0177,-68.88902 c -0.54725,0.50977 -1.30881,0.92706 -1.69251,0.92706 -0.4928,0 -0.40084,-0.20776 0.31315,-0.7078 2.14993,-1.50597 0.52515,-3.38431 -2.92723,-3.38431 -1.76236,0 -1.74926,-0.0602 -0.81071,3.75209 0.27565,1.11962 0.13615,1.32296 -1.32225,1.93245 -2.00354,0.83705 -1.81346,1.63203 0.65635,2.74581 2.04561,0.92228 1.77401,1.89461 -0.30802,1.103 -3.23613,-1.23031 -3.7871,-3.13959 -1.32508,-4.59216 0.87525,-0.51648 1.59137,-1.00769 1.59137,-1.09186 0,-0.0849 -0.2014,-0.68233 -0.44753,-1.3295 -0.36832,-0.96895 -0.64946,-1.12614 -1.59136,-0.88974 -1.22554,0.30766 -1.49289,-0.19009 -0.58793,-1.09505 0.63513,-0.63512 0.50146,-3.66225 -0.19945,-4.51345 -0.25727,-0.31262 -1.05667,-0.56847 -1.77632,-0.56847 -0.89806,0 -1.30828,-0.22882 -1.30828,-0.72991 0,-0.40156 -0.51154,-1.338 -1.13676,-2.08098 -1.32597,-1.57581 -1.42675,-2.68923 -0.38688,-4.276 0.71505,-1.09133 0.70285,-1.17692 -0.26382,-1.85396 -0.76456,-0.53557 -0.94386,-0.98699 -0.73008,-1.83872 0.16267,-0.64874 0.0389,-1.42268 -0.28981,-1.81947 -0.47671,-0.57431 -0.37343,-0.86234 0.61233,-1.71037 l 1.18539,-1.0197 -1.31377,-1.2402 c -1.4881,-1.4043 -1.62849,-2.14747 -0.60047,-3.17567 1.31164,-1.31163 3.78886,0.93802 2.86021,2.5973 -0.32658,0.58368 -0.25762,0.85916 0.26576,1.06001 0.98205,0.3768 0.88374,0.79021 -0.31314,1.3166 -1.60092,0.70425 -1.53762,1.86967 0.12023,2.20103 1.48351,0.2967 1.47697,1.20325 -0.0177,1.20325 -2.42983,0 -1.15409,2.25567 1.30616,2.30925 0.90708,0.0194 1.39351,0.1397 1.0809,0.26523 -0.76599,0.30908 -0.71559,0.98063 0.13791,1.83397 0.93201,0.93201 0.66148,2.58561 -0.45813,2.79921 -0.56441,0.10779 -1.26179,-0.29865 -1.91212,-1.11432 -0.56299,-0.70604 -1.15958,-1.1479 -1.32579,-0.98169 -0.9656,0.9656 2.23517,5.34593 3.90628,5.34593 1.05243,0 1.81168,1.28936 1.81168,3.077 0,1.67252 0.34939,2.01273 1.45787,1.41949 1.29289,-0.69188 4.42629,-0.0177 5.66261,1.21847 1.31641,1.31659 1.32632,1.73423 0.0689,2.90618 z m -10.43336,-14.53201 c -0.54142,0 -0.73043,0.23128 -0.5575,0.68199 0.14322,0.3752 0.51259,0.68199 0.81937,0.68199 0.3066,0 0.55751,-0.30679 0.55751,-0.68199 0,-0.37502 -0.36867,-0.68199 -0.81938,-0.68199 z m -2.25142,-12.07334 c -0.27177,-0.16797 -0.71329,-0.0865 -0.981,0.18124 -0.5674,0.56724 0.40333,2.04332 1.07223,1.63009 0.55981,-0.34603 0.50465,-1.44319 -0.0919,-1.81133 z m 12.91376,65.43028 c -0.5805,0.58067 -1.0526,0.27813 -1.0526,-0.67457 0,-1.04942 -1.66599,-4.03199 -2.25232,-4.03199 -0.19769,0 -0.48643,0.79391 -0.64149,1.76412 -0.15561,0.97038 -0.6774,2.24913 -1.16047,2.84182 -0.87436,1.07294 -0.8848,1.074 -2.43674,0.24649 -1.85429,-0.98877 -3.29713,-3.61152 -2.62274,-4.76774 0.41623,-0.71346 0.44823,-0.71187 0.46115,0.0213 0.0213,1.19423 2.47262,3.73159 3.29907,3.41436 0.38476,-0.14675 0.94881,-1.30774 1.25347,-2.57801 0.30484,-1.27027 0.75094,-2.43143 0.99177,-2.58014 1.27876,-0.79038 5.2462,5.25858 4.1609,6.3439 z m -2.17469,20.55107 c -0.86712,0.36248 -1.90717,0.65884 -2.3112,0.65884 -1.05772,0 -0.54142,-1.1099 0.59429,-1.27769 0.52479,-0.0779 1.19458,-0.43038 1.48828,-0.78419 0.42896,-0.51702 0.30625,-0.74725 -0.62399,-1.17108 -1.30315,-0.59375 -1.90575,-1.70717 -1.26868,-2.34426 0.64875,-0.64875 2.33401,0.0777 2.33401,1.00539 0,0.45283 0.30695,1.07789 0.68216,1.38909 1.1076,0.91928 0.78808,1.82088 -0.89487,2.5239 z m -0.58633,-7.82068 c -0.87985,0.54372 -3.74768,0.8208 -3.74768,0.36195 0,-0.68145 1.53179,-1.43064 2.92547,-1.43064 1.10441,0 1.57068,0.60596 0.82221,1.06869 z m -7.46458,-81.65991 c -1.05401,1.70489 -1.82529,1.84616 -3.10316,0.5683 -1.1014,-1.1014 -1.74538,-1.13747 -3.11996,-0.17505 -0.71471,0.50057 -1.19689,0.5865 -1.51375,0.26965 -0.66961,-0.66963 1.31395,-1.84705 4.49685,-2.66925 1.45062,-0.37487 2.83193,-0.86961 3.06939,-1.09965 1.40129,-1.35654 1.52595,0.91327 0.16975,3.10564 z m -1.73919,-1.25046 c -1.03385,0 -1.23896,1.14031 -0.27176,1.51145 0.74351,0.28538 1.18114,-0.0496 1.18114,-0.90514 0,-0.33349 -0.40915,-0.60631 -0.90938,-0.60631 z m -2.10731,87.29777 c -3.52205,0 -8.46766,0.91769 -9.10174,1.6888 -0.43833,0.53311 -0.64274,0.46787 -1.25028,-0.39943 -1.20219,-1.71656 -0.93803,-3.80461 0.62204,-4.91556 1.27204,-0.90566 1.42764,-0.91909 2.74777,-0.23642 0.76968,0.39804 1.63132,1.23243 1.91459,1.85432 0.46857,1.02855 0.6926,1.10404 2.47793,0.83633 2.22385,-0.33346 5.15161,0.0866 5.15161,0.73787 0,0.23888 -1.15285,0.43409 -2.56192,0.43409 z m -7.0998,-2.59252 c -1.64865,-0.73838 -4.14481,1.41934 -2.68552,2.32147 0.65158,0.40261 3.70841,-0.64593 3.70841,-1.27222 0,-0.32499 -0.46025,-0.79726 -1.02289,-1.04925 z m 8.37077,-1.95418 c -0.61657,0 -1.46353,-2.20334 -0.96525,-2.51136 0.24064,-0.14852 0.6422,-0.14323 0.89222,0.0177 0.54937,0.33949 0.6125,2.50075 0.0725,2.50075 z m -3.71036,33.5743 c -0.62524,0 -0.88091,-0.10262 -0.56848,-0.22935 0.31262,-0.12552 0.82416,-0.12552 1.13677,0 0.31261,0.12553 0.0566,0.22935 -0.56829,0.22935 z m -0.43055,-41.99104 c -1.25064,0.2746 -1.3882,0.47599 -1.3882,2.03182 0,2.151 -0.65229,2.70602 -3.58924,3.054 -1.90187,0.2251 -2.32164,0.14854 -2.32164,-0.42189 0,-0.8572 0.94704,-1.24869 3.02148,-1.24869 1.51197,0 1.57652,-0.0655 1.44055,-1.47767 -0.15384,-1.59154 0.1079,-1.52311 -4.23464,-1.10954 -0.54371,0.0513 -0.90937,-0.1876 -0.90937,-0.59551 0,-0.46964 0.63672,-0.75643 2.04614,-0.92106 2.89522,-0.33843 3.22889,-0.62929 2.64433,-2.30607 -0.35489,-1.0183 -0.34269,-1.52982 0.046,-1.91846 0.68799,-0.68819 1.38483,0.33506 1.39474,2.04772 0,1.03722 0.22456,1.24303 1.44955,1.36415 1.90487,0.18815 2.15224,1.11626 0.40014,1.5012 z m -2.72531,-40.23364 c -0.23534,0 -0.55433,-0.20459 -0.70887,-0.4546 -0.46715,-0.75572 -3.00185,-0.49315 -6.36546,0.65936 -2.09777,0.71876 -3.3378,0.93766 -3.63751,0.64202 -0.302,-0.29811 -0.18742,-0.59941 0.34108,-0.89771 1.49288,-0.84236 0.40085,-3.0204 -1.20537,-2.40402 -1.54769,0.59376 -1.71195,1.84086 -0.44151,3.35054 1.53655,1.82617 1.14507,2.21234 -0.68305,0.67402 -1.77102,-1.49022 -1.82884,-2.97356 -0.17506,-4.50657 1.62992,-1.51144 2.07338,-1.46087 3.61718,0.41199 l 1.29183,1.56714 2.83211,-0.71346 c 2.32799,-0.58633 3.07541,-0.61268 4.1975,-0.14853 1.25824,0.52109 1.92714,1.81911 0.93749,1.81911 z m -2.85155,63.16028 c -3.03933,1.20094 -7.21313,2.31314 -8.68091,2.31314 -2.06171,0 -4.25584,-1.81187 -5.07327,-4.18937 -0.80718,-2.34814 -0.11847,-3.05241 0.86164,-0.88037 0.92847,2.05905 2.9228,3.70575 4.48801,3.70575 1.02465,0 5.69956,-1.43858 6.71573,-2.06665 0.30537,-0.18883 0.21413,-0.6827 -0.2601,-1.40623 -0.90901,-1.3875 -0.5621,-2.59446 0.94315,-3.28017 0.71577,-0.32623 1.03334,-0.74069 0.83654,-1.09202 -0.17505,-0.31156 0.0707,-0.19009 0.54282,0.26982 0.84237,0.81956 0.83901,0.85032 -0.16267,1.5332 -1.05684,0.71983 -1.36504,2.13967 -0.57094,2.63034 0.24878,0.15384 0.66572,0.67829 0.92653,1.1656 0.39236,0.73326 0.29475,0.95694 -0.566,1.29696 z m -5.75934,-70.22507 c -1.12703,0.35772 -2.56174,-0.49951 -3.20713,-1.91618 -0.51065,-1.12067 -1.39456,-1.01175 -1.39456,0.17151 0,0.37698 0.54017,1.3935 1.20006,2.25886 0.66007,0.86535 1.09804,1.67553 0.97321,1.80036 -0.29493,0.29494 -3.53725,-3.29006 -3.53725,-3.91104 0,-0.69719 2.12871,-2.70602 2.86746,-2.70602 0.34957,0 1.33074,0.46732 2.18035,1.03861 1.8161,1.22077 2.26982,2.83424 0.91786,3.26337 z m -0.77411,-2.2074 c -1.25434,-0.4813 -1.69958,-0.31704 -1.09945,0.40597 0.61762,0.74442 1.81875,0.92654 1.81875,0.27602 0,-0.22332 -0.32375,-0.53011 -0.7193,-0.68199 z m -0.73606,-20.90737 c -0.38458,0.23782 -0.65918,-0.32499 -0.91486,-1.87499 -0.12907,-0.78295 -0.50871,-0.91133 -2.73061,-0.92335 -3.12615,-0.0177 -3.61293,-0.37096 -1.7993,-1.3088 1.24639,-0.6445 1.55104,-0.64009 3.41224,0.0495 1.7933,0.66465 2.06577,0.94562 2.22314,2.29314 0.099,0.84467 0.0177,1.63858 -0.19061,1.7643 z m -2.75042,16.63402 c -1.64971,0.11668 -3.74253,0.63408 -4.98945,1.23402 l -2.14783,1.0335 -1.579866,-0.97639 c -1.589426,-0.98222 -2.382455,-2.34957 -1.856595,-3.20041 0.472632,-0.76475 1.068334,-0.51349 0.8413,0.35469 -0.122001,0.46397 0.198571,1.18593 0.744591,1.67996 0.861451,0.7796 1.148957,0.80858 2.86975,0.28981 1.05172,-0.31723 2.83194,-0.83972 3.95596,-1.16136 1.48511,-0.42489 2.04438,-0.81759 2.04615,-1.43682 10e-4,-0.46875 0.3356,-0.91697 0.74282,-0.99602 0.93183,-0.18106 2.21483,1.0671 2.21483,2.15453 0,0.68606 -0.47511,0.8574 -2.84166,1.02449 z m -0.59375,-5.53849 c -1.64494,0.79622 -2.63495,0.9619 -4.81017,0.80453 -1.6987,-0.1238 -2.895229,-0.44506 -3.150374,-0.84855 -0.692775,-1.09468 -0.499511,-3.47996 0.306951,-3.78958 0.583854,-0.22402 0.678284,-0.0636 0.464507,0.78721 -0.484657,1.93139 0.547256,2.64767 3.589766,2.49137 2.66218,-0.13615 2.71275,-0.16446 2.58456,-1.38962 -0.10075,-0.96773 0.0619,-1.25047 0.72513,-1.25047 0.78047,0 2.36106,1.29042 2.36106,1.92767 0,0.14501 -0.93219,0.71596 -2.07143,1.26744 z m 1.79577,-4.10448 c -0.72973,0 -3.81645,-2.89912 -3.81645,-3.58465 0,-1.12597 0.91149,-1.87145 2.28856,-1.87145 1.42092,0 1.82742,0.31811 1.49943,1.17285 -0.17683,0.45956 -0.46628,0.50887 -1.07542,0.18283 -1.87445,-1.0031 -1.86508,0.25284 0.0177,2.05445 1.28123,1.22748 1.71655,2.04597 1.08832,2.04597 z m -3.82463,37.94737 c -1.37087,-0.16797 -3.61488,-0.61868 -4.986463,-1.00238 -2.957104,-0.82698 -10.533069,-0.53717 -14.556405,0.55698 -3.087077,0.83954 -3.991139,0.84024 -1.707001,0.001 4.648558,-1.70736 14.593358,-2.05923 19.821359,-0.70144 4.12765,1.07205 4.72158,1.54822 1.42851,1.14543 z m -1.35584,43.43971 c -0.25003,0 -0.45478,-0.19254 -0.45478,-0.42789 0,-0.23517 0.20475,-0.55416 0.45478,-0.7087 0.25002,-0.1556 0.45459,0.0371 0.45459,0.42772 0,0.3899 -0.20457,0.70887 -0.45459,0.70887 z m -4.278484,-29.27937 c -1.055077,0.40491 -3.524342,-1.16895 -4.059924,-2.58775 -0.741399,-1.96427 -1.209792,-1.61027 -1.209792,0.91434 0,1.74855 0.259219,2.54653 1.184687,3.64652 1.27415,1.51409 1.040752,2.41906 -0.771998,2.99442 -0.657936,0.20884 -0.801694,0.5446 -0.591628,1.38167 0.204044,0.81283 0.09194,1.10582 -0.423127,1.10582 -0.887283,0 -1.44656,-1.67607 -0.813542,-2.4385 0.454773,-0.54814 0.605424,-3.27167 0.409507,-7.40569 -0.102512,-2.15118 0.657231,-3.34152 2.131197,-3.34152 1.182385,0 3.935975,1.74979 4.248597,2.69948 0.137911,0.42172 -0.233762,0.30059 -1.049418,-0.34089 -1.447969,-1.13908 -2.050927,-1.25418 -2.050927,-0.39184 0,0.95447 2.143925,2.72708 2.932186,2.42454 0.443993,-0.16976 0.70515,-0.0177 0.70515,0.41146 0,0.37503 -0.288387,0.79267 -0.640968,0.92794 z m -2.200675,32.09503 -1.93245,0.13969 0.15913,3.65801 c 0.127308,2.92229 0.01773,3.77844 -0.562284,4.25657 -1.054725,0.87524 -2.935357,0.25655 -3.269726,-1.07542 -0.341966,-1.36257 0.02477,-1.99663 1.470244,-2.54636 0.982406,-0.37362 1.101764,-0.66095 0.978871,-2.35912 l -0.139684,-1.93368 -2.045973,0 c -1.51551,0 -2.045961,-0.17683 -2.045961,-0.682 0,-0.41481 0.445227,-0.69594 1.136591,-0.71787 2.703016,-0.0849 2.728132,-0.10427 2.728132,-2.04809 0,-2.1296 1.104935,-2.33543 1.183091,-0.22032 0.05483,1.50438 0.806825,2.06065 2.79532,2.07002 2.332587,0.0177 1.93528,1.28563 -0.454773,1.45857 z m -3.269561,5.36856 c -0.360355,0 -0.792676,0.22245 -0.960648,0.49421 -0.396779,0.64203 0.479526,1.51834 1.121561,1.12157 0.721062,-0.44559 0.604544,-1.61578 -0.160913,-1.61578 z m 1.890553,-17.81429 c -0.315276,0.26169 -1.943064,0.72815 -3.617176,1.0367 -3.330385,0.61355 -7.51568,0.0406 -8.517355,-1.1663 -1.050827,-1.26638 -1.087075,-3.76252 -0.07785,-5.33956 1.133938,-1.77085 1.263019,-1.53426 0.259924,0.47652 -0.964193,1.93263 -0.489612,3.08743 1.735299,4.2226 1.423393,0.72603 2.438324,0.9039 4.285902,0.7506 2.960826,-0.24543 3.310048,-0.53858 1.952435,-1.63788 l -1.052964,-0.85261 1.025734,-1.65944 c 0.564045,-0.91274 1.315706,-1.65945 1.6704,-1.65945 0.885686,0 0.808411,0.57872 -0.257798,1.9344 -1.022012,1.29925 -0.677921,1.85766 1.478029,2.39872 1.520278,0.38157 1.878342,0.86199 1.114833,1.4957 z m -0.01773,-8.10234 c -0.365661,0 -0.795153,-0.33896 -0.954118,-0.75361 -0.256742,-0.66872 -0.392187,-0.64309 -1.203075,0.22738 -1.684374,1.80799 -3.19069,0.743 -2.157359,-1.52505 0.507647,-1.11413 1.278929,-1.53885 1.278929,-0.70409 0,0.23499 0.767208,0.49066 1.705064,0.56829 1.36945,0.11311 1.733526,0.34233 1.85022,1.16417 0.0937,0.66078 -0.09018,1.02291 -0.519661,1.02291 z m -8.725296,-7.72945 c -0.12907,0 -0.600998,-0.22951 -1.050122,-0.50995 -0.803456,-0.50181 -3.561296,-0.13615 -5.724677,0.75908 -0.587037,0.24277 -0.770214,0.19822 -0.562989,-0.13615 0.169745,-0.27354 1.339049,-0.83989 2.600119,-1.25877 1.89302,-0.62876 2.526555,-0.66482 3.63203,-0.20705 1.136591,0.47086 1.857652,1.35372 1.105639,1.35372 z m -4.525136,-6.82008 c -0.116694,0 -0.939078,-0.34673 -1.827593,-0.77056 -1.423216,-0.67864 -1.695693,-0.69066 -2.285559,-0.10086 -0.590042,0.58987 -0.529922,0.87561 0.503937,2.39713 1.527358,2.24772 1.197768,2.50447 -0.700559,0.54602 -1.681015,-1.73441 -1.690209,-3.2172 -0.02654,-4.24523 1.31836,-0.81461 4.548127,0.13438 4.548127,1.33586 0,0.46061 -0.09546,0.83741 -0.212004,0.83741 z m -1.27044,28.64461 c -1.067278,1.29113 -3.979832,3.23258 -4.43107,2.95375 -0.792853,-0.48996 -0.500579,-0.92582 1.624959,-2.42401 2.530981,-1.7841 2.477765,-2.65651 -0.223324,-3.65288 -2.141096,-0.78967 -2.668188,-1.58113 -1.171595,-1.75936 1.222873,-0.14498 4.519477,2.1984 4.655803,3.31041 0.06012,0.4896 -0.144992,1.19688 -0.454773,1.57209 z M 80.34866,264.13822 c -0.651571,0 -1.619299,-0.4974 -2.211819,-1.13678 -0.579427,-0.62505 -1.183442,-1.13659 -1.342231,-1.13659 -0.604896,0 -0.235513,0.88498 1.302449,3.12068 0.875247,1.27238 1.591364,2.61797 1.591364,2.99 0,0.72284 -3.008205,2.98274 -3.970285,2.98274 -0.899118,0 -0.679329,-0.72972 0.446471,-1.48174 0.979928,-0.65458 0.989475,-0.72088 0.227387,-1.5689 -0.929003,-1.03403 -1.016529,-2.00283 -0.250014,-2.76916 0.424361,-0.42437 0.424361,-0.66679 0,-1.09115 -0.823981,-0.82397 -0.656174,-2.34707 0.381396,-3.46086 1.13995,-1.22358 1.62726,-1.23613 3.505954,-0.0902 1.141183,0.69578 1.477853,1.21314 1.477853,2.27176 0,1.16576 -0.17329,1.3707 -1.158525,1.3707 z m -0.221551,-2.75803 c -0.522138,-0.97532 -1.575629,-1.15992 -2.068599,-0.36229 -0.294576,0.47634 1.404476,2.17733 2.198209,2.20085 0.481122,0.0177 0.423304,-0.8054 -0.12907,-1.83856 z m -2.798679,5.03138 c -0.59765,0 -0.223323,1.03333 0.45637,1.26 0.332244,0.11141 0.433731,-0.0972 0.263811,-0.54 -0.152061,-0.3959 -0.475991,-0.72 -0.720181,-0.72 z"
       style="fill:#000000" />
  </g>
</svg>
