<?xml version="1.0" encoding="UTF-8" standalone="no"?>
<svg
   xmlns:dc="http://purl.org/dc/elements/1.1/"
   xmlns:cc="http://creativecommons.org/ns#"
   xmlns:rdf="http://www.w3.org/1999/02/22-rdf-syntax-ns#"
   xmlns:svg="http://www.w3.org/2000/svg"
   xmlns="http://www.w3.org/2000/svg"
   width="8.5in"
   height="11in"
   viewBox="0 0 765 990"
   id="svg2"
   version="1.1">
  <defs
     id="defs4" />
  <metadata
     id="metadata7">
    <rdf:RDF>
      <cc:Work
         rdf:about="">
        <dc:format>image/svg+xml</dc:format>
        <dc:type
           rdf:resource="http://purl.org/dc/dcmitype/StillImage" />
        <dc:title></dc:title>
      </cc:Work>
    </rdf:RDF>
  </metadata>
  <g
     transform="translate(0,-62.362205)"
     id="layer1">
    <path
       style="fill:#000000"
       d="m 736.9529,251.74665 c -0.25006,0 -0.45486,-0.20458 -0.45486,-0.45478 0,-0.25002 0.2048,-0.45459 0.45486,-0.45459 0.24995,0 0.45453,0.20457 0.45453,0.45459 0,0.2502 -0.20458,0.45478 -0.45453,0.45478 z m -27.53314,95.0272 c -1.00023,8.57676 -2.71364,15.39241 -4.41229,17.55207 -1.87979,2.38952 -5.92245,3.12791 -8.95981,1.63627 -2.00971,-0.98699 -4.09727,-4.07743 -4.23161,-6.2645 -0.18905,-3.07823 1.15945,-2.48235 4.13229,1.826 1.46016,2.11617 1.56564,2.17717 3.3471,1.93829 3.36824,-0.45177 5.69078,-3.9595 6.53388,-9.86789 0.19622,-1.37548 0.41919,-2.8077 0.49527,-3.18273 1.21253,-5.97435 1.46875,-16.56012 0.44837,-18.53341 -0.36479,-0.70515 -1.21693,-3.01281 -1.89355,-5.12827 -1.66672,-5.20943 -2.05497,-5.59913 -5.28877,-5.30774 -3.10497,0.27955 -4.79063,1.1999 -6.27974,3.42887 l -1.11596,1.67005 -0.29311,-2.04615 c -0.32945,-2.29846 -0.0385,-3.30014 1.48614,-5.12242 1.24886,-1.492 5.11413,-2.47246 7.7779,-1.97277 2.14492,0.40243 4.12997,2.95924 5.13263,6.6116 0.38219,1.39139 1.18345,3.75739 1.78057,5.2577 2.2622,5.68294 2.44333,8.04842 1.34069,17.50503 z m -1.15394,48.9064 c -1.27738,1.21262 -3.80934,4.61638 -5.32598,7.15921 -1.74545,2.92687 -2.79193,4.5773 -4.76311,7.51214 -2.98187,4.43956 -6.8347,11.72271 -8.28902,15.66842 -0.66451,1.80266 -1.60451,4.24682 -2.08877,5.43151 -0.53469,1.30774 -0.76812,2.60276 -0.59393,3.29642 0.39926,1.59084 -0.55936,1.45928 -2.56852,-0.35222 -1.65197,-1.48953 -3.05145,-3.25505 -5.88225,-7.42125 -0.87515,-1.28813 -2.68546,-3.93474 -4.02295,-5.88169 -2.37814,-3.46175 -3.6118,-5.67835 -9.85885,-17.71173 -4.8153,-9.27555 -5.28513,-10.29968 -5.03078,-10.96257 0.25336,-0.66042 1.04813,-0.64097 12.73215,0.31085 7.94922,0.6475 12.46568,0.32127 31.6423,-2.28574 3.34721,-0.45514 3.42891,-0.44222 4.43311,0.6926 1.39982,1.58182 1.28332,2.96153 -0.3834,4.54405 z m -12.00653,-0.65918 c -5.43939,0.77465 -8.23408,0.88392 -19.21009,0.75078 -7.06439,-0.0849 -12.84457,-0.10075 -12.84457,-0.0336 0,0.13791 5.0528,9.93172 9.22076,17.8721 1.50949,2.87595 3.14065,5.74042 3.62469,6.36547 1.39596,1.80284 6.1878,8.68002 6.3402,9.09961 0.076,0.20917 0.40586,0.447 0.7331,0.52816 0.59426,0.14675 0.91897,-0.5515 3.02878,-6.52231 1.26614,-3.58393 4.34469,-9.99042 6.12405,-12.74472 0.69468,-1.07524 2.5945,-4.00087 4.22192,-6.50162 1.62741,-2.50074 3.39257,-5.40251 3.92253,-6.44839 0.53007,-1.04571 1.18907,-2.04067 1.46456,-2.21094 1.46743,-0.90708 -0.95112,-0.96366 -6.62593,-0.1556 z m 8.09985,-101.7127 c -2.98517,2.18424 -8.58004,4.99353 -9.1918,4.61549 -0.82758,-0.51136 -0.56178,-1.61895 0.38857,-1.61895 0.48845,0 1.46016,-0.25108 2.15968,-0.55804 1.41282,-0.61993 6.04599,-3.47148 6.04599,-3.72096 0,-0.0884 -1.89267,-0.13615 -4.20584,-0.10791 -4.09507,0.0496 -5.95085,-0.41446 -6.81312,-1.70612 -1.40951,-2.11086 1.502,-6.11651 4.55478,-6.26681 2.53273,-0.12554 4.249,0.0478 5.94259,0.59853 1.31779,0.42826 1.43682,0.58297 0.87768,1.1419 -0.35554,0.35557 -1.45079,0.75643 -2.43374,0.89063 -1.60088,0.21873 -1.70416,0.17682 -0.99153,-0.40633 1.16782,-0.95465 0.98536,-1.23224 -0.8103,-1.23224 -3.55895,0 -6.74683,2.53239 -5.68516,4.51629 0.54339,1.01512 0.81735,1.05401 7.92996,1.12616 2.69735,0.0265 4.11104,0.22209 4.23513,0.58367 0.1024,0.29848 -0.79884,1.26338 -2.00289,2.14428 z m -6.03618,-48.21505 c -2.69096,2.51719 -4.36418,3.39792 -5.08551,2.67668 -0.35873,-0.35876 0,-0.74724 1.26274,-1.40093 2.13788,-1.09928 4.46922,-3.46405 4.06303,-4.12112 -0.16264,-0.26363 -1.11993,-0.72601 -2.12676,-1.02766 -2.08558,-0.62488 -3.1325,-1.84546 -3.1325,-3.65201 0,-1.35054 1.53635,-3.09928 2.72289,-3.09928 0.40289,0 0.92701,-0.19078 1.16451,-0.42383 0.62146,-0.60985 2.67665,-0.79515 2.86395,-0.25833 0.087,0.25019 -0.9149,0.86605 -2.22685,1.36875 -1.31184,0.50288 -2.59682,1.2494 -2.85536,1.65909 -0.6536,1.03651 0.63567,2.90742 2.28312,3.31269 1.72695,0.42472 3.32254,1.50367 3.32254,2.24666 0,0.33507 -1.01509,1.55884 -2.2558,2.71929 z m 1.95256,-53.21248 c -0.16615,0.16621 -0.80236,0.30324 -1.41259,0.30324 -0.83793,0 -1.03998,0.18106 -0.82571,0.73964 0.32714,0.85261 -0.46047,1.98832 -1.37878,1.98832 -0.34465,0 -0.62653,-0.40916 -0.62653,-0.90937 0,-0.72497 -0.29949,-0.90708 -1.47766,-0.89843 -0.81261,0 -2.29027,0.19928 -3.28368,0.42949 -0.99318,0.23041 -1.91348,0.31103 -2.04528,0.17929 -0.50264,-0.50268 1.46137,-1.42656 3.65045,-1.7169 2.57216,-0.34126 3.15617,-1.15321 3.15617,-4.38847 0,-1.88912 -0.73178,-2.34955 -1.89993,-1.19527 -0.77231,0.76332 -2.19216,1.30421 -2.19216,0.83528 0,-0.60472 1.96996,-2.24895 3.29645,-2.75165 0.97512,-0.36938 1.2504,-0.76952 1.2504,-1.81734 0,-1.04429 -0.22793,-1.3783 -1.02303,-1.49907 -1.10913,-0.16798 -3.72609,0.23217 -5.00149,0.76599 -1.39266,0.58261 -0.87295,-0.61038 0.5969,-1.37052 1.92901,-0.99745 5.70806,-1.03635 6.67581,-0.069 0.66363,0.66361 0.68874,1.07399 0.208,3.40182 -0.30082,1.45592 -0.5468,3.60655 -0.5468,4.7794 l 0,2.13225 1.59141,0 c 1.50453,0 1.96765,0.3814 1.28805,1.06092 z m -0.78926,76.2247 c -0.22583,0.50535 -0.6426,0.91875 -0.92613,0.91875 -0.3616,0 -0.48558,-1.64813 -0.41489,-5.51744 0.0903,-4.94916 0.5261,-6.99918 1.31856,-6.20651 0.4422,0.44205 0.46169,9.82244 0.0231,10.8052 z m -0.77308,-52.73293 c -0.23728,1.37529 -0.48051,3.0563 -0.54063,3.73564 -0.0595,0.67916 -0.31051,1.41949 -0.55649,1.64494 -0.6731,0.61675 -3.40271,1.03298 -3.40271,0.51879 0,-0.24383 -0.49329,-0.44329 -1.09625,-0.44329 -0.67618,0 -1.56751,-0.55998 -2.32539,-1.46069 -1.08491,-1.28936 -1.19788,-1.72257 -0.96401,-3.69816 0.14501,-1.23066 0.67178,-3.01794 1.16892,-3.9717 l 0.90378,-1.73405 -1.42394,-1.19814 c -1.14194,-0.961 -1.29554,-1.27928 -0.77582,-1.60833 0.94484,-0.59801 1.25997,-0.52357 1.86128,0.43939 0.5282,0.84573 0.56409,0.84501 1.75657,-0.0371 2.51468,-1.85925 5.34272,-0.0972 5.66721,3.53212 0.0881,0.97851 -0.0352,2.9046 -0.27252,4.27989 z m -1.76163,-6.11156 c -0.24334,-0.63972 -0.78927,-1.16329 -1.21352,-1.16329 -1.15295,0 -2.43407,1.36079 -2.43407,2.58544 0,0.59429 -0.30765,1.19848 -0.68378,1.34276 -0.37591,0.14499 -1.00574,1.37053 -1.39927,2.72477 -0.67464,2.32004 -0.6666,2.54726 0.13786,3.92909 1.06674,1.83379 3.14956,2.21784 4.41923,0.81478 1.75757,-1.942 2.35293,-7.1325 1.17388,-10.23355 z m 1.33441,-40.51409 c -0.38571,0.1503 -1.50288,0.1078 -2.48252,-0.0972 -0.97953,-0.20352 -3.21607,-0.21679 -4.97,-0.0301 -4.92882,0.52674 -5.67888,0.145 -7.32325,-3.7176 -0.47898,-1.12529 -1.56675,-3.02784 -2.41734,-4.22791 -2.40292,-3.39049 -3.54431,-2.50039 -3.67104,2.86393 -0.0727,3.06055 -0.78861,2.21978 -0.96841,-1.13677 -0.20073,-3.74624 -0.0286,-4.71221 0.93284,-5.22657 1.24324,-0.66537 3.09605,0.34639 5.1748,2.8259 1.56466,1.86615 1.63204,1.89744 1.64052,0.7635 0.0176,-2.02332 0.94738,-4.10731 1.76637,-3.94888 0.63478,0.12196 0.74324,0.88339 0.74324,5.21366 0,2.78844 0.12905,5.20025 0.28893,5.3592 0.44275,0.44328 7.11955,-0.27036 7.89296,-0.8436 0.53083,-0.39342 0.60438,-0.96012 0.33131,-2.55183 -0.40773,-2.37699 -1.27925,-2.74354 -3.91008,-1.64424 -0.8953,0.37415 -1.72982,0.51524 -1.85446,0.31367 -0.45024,-0.7285 1.57874,-1.9648 3.59837,-2.19238 1.74379,-0.19662 2.06432,-0.38598 2.06432,-1.21934 0,-1.55016 -0.8986,-2.07779 -3.5388,-2.07779 -3.21067,0 -2.99067,-0.97887 0.34927,-1.55352 2.3766,-0.40899 2.44762,-0.38883 3.74514,1.06338 1.28278,1.43577 1.319,1.60764 1.20911,5.7321 -0.1079,4.02156 -0.0529,4.30112 0.9933,5.15479 0.90884,0.74105 0.9814,0.95146 0.40542,1.17619 z m -0.68279,-25.21326 c -1.66022,0 -6.93787,-1.60268 -8.50494,-2.58261 -1.44662,-0.90459 -1.70515,-1.30934 -1.70515,-2.66995 0,-2.04455 1.37867,-4.75378 3.19779,-6.28448 1.7111,-1.43985 2.418,-1.489 3.65287,-0.25409 0.84168,0.84164 0.92481,1.38996 0.79576,5.24567 l -0.14501,4.30587 1.70504,0.50979 c 1.67234,0.49985 2.38529,1.7298 1.00276,1.7298 z m -4.29426,-9.88928 c -0.0176,-2.80063 -2.21088,-1.19865 -3.89654,2.83582 -0.67046,1.60481 -0.65702,1.66528 0.65922,2.98169 2.50554,2.50535 3.86968,1.40782 3.41614,-2.74847 -0.0958,-0.87525 -0.17507,-2.2562 -0.17882,-3.06904 z m 1.79456,132.89097 c -0.64491,0.39855 -1.65329,-0.5041 -1.96919,-1.76253 -0.30368,-1.20978 -3.69945,-4.08362 -4.50523,-3.81255 -0.36886,0.12377 -0.55396,1.31252 -0.55396,3.55688 0,2.44275 -0.16087,3.37051 -0.58435,3.37051 -0.78177,0 -1.22782,-7.37033 -0.49923,-8.24823 0.65889,-0.79373 2.47393,-0.36265 4.34975,1.03298 0.79609,0.59234 1.58084,1.077 1.74413,1.077 0.16274,0 0.22793,-0.8696 0.14325,-1.93227 -0.19555,-2.47352 1.01191,-2.75218 1.47822,-0.34109 0.67882,3.51126 0.86161,6.77144 0.39584,7.0593 z m -8.97214,-22.82001 c -4.68977,1.52453 -7.07473,1.5118 -7.29495,-0.0389 -0.1862,-1.31111 -0.75953,-1.28707 -3.93145,0.16444 -1.85864,0.85085 -2.73445,1.04871 -3.08636,0.69685 -0.3518,-0.35188 -0.24378,-0.57273 0.38054,-0.77837 2.19612,-0.72318 6.70278,-3.10351 6.19606,-3.27238 -0.31106,-0.10427 -1.30391,0.2472 -2.20648,0.77977 -0.90267,0.53258 -1.74292,0.86642 -1.86723,0.74193 -0.52797,-0.52797 0.42326,-1.65307 2.13733,-2.52743 1.01246,-0.51649 1.84092,-1.22801 1.84092,-1.58129 0,-0.85457 -1.51885,-1.29626 -3.19306,-0.92848 -1.41204,0.31014 -1.74039,-0.11493 -0.8082,-1.04801 0.84321,-0.84323 3.29667,-0.64573 4.58704,0.36939 0.63951,0.50304 1.30666,1.57721 1.4824,2.38704 0.17507,0.80966 0.51993,1.59986 0.76482,1.75581 0.27009,0.17151 0.14853,0.73751 -0.30908,1.43559 -0.4509,0.68818 -0.57664,1.26195 -0.31249,1.42515 0.5043,0.31173 4.95734,-0.7665 6.43732,-1.55847 0.98019,-0.52462 3.18303,-0.27726 3.16134,0.35505 0,0.18283 -1.79654,0.91273 -3.97847,1.62196 z m 2.16321,-3.88082 c -0.70547,0.75307 -1.13787,0.91504 -1.54384,0.57803 -0.38913,-0.32305 -1.00552,-0.30131 -1.98956,0.0707 -0.78398,0.29599 -1.56466,0.39872 -1.73488,0.22863 -0.54163,-0.54177 0.65845,-1.53037 2.54275,-2.09495 2.05419,-0.61532 2.2939,-1.40411 0.86204,-2.83616 -0.7603,-0.76015 -1.33287,-0.91239 -2.72817,-0.72514 -1.89366,0.25391 -2.19129,-0.0955 -1.05133,-1.23561 1.12884,-1.12881 2.79303,-0.84784 4.52219,0.76316 2.04098,1.90185 2.45246,3.83006 1.1208,5.25203 z m 0.0925,50.55948 c -0.20403,0 -0.8082,-0.778 -1.34278,-1.72874 -0.53436,-0.95094 -1.40885,-2.12466 -1.94343,-2.60844 -0.95597,-0.86517 -0.98217,-0.86535 -1.60682,-0.0177 -0.916,1.2524 -1.26505,3.64776 -0.6884,4.72494 0.64876,1.21227 0.6263,1.44178 -0.14149,1.44178 -1.79754,0 -1.69745,-6.09883 0.12552,-7.6803 1.3822,-1.19882 2.55024,-0.75625 4.40074,1.66706 1.43483,1.87904 2.09493,4.19449 1.19578,4.19449 z m -2.723,-99.43178 c -0.70139,0.67191 -1.62213,1.22182 -2.04616,1.22182 -1.17266,0 -0.91963,-1.31572 0.366,-1.90151 1.66001,-0.75625 1.39212,-1.62283 -0.695,-2.24825 -1.65362,-0.49544 -1.96127,-0.45318 -3.16223,0.4348 -1.48725,1.09963 -4.31551,2.13632 -7.05514,2.58632 -1.00023,0.16446 -2.17664,0.39679 -2.61421,0.51685 -0.46852,0.12909 -0.79565,-0.0301 -0.79565,-0.3867 0,-0.35577 0.98305,-0.8353 2.38706,-1.16401 2.43242,-0.56953 3.97835,-1.8389 3.97835,-3.26706 0,-0.43002 -0.48161,-1.73301 -1.07026,-2.89575 -1.08832,-2.14978 -1.08402,-2.58704 0.0242,-2.58704 0.77891,0 2.40885,3.71743 2.40885,5.49393 0,0.72938 0.16616,1.32631 0.36898,1.32631 0.6372,0 2.35909,-1.82423 2.35909,-2.49934 0,-0.35488 0.78662,-1.47218 1.7482,-2.48306 1.32187,-1.38943 2.09836,-1.83784 3.18271,-1.83784 1.89619,0 1.82055,0.58721 -0.16792,1.30633 -2.75041,0.9946 -3.92946,4.14992 -1.55055,4.14992 1.36524,0 3.60817,1.42128 3.60817,2.28628 0,0.39943 -0.574,1.27608 -1.27518,1.948 z m -0.19985,23.50097 c -0.38241,0 -0.79631,-0.55185 -0.93758,-1.25046 -0.26613,-1.31482 -1.84675,-3.29643 -2.62963,-3.29643 -0.7211,0 -1.77793,2.96419 -1.77793,4.98699 0,1.7528 -0.0617,1.83325 -1.43065,1.83325 -0.78684,0 -3.29325,0.59535 -5.56976,1.32313 -4.65212,1.48705 -8.03555,1.92927 -8.32855,1.08832 -0.10461,-0.29918 0.59106,-0.94243 1.54516,-1.42939 0.95432,-0.48696 2.09813,-1.28689 2.54198,-1.77791 1.13765,-1.25789 0.31315,-1.77844 -3.20087,-2.02158 -3.8154,-0.26381 -4.22974,-0.75271 -2.61378,-3.08442 1.37604,-1.98566 3.24316,-2.8328 3.91284,-1.77561 0.6077,0.95978 0.49384,1.24799 -0.4009,1.01406 -0.76097,-0.1991 -2.7644,1.41826 -2.31417,1.86845 0.11011,0.10966 1.6262,0.49402 3.36824,0.85225 3.10013,0.63761 3.19361,0.6293 4.40206,-0.38758 0.67915,-0.5713 1.48317,-1.12174 1.78674,-1.22288 0.30357,-0.10075 0.40102,-0.42825 0.21648,-0.72673 -0.23663,-0.38298 -0.58623,-0.40845 -1.1872,-0.0866 -0.46863,0.25073 -1.20801,0.45583 -1.64316,0.45583 -0.67794,0 -0.6383,-0.16267 0.2767,-1.13658 1.38815,-1.47768 2.87396,-1.44532 4.08098,0.0884 1.22816,1.56148 1.15075,4.81778 -0.12024,5.05896 -0.6677,0.12731 -0.76085,-0.0566 -0.51916,-1.019 0.25501,-1.01548 0.1503,-1.17143 -0.77781,-1.15834 -1.39674,0.0195 -2.76991,1.20784 -3.52989,3.05382 -0.33429,0.81284 -0.78783,1.47768 -1.00761,1.47768 -0.21966,0 -0.39947,0.2265 -0.39947,0.50341 0,0.30589 0.31194,0.36972 0.79565,0.16266 2.37043,-1.0144 5.87025,-2.03005 6.99568,-2.03005 1.03029,0 1.34069,-0.24772 1.56641,-1.25028 1.23543,-5.48579 1.81207,-6.47775 3.56996,-6.14162 1.58645,0.30325 3.43508,2.45831 3.74448,4.36547 0.21042,1.29679 0.11848,1.66245 -0.415,1.66245 z m -1.1197,-77.3811 c -0.11506,0.89417 -0.41324,1.43258 -0.73255,1.32613 -0.35665,-0.11853 -0.53745,-1.46582 -0.53745,-4.00599 0,-3.09858 0.12916,-3.82689 0.68202,-3.82689 0.5174,0 0.69424,0.60348 0.73256,2.50075 0.0286,1.37548 -0.0374,3.17813 -0.14502,4.006 z m -1.37482,221.96805 c -0.58347,0 -1.82176,0.31898 -2.75141,0.70904 -1.08325,0.45425 -2.2623,0.60455 -3.28203,0.41818 -2.21903,-0.40527 -7.67417,-3.41985 -7.99018,-4.41569 -0.50199,-1.58147 0.35312,-3.54733 3.93189,-9.03932 1.98197,-3.04181 3.60376,-5.99026 3.60376,-6.552 0,-1.22836 -1.26691,-2.11882 -5.42001,-3.80886 -5.94524,-2.4194 -8.82272,-5.93526 -9.39012,-11.47321 -0.33506,-3.27168 0.19424,-4.94032 1.56752,-4.94032 1.05837,0 1.8756,1.81893 1.8756,4.17451 0,2.66201 0.88308,5.40588 2.20395,6.84766 0.62806,0.68569 3.02591,2.15117 5.3284,3.25663 2.30249,1.1053 4.32388,2.23235 4.49202,2.50428 0.16802,0.27213 0.52753,0.49457 0.79873,0.49457 0.34706,0 0.37657,-1.24463 0.0991,-4.20563 -0.21659,-2.31314 -0.39926,-6.24859 -0.40631,-8.74526 -0.0176,-3.78163 0.10791,-4.56281 0.7058,-4.6788 0.88341,-0.17151 2.51545,3.17106 1.97525,4.04525 -0.43317,0.70091 -0.42447,6.61142 0.0176,10.28996 0.17155,1.43683 0.39595,3.32967 0.49813,4.20597 0.59944,5.13464 2.0792,13.77965 2.65331,15.4985 0.3682,1.10247 0.64314,2.77182 0.61099,3.70948 -0.0496,1.46654 -0.20678,1.70506 -1.1197,1.70506 z m -2.61818,-8.18422 c -0.58655,-3.36274 -1.00739,-6.17221 -1.11111,-7.41524 -0.0958,-1.15498 -2.75537,2.60472 -5.42717,7.67322 -1.73455,3.29095 -1.76197,3.95667 -0.21317,5.17512 2.24556,1.76624 4.77147,1.77066 6.53057,0.0177 1.07082,-1.07081 1.05441,-0.66537 0.22088,-5.44459 z m 0.82835,-85.32746 c -0.59976,0.59976 -0.92513,0.27353 -1.51763,-1.52207 -0.82714,-2.50604 -1.6741,-3.15567 -2.22509,-1.70647 -0.23288,0.61268 -0.56937,2.11829 -0.74753,3.34576 -0.40278,2.77304 -1.03216,4.09035 -1.65626,3.46618 -0.29477,-0.29476 -0.30093,-0.75166 -0.0176,-1.29909 0.24048,-0.46451 0.57851,-2.14233 0.7515,-3.72875 0.37855,-3.47006 0.9346,-5.07257 1.76075,-5.07257 0.88231,0 2.43386,1.78604 3.25153,3.74272 0.78023,1.86738 0.84674,2.32799 0.40046,2.77429 z m -2.76572,-125.64919 c -0.69303,-0.0177 -1.37108,-0.71454 -2.13513,-2.20494 -0.43405,-0.84713 -0.95552,-1.35442 -1.16826,-1.13677 -0.41302,0.42278 -1.73135,3.83308 -2.1294,5.50842 -0.23112,0.97216 -1.03106,1.34153 -1.62323,0.74936 -0.1503,-0.15028 0.0176,-0.91786 0.36479,-1.70506 0.35114,-0.78718 1.06267,-2.91485 1.58117,-4.72777 0.51851,-1.81309 1.18973,-3.28723 1.49176,-3.2759 0.30203,0.0177 1.31647,1.24903 2.25405,2.75058 1.62036,2.59464 2.11409,4.05745 1.36425,4.04208 z m -2.0488,153.23286 c -0.64337,1.8094 -1.20361,1.95439 -2.83146,0.73203 -1.63325,-1.22658 -1.45961,-2.67932 0.51454,-4.30658 l 1.6588,-1.36735 -0.58501,-2.08874 c -0.65813,-2.35046 -0.3605,-3.06834 0.79344,-1.91442 0.98295,0.98294 1.26747,6.64431 0.44969,8.94506 z m -1.58877,-2.18689 c -0.43757,0.0849 -0.79565,0.45461 -0.79565,0.82292 0,0.36814 0.35808,0.7384 0.79565,0.82274 0.55826,0.1078 0.79565,-0.13792 0.79565,-0.82274 0,-0.68482 -0.23739,-0.93042 -0.79565,-0.82292 z m -1.1557,-25.17223 c -1.03679,0.86057 -5.79946,1.50331 -7.50791,1.01335 -1.34146,-0.38476 -1.51764,-0.30978 -2.15076,0.9145 -0.68323,1.32119 -1.19491,1.52312 -3.39423,1.33887 -1.44992,-0.122 -3.63735,-1.39687 -3.63735,-2.12076 0,-0.30519 1.05595,-1.13075 2.34676,-1.83432 1.29059,-0.70355 2.33343,-1.48367 2.31736,-1.73388 -0.0562,-0.87118 -3.4713,-1.6757 -6.142,-1.4469 -2.93849,0.25179 -3.42143,-0.30819 -1.10121,-1.27769 1.26549,-0.52869 1.97867,-0.53629 4.36,-0.0459 2.99728,0.61763 3.29083,0.49227 3.09253,-1.32207 -0.0595,-0.54743 0.16978,-0.9092 0.57917,-0.9092 0.47578,0 0.83243,0.86058 1.19424,2.88302 0.62168,3.47448 1.25855,4.19343 3.98739,4.50092 2.13017,0.24012 3.46073,-0.32906 3.46073,-1.48033 0,-0.99619 -1.11078,-1.06126 -2.93925,-0.17151 -0.96951,0.47157 -1.869,0.75113 -1.99915,0.62099 -0.40366,-0.40386 1.25932,-1.78199 2.76584,-2.2921 1.77661,-0.60136 2.00211,-1.16382 0.77407,-1.93069 -0.75568,-0.47193 -1.08315,-0.47705 -1.62731,-0.0248 -0.54735,0.45424 -0.75832,0.44009 -1.075,-0.0725 -0.56552,-0.91486 0.34299,-1.80479 1.84257,-1.80479 1.70119,0 3.62215,2.27247 3.62215,4.28484 0,1.074 0.26625,1.60587 0.95851,1.91477 0.83837,0.37397 0.8725,0.49898 0.27285,0.99673 z m -11.05409,-1.23844 c -0.0881,-0.099 -1.00706,0.37928 -2.04032,1.06321 -2.01555,1.33375 -1.93936,1.79453 0.36787,2.22544 1.10253,0.20582 1.57446,0.0814 1.9148,-0.50835 0.39078,-0.6758 0.25568,-2.22491 -0.24235,-2.7803 z m 9.19996,-97.34779 c -0.84267,0 -2.83752,0.41922 -4.433,0.93165 -3.28125,1.05366 -5.7804,1.33427 -5.87499,0.65971 -0.0352,-0.25003 0.87559,-0.74634 2.02359,-1.10281 1.14789,-0.35648 2.08712,-0.82769 2.08712,-1.04712 0,-0.21945 -0.51157,-1.1518 -1.13677,-2.07178 -1.91359,-2.81602 -1.28673,-5.65502 1.76164,-7.98018 2.09835,-1.60039 5.28579,-1.60357 5.28579,0 0,0.49793 -0.37007,0.58456 -1.551,0.363 -1.3387,-0.25108 -1.78409,-0.0777 -3.25405,1.26975 -2.06984,1.89673 -2.19767,3.65571 -0.45718,6.28554 l 1.16111,1.75474 2.95995,-0.27636 c 2.55575,-0.23871 2.95996,-0.17505 2.95996,0.47122 0,0.54601 -0.41335,0.74776 -1.53217,0.74776 z m -1.17652,125.70913 c -0.31965,2.34497 -1.97558,3.11996 -3.8046,1.78056 -2.22366,-1.62832 -2.02392,-2.93254 0.65867,-4.30111 1.92658,-0.98293 2.07446,-1.40889 1.12135,-3.2356 -0.6655,-1.27539 -0.53238,-1.73706 0.50089,-1.73706 1.15747,0 1.98835,4.08557 1.52369,7.49321 z m -2.05838,-1.58253 c -0.80005,0 -1.73984,1.222 -1.38341,1.79878 0.4085,0.66077 1.94056,0.595 2.18093,-0.0937 0.28639,-0.82115 -0.1274,-1.70507 -0.79752,-1.70507 z m 0.98228,-48.65038 c -0.94385,0 -1.15658,-0.4171 -1.69381,-3.32294 -0.3094,-1.67447 -0.30511,-2.86269 0.0176,-3.70081 0.78849,-2.07373 1.52887,-1.12386 1.59746,2.04915 0.0352,1.61081 0.22716,3.3889 0.42723,3.95171 0.27703,0.77872 0.19478,1.02289 -0.34431,1.02289 z m -0.85301,-102.84773 c -0.92371,0.9237 -1.34631,0.61162 -1.26174,-0.932 0.13785,-2.51173 0.0198,-3.00523 -0.93274,-3.89214 -0.56145,-0.52321 -0.80875,-1.15161 -0.63335,-1.60905 0.50584,-1.31836 1.57258,-0.8093 2.47647,1.18167 1.00067,2.20458 1.15108,4.45194 0.35136,5.25152 z m -0.82869,43.97652 c -0.49119,0.74512 -0.89441,1.80303 -0.89595,2.35099 0,0.54778 -0.20756,1.12262 -0.45762,1.27716 -0.25017,0.15383 -0.45794,0.93378 -0.46169,1.73176 -0.0176,3.10988 -1.82968,3.29377 -2.43902,0.2472 -0.26008,-1.3005 -0.39309,-1.38838 -1.70295,-1.12652 -0.78156,0.15561 -1.77739,0.28416 -2.21309,0.28416 -0.43548,0 -1.32979,0.81282 -1.98725,1.80602 -0.65724,0.99336 -1.79203,2.11475 -2.52161,2.49208 -1.21847,0.62999 -1.41281,0.61532 -2.38893,-0.18125 l -1.06255,-0.86693 1.47766,-1.53302 c 0.81283,-0.84308 1.47646,-1.7277 1.4748,-1.96587 -10e-4,-0.23818 -0.59756,-0.77128 -1.3245,-1.18486 -0.72694,-0.41358 -1.55595,-1.18947 -1.84213,-1.72434 -0.45089,-0.84219 -0.31909,-1.17319 0.98372,-2.47387 0.92084,-0.91946 2.1828,-1.62832 3.25538,-1.82883 1.65626,-0.30944 2.99244,0.0777 1.77221,0.51348 -0.67365,0.24066 -0.75601,3.21173 -0.13434,4.84659 0.38693,1.01776 0.62025,1.11237 2.15968,0.87561 0.94937,-0.14499 2.09032,-0.45212 2.53593,-0.68038 0.76669,-0.39291 0.76063,-0.47796 -0.11319,-1.58943 -0.50794,-0.64592 -0.9236,-1.55601 -0.9236,-2.02245 0,-1.45504 1.09856,-0.90708 1.96975,0.9824 0.97567,2.11616 1.33903,2.2127 2.442,0.6491 1.99474,-2.82769 2.34356,-3.16169 2.81725,-2.69755 0.32725,0.32059 0.19754,0.88286 -0.4194,1.81875 z m -11.34609,5.21952 c -0.59558,0 -2.02854,2.22561 -1.66617,2.58792 0.39144,0.3913 2.11046,-1.21847 2.11046,-1.97648 0,-0.33631 -0.19996,-0.61144 -0.44429,-0.61144 z m -1.68654,-6.24489 c -0.29675,-0.0972 -0.89915,0.37185 -1.33871,1.04289 -0.76757,1.17142 -0.76526,1.24515 0.0584,1.84704 1.51389,1.10706 2.11597,0.78684 1.96126,-1.04305 -0.0782,-0.9184 -0.38384,-1.74962 -0.68036,-1.84688 z m 8.41355,108.44972 c -2.76297,2.12358 -4.43564,1.80213 -5.3709,-1.03174 -0.46092,-1.39651 -0.40598,-1.75794 0.44913,-2.95889 1.46038,-2.05074 3.18205,-1.88576 4.48343,0.4295 0.6688,1.18999 1.23509,1.7116 1.67498,1.54275 1.29665,-0.49758 0.63786,0.57766 -1.23664,2.01838 z m -1.92239,-3.33356 c -0.6328,-0.86554 -0.65317,-0.86554 -1.61134,0.002 -1.0892,0.98594 -1.075,2.42118 0.0297,3.11413 1.80744,1.13253 2.98704,-1.19246 1.58062,-3.11571 z m 2.45334,-44.98829 c -0.61628,0.38104 -0.57268,0.42754 -1.71209,-1.82265 -1.71495,-3.38643 -3.98925,-4.77038 -5.64122,-3.43258 l -1.03877,0.84113 0.78915,2.96171 c 0.9051,3.39686 0.91699,3.49446 0.4215,3.49446 -0.20205,0 -0.82659,-1.52806 -1.38771,-3.3958 -0.78222,-2.60488 -0.90598,-3.60851 -0.53117,-4.30888 1.15384,-2.15577 4.03165,-2.26647 5.94612,-0.22845 1.45058,1.54416 1.79665,1.40182 1.79665,-0.73892 0,-1.51888 0.14326,-1.8246 0.79565,-1.69976 0.67134,0.12907 0.81712,0.76597 0.93307,4.0838 0.0881,2.54937 -0.0407,4.04206 -0.37118,4.24594 z m -1.88782,-26.10726 c -0.54185,0.28981 -2.90689,0.926 -5.25563,1.41332 -3.38288,0.70214 -4.4091,0.77146 -4.93696,0.33348 -0.36634,-0.30414 -0.57995,-0.63902 -0.47468,-0.74423 0.1057,-0.10615 -0.0848,-1.37194 -0.42084,-2.81513 -0.5903,-2.52974 -0.47622,-4.59339 0.25391,-4.59339 0.35202,0 0.60076,1.0945 1.16287,5.11501 0.32162,2.30058 0.63499,2.48995 2.7742,1.67659 1.80667,-0.68676 2.02942,-1.23084 1.71032,-4.17716 -0.2309,-2.13385 -0.1591,-2.61444 0.39056,-2.61444 0.83837,0 1.09911,0.97922 0.99781,3.74678 l -0.0793,2.1556 2.4311,-0.28575 c 2.59396,-0.30483 3.03792,-0.0619 1.44618,0.78932 z m 0.26162,-73.97257 c -1.27198,0.4882 -5.16115,-2.92493 -6.06801,-5.32488 -0.81888,-2.16763 -0.58248,-3.68791 0.76691,-4.92794 1.57731,-1.4499 3.80416,-2.33931 5.18548,-2.07125 l 1.0663,0.20688 -1.04879,0.3448 c -0.73223,0.24082 -0.95905,0.56704 -0.7515,1.08071 0.16275,0.40474 0.39519,1.34983 0.51477,2.10007 0.12023,0.75007 0.37536,2.08929 0.5686,2.97603 0.19313,0.88657 0.17155,2.09778 -0.0473,2.69136 -0.24995,0.67562 -0.22396,1.25488 0.0694,1.54804 0.65768,0.65778 0.58424,1.05419 -0.25479,1.37618 z m -1.86558,-8.03657 c -0.31525,-2.54584 -0.77803,-2.987 -1.98648,-1.8932 -1.27243,1.15144 -1.14657,3.63186 0.2789,5.50099 1.55353,2.0366 2.70329,2.05818 2.28389,0.0425 -0.16979,-0.81267 -0.42844,-2.4555 -0.57631,-3.65061 z m -0.0881,28.97223 c -1.40026,0.72409 -3.51832,0.92 -4.76652,0.441 -0.38351,-0.14676 -0.9302,-0.97321 -1.21494,-1.83591 -0.63699,-1.93033 0.17683,-3.45627 2.22321,-4.16973 1.70207,-0.59323 2.95566,0.20068 4.03022,2.55255 0.42084,0.92104 0.84002,1.8161 0.93185,1.98902 0.0925,0.17328 -0.45023,0.63319 -1.20382,1.02307 z m -1.92251,-3.55068 c -1.20845,-0.84644 -2.14889,-0.50624 -2.50322,0.90531 -0.36039,1.43594 0.52918,2.44469 2.15649,2.44469 1.14491,0 1.30821,-0.1662 1.30821,-1.33834 0,-0.84696 -0.3529,-1.58536 -0.96148,-2.01166 z m -3.517,132.25071 c -0.75534,2.32287 -1.29268,2.73096 -3.48771,2.6475 -2.08062,-0.0796 -3.85536,-1.07593 -3.85536,-2.16532 0,-0.28237 0.61375,-0.87613 1.36403,-1.31924 0.75018,-0.4431 1.36393,-1.05791 1.36393,-1.3661 0,-0.66555 -4.28854,-2.93147 -5.90604,-3.12066 -1.6087,-0.18815 -1.83365,-1.72363 -0.25237,-1.72363 1.26086,0 5.63715,2.09618 7.52255,3.6032 l 1.13666,0.90868 -1.70912,1.4179 c -1.96303,1.62868 -1.85677,2.25426 0.38307,2.25426 1.29962,0 1.66001,-0.21926 2.05607,-1.25029 0.26404,-0.68764 0.36479,-1.86419 0.22385,-2.61443 -0.49395,-2.62858 -0.49527,-3.0862 0,-3.2593 1.14492,-0.40739 1.93462,3.63504 1.16969,5.98743 z m -0.58963,-24.05669 c -0.29498,0.18231 -3.33675,0.39642 -6.75961,0.47565 l -6.22315,0.14499 -0.28265,-4.6399 c -0.16802,-2.74935 -0.1057,-4.81706 0.15206,-5.07434 0.66958,-0.66979 0.7787,-0.33436 1.30788,4.0228 0.27142,2.23481 0.66748,4.23746 0.88032,4.45034 0.41864,0.41854 3.68261,0.0265 4.62382,-0.55485 0.45904,-0.28379 0.42546,-0.80169 -0.16439,-2.53363 -0.91589,-2.68765 -0.96742,-4.74298 -0.11848,-4.74298 0.3921,0 0.71097,0.71523 0.86105,1.93227 0.13081,1.06286 0.56971,2.69966 0.97458,3.63751 0.69215,1.60268 0.85709,1.70488 2.74943,1.70488 2.02986,0 2.99056,0.56582 2.00002,1.17797 z m -0.83331,89.75731 c -2.48065,0 -3.54188,-6.31384 -3.5889,-21.35226 -0.0176,-4.36653 -0.25468,-9.45642 -0.53579,-11.31073 -0.44946,-2.96559 -0.42084,-3.46051 0.2385,-4.1096 0.69225,-0.68165 0.80071,-0.66945 1.41314,0.15736 1.30634,1.76252 1.61805,4.61425 2.00707,18.36013 0.2189,7.73333 0.61078,14.50954 0.88021,15.21824 0.7559,1.98832 0.61287,3.03703 -0.41423,3.03703 z m -2.04131,-219.16566 c -0.76152,0.63212 -0.99032,0.29935 -1.24214,-1.80691 -0.12553,-1.04306 -0.30093,-1.12598 -2.13733,-1.00698 -1.80965,0.11668 -1.942,0.0584 -1.38276,-0.61569 0.34013,-0.41004 1.13853,-0.94473 1.77397,-1.18804 l 1.15538,-0.44275 -1.07334,-0.87402 c -0.59041,-0.4806 -1.56234,-0.87402 -2.1598,-0.87402 -1.22848,0 -1.45465,-0.67066 -0.3671,-1.08795 1.4247,-0.54673 2.52745,-0.25409 3.67236,0.97426 1.94927,2.09142 2.931,5.95101 1.76076,6.9221 z m -0.46874,28.20167 c -0.37525,0 -0.68212,-0.31404 -0.68212,-0.69791 0,-0.9382 -1.25404,-2.79992 -2.10628,-3.12704 -1.00684,-0.38634 -2.27145,0.44171 -3.5518,2.32587 -1.5783,2.32287 -2.03371,0.92 -0.56353,-1.73618 0.76889,-1.38908 1.28123,-3.40658 1.69006,-6.65385 0.39309,-3.1235 0.77462,-4.66058 1.15714,-4.66058 0.79543,0 1.01697,0.89753 0.61727,2.50074 -0.18707,0.75024 -0.46895,2.44044 -0.62652,3.75615 -0.27373,2.28574 -0.23244,2.41252 0.92602,2.85315 2.5923,0.98558 3.82178,2.2334 3.82178,3.87921 0,1.08391 -0.20833,1.56044 -0.68202,1.56044 z m -1.44848,-25.68731 c -1.34521,0.21818 -6.9599,1.98514 -8.32712,2.62045 -0.12553,0.0584 -0.32956,-0.099 -0.45475,-0.34887 -0.40366,-0.80753 5.80495,-3.5841 8.0764,-3.61205 2.61267,-0.0318 3.12809,0.9474 0.70547,1.34047 z m -0.44617,103.5886 c -0.16615,0.16621 -0.55638,0.30308 -0.86623,0.30308 -0.42171,0 -0.50066,-0.91399 -0.31403,-3.63752 0.26955,-3.93227 0.076,-4.2256 -1.92404,-2.9152 -1.38397,0.90672 -3.71179,0.48395 -4.1019,-0.74495 -0.64381,-2.0281 2.98572,-4.69718 4.95447,-3.64351 1.86635,0.99867 2.55497,2.81248 2.55497,6.72971 0,1.98285 -0.13609,3.74165 -0.30324,3.90839 z m -2.9017,-9.02481 c -1.05529,-0.3349 -3.34424,0.93325 -2.92087,1.61841 0.39485,0.63867 3.28346,0.52994 3.55124,-0.13437 0.40157,-0.99496 0.32174,-1.18256 -0.63037,-1.48475 z m 1.4999,-44.324 c -1.09283,0 -1.47766,-1.49518 -1.47766,-5.74023 0,-2.43744 -0.1274,-2.90689 -0.79565,-2.95093 -1.54968,-0.10262 -2.62732,0.13438 -3.67699,0.80789 -1.68665,1.08142 -1.81251,0.21059 -0.18036,-1.24782 1.15923,-1.03579 1.9191,-1.32648 3.46778,-1.32648 1.1295,0 2.20692,0.26964 2.5029,0.62629 0.30445,0.36689 0.47611,1.91972 0.41467,3.75102 -0.0584,1.71868 0.0661,3.78993 0.27494,4.60258 0.33429,1.30121 0.27109,1.47768 -0.52963,1.47768 z m -2.56719,23.59751 c -1.32098,1.28034 -1.78531,1.46423 -3.21277,1.27185 -2.08227,-0.2806 -2.93947,-1.3744 -2.95819,-3.77419 -0.0176,-2.0808 1.55727,-4.27211 3.06742,-4.27211 1.51037,0 2.82893,1.9008 2.82893,4.07814 0,1.94483 0.0176,1.96163 0.90939,1.15074 1.55969,-1.41172 0.9934,-0.0318 -0.63478,1.54557 z m -2.23797,-4.88709 c -1.44761,-1.20147 -3.58802,2.14622 -2.57843,4.0327 0.53579,1.00115 2.51456,1.22925 2.87671,0.33171 0.46764,-1.15921 0.28166,-3.88311 -0.29828,-4.36441 z m -0.62707,84.1817 c -0.20062,0.12024 -1.59251,0.4691 -3.09308,0.77553 -1.50024,0.30643 -3.28049,0.8406 -3.95579,1.18716 -1.45905,0.74883 -1.7275,0.77694 -1.7275,0.18124 0,-0.24702 0.81833,-0.96578 1.81856,-1.5972 1.41227,-0.89152 1.81879,-1.43135 1.81879,-2.41552 0,-0.69702 -0.1862,-1.46176 -0.41379,-1.69923 -0.22738,-0.23764 -0.48316,-1.35266 -0.56828,-2.47793 -0.11847,-1.55441 0,-2.04615 0.50375,-2.04615 0.45123,0 0.88947,1.07382 1.392,3.41013 l 0.73344,3.41012 1.75228,0 c 1.60319,0 2.62115,0.74405 1.73962,1.27185 z m -1.77364,65.45855 c -0.18367,0.1839 -2.2949,0.34409 -4.69154,0.35612 -3.24635,0.0177 -5.63252,0.34974 -9.35884,1.30809 -4.88334,1.25613 -6.26907,1.34719 -5.26828,0.3464 0.27174,-0.27177 0.49417,-0.87189 0.49417,-1.33357 0,-0.88746 3.98859,-3.0579 5.63494,-3.06639 0.79565,0 0.83827,-0.27036 0.56365,-3.52824 -0.16263,-1.93811 -0.49626,-4.75129 -0.74015,-6.25177 -0.24378,-1.50048 -0.55077,-5.08105 -0.68202,-7.95683 -0.13081,-2.87578 -0.33396,-7.37704 -0.45045,-10.00279 -0.11672,-2.62577 -0.0385,-5.05012 0.1732,-5.38732 0.62597,-0.99778 1.95356,-0.40933 2.90016,1.28583 0.77297,1.38378 0.82087,1.86791 0.3834,3.86472 -0.29333,1.3394 -0.40531,4.53752 -0.27075,7.73882 0.52995,12.60892 0.64314,14.67523 0.94055,17.16413 l 0.31227,2.61425 2.55167,0 c 1.40356,10e-4 3.30273,0.21113 4.22049,0.46592 1.91116,0.53082 3.78258,1.88542 3.2883,2.37998 z m -3.17886,-169.33254 c -0.99549,-0.19168 -1.40114,-1.86686 -1.62091,-6.69559 -0.13434,-2.93677 -0.044,-3.46882 0.60317,-3.59471 0.64359,-0.12554 0.79499,0.39713 0.98581,3.40252 0.12376,1.9526 0.3692,4.33735 0.54493,5.29925 0.28111,1.53884 0.21956,1.72963 -0.513,1.58853 z m -1.11783,22.80641 c -0.46466,5.09556 -1.18609,5.64494 -3.40325,2.59217 -1.27231,-1.75192 -3.48419,-3.10917 -4.08604,-2.50728 -0.13973,0.13968 -0.37966,2.02934 -0.53282,4.19873 -0.33804,4.79089 -1.13534,4.61408 -1.21946,-0.27053 -0.10791,-6.21288 0.9422,-7.24885 4.71366,-4.65458 1.23994,0.85297 2.35106,1.55088 2.46909,1.55088 0.11848,0 0.27638,-1.07223 0.35202,-2.38281 0.1024,-1.76642 0.32835,-2.41906 0.87592,-2.52302 0.99924,-0.18991 1.14778,0.52426 0.83088,3.99644 z m -0.73376,53.53818 c -0.52005,1.28847 -1.40412,0.42896 -1.91722,-1.86402 -1.00508,-4.49101 -4.83997,-6.5674 -5.58463,-3.02378 -0.42668,2.03042 -0.0562,4.82167 0.88704,6.68852 0.95057,1.88064 0.27373,2.55291 -0.94595,0.93962 -1.32638,-1.75423 -1.61475,-7.52152 -0.47281,-9.45467 1.09481,-1.85324 3.21981,-1.8764 5.00964,-0.0548 l 1.27892,1.30209 0.45904,-1.60657 c 0.25248,-0.88356 0.71285,-1.69127 1.02303,-1.79453 0.42359,-0.14146 0.55506,0.86783 0.52819,4.05551 -0.0198,2.33401 -0.13973,4.4995 -0.26525,4.81211 z m -4.10642,-24.72966 c -0.15921,0.15914 -0.71703,0.29617 -1.23817,0.30271 -0.52082,0 -3.652,0.90479 -6.95781,1.99575 -4.34876,1.43506 -6.12284,1.84033 -6.4165,1.46565 -0.62245,-0.79445 -1.13357,-3.09768 -1.01245,-4.56138 0.1046,-1.25524 0.0407,-1.30192 -1.36668,-1.02043 -1.87934,0.37593 -2.68424,1.0549 -3.46492,2.92247 -0.97127,2.32339 -1.57511,1.29554 -1.46445,-2.49262 0.0694,-2.34797 -0.0793,-3.51904 -0.4749,-3.76358 -0.82879,-0.51206 -0.13973,-2.37591 0.81195,-2.19503 0.58137,0.10967 0.78849,0.74919 0.89331,2.75378 0.0749,1.43558 0.27957,2.60276 0.45464,2.59392 0.17497,-0.0177 0.82979,-0.30855 1.45499,-0.6659 0.6252,-0.35735 1.59702,-0.65705 2.15968,-0.66589 0.79091,-0.0177 1.02302,-0.28079 1.02302,-1.18274 0,-1.49129 0.76427,-2.92546 1.55871,-2.92546 1.04868,0 1.20239,1.33285 0.47633,4.13472 -0.47545,1.83485 -0.57202,3.15603 -0.30445,4.16425 0.43724,1.64689 0.89343,1.7047 3.95292,0.50128 1.00023,-0.39342 2.28344,-0.89541 2.85172,-1.11519 1.08821,-0.42118 1.09448,-1.29237 0.0297,-4.11811 -0.25039,-0.66395 -0.38726,-1.64406 -0.30412,-2.17769 0.29179,-1.87622 1.06762,-0.96084 1.78487,2.10555 l 0.72419,3.09804 2.29478,-0.15029 c 2.1207,-0.13969 3.2327,0.29793 2.53383,0.99689 z m -2.52007,-60.47726 c -1.36392,-0.2212 -1.84399,-0.0672 -2.81461,0.90337 -1.55947,1.55954 -1.4748,2.70196 0.30765,4.14851 4.14253,3.36222 4.36462,4.04314 1.92449,5.90433 -1.72784,1.31783 -3.86208,1.736 -4.18614,0.82044 -0.12552,-0.3547 0.21736,-0.56829 0.91204,-0.56829 0.61232,0 1.66353,-0.43285 2.33597,-0.96189 1.7079,-1.3433 1.40389,-2.65829 -0.78894,-3.41455 -2.39135,-0.8245 -3.42373,-2.20863 -3.15958,-4.23586 0.26977,-2.07037 1.19017,-3.0846 3.39951,-3.74661 1.59306,-0.47724 1.86294,-0.43356 2.74051,0.44399 l 0.97359,0.97357 -1.64449,-0.26701 z m -1.58799,-41.07953 c -0.29807,0.85863 -2.44244,3.18273 -2.93639,3.18273 -0.68092,0 -0.379,-1.06797 0.59514,-2.10484 1.15141,-1.22589 0.91677,-3.55441 -0.52941,-5.25115 l -0.89948,-1.05544 -1.5935,1.7887 c -1.46666,1.64635 -2.01379,2.91716 -2.70461,6.28183 -0.40025,1.95066 -1.14855,1.46847 -1.14855,-0.74017 0,-3.19245 2.1784,-7.19968 4.62624,-8.50955 2.06014,-1.10265 5.5212,3.72856 4.59056,6.40789 z m -3.85625,27.39431 c -0.26095,1.23172 -0.71097,2.15966 -1.04746,2.15966 -0.3245,0 -1.21242,-1.32984 -1.97294,-2.95533 -0.76064,-1.6255 -1.47789,-2.95535 -1.5935,-2.95535 -0.11496,0 -1.0206,1.28264 -2.01093,2.85066 -3.33256,5.27663 -4.02779,5.07239 -4.28666,-1.25929 -0.1024,-2.50075 -0.27593,-4.85368 -0.38648,-5.22889 -0.13081,-0.44575 0.11495,-0.68198 0.70866,-0.68198 0.83353,0 0.92833,0.37891 1.13655,4.54671 0.24686,4.93713 0.22848,4.93342 2.42934,0.48855 2.09978,-4.24046 2.53493,-4.34814 4.26948,-1.05685 l 1.25811,2.38705 0.22738,-4.77411 c 0.18278,-3.83943 0.36082,-4.77409 0.90939,-4.77409 0.55627,0 0.69435,0.8383 0.74929,4.54671 0.0374,2.50075 -0.13785,5.51869 -0.39023,6.70655 z m -2.24942,100.93811 c -0.25237,0.68764 -0.77065,1.25028 -1.15163,1.25028 -0.47886,0 -0.59382,-0.2456 -0.37206,-0.79569 0.17684,-0.43761 0.43449,-1.59684 0.57345,-2.57607 0.22914,-1.61611 0.1732,-1.74785 -0.6132,-1.42621 -2.00905,0.82256 -2.4431,0.76793 -3.57183,-0.44983 -1.42724,-1.54008 -1.48471,-3.11112 -0.14843,-4.04719 1.49319,-1.04589 2.31186,-0.87844 4.0747,0.83369 1.36503,1.32579 1.59284,1.85058 1.62753,3.75103 0.0209,1.21528 -0.16627,2.77234 -0.41875,3.45999 z m -2.29269,-6.38827 c -0.64392,-0.64398 -2.02105,-0.7202 -2.38453,-0.13262 -0.41026,0.66377 0.21307,1.80196 1.14932,2.09919 1.57897,0.50111 2.39829,-0.804 1.23521,-1.96729 z M 620.606,190.5927 c -0.38164,1.817 -1.15108,1.7362 -1.33133,-0.13968 -0.17925,-1.86755 -0.80357,-2.12854 -2.94861,-1.23242 -1.25844,0.52586 -1.68104,0.9695 -1.68104,1.76517 0,1.39051 -0.89232,3.92643 -1.38165,3.92643 -0.72639,0 -0.87966,-0.80822 -0.40917,-2.15789 0.43945,-1.26017 -0.25038,-7.4216 -1.22694,-10.95992 -0.24081,-0.87259 -0.13962,-1.03897 0.54768,-0.90655 0.88869,0.17152 1.46809,1.80674 1.88078,5.30899 0.21966,1.86402 0.29652,1.95367 1.43384,1.67429 2.23995,-0.55026 3.24106,-1.49216 3.02976,-2.85067 -0.75248,-4.84094 -0.74125,-5.11252 0.2124,-5.11252 0.77121,0 0.91655,0.30306 0.92602,1.93245 0,1.06267 0.21813,2.85296 0.47149,3.97841 0.25325,1.12527 0.52852,2.35292 0.61188,2.72795 0.0837,0.37521 0.0231,1.29591 -0.13445,2.04615 z m -0.3911,100.84847 c -0.18763,0.10615 -0.92151,0.33012 -1.63083,0.50004 -1.21968,0.29193 -1.28145,0.42454 -1.13666,2.44115 0.12564,1.74237 0,2.16108 -0.64271,2.28822 -0.65636,0.12907 -0.79565,-0.17931 -0.79565,-1.75812 l 0,-1.91387 -2.04594,0.28042 c -2.49287,0.34162 -2.61663,-0.15028 -0.34111,-1.35354 1.61695,-0.85544 1.69689,-1.00274 1.54824,-2.84979 -0.1362,-1.69021 -0.0462,-1.92661 0.68202,-1.78851 0.57069,0.10791 0.8844,0.63 0.98129,1.63292 0.13433,1.38855 0.24632,1.47395 1.93242,1.47395 1.60572,0 2.35281,0.54001 1.44893,1.04713 z M 614.2255,143.5337 c -0.21096,0.37503 -0.56497,1.29573 -0.78684,2.04596 -0.56056,1.89604 -2.05111,2.03785 -3.28015,0.31192 -2.37847,-3.34028 -2.3233,-5.61134 0.15911,-6.50869 1.36117,-0.49227 1.56553,-0.75695 1.47645,-1.91193 -0.14501,-1.87941 0.75711,-1.98392 1.79897,-0.2083 0.92503,1.57669 1.28255,5.11642 0.63335,6.27104 z m -2.04869,-3.63751 c -0.8561,0 -2.07842,1.24816 -2.07842,2.12201 0,0.38121 0.43647,1.30615 0.97017,2.05569 1.20691,1.69497 1.74072,1.07965 1.75085,-2.01787 0,-1.5719 -0.16979,-2.15983 -0.6426,-2.15983 z m -1.86756,117.53394 c -0.34354,0.75024 -0.63698,1.97772 -0.65207,2.72796 -0.055,2.73149 -1.83221,3.38784 -1.83221,0.67667 0,-2.07584 1.73268,-5.45078 2.79853,-5.45078 0.50254,0 0.44187,0.39484 -0.31425,2.04615 z m -0.78629,-36.60144 c -0.82417,0 -1.28332,-0.363 -1.68434,-1.33126 -0.30346,-0.73203 -0.93285,-1.67642 -1.39916,-2.09831 -0.81139,-0.73415 -0.90245,-0.65246 -2.11828,1.89956 -1.90555,4.00017 -2.63425,3.7894 -3.34203,-0.96737 -0.31987,-2.14976 -0.73366,-4.00264 -0.91964,-4.11757 -0.18608,-0.11493 -1.12355,0.68005 -2.08348,1.76677 l -1.74534,1.97594 -2.04605,-0.49633 c -1.9246,-0.46679 -2.05442,-0.59588 -2.18556,-2.17539 -0.27274,-3.28105 3.17577,-4.86499 4.7587,-2.18566 0.98096,1.66068 1.38308,1.70524 2.0564,0.22739 1.09823,-2.41057 2.65418,-0.98718 3.36042,3.07417 0.39904,2.29528 0.80765,2.42189 1.71,0.52975 0.87999,-1.84528 1.89289,-2.37415 3.10155,-1.6193 1.11838,0.69843 1.39861,0.0177 1.20801,-2.95464 -0.11132,-1.72681 0,-2.21271 0.54009,-2.21271 0.51542,0 0.74841,0.77765 0.95409,3.18273 0.1503,1.7505 0.42855,4.1547 0.61992,5.3424 0.33693,2.09194 0.31238,2.15983 -0.7853,2.15983 z m -14.06513,-7.18395 c -0.30016,-0.30007 -0.69479,-0.54567 -0.87691,-0.54567 -0.56772,0 -1.76043,1.39757 -1.76043,2.06259 0,0.82892 1.55662,1.64707 2.46788,1.29732 0.84421,-0.32393 0.94727,-2.03642 0.16979,-2.81424 z m 13.80527,149.04277 c -1.66144,0 -2.56851,-6.19536 -3.06235,-20.91498 -0.14678,-4.37626 -0.43461,-10.5145 -0.63952,-13.64031 -0.20502,-3.12596 -0.27891,-5.83695 -0.1645,-6.02456 0.11495,-0.18742 0.60031,-0.3409 1.07918,-0.3409 1.72695,0 2.11916,1.97701 2.43616,12.27616 0.8484,27.56335 0.86161,28.64459 0.35081,28.64459 z m -1.21164,-196.41936 c -0.3867,0.32092 -0.76526,0.50322 -0.84112,0.40509 -0.43549,-0.56353 -1.28652,-5.44619 -1.05452,-6.05074 0.4956,-1.2913 1.09614,-0.76296 1.63578,1.43931 0.29102,1.18769 0.62686,2.48872 0.7461,2.89116 0.12024,0.40226 -0.0991,0.99408 -0.48624,1.31518 z m -2.38629,76.39463 c -0.43768,0 -2.17663,0.49686 -3.86472,1.09273 -3.96856,1.40058 -4.21982,0.44753 -0.3409,-1.29308 1.50024,-0.67349 2.72796,-1.41754 2.72796,-1.65359 0,-0.23606 -0.83551,-0.42914 -1.85666,-0.42914 -2.17169,0 -2.28235,-0.99709 -0.15206,-1.36699 1.53327,-0.26611 2.02358,-1.76942 0.88538,-2.71399 -0.5915,-0.49085 -0.85246,-0.46467 -1.53547,0.15383 -1.0696,0.96808 -1.43329,0.94032 -1.43329,-0.10967 0,-1.26743 1.13677,-1.99645 2.60871,-1.67323 1.59295,0.34993 2.10473,1.15357 3.02734,4.75518 0.88935,3.47183 0.89453,3.22588 -0.0672,3.23755 z m -1.66143,-81.81359 c -0.1013,0.10427 -0.27649,1.58553 -0.39034,3.29182 -0.1274,1.90788 -0.46896,3.36433 -0.88748,3.78304 -0.60439,0.60436 -0.85632,0.43515 -2.24953,-1.5111 -0.86304,-1.20536 -1.70449,-2.54954 -1.86999,-2.98717 -0.81976,-2.16638 -1.6937,0.15031 -1.6937,4.48995 0,3.15037 -0.87834,3.19989 -1.00761,0.0566 -0.32438,-7.893 1.24677,-9.74218 4.18393,-4.92352 0.62168,1.0199 1.28674,1.85448 1.47789,1.85448 0.19093,0 0.34717,-1.03651 0.34717,-2.30324 0,-1.26691 0.23145,-2.73591 0.51454,-3.26477 0.49836,-0.93096 0.53425,-0.9345 1.13666,-0.10967 0.6426,0.87862 0.75557,1.29731 0.43846,1.62425 z m -2.83047,138.23266 c -0.97656,0.81036 -3.52647,0.96419 -4.45887,0.26876 -0.85665,-0.63884 -0.83981,-0.7193 0.62542,-3.00273 1.45377,-2.26575 1.47766,-2.37697 0.696,-3.24074 -0.86932,-0.96064 -4.02229,-1.26636 -4.53309,-0.43974 -0.15382,0.2502 -0.72936,0.44735 -1.27738,0.43834 -0.92877,-0.0177 -0.9041,-0.0919 0.36799,-1.13429 1.51015,-1.23808 4.17204,-1.50632 5.66875,-0.57148 1.2613,0.78754 1.64283,0.12908 0.98284,-1.69658 -0.65042,-1.79824 -0.32835,-2.82715 0.63434,-2.02793 0.78452,0.65105 1.17585,2.47263 1.54185,7.17866 0.20899,2.68569 0.13797,3.90804 -0.24785,4.22773 z m -1.02798,-3.88294 c -0.42315,-0.26133 -1.86844,1.63698 -1.86844,2.45407 0,0.64061 1.05804,0.59464 1.72761,-0.0743 0.63995,-0.6399 0.72144,-2.02015 0.14149,-2.37909 z m -3.18667,-29.35735 c -1.17553,3.67588 -3.56358,6.69859 -5.46869,6.92209 -1.70217,0.19963 -1.56729,-0.76722 0.19611,-1.40483 1.23741,-0.44735 1.88044,-1.12084 2.79589,-2.92723 1.27077,-2.50764 1.61552,-5.40569 0.74654,-6.27476 -0.29212,-0.29227 -1.36877,-0.53133 -2.39234,-0.53133 -3.27971,0 -7.73198,3.8138 -7.75191,6.64006 -0.0176,1.33145 -0.684,2.31156 -1.32032,1.91831 -0.31667,-0.19592 -0.4117,-0.89523 -0.24334,-1.79259 0.18961,-1.01104 0.0672,-1.64424 -0.3899,-2.02404 -0.92007,-0.7635 -3.2524,1.22411 -3.96294,3.37759 -0.79807,2.41781 -1.55022,1.64441 -1.80612,-1.85713 -0.36666,-5.01917 -1.66309,-4.19625 -3.40215,2.15967 -0.81228,2.96842 -1.81372,3.44105 -2.41073,1.13729 -0.21042,-0.8123 -0.67663,-1.53178 -1.03591,-1.59897 -0.35929,-0.0672 -1.93781,0.71948 -3.50764,1.74821 -3.33807,2.18706 -4.50919,2.14056 -3.93916,-0.15737 0.20073,-0.80895 0.37911,-2.59605 0.39651,-3.97152 0.0264,-2.17664 -0.0881,-2.51772 -0.88914,-2.63248 -1.14293,-0.16444 -3.16233,1.87799 -4.73568,4.78825 -0.64007,1.1838 -1.52182,2.22102 -1.95951,2.30501 -0.69258,0.13261 -0.79565,-0.23447 -0.79565,-2.836 0,-2.81089 -0.0617,-2.98876 -1.0402,-2.98876 -0.9531,0 -5.32532,3.83908 -5.32532,4.67614 0,0.17894 0.60175,0.32534 1.33717,0.32534 1.77485,0 2.22134,0.81815 0.61386,1.12439 -0.6981,0.13262 -3.06721,0.84573 -5.2651,1.58377 -2.19789,0.73804 -4.3122,1.22041 -4.6988,1.07222 -0.5414,-0.20775 -0.66781,-0.82963 -0.55076,-2.70779 0.0826,-1.34081 0.1046,-2.43762 0.0473,-2.43727 -0.0584,3.5e-4 -0.52202,0.81902 -1.03227,1.81929 -0.51025,1.00026 -1.01598,1.81875 -1.124,1.81875 -0.1079,0 -0.81282,-0.89611 -1.5663,-1.99132 -1.48824,-2.16302 -2.7154,-2.91804 -3.27377,-2.01432 -0.19456,0.31456 -0.57961,1.91246 -0.85599,3.55104 -0.79289,4.70037 -1.35247,4.816 -1.05352,0.21767 0.31403,-4.83104 0.71846,-6.12854 1.90984,-6.12854 0.48338,0 1.82385,0.9184 2.9789,2.04084 l 2.09967,2.04084 0.49153,-1.24515 c 0.27043,-0.68482 0.67409,-1.60039 0.89717,-2.03466 0.22341,-0.43426 0.40586,-1.18945 0.40586,-1.67817 0,-1.1907 0.67662,-1.54328 1.36646,-0.71206 0.40597,0.48891 0.47192,1.73407 0.2397,4.52108 l -0.3203,3.84633 1.28949,-0.38069 c 0.70921,-0.20935 2.17234,-0.7391 3.2513,-1.17725 1.95994,-0.79586 1.96182,-0.79887 1.65384,-2.66802 -0.415,-2.51807 -0.90796,-3.00769 -3.02734,-3.00769 -2.39961,0 -2.08272,-1.08761 0.37085,-1.27167 1.44122,-0.10791 2.01334,0.0937 2.88541,1.02289 0.59844,0.6369 1.32516,1.15799 1.61508,1.15799 0.28981,0 1.41369,-0.81832 2.49706,-1.81859 1.08358,-1.00025 2.10506,-1.81875 2.26979,-1.81875 0.1645,0 0.77252,0.50322 1.35038,1.11838 0.73982,0.78737 1.05066,1.66174 1.05066,2.95534 0,1.01034 0.0562,1.83714 0.12552,1.83714 0.0694,0 0.5729,-0.92564 1.12048,-2.05692 1.10164,-2.27565 3.35976,-4.76332 4.32376,-4.76332 0.342,0 1.19161,0.49014 1.88805,1.08938 1.17728,1.01246 1.25788,1.30051 1.14656,4.09194 -0.0661,1.65166 0,3.0029 0.12905,3.0029 0.13797,0 1.38055,-0.75077 2.76264,-1.66845 1.82121,-1.20909 2.43231,-1.86614 2.21991,-2.38705 -0.89518,-2.19627 -1.18345,-3.29679 -0.92987,-3.55034 0.39805,-0.39802 1.60727,1.29713 1.62477,2.2776 0.0352,1.94235 2.19932,1.32844 3.31418,-0.93997 0.88935,-1.80974 1.93715,-2.25532 3.01347,-1.2814 0.50056,0.45301 1.03822,1.40729 1.1949,2.12058 l 0.28486,1.29661 1.9007,-1.3783 c 1.29092,-0.93607 1.85512,-1.65891 1.75845,-2.2532 -0.0903,-0.55096 0.12024,-0.8749 0.56827,-0.8749 0.39089,0 0.71064,0.19981 0.71064,0.44417 0,0.24437 0.50728,0.77659 1.12719,1.18274 1.08799,0.71294 1.16771,0.69065 2.28411,-0.63601 1.31944,-1.56821 4.52802,-3.26549 6.16677,-3.26213 2.57469,0 4.53012,3.1677 3.65354,5.90857 z m -24.14365,2.27336 c -0.25028,0 -0.45486,0.30695 -0.45486,0.68198 0,0.37521 0.20458,0.68217 0.45486,0.68217 0.24995,0 0.45453,-0.30696 0.45453,-0.68217 0,-0.37503 -0.20458,-0.68198 -0.45453,-0.68198 z m 21.55696,-78.88636 c -0.34123,2.00071 -0.50925,3.99556 -0.37327,4.43319 0.34795,1.11961 -0.2081,2.61444 -0.9727,2.61444 -1.02644,0 -1.16859,-1.75139 -0.49847,-6.13826 0.34376,-2.25054 0.55264,-4.17521 0.46389,-4.27688 -0.15393,-0.17699 -1.71539,0.42436 -6.01791,2.31897 -2.12059,0.93379 -2.8243,0.81956 -1.88947,-0.30696 0.92261,-1.11147 7.34384,-3.92997 8.6155,-3.78126 1.4105,0.16445 1.45817,0.53045 0.67243,5.13676 z m -0.0352,-47.89907 c -0.20844,0.039 -0.58347,0.11668 -0.83353,0.17504 -0.25017,0.0584 -0.91501,0.12909 -1.47788,0.15914 -0.88154,0.0443 -1.02281,0.30361 -1.02281,1.8711 0,1.3134 -0.18961,1.81875 -0.68202,1.81875 -0.38615,0 -0.68201,-0.40757 -0.68201,-0.93925 0,-0.51667 -0.21835,-1.34719 -0.48514,-1.84582 -0.48349,-0.90337 -0.49032,-0.90319 -2.07204,0.0301 -0.87294,0.51507 -1.79698,0.93644 -2.05354,0.93644 -0.97821,0 -0.0253,-1.17585 1.68743,-2.08239 1.61431,-0.85439 1.78652,-1.1175 1.78652,-2.72796 0,-2.27212 1.28938,-2.5536 1.50475,-0.32853 0.13434,1.38148 0.24511,1.4607 2.23786,1.59137 1.16628,0.0761 2.18017,0.38971 2.28422,0.70569 0.1024,0.31261 0.0176,0.59958 -0.19181,0.63759 z m -1.77463,200.89765 c -0.10461,0.62522 -0.41412,2.51453 -0.68774,4.19855 -0.70702,4.35381 -3.31385,11.8175 -4.96604,14.21904 -1.21076,1.75953 -1.62499,2.04278 -2.98649,2.04278 -1.23972,0 -1.66816,-0.22986 -1.98582,-1.06568 -0.22286,-0.58598 -1.01235,-1.31713 -1.75426,-1.62443 -1.56631,-0.64875 -3.73931,-3.50437 -5.35924,-7.04268 -0.8692,-1.89851 -1.24897,-3.79807 -1.61607,-8.08238 -0.26404,-3.08035 -0.37966,-6.4979 -0.25711,-7.59453 0.13081,-1.17814 -0.0352,-2.61373 -0.41026,-3.50914 -0.34806,-0.83335 -0.63291,-2.31455 -0.63291,-3.29166 0,-3.11624 -0.50078,-4.65828 -1.65538,-5.09714 -1.28112,-0.48714 -1.34047,-1.19264 -0.22286,-2.64609 0.79256,-1.0305 0.88098,-1.04553 1.96589,-0.33472 1.49022,0.97639 2.14724,2.50499 2.49122,5.79488 0.15558,1.48192 0.4716,2.81194 0.70371,2.95534 0.23222,0.14322 0.86733,-0.14499 1.41138,-0.6392 2.09053,-1.90203 4.87431,-2.58756 8.5361,-2.10167 2.83565,0.3761 5.15036,2.20051 6.41287,5.05437 0.84069,1.90061 1.38022,6.5688 1.01301,8.76436 z m -3.60046,-8.46731 c -1.35655,-2.07055 -6.21391,-2.58527 -9.05472,-0.95977 -1.98814,1.13783 -2.30657,1.83183 -0.95333,2.0778 2.15043,0.39076 3.84149,3.27449 2.27332,3.87638 -0.37504,0.14323 -0.68202,0.0796 -0.68202,-0.14322 0,-0.58368 -2.74084,-1.10017 -3.23204,-0.60896 -0.2277,0.22774 -0.42557,2.80469 -0.43933,5.72662 l -0.0253,5.31234 1.87516,3.75403 c 1.92185,3.84757 4.21851,6.7092 5.38423,6.7092 3.68459,0 7.71513,-21.37824 4.85406,-25.74495 z m 2.38177,-35.86532 c -0.31238,0.1079 -2.29545,0.81814 -4.40635,1.57722 -2.11102,0.75891 -4.10586,1.37989 -4.43311,1.37989 -1.46742,0 -0.29256,-0.80081 3.27289,-2.23056 2.12389,-0.85174 3.86164,-1.63257 3.86164,-1.73495 0,-0.10251 -0.21174,-0.58208 -0.47061,-1.06585 -0.56332,-1.05243 -1.48119,-1.13271 -2.25746,-0.19734 -0.71505,0.86146 -1.36403,0.8772 -1.36403,0.0336 0,-0.35682 0.52698,-1.06339 1.17112,-1.57014 0.78101,-0.61427 1.12168,-1.26903 1.02292,-1.96534 -0.12916,-0.90974 -0.39695,-1.03917 -2.0803,-1.00504 -2.00178,0.0406 -2.17829,-0.0849 -1.53943,-1.09167 0.24499,-0.38635 1.08699,-0.54726 2.38001,-0.45461 l 2.00112,0.14323 0.90928,2.83281 c 0.50012,1.55812 1.26747,3.24833 1.70515,3.75633 0.94606,1.09805 0.97954,1.3325 0.22716,1.59331 z m -0.45464,-78.65842 c -0.3126,0.1079 -2.45599,0.83706 -4.76311,1.6186 -6.14739,2.08256 -6.65048,1.28936 -0.63456,-1.00044 0.98625,-0.37538 1.05188,-0.5805 0.74632,-2.33295 -0.89827,-5.15196 -0.0782,-6.74827 1.10407,-2.14869 l 0.75964,2.95534 1.67796,-0.13262 c 1.59526,-0.12731 2.37241,0.60242 1.10968,1.04147 z m -0.77814,-51.61741 c -0.57488,0.90902 -0.7842,0.21714 -1.12224,-3.71054 -0.26085,-3.02854 0.26878,-4.43036 1.14855,-3.04128 0.52875,0.83459 0.50893,5.90557 -0.0264,6.75182 z m -4.45755,74.8289 c -0.636,0.90744 -3.20605,2.47882 -4.05412,2.47882 -1.21472,0 -2.76385,-1.19865 -3.57403,-2.76526 -0.63159,-1.22128 -0.62509,-1.49624 0.0705,-2.96189 1.53118,-3.22711 5.20982,-3.97558 6.48741,-1.3203 0.36094,0.75024 0.82769,1.71938 1.03723,2.15365 0.4651,0.96384 0.47622,1.78268 0.0341,2.41498 z m -2.22322,-3.96444 c -1.0315,-1.13977 -2.26098,-1.04217 -3.58758,0.2845 -1.97932,1.97948 -0.97854,4.79479 1.70438,4.79479 1.04934,0 1.44541,-0.29901 1.95785,-1.47768 0.84432,-1.9427 0.83067,-2.60118 -0.0738,-3.60161 z m -1.46864,-68.17187 c -0.83319,1.08354 -1.87086,1.00132 -1.87086,-0.14852 0,-0.96772 -1.82352,-4.80522 -2.28345,-4.80522 -0.43273,0 -1.67586,2.51826 -2.76385,5.59859 -0.70624,1.99965 -1.60902,2.93149 -2.23433,2.30625 -0.23245,-0.2325 -0.65328,-1.97364 -0.93538,-3.86914 -0.52368,-3.52205 -1.03822,-4.93481 -1.59471,-4.37855 -0.17144,0.17151 -0.76086,2.09707 -1.30843,4.27794 -0.56046,2.23199 -1.31217,4.16443 -1.71991,4.4217 -1.06002,0.66873 -2.03548,-0.33772 -2.39608,-2.47209 -0.16616,-0.98595 -0.46444,-1.79259 -0.66198,-1.79259 -0.83793,0 -3.64495,1.41595 -4.89909,2.47121 -0.74566,0.62754 -1.49385,1.00292 -1.66254,0.83423 -0.16792,-0.16797 -0.16792,-2.00441 -4.4e-4,-4.07937 0.34993,-4.31243 0.1361,-4.52568 -2.64273,-2.63744 -2.2154,1.50544 -2.79788,0.59996 -0.75051,-1.16664 1.81505,-1.56626 3.44169,-2.09813 4.44038,-1.45204 0.56651,0.36655 0.7058,1.17037 0.63632,3.67165 l -0.0881,3.20236 2.61146,-1.33657 c 2.51732,-1.2883 2.60464,-1.39369 2.42626,-2.92264 -0.2146,-1.83892 0.65317,-2.19625 1.09173,-0.44947 0.28552,1.13835 1.25855,1.45256 2.35094,0.75908 0.31514,-0.19998 0.83507,-1.26991 1.15582,-2.37751 1.0772,-3.72061 2.6544,-2.48978 4.11302,3.20978 0.28805,1.12529 0.72826,1.99329 0.97832,1.92874 0.25006,-0.0636 0.76152,-1.03067 1.13677,-2.1471 0.71185,-2.11899 1.94265,-3.87375 2.71716,-3.87375 0.24896,0 0.99429,0.8185 1.65616,1.81877 0.66197,1.00026 1.30083,1.81875 1.41941,1.81875 0.11837,0 0.14326,-1.79028 0.0529,-3.97841 -0.13434,-3.30563 -0.0473,-3.97842 0.51949,-3.97842 0.81393,0 1.28553,2.5987 1.3201,7.27484 0.0176,2.41959 -0.17694,3.44355 -0.81316,4.27105 z m -14.80231,-2.22508 c -0.95233,0 -1.29235,0.78878 -0.94209,2.18495 0.29597,1.1792 0.33077,1.19175 0.95211,0.34196 0.83408,-1.14048 0.82846,-2.52691 -0.0176,-2.52691 z m 14.82852,24.73143 c -0.62113,0.38388 -0.74885,0.0973 -1.43208,-3.22535 -0.57169,-2.77976 -0.44099,-4.22843 0.38142,-4.22843 0.60527,0 0.842,0.82467 1.20184,4.1844 0.20381,1.90364 0.14854,3.08354 -0.1503,3.26938 z m -2.92021,107.6298 c -0.56254,0.29528 -1.20041,0.83865 -1.41721,1.20714 -0.31844,0.54159 -0.46477,0.55556 -0.76306,0.0725 -0.29377,-0.47546 -0.61144,-0.4866 -1.55959,-0.0548 -0.65493,0.29847 -1.7438,0.53576 -2.41954,0.52744 l -1.22915,-0.0177 1.10869,-0.92263 c 0.60968,-0.50747 1.67928,-1.03687 2.37682,-1.17638 1.79368,-0.35877 2.35359,-1.21845 2.00454,-3.07858 -0.4019,-2.14287 -0.89981,-2.31969 -2.68854,-0.95536 -1.45179,1.10724 -2.57402,1.49023 -2.57402,0.87808 0,-0.15559 0.9334,-1.10529 2.07424,-2.10962 1.82363,-1.60516 2.05728,-2.01909 1.93241,-3.42445 -0.087,-0.98257 0.0782,-1.6734 0.42635,-1.79293 0.3126,-0.10614 0.56849,0.13791 0.56849,0.54354 0,0.4058 0.40906,1.54009 0.90917,2.52037 0.50023,0.98046 0.90939,2.58402 0.90939,3.56378 0,1.02855 0.28816,2.02015 0.68191,2.34708 0.94,0.78013 0.85599,1.24074 -0.3409,1.86915 z m 0.30192,-79.95857 c -0.62134,0.62134 -1.09757,0.35134 -1.09757,-0.62222 0,-0.52905 -0.34233,-1.92591 -0.76085,-3.10405 -0.71626,-2.01679 -0.63159,-3.66351 0.18851,-3.66351 0.69963,0 2.2405,6.81919 1.66991,7.38978 z m -1.59867,25.95218 c -0.59977,0.16091 -1.80634,0.29246 -2.6816,0.29352 -0.87526,8.8e-4 -3.18502,0.56564 -5.13274,1.25506 -3.81804,1.35107 -4.39237,1.20731 -4.40856,-1.10388 0,-0.54796 -0.22055,-1.12828 -0.48172,-1.28953 -0.7624,-0.4714 -4.07195,1.91424 -4.07195,2.93518 0,0.26788 -0.30302,0.48713 -0.67343,0.48713 -0.80776,0 -1.33728,-1.82335 -1.01675,-3.50082 0.1274,-0.66591 0.0176,-1.67908 -0.24279,-2.25161 -0.34739,-0.76279 -0.32108,-1.22518 0.0991,-1.73123 0.87647,-1.05614 1.37934,-0.39979 1.37934,1.80019 0,1.09592 0.18905,2.10926 0.41984,2.25196 0.2309,0.14322 1.15163,-0.17329 2.04616,-0.7002 1.27727,-0.7536 1.6262,-1.24551 1.6262,-2.29281 0,-1.43824 1.08513,-2.22031 1.92097,-1.38449 0.35786,0.35788 0.32251,0.70445 -0.12729,1.24622 -0.53579,0.64557 -0.50463,0.83688 0.22309,1.36911 0.61165,0.44717 0.71593,0.77994 0.37635,1.20112 -0.27748,0.34409 -0.31745,0.98453 -0.0969,1.56414 l 0.37239,0.9817 2.5716,-0.94739 c 2.4997,-0.9207 2.56334,-0.98629 2.27519,-2.34568 -0.16274,-0.76898 -0.41456,-2.46803 -0.55847,-3.77561 -0.21714,-1.97347 -0.13081,-2.42771 0.51354,-2.67473 1.17399,-0.45054 1.81196,0.44293 1.11431,1.56042 -0.48613,0.77818 -0.44814,1.36575 0.22682,3.5072 0.79918,2.53557 0.83188,2.56846 2.27376,2.29811 0.91303,-0.17152 1.7787,-0.0424 2.30359,0.34037 0.7994,0.58438 0.78696,0.62912 -0.24939,0.90655 z M 576.585,191.80975 c -0.3333,2.1784 -1.29037,2.46893 -2.88387,0.87525 -0.77572,-0.7757 -1.54802,-1.40712 -1.71638,-1.40323 -0.16792,0 -0.80666,1.02696 -1.41865,2.27337 -0.61177,1.24639 -1.24489,2.26627 -1.40708,2.26627 -0.73895,0 -1.79225,-1.80249 -2.25196,-3.8534 -0.27692,-1.23614 -0.73013,-2.52038 -1.00662,-2.85368 -0.35752,-0.43073 -0.36226,-0.74705 -0.0176,-1.09291 0.77814,-0.77818 1.3833,-0.0743 2.22189,2.58668 0.43086,1.36698 0.95233,2.48536 1.15868,2.48536 0.20656,0 0.70283,-0.8185 1.10318,-1.81876 0.54956,-1.3737 0.98009,-1.81875 1.75933,-1.81875 0.56739,0 1.2864,0.30695 1.59757,0.68198 0.89365,1.07683 1.36349,0.80418 1.37108,-0.79568 0.0176,-1.75439 0.60186,-2.85368 1.30612,-2.41835 0.4891,0.30219 0.56684,2.37732 0.18322,4.88585 z m -5.05732,29.19913 c -0.36005,0.22243 -2.34973,-3.78393 -2.34973,-4.73132 0,-0.24772 -0.30445,-0.45036 -0.67673,-0.45036 -0.43295,0 -0.77704,0.62842 -0.95563,1.74609 -0.31899,1.99451 -2.40743,6.05904 -3.25274,6.33046 -0.33143,0.10603 -0.1024,-0.72867 0.55055,-2.01502 0.61396,-1.20821 1.39728,-3.62903 1.74049,-5.37953 0.8245,-4.20439 1.75856,-4.31526 3.83158,-0.45461 1.4453,2.69153 1.85083,4.49774 1.11221,4.95429 z m -3.38784,-72.72229 c -1.21879,0.65617 -1.94254,0.73203 -3.94091,0.41251 -1.34631,-0.21518 -2.52657,-0.62788 -2.62281,-0.91698 -0.0958,-0.28909 0.47656,-1.26743 1.27265,-2.17416 l 1.4476,-1.64865 -1.83783,-1.69675 c -2.06675,-1.90788 -2.84434,-4.38264 -1.97602,-6.28821 0.94441,-2.07284 5.71192,-3.55352 7.81599,-2.42753 0.9127,0.48836 1.22232,1.80266 0.4248,1.80266 -0.24994,0 -0.45475,-0.20458 -0.45475,-0.45461 0,-0.61231 -2.86834,-0.57853 -4.2479,0.0496 -1.19667,0.54531 -2.11751,2.14499 -2.11751,3.67906 0,0.52709 0.81844,1.73688 1.81867,2.68853 2.06477,1.96409 2.18974,2.53629 0.90939,4.1639 -1.19611,1.52064 -1.15405,1.69463 0.41005,1.69463 1.27253,0 1.33056,-0.0955 1.63226,-2.69612 0.25248,-2.17417 0.12024,-3.23704 -0.67904,-5.49022 -1.00662,-2.83529 -0.98163,-3.48032 0.11858,-3.05825 0.94155,0.36141 3.51987,7.40108 3.51987,9.61078 0,1.73248 -0.16264,2.03324 -1.49287,2.74936 z m 0.12905,-2.93413 c -0.5697,0.88144 -0.5697,1.36398 0,1.36398 0.25006,0 0.45145,-0.46044 0.44771,-1.02308 0,-0.82715 -0.0925,-0.89239 -0.44771,-0.3409 z m -1.75877,152.96093 c -0.15735,0.72956 -0.57378,1.4218 -0.92393,1.53833 -0.52632,0.17505 -0.58182,-0.39131 -0.32053,-3.27486 0.3529,-3.8939 0.63335,-4.932 1.23213,-4.56192 0.45177,0.2792 0.45948,4.23321 0.0176,6.29845 z m -2.81704,64.26061 c -0.47655,1.23012 -0.96169,1.2883 -1.89079,0.22721 -0.49329,-0.56335 -0.78838,-2.34798 -1.01113,-6.11509 -0.17332,-2.92565 -0.3855,-5.99468 -0.47215,-6.82007 -1.2112,-11.54271 -1.32186,-12.19517 -2.46403,-14.51486 -1.41259,-2.86923 -2.25735,-3.48544 -3.95171,-2.88214 -2.08866,0.74388 -2.80855,2.37644 -4.30251,9.75809 -1.28311,6.34035 -1.40092,7.59506 -1.17388,12.50354 0.24511,5.30102 0.31723,5.93227 0.96885,8.48234 0.24907,0.9748 0.12553,1.26548 -0.6394,1.50844 -2.16111,0.68587 -2.62313,0.0318 -3.19625,-4.52002 -0.54086,-4.29775 -0.68532,-13.12523 -0.24929,-15.24617 0.12916,-0.62523 0.45607,-2.569 0.72782,-4.31949 0.66308,-4.27054 1.61828,-7.88789 2.38948,-9.04923 0.34839,-0.52444 1.77783,-1.56644 3.17654,-2.31526 l 2.5432,-1.36167 2.09945,1.13429 c 3.50522,1.8939 5.22986,5.88876 6.08408,14.0926 0.2734,2.62576 0.69204,6.51329 0.93021,8.63883 0.7167,6.39623 0.84971,9.71971 0.43151,10.79866 z m -1.07686,-145.23022 c -0.31426,0.12023 -0.82792,1.20979 -1.14118,2.42047 -0.97204,3.75474 -0.92161,3.67251 -1.65009,2.68251 -0.35731,-0.48536 -0.65284,-1.30386 -0.65647,-1.81875 -0.0176,-1.9809 -0.66275,-2.31898 -2.69118,-1.4043 -2.25306,1.016 -3.00973,0.59287 -0.96687,-0.54053 3.09197,-1.71567 3.0596,-1.6621 2.15395,-3.56148 -0.50496,-1.05879 -0.65008,-1.8619 -0.38472,-2.12749 0.51421,-0.51417 1.89564,1.29273 1.89564,2.47953 0,1.53833 1.80645,0.94881 2.55057,-0.83246 0.37702,-0.90212 0.79951,-1.52647 0.93879,-1.38714 0.55066,0.55062 0.51135,3.87498 -0.0473,4.08964 z m -2.04066,78.59211 c -0.15558,2.17257 -0.44891,4.11599 -0.65162,4.31862 -0.43791,0.43798 -1.65263,-1.09256 -1.67014,-2.10414 -0.0176,-1.00787 -2.48594,-3.85995 -3.04309,-3.51568 -0.67794,0.41905 -1.45245,3.79505 -1.55617,6.78523 -0.0319,0.93784 -0.25645,1.70506 -0.49704,1.70506 -0.48304,0 -0.20128,-7.89177 0.32813,-9.18979 0.60384,-1.47997 2.03834,-1.45963 3.59727,0.0513 0.7995,0.775 1.58271,1.40907 1.74038,1.40907 0.15735,0 0.42822,-1.13412 0.60153,-2.52037 0.19489,-1.55954 0.51069,-2.45513 0.82835,-2.34939 0.64645,0.21536 0.66837,0.58192 0.3224,5.41012 z m -0.94551,-100.79647 c -0.74367,0.45955 -1.36414,-0.20068 -1.36414,-1.45185 0,-0.64379 -0.23233,-1.94642 -0.5163,-2.89435 -0.63533,-2.1204 -0.22947,-3.66527 0.70095,-2.66837 0.63126,0.67634 1.63414,4.25143 1.63414,5.82512 0,0.49968 -0.20459,1.03491 -0.45465,1.18945 z m -1.19909,-54.78846 c -0.42799,2.93006 -1.196,6.01485 -1.7983,7.22234 -1.07114,2.1471 -2.00233,2.17045 -3.93475,0.099 -2.03548,-2.18229 -2.11443,-2.86093 -0.45629,-3.93227 1.40565,-0.90813 3.29634,-2.8084 3.29634,-3.31286 0,-0.65175 -3.97594,-1.50296 -5.5984,-1.19849 -2.74249,0.51437 -3.25758,1.13307 -2.60067,3.12333 0.30809,0.93378 0.48856,1.76448 0.40124,1.84617 -0.087,0.0813 -1.28442,0.45742 -2.65969,0.83511 -1.37548,0.37768 -3.8819,1.21457 -5.56976,1.8596 -1.68809,0.64503 -3.06908,0.98877 -3.06908,0.76367 0,-0.22492 1.99485,-1.36963 4.433,-2.54352 5.18163,-2.49492 4.84591,-2.25869 4.49829,-3.16453 -0.24301,-0.63318 -0.48205,-0.60967 -2.07743,0.20422 -1.32604,0.67651 -1.8909,0.77748 -2.13568,0.38176 -0.18278,-0.29599 -0.14314,-0.60225 0.0881,-0.68041 1.54803,-0.52266 3.37694,-2.07159 3.37694,-2.8602 0,-1.12368 -0.85621,-1.16506 -2.66189,-0.1291 -1.99187,1.14331 -2.31769,0.32783 -0.49241,-1.23278 2.05486,-1.75651 3.43101,-1.76022 4.42595,-0.0177 0.86777,1.52524 1.29037,1.63556 2.56632,0.67049 1.1099,-0.83954 4.02075,-0.82699 6.39239,0.0282 1.00023,0.36036 1.89245,0.6583 1.98284,0.66202 0.0903,0 0.0297,-0.70921 -0.13444,-1.58447 -0.33165,-1.76872 0.34784,-2.15966 1.3833,-0.79568 0.59724,0.78666 0.66605,1.53901 0.34299,3.75102 z m -3.53681,2.83866 c -1.09922,1.02131 -1.89663,2.12271 -1.77199,2.44734 0.26657,0.69507 1.89443,1.2952 2.33641,0.86146 0.46168,-0.45318 1.80215,-4.51118 1.6055,-4.8611 -0.0936,-0.16797 -1.07059,0.53081 -2.16992,1.5523 z m 1.10571,105.46094 c -0.7755,0.44134 -1.46357,0.5865 -1.6153,0.34108 -0.1449,-0.23534 -1.45234,-0.42772 -2.90424,-0.42772 -2.00245,0 -2.93617,0.23304 -3.86714,0.96525 -1.30513,1.02679 -3.22268,1.02095 -5.87874,-0.0177 -1.0805,-0.42242 -1.20536,-0.62188 -0.73993,-1.18256 0.30787,-0.37097 0.80996,-0.67456 1.11574,-0.67456 1.00981,0 2.16232,-1.69181 1.84135,-2.70303 -0.50143,-1.58006 -3.67324,-2.90336 -6.23218,-2.6003 -2.48109,0.29387 -2.89983,-0.27017 -0.75535,-1.01758 2.7807,-0.96933 4.89876,-0.54214 7.05966,1.42391 1.24907,1.13641 2.01279,0.69737 1.67993,-0.96596 -0.18597,-0.93024 -0.0529,-1.35902 0.48679,-1.56608 0.89101,-0.34197 1.0086,-0.0177 1.34928,3.71673 0.14502,1.58411 0.37867,3.06744 0.51994,3.29625 0.59756,0.96684 6.48367,0.25797 6.90153,-0.83123 0.31293,-0.81513 -0.83407,-1.61594 -1.44287,-1.00716 -0.69501,0.69508 -1.16308,0.508 -1.16308,-0.46503 0,-0.58138 0.40278,-1.00168 1.13655,-1.18592 1.48074,-0.37168 1.43351,-0.76545 -0.26195,-2.1922 -1.06135,-0.89293 -1.69238,-1.10582 -2.61444,-0.88179 -1.21318,0.29475 -1.21395,0.29334 -0.34948,-0.68199 1.14888,-1.29643 1.76483,-1.23455 3.58031,0.3593 1.61045,1.41402 2.674,3.96975 2.27948,5.47783 -0.1503,0.57325 0.0319,1.00681 0.49736,1.18539 1.04879,0.40245 0.91193,0.76138 -0.62322,1.63487 z m -9.9302,-1.33693 c -0.28617,-0.45071 -0.53447,-0.44134 -1.19931,0.0442 -0.9771,0.71452 -0.58313,1.66033 0.69149,1.66033 0.916,0 1.13137,-0.72284 0.50782,-1.70489 z m 9.83066,-51.04788 c -0.80104,0.48715 -3.00047,1.22609 -4.88785,1.64196 -1.88716,0.41587 -4.54487,1.01582 -5.90593,1.3332 -2.48087,0.57856 -3.66366,0.48272 -3.66366,-0.29669 0,-0.22951 0.49174,-0.60419 1.09261,-0.83263 1.93032,-0.7338 1.85941,-1.3999 -0.35048,-3.28868 -1.7634,-1.50737 -2.10606,-2.06011 -2.10606,-3.39703 0,-2.60135 2.23973,-3.87887 5.34239,-3.0473 1.69546,0.45426 1.15196,1.02803 -0.88693,0.93609 -1.70141,-0.0761 -1.95884,0.0494 -2.35678,1.15197 -0.56166,1.55617 0.17673,3.07275 2.02899,4.1669 0.9171,0.54179 1.32835,1.14455 1.32835,1.94731 0,1.12899 0.0617,1.15322 2.15991,0.84027 1.18763,-0.17718 2.80591,-0.59149 3.59594,-0.92055 l 1.43627,-0.59817 -1.09515,-2.16356 c -1.11331,-2.19909 -1.44749,-4.92103 -0.66363,-5.40551 0.57554,-0.35559 1.1099,0.79939 1.84422,3.98548 0.33418,1.44957 0.7711,2.7368 0.97106,2.86039 0.19995,0.12381 0.95751,-0.0831 1.68334,-0.45777 1.26142,-0.65228 1.8897,-0.56141 1.8897,0.27318 0,0.21201 -0.65537,0.78401 -1.45631,1.27114 z m -0.22473,26.05741 c -0.20073,0.1167 -2.30877,0.56812 -4.68448,1.00115 -2.37561,0.43302 -5.02396,0.96366 -5.88523,1.17955 -0.86106,0.21573 -1.64889,0.30908 -1.75052,0.20742 -0.44594,-0.44595 0.49142,-1.08072 2.28554,-1.54805 3.27399,-0.8528 3.34159,-0.96419 2.42416,-3.9991 -1.04438,-3.45557 -1.09327,-4.41375 -0.23299,-4.58915 0.68852,-0.13969 1.14767,1.14701 2.04396,5.72998 0.29289,1.49765 0.32846,1.51781 2.18413,1.22924 3.21331,-0.49951 3.60145,-0.49456 3.79381,0.0478 0.1024,0.28964 0.0231,0.62294 -0.17838,0.74052 z m -5.34239,-50.77327 c -0.40993,0.15737 -0.81558,0.2097 -0.90124,0.11668 -0.34398,-0.3745 -0.70305,-8.58135 -0.37547,-8.58135 0.78651,0 1.45652,1.91971 1.73124,4.96118 0.24709,2.73466 0.17882,3.26106 -0.45453,3.50401 z m -1.02379,128.40261 c -0.0914,0.386 -1.41436,1.10494 -2.99211,1.62585 -1.55551,0.51348 -3.18634,1.09344 -3.62391,1.28883 -0.46367,0.20687 -0.79576,0.16621 -0.79576,-0.099 0,-0.24967 1.32923,-1.14101 2.95379,-1.98107 1.86547,-0.96472 2.95434,-1.81063 2.95533,-2.29617 0,-1.15038 -0.80325,-1.43082 -2.31362,-0.80506 -0.74323,0.30767 -1.47976,0.43109 -1.63699,0.2739 -0.44495,-0.44506 1.16738,-1.99717 2.39443,-2.30519 1.27573,-0.32021 1.35556,-0.65741 0.44363,-1.87763 -0.63863,-0.85492 -0.70481,-0.85722 -2.10749,-0.0725 -0.79653,0.44558 -1.56674,0.69154 -1.71153,0.54655 -0.47557,-0.47546 0.66395,-1.76483 2.06487,-2.33649 2.43969,-0.99548 3.71134,0.69207 4.33643,5.75421 0.10791,0.87525 0.12388,1.90292 0.0341,2.28361 z m -3.95788,-134.36227 c -1.84961,-0.39856 -3.76716,0.5064 -4.12909,1.94853 -0.21527,0.85757 -0.0782,1.35602 0.48778,1.7696 1.64812,1.20503 3.37022,2.8938 3.37022,3.30492 0,0.23551 -0.68433,0.95004 -1.52072,1.58782 -1.61177,1.22942 -4.6368,1.64883 -4.26706,0.59164 0.11011,-0.31261 0.53855,-0.50765 0.95421,-0.43321 0.73487,0.13081 3.47769,-1.22428 3.46128,-1.71089 0,-0.13438 -1.02754,-0.90956 -2.27342,-1.72416 -1.70857,-1.11732 -2.26517,-1.75793 -2.26517,-2.60719 0,-1.22412 2.08349,-3.77702 3.18271,-3.8999 1.51026,-0.16975 2.59802,0.0672 3.43684,0.7444 0.84112,0.67951 0.82064,0.69967 -0.43758,0.42844 z m -4.80461,58.64028 c -0.4857,0.30023 -0.73113,-0.60472 -1.13831,-4.19803 -0.2734,-2.41357 0.32306,-4.4735 1.14789,-3.96392 0.56904,0.35187 0.56034,7.80972 0,8.16195 z m -4.31838,-49.96204 c -0.91005,-0.22827 -1.24533,-0.0443 -1.77231,0.9748 -0.92151,1.78234 -2.40204,3.00415 -3.24702,2.68004 -0.39573,-0.15205 -1.01994,-0.99513 -1.38715,-1.87392 -0.36711,-0.87879 -0.7374,-1.59774 -0.82296,-1.59774 -0.0848,0 -0.74246,0.92902 -1.45994,2.06436 -0.93713,1.48245 -1.56013,2.02706 -2.21044,1.93229 -0.94672,-0.13793 -1.02941,-0.39132 -2.04737,-6.27 -0.28155,-1.62549 -0.6307,-3.51816 -0.77627,-4.2058 -0.20062,-0.94846 -0.0903,-1.25028 0.45442,-1.25028 1.02589,0 1.45917,1.08301 2.13667,5.34239 0.32835,2.06311 0.75183,3.75103 0.94144,3.75103 0.18938,0 0.89463,-1.01104 1.56729,-2.24684 1.94574,-3.57491 2.80613,-3.32313 3.62865,1.06163 0.16979,0.90194 0.54867,1.63998 0.84333,1.63998 0.73795,0 3.45533,-4.83828 3.45533,-6.15222 0,-1.28866 0.85654,-1.93775 1.40786,-1.06727 0.21835,0.34462 0.40014,1.72291 0.40377,3.06303 0,2.36459 -0.0264,2.42807 -1.1153,2.15452 z m -0.42105,194.29012 c -0.80292,0.66626 -15.93127,-0.0902 -16.83702,-0.8413 -0.81382,-0.67562 -0.85775,-0.91946 -0.31789,-1.77101 0.50573,-0.7978 7.67285,-1.22482 10.82418,-0.64486 1.29587,0.23835 2.53768,0.31049 2.75933,0.16091 0.22198,-0.1503 0.38935,-3.80267 0.37206,-8.1165 l -0.0319,-7.84315 -1.81878,0 c -1.00024,0 -2.88057,0.28822 -4.17832,0.63373 -1.29774,0.3455 -2.4573,0.53062 -2.57666,0.41128 -0.12024,-0.12024 0.19379,-0.9131 0.69578,-1.76394 1.02225,-1.73247 3.37209,-2.63389 6.22172,-2.3867 l 1.65626,0.14322 0.31745,-6.36494 c 0.20414,-4.09051 0.15382,-6.52725 -0.13973,-6.81954 -0.25711,-0.25585 -3.01369,-0.45459 -6.30309,-0.45459 -3.21519,0 -5.98224,-0.13615 -6.14905,-0.30219 -0.60109,-0.59941 0.68994,-2.10378 2.38904,-2.78365 3.3809,-1.35284 5.55864,-1.39899 8.29408,-0.17682 1.37527,0.61481 2.98253,1.63645 3.5715,2.27035 l 1.07104,1.15233 0,15.83338 c 0,8.70832 0.15558,16.59478 0.35554,17.5252 0.24466,1.14154 0.18972,1.83555 -0.16803,2.13314 z m -0.89728,-145.94827 c -2.11531,1.30739 -5.00634,1.2761 -5.94502,-0.0636 -1.0217,-1.45858 -0.87416,-2.81389 0.48107,-4.42471 0.90465,-1.07505 1.42118,-1.34064 2.15968,-1.11025 1.33661,0.41659 1.63787,1.00876 1.6458,3.2349 0,1.62832 0.1274,1.87587 0.80281,1.63911 0.43757,-0.15383 1.1491,-0.70975 1.58106,-1.23614 l 0.78562,-0.95711 0.0176,0.98594 c 0,0.6353 -0.53447,1.32259 -1.52116,1.93245 z m -3.31363,-3.91777 c -0.48305,-0.18549 -1.05749,0.0867 -1.60341,0.76155 -0.74753,0.92318 -0.77352,1.16648 -0.21482,2.00813 0.85367,1.28566 1.77815,1.20909 2.1643,-0.17894 0.51058,-1.83573 0.45046,-2.28502 -0.34607,-2.59074 z m 3.54838,-80.55481 c -1.98659,2.57819 -3.25021,6.18086 -3.25021,9.26582 0,2.57182 -0.11143,2.99531 -0.7581,2.86994 -0.41676,-0.0813 -0.9422,-0.76086 -1.16749,-1.5111 -0.51806,-1.72592 -1.79962,-4.7741 -2.00707,-4.7741 -0.42491,0 -4.70617,3.31836 -4.70617,3.6476 0,0.51047 -1.32462,1.80849 -1.84532,1.80849 -0.24158,0 -0.29278,-1.46282 -0.122,-3.48173 0.31832,-3.76659 -0.0903,-4.1372 -1.51566,-1.37705 -1.06674,2.06505 -4.27653,5.76817 -4.99951,5.76817 -1.02357,0 -0.68785,-0.96897 0.86678,-2.50111 1.81394,-1.78745 3.27575,-4.48889 2.92439,-5.40428 -0.14325,-0.37432 -0.79201,-1.02819 -1.44089,-1.45346 -0.97567,-0.63919 -1.38517,-0.67933 -2.3669,-0.23197 -1.79401,0.81725 -2.4104,-0.1556 -0.66914,-1.05526 1.89939,-0.98222 3.35547,-0.90495 4.83237,0.25674 1.01917,0.8017 1.31305,0.86377 1.63369,0.3448 0.21504,-0.34798 0.27516,-1.09486 0.13268,-1.65961 -0.19908,-0.79322 -0.0639,-1.02679 0.59723,-1.02679 0.69127,0 0.9618,0.56352 1.41336,2.94349 0.3071,1.61896 0.55837,3.35797 0.55837,3.86474 0,1.24443 0.1896,1.18644 2.56191,-0.78367 1.92966,-1.60252 2.03702,-1.80939 1.782,-3.43771 -0.31194,-1.99062 -0.0518,-2.65564 0.89927,-2.29103 0.37404,0.14322 0.66759,0.83458 0.66759,1.57156 0,0.72353 0.195,1.31535 0.43328,1.31535 1.1655,0 2.62897,-1.13004 3.56148,-2.75041 0.98228,-1.70682 2.02271,-2.27264 2.56499,-1.39509 0.1361,0.22066 -0.12552,0.88567 -0.58137,1.47767 z m -5.1236,4.35945 c -0.47149,0.47141 -0.0727,1.94588 0.52632,1.94588 0.50661,0 0.76438,-2.00334 0.28452,-2.21093 -0.20954,-0.0902 -0.57444,0.0283 -0.81084,0.26505 z m -0.0441,48.35421 c -0.54284,1.46069 -1.26537,0.98646 -1.26009,-0.82717 0,-2.37873 0.50012,-5.11499 0.92184,-5.11499 0.47435,0 0.74951,4.8358 0.33825,5.94216 z m -2.43892,112.45234 c -0.39551,0.15206 -2.66321,0.27601 -5.03925,0.27601 -4.80242,0 -5.44248,-0.58173 -2.02921,-1.84422 1.0521,-0.38917 2.65617,-1.45078 3.56468,-2.35946 1.93627,-1.93634 1.63997,-2.78542 -1.12796,-3.23065 -1.95136,-0.31385 -3.7425,-1.42851 -3.7425,-2.32887 0,-0.97781 3.25185,-3.27521 5.00149,-3.53337 1.88716,-0.27848 3.19669,0.29458 3.14681,1.37724 -0.0209,0.47423 -0.12552,0.55698 -0.26525,0.2113 -0.39838,-0.98717 -3.17985,-0.65989 -4.56139,0.53681 -1.47469,1.27752 -1.1633,1.8955 1.19249,2.36673 1.48735,0.2974 1.5217,0.27106 1.21824,-0.93767 -0.256,-1.02042 -0.17144,-1.21669 0.4672,-1.09328 0.85775,0.16621 1.93153,3.89797 1.96534,6.83015 0.0176,0.92299 0.22385,1.80462 0.47391,1.95916 0.69523,0.42984 0.54118,1.46087 -0.2646,1.77012 z m -2.16562,-3.36149 c -0.33639,0 -0.98185,0.40933 -1.43462,0.90937 -0.80203,0.88622 -0.79399,0.90938 0.30842,0.90938 0.62245,0 1.2678,-0.13615 1.4345,-0.30306 0.52842,-0.52834 0.32747,-1.51569 -0.3083,-1.51569 z m 0.13433,-28.06516 c -1.16485,2.86905 -2.21353,4.42205 -2.98605,4.42205 -0.89387,0 -0.78002,-1.08709 0.20755,-1.9809 1.15813,-1.04818 2.54881,-5.3309 2.19217,-6.75182 -0.60296,-2.40243 -3.96129,-2.61125 -5.97893,-0.37185 -0.86128,0.95588 -0.86557,1.03015 -0.0936,1.59473 0.61695,0.45107 1.18434,0.47723 2.38068,0.10967 1.66198,-0.51011 2.68732,-0.11669 1.55826,0.59765 -1.47018,0.93043 -3.63536,1.02202 -4.55158,0.19274 -2.91845,-2.64097 2.11134,-6.95905 5.85252,-5.02448 2.53868,1.31287 2.955,3.42834 1.41898,7.21172 z m 0.46917,-47.97176 c -0.41632,1.01194 -0.47556,0.9893 -3.25471,-1.25028 -4.21465,-3.39615 -4.92255,-3.04428 -4.92255,2.44752 0,2.34356 -0.15734,3.48103 -0.43966,3.19758 -0.53866,-0.53858 -0.80468,-7.93171 -0.31403,-8.72191 0.62773,-1.01106 3.01402,-0.62117 5.13692,0.83953 1.12543,0.77428 2.13997,1.31412 2.2546,1.19954 0.11495,-0.11493 0.36182,-1.10618 0.549,-2.20352 0.1873,-1.09734 0.53954,-1.99522 0.78277,-1.99522 0.58424,0 0.74973,5.16912 0.20766,6.48676 z m -3.2894,26.14121 c -2.38012,2.50039 -4.9493,3.38006 -5.5212,1.89019 -0.42789,-1.1152 -0.34718,-1.22412 0.70304,-0.94952 1.1306,0.29564 2.95765,-0.54089 4.21432,-1.92927 0.85897,-0.94934 0.85897,-0.97249 -8.8e-4,-1.60444 -0.48007,-0.35276 -2.06311,-0.7803 -3.51777,-0.95041 -1.72618,-0.20157 -3.04683,-0.6544 -3.80108,-1.30333 l -1.15592,-0.99424 1.28145,-1.52294 c 2.41447,-2.86942 6.56174,-3.81486 6.54082,-1.49111 0,0.6231 -0.087,0.65316 -0.40576,0.1503 -0.52742,-0.83283 -2.35733,-0.36354 -3.96107,1.01617 -1.74611,1.50171 -1.21527,2.37397 1.67818,2.75784 4.72655,0.627 6.24132,2.52001 3.94609,4.93129 z m -4.17237,-80.89926 c -1.013,0.38865 -1.87097,-0.89859 -1.16539,-1.74874 0.43405,-0.52303 0.71945,-0.56405 1.19237,-0.17151 0.80754,0.67032 0.79455,1.60515 -0.0264,1.92042 z m -1.8375,131.50383 c -0.64491,0.85245 -0.66858,0.84378 -0.69655,-0.25409 -0.0407,-1.58005 -1.03007,-2.72813 -2.35215,-2.72813 -1.14426,0 -2.73291,1.43895 -4.20761,3.81115 -0.5686,0.91468 -0.9193,1.14083 -1.16154,0.749 -0.36886,-0.59677 1.36987,-4.08309 2.50697,-5.02677 1.01014,-0.8383 0.80192,-3.4149 -0.46907,-5.8023 -1.26978,-2.38529 -1.41952,-3.27928 -0.54944,-3.27928 0.67992,0 3.05013,4.59286 3.05013,5.91034 0,0.4889 0.56266,1.23825 1.25029,1.66528 3.24371,2.01431 3.90712,3.26477 2.62897,4.9548 z m -2.18886,-102.78354 c -0.55462,1.50031 -1.21142,2.87294 -1.45928,3.05012 -0.97369,0.69543 -1.13038,-0.49828 -0.31579,-2.40684 1.11695,-2.61729 1.53756,-5.02574 1.0206,-5.84388 -0.34266,-0.54213 -0.7494,-0.42808 -2.37968,0.66643 -1.0816,0.72602 -2.95004,2.21589 -4.15222,3.31075 -1.82825,1.66494 -2.38617,1.9406 -3.4092,1.68386 -1.53272,-0.38476 -1.4421,-0.2716 -1.75338,-2.19026 -0.52709,-3.24746 2.65782,-5.66775 4.6138,-3.50633 0.99098,1.09505 2.57832,0.83105 4.47451,-0.74386 3.49905,-2.90637 5.39722,0.47122 3.36064,5.98001 z m -8.42258,-4.01256 c -0.74225,-0.67173 -0.9171,-0.67598 -1.81879,-0.0443 -1.14612,0.80276 -1.34168,2.81672 -0.31172,3.21194 0.83342,0.31985 2.95181,-0.98844 2.95181,-1.82303 0,-0.33048 -0.36953,-0.93555 -0.8213,-1.34435 z m 8.09335,79.49037 c -0.90377,0.55857 -1.50211,-0.54407 -1.71968,-3.16841 -0.16803,-2.03518 -0.0782,-2.51666 0.47897,-2.51666 0.43659,0 0.80039,0.6224 0.99671,1.70506 0.16968,0.93767 0.41379,2.14305 0.54207,2.67845 0.1274,0.53541 0,1.12103 -0.29807,1.30156 z m -0.67915,-55.08179 c -2.06741,0.7642 -4.04475,1.93015 -4.48464,2.64432 -0.37448,0.60825 -0.0848,1.17726 1.43968,2.83158 2.13414,2.31525 2.10088,2.23003 1.39806,3.59824 -1.42074,2.7651 -4.06149,4.36 -4.65564,2.81177 -0.17805,-0.46396 0.0253,-0.68198 0.63335,-0.68198 1.29488,0 2.7165,-1.61808 2.69646,-3.06904 -0.0176,-0.93413 -0.47292,-1.56555 -1.81867,-2.49651 -2.25537,-1.55989 -2.37737,-2.96258 -0.40234,-4.62433 1.60682,-1.35213 2.94234,-1.77702 4.79779,-1.52648 1.1404,0.15384 1.19039,0.21874 0.39595,0.51243 z m -2.58404,30.19671 c -0.29587,-0.099 -0.79422,-1.39439 -1.10737,-2.87948 -0.73135,-3.46707 -0.73047,-3.38237 -0.0374,-3.38237 0.32482,0 0.83628,0.67951 1.13655,1.51002 0.71857,1.98691 0.72375,4.99036 0.0176,4.75183 z m -3.46525,22.7523 c -0.11319,1.98478 -0.27593,2.38935 -0.90928,2.26876 -0.42392,-0.0814 -0.83947,-0.65635 -0.92327,-1.27893 -0.20315,-1.51021 -2.26814,-3.63274 -3.53406,-3.63274 -1.29522,0 -1.73004,1.74998 -1.29665,5.2188 0.38087,3.04799 -0.42348,3.46423 -1.04681,0.54195 -0.47137,-2.21094 -0.0727,-6.43318 0.67905,-7.18467 0.598,-0.598 3.39334,0.20759 4.23337,1.21987 0.89166,1.07436 1.34465,0.76015 1.34465,-0.93272 0,-1.05578 0.21295,-1.59136 0.63236,-1.59136 0.73608,0 1.02148,1.86755 0.82064,5.37104 z m -3.11059,-19.77857 c -0.56408,0.56424 -1.82759,0.32977 -4.43288,-0.82238 -3.31693,-1.46689 -4.02493,-2.79196 -2.75538,-5.15761 1.21143,-2.25692 7.02728,-5.74785 7.02728,-4.21801 0,0.22084 -0.38758,0.50304 -0.86105,0.62682 -0.77869,0.2037 -0.81723,0.43656 -0.40311,2.44009 0.2516,1.21811 0.43901,3.08301 0.41621,4.14392 -0.0253,1.18822 0.1503,1.88665 0.46004,1.81876 0.59558,-0.13085 0.99583,0.72141 0.54889,1.16841 z m -3.31131,-7.34256 c -0.25303,-0.45212 -0.64986,-0.23959 -1.55023,0.83052 -0.66561,0.79108 -1.21032,1.79417 -1.21032,2.22897 0,0.77357 3.27245,2.99054 3.73337,2.52939 0.27945,-0.27937 -0.4966,-4.73786 -0.97282,-5.58888 z m -1.34774,-46.96937 c -0.21548,0.34038 -0.29079,1.00522 -0.16791,1.47768 0.37162,1.42162 -0.91017,1.00539 -2.955,-0.9596 -1.04098,-1.00028 -2.08327,-1.81877 -2.31637,-1.81877 -0.6328,0 -0.97546,1.20186 -0.97546,3.4204 0,1.85695 -0.6012,2.95022 -1.26009,2.29138 -0.57532,-0.57519 -0.16615,-5.32296 0.55418,-6.42136 0.88253,-1.34681 2.01852,-1.41048 3.55796,-0.19979 1.47612,1.16116 1.62741,1.14507 2.14922,-0.22723 0.64326,-1.69179 1.82033,-1.47023 1.81185,0.34092 0,0.81284 -0.18333,1.75616 -0.39904,2.09637 z m -3.21563,23.22618 c -0.47512,0.7688 -1.83442,0.29299 -1.83442,-0.64203 0,-0.38617 0.39298,-0.69631 0.88242,-0.69631 1.08292,0 1.45542,0.52374 0.952,1.33834 z m -0.69809,49.358 c -2.21121,7.54856 -2.75581,8.79265 -3.51634,8.03216 -0.25413,-0.25391 0.0661,-1.78162 0.81712,-3.89638 0.67916,-1.91317 1.10484,-3.60851 0.94606,-3.76729 -0.1591,-0.15914 -0.81084,-0.0513 -1.44881,0.23977 -0.63798,0.29069 -1.86261,0.52851 -2.72124,0.52851 -1.27011,0 -1.61255,-0.20423 -1.83607,-1.09433 -0.36094,-1.43789 0.43041,-2.83935 2.2187,-3.9298 1.90345,-1.16063 3.54507,-1.10493 4.44544,0.1503 0.76118,1.06179 1.32009,2.96861 1.09514,3.73671 z m -3.4702,-3.02837 c -1.10021,0.15736 -3.12248,1.73795 -3.12248,2.43992 0,0.83105 1.48725,0.8924 3.45171,0.14145 1.95598,-0.74705 2.02226,-0.83034 1.40003,-1.76022 -0.43217,-0.64593 -1.01707,-0.92389 -1.72926,-0.82186 z M 494.33293,151.844 c -0.9639,0.96365 -5.49291,-0.41393 -7.52883,-2.29017 -0.66726,-0.61514 -1.33937,-1.61982 -1.49319,-2.2325 l -0.27957,-1.11431 -1.38341,1.164 c -1.62301,1.36575 -2.09119,1.41986 -3.59947,0.41552 -1.72068,-1.1456 -2.26087,-2.01555 -2.26087,-3.63999 0,-1.73865 1.45862,-3.34098 3.0411,-3.34098 1.45565,0 2.86967,1.55529 2.86967,3.15603 0,1.75015 0.86447,2.24755 1.77882,1.02326 0.39705,-0.5317 1.43802,-1.9114 2.31328,-3.06604 2.17234,-2.86587 5.055,-3.98938 3.68943,-1.4379 -0.41126,0.76847 -0.43383,1.56485 -0.0881,3.06834 0.25755,1.11679 0.47303,3.10458 0.47909,4.41747 0,1.6582 0.19291,2.38705 0.60626,2.38705 0.86502,0 2.2405,1.10493 1.85523,1.49022 z m -4.50644,-7.28723 c -0.16439,-1.06285 -0.46037,-1.93244 -0.65966,-1.93244 -0.52005,0 -1.73764,1.97046 -2.0934,3.38784 -0.35543,1.41614 1.21054,3.43222 2.66552,3.43222 0.74148,0 0.84157,-0.23376 0.63291,-1.47766 -0.1362,-0.81266 -0.38175,-2.34727 -0.54537,-3.40996 z m -8.95386,-1.8474 c -1.00222,-0.11497 -1.28971,0.0779 -1.52788,1.02626 -0.35774,1.42533 0.85963,3.52629 1.82793,3.15481 0.75909,-0.29124 1.10472,-1.28955 1.00485,-2.90214 -0.055,-0.87649 -0.35312,-1.1693 -1.3049,-1.27893 z m 10.01762,108.04515 c -1.57984,0.57979 -3.36328,1.17213 -3.96305,1.31642 -1.82726,0.43939 -0.70392,-0.61674 2.03273,-1.91141 3.80791,-1.80161 4.12469,-3.77561 0.39001,-2.43267 -1.11497,0.40102 -2.12423,0.57183 -2.24304,0.37981 -0.30952,-0.50076 0.65207,-1.15959 2.61598,-1.79224 0.93769,-0.30201 1.70504,-0.82539 1.70504,-1.16293 0,-0.9939 -2.28069,-2.49721 -3.81253,-2.51277 -1.34367,-0.0177 -1.37108,-0.0495 -0.53359,-0.68217 0.48536,-0.36707 1.331,-0.66749 1.87934,-0.66749 1.29433,0 4.28545,3.29359 4.28545,4.71858 0,0.59323 0.11661,1.66669 0.25788,2.38581 0.24763,1.25329 0.13973,1.35054 -2.61422,2.36106 z m -3.3613,-50.61465 c -1.50068,2.87771 -2.81924,3.59543 -4.24944,2.31261 -0.57566,-0.51631 -1.21319,-0.55274 -3.2185,-0.18372 -1.37548,0.2532 -3.37033,0.34232 -4.43321,0.19786 -1.81537,-0.24647 -1.93231,-0.19538 -1.93231,0.84307 0,0.60808 -0.33429,1.29254 -0.7428,1.52117 -1.14535,0.64098 -3.91229,-0.18495 -5.05434,-1.50879 -1.43098,-1.65892 -1.29874,-2.7879 0.43185,-3.68277 l 1.45498,-0.75237 -1.05066,-0.85067 c -0.57785,-0.46804 -1.50773,-0.85085 -2.06642,-0.85085 -1.2319,0 -2.7273,1.53425 -2.37935,2.44115 0.13797,0.36089 -0.14314,1.01406 -0.62674,1.4515 -0.48327,0.43728 -0.87867,1.00823 -0.87867,1.26851 0,0.26045 -0.54031,1.25293 -1.20052,2.2058 -1.40632,2.02918 -2.1141,1.77297 -2.96701,-1.07417 -0.2941,-0.98098 -0.75546,-1.70099 -1.02522,-1.59985 -1.71661,0.64291 -2.53681,0.77039 -2.53681,0.3943 0,-0.23658 0.61287,-0.68392 1.36161,-0.99408 1.32704,-0.54972 1.35467,-0.62452 1.08127,-2.94949 -0.34651,-2.94865 0.56585,-3.98358 1.01818,-1.15499 0.16263,1.01759 0.44165,1.94041 0.6197,2.05039 0.17826,0.10967 1.08711,-0.0177 2.01984,-0.26788 1.18301,-0.32676 1.97393,-0.93997 2.61653,-2.02902 1.24335,-2.10732 3.29479,-2.16442 5.58297,-0.15559 1.40544,1.23386 1.53713,1.52561 1.0783,2.38707 -0.28738,0.53982 -0.82934,1.20766 -1.20437,1.48403 -0.92965,0.68553 -0.37713,1.90734 1.12003,2.47653 1.76659,0.67173 2.27618,-0.0318 1.5728,-2.16975 -0.79675,-2.42223 -0.50287,-5.75899 0.52445,-5.95384 0.68675,-0.13081 0.79565,0.22543 0.79565,2.59447 0,3.03226 0.54636,3.68666 3.07722,3.68666 1.79049,0 1.95191,-0.2776 1.2036,-2.06842 -0.73861,-1.76747 -0.82295,-3.7636 -0.2005,-4.74794 0.7331,-1.15959 1.28937,0.0406 1.47271,3.17568 l 0.1732,2.9518 1.72001,-0.14853 c 1.16518,-0.10086 2.00421,0.10967 2.60133,0.64946 0.84641,0.76597 0.93538,0.74546 2.25548,-0.51932 1.99518,-1.91159 1.65803,-3.02271 -1.12564,-3.70967 -2.01126,-0.49633 -2.96547,-1.14526 -2.9854,-2.03005 0,-0.16974 0.68213,-1.03934 1.52436,-1.93245 1.58127,-1.6766 3.26639,-2.10025 4.28853,-1.07806 0.66065,0.66059 0.72408,2.18229 0.0903,2.18229 -0.25017,0 -0.45475,-0.32057 -0.45475,-0.71257 0,-0.90038 -1.65065,-0.48149 -2.92516,0.74245 -0.86888,0.8344 -0.86888,0.84732 0,1.12774 4.41736,1.42516 5.00171,2.23944 3.57282,4.97959 z m -25.84527,0.22828 c -1.97702,0 -2.54154,1.02201 -1.56873,2.83969 0.49659,0.92795 0.54328,0.90708 1.34487,-0.59817 1.01653,-1.90841 1.04979,-2.24152 0.22386,-2.24152 z m 20.80227,42.89121 c -0.16627,0.16621 -0.77418,0.30307 -1.34972,0.30307 -0.80556,0 -0.97909,-0.18337 -0.75304,-0.79569 0.41677,-1.12987 1.14316,-1.50508 1.82231,-0.94138 0.64887,0.53877 0.7352,0.97923 0.28045,1.434 z m -0.54295,25.31033 c -0.26723,0 -0.69787,-0.3959 -0.95674,-0.8795 -0.6187,-1.15586 -0.60769,-6.25707 0.0176,-6.64147 0.71285,-0.44046 0.74797,-0.32005 1.10307,3.76977 0.2222,2.56192 0.17144,3.7512 -0.16098,3.7512 z m -5.06469,-120.2619 c -0.59327,0.36656 -1.36415,-0.12195 -1.36415,-0.86569 0,-0.77553 -1.65174,-2.24648 -2.16573,-1.92891 -0.22243,0.13791 -0.77782,1.07823 -1.23433,2.09052 -1.0402,2.30694 -2.10804,2.37096 -3.38685,0.20352 -1.15328,-1.95474 -1.81548,-1.65007 -3.19559,1.4699 -0.84465,1.90945 -1.83904,2.65121 -1.83904,1.37193 0,-2.05322 2.55035,-6.20599 3.81132,-6.20599 0.25204,0 1.05484,0.56265 1.78399,1.25029 1.25612,1.18505 1.35269,1.20626 1.84356,0.40545 2.23092,-3.63928 3.38608,-3.87904 5.04553,-1.04747 1.25503,2.14146 1.4018,2.82344 0.70129,3.25645 z m -15.52342,1.31253 c -0.75403,0.52817 -0.78145,0.6606 -0.18344,0.89011 0.91236,0.3501 0.96444,3.02607 0.0584,3.02607 -0.35401,0 -1.53052,-1.21085 -2.61444,-2.69066 -1.91865,-2.61955 -4.20165,-4.49808 -4.61258,-3.79557 -0.11143,0.19149 -0.35301,2.18318 -0.53513,4.42611 -0.35852,4.41287 -0.82307,6.15222 -1.64283,6.15222 -0.35037,0 -0.42007,-0.48694 -0.21141,-1.47765 0.28782,-1.36698 0.4422,-3.57226 0.63599,-9.09361 0.0727,-2.0419 0.14501,-2.15966 1.34333,-2.15966 0.74665,0 1.91425,0.55291 2.84159,1.34559 1.67685,1.43311 2.70946,1.74307 2.71353,0.81407 0,-1.42322 1.00926,-3.97841 1.56157,-3.97841 0.82472,0 1.25844,1.15798 1.40698,3.75615 0.0991,1.7192 -0.0584,2.29246 -0.76207,2.78524 z m -9.19654,53.88087 c -0.90422,0.75041 -1.19667,0.13969 -1.19667,-2.49722 0,-2.62822 0.67167,-4.92829 1.32186,-4.52657 0.67222,0.41536 0.56453,6.45142 -0.12552,7.02379 z m -3.47604,-2.90566 c -0.64733,5.24974 -1.26835,5.43805 -3.63812,1.10406 -0.87878,-1.60747 -1.9018,-2.92282 -2.27331,-2.92282 -0.4836,0 -0.8931,1.09097 -1.44232,3.8412 -0.58336,2.92176 -1.01686,4.0297 -1.81185,4.62929 -1.38242,1.0427 -1.60715,0.72018 -0.48878,-0.70161 0.60528,-0.76935 1.00761,-2.22615 1.22541,-4.43709 0.35059,-3.55881 1.2471,-5.83237 2.29974,-5.83237 0.3638,0 1.42525,1.0229 2.35876,2.27337 0.9334,1.25029 1.85809,2.27336 2.05475,2.27336 0.19676,0 0.35774,-0.70286 0.35774,-1.56183 0,-1.86668 0.70426,-3.89428 1.35281,-3.89428 0.51167,0 0.51277,1.11078 0,5.22872 z m -1.10891,-54.96122 c -0.73201,0.28079 -1.6131,-0.1184 -1.6131,-0.73097 0,-0.21749 0.33649,-0.73203 0.74797,-1.14347 0.60439,-0.6042 0.82153,-0.63232 1.12983,-0.14677 0.57874,0.91274 0.4705,1.73829 -0.2647,2.02049 z m -11.72971,60.31688 c -1.31295,0.13968 -4.02394,0.77322 -6.02441,1.40765 -2.00057,0.63442 -4.50699,1.29113 -5.56976,1.45911 -2.86427,0.45265 -2.53097,-0.72338 0.6819,-2.40598 2.80702,-1.47024 3.22609,-2.30182 1.57445,-3.12545 -2.5455,-1.26902 -5.30539,-4.73183 -4.86847,-6.10836 0.40839,-1.28656 3.51699,-2.75078 6.49181,-3.05774 2.90909,-0.30041 3.0312,0.49738 0.14678,0.95853 -2.09461,0.3349 -4.46867,1.58943 -4.84392,2.55947 -0.16803,0.43444 0.44539,1.29784 1.69799,2.3897 4.41351,3.84739 4.66995,4.31012 3.25472,5.87408 -0.98724,1.09062 -0.45695,1.04907 2.81494,-0.22136 l 2.71144,-1.05279 0,-3.60763 c 0,-2.01679 0.20051,-3.66403 0.45486,-3.73546 0.24995,-0.0708 0.50639,0.44133 0.56982,1.13676 0.55418,6.07849 0.54129,6.03854 1.96357,6.03854 0.81944,0 1.33133,0.23781 1.33133,0.61851 0,0.41057 -0.80203,0.70373 -2.38705,0.87242 z M 416.8809,194.42525 c -0.39871,0.64503 -1.8387,0.36885 -1.8387,-0.35257 0,-0.22739 0.2799,-0.64539 0.62169,-0.92919 0.80366,-0.66696 1.78352,0.36513 1.21701,1.28176 z"
       id="path8359" />
  </g>
</svg>
