<?xml version="1.0" encoding="UTF-8" standalone="no"?>
<svg
   xmlns:dc="http://purl.org/dc/elements/1.1/"
   xmlns:cc="http://creativecommons.org/ns#"
   xmlns:rdf="http://www.w3.org/1999/02/22-rdf-syntax-ns#"
   xmlns:svg="http://www.w3.org/2000/svg"
   xmlns="http://www.w3.org/2000/svg"
   width="8.5in"
   height="11in"
   viewBox="0 0 765 990"
   id="svg2"
   version="1.1">
  <defs
     id="defs4" />
  <metadata
     id="metadata7">
    <rdf:RDF>
      <cc:Work
         rdf:about="">
        <dc:format>image/svg+xml</dc:format>
        <dc:type
           rdf:resource="http://purl.org/dc/dcmitype/StillImage" />
        <dc:title></dc:title>
      </cc:Work>
    </rdf:RDF>
  </metadata>
  <g
     transform="translate(0,-62.362205)"
     id="layer1">
    <path
       style="fill:#000000"
       d="m 717.53996,929.70217 c -1.0312,0.53328 -2.4742,0.67773 -5.7969,0.58013 -4.0777,-0.12024 -4.4241,-0.20139 -4.4241,-1.03952 0,-0.85969 0.2509,-0.90071 4.6072,-0.75306 3.0751,0.10428 4.7124,-0.0177 4.923,-0.35471 0.1733,-0.28078 -0.4162,-1.61329 -1.3108,-2.96099 -0.9608,-1.44761 -1.5135,-2.74441 -1.3505,-3.16912 0.402,-1.04801 0.9655,-0.88463 1.8323,0.53152 0.4209,0.68764 1.244,1.97736 1.8291,2.86605 1.4607,2.21855 1.3735,3.42956 -0.3093,4.2997 z m 0.4896,-9.56112 c -0.4914,0.1556 -1.6516,-0.10075 -2.6142,-0.58084 -0.952,-0.47352 -3.008,-1.251 -4.5688,-1.72735 -3.1266,-0.95446 -3.6161,-1.77737 -1.3989,-2.35186 1.8106,-0.46911 2.0575,-1.14825 0.8549,-2.3508 -0.741,-0.74104 -0.9162,-1.43153 -0.8352,-3.29094 0.09,-2.07338 0.2576,-2.4385 1.4087,-3.06904 0.7185,-0.39378 1.8124,-1.10017 2.4309,-1.56998 1.5567,-1.18292 0.8726,-1.70222 -3.352,-2.54424 -4.53,-0.90301 -4.9678,-1.81238 -0.7247,-1.5056 3.323,0.24029 5.9155,1.22411 6.696,2.54106 0.4022,0.67809 0.1912,1.09203 -1.2189,2.39323 -0.9377,0.86535 -1.705,1.67289 -1.705,1.79453 0,0.12197 0.8016,0.2212 1.7816,0.2212 2.1831,0 3.2199,0.36602 3.2199,1.13677 0,0.91593 -1.2914,1.18998 -4.1072,0.87136 -1.6861,-0.19078 -2.7023,-0.12025 -2.9013,0.2021 -0.3099,0.50146 1.5206,4.14534 2.0858,4.1517 0.1679,0.001 0.9139,-0.508 1.657,-1.13323 2.5743,-2.16603 3.3136,-1.01017 0.8437,1.31924 -0.8321,0.78471 -1.4281,1.68031 -1.3247,1.99044 0.1024,0.30997 1.1932,0.9962 2.422,1.52471 2.4035,1.03404 2.7455,1.53479 1.3504,1.97754 z m -0.9351,-24.77157 c -1.4178,1.41774 -5.1821,1.25966 -7.5102,-0.31579 -2.7736,-1.87657 -2.9965,-2.17133 -2.3307,-3.08177 0.5206,-0.71205 0.7188,-0.63213 2.2624,0.91149 1.4756,1.47557 1.8927,1.65928 3.2629,1.43684 0.8639,-0.13968 1.6834,-0.0725 1.8212,0.15029 0.4483,0.72566 1.585,-0.0813 1.585,-1.12492 0,-1.17584 -1.5314,-2.75377 -2.2447,-2.31297 -0.2658,0.16446 -0.4833,0.78615 -0.4833,1.38184 0,1.86739 -0.7817,1.66263 -1.0935,-0.28644 -0.5451,-3.40923 1.2655,-3.91635 4.1626,-1.16559 1.6955,1.60976 1.8863,3.08955 0.5683,4.40738 z m 0.4641,-17.96547 c -0.2449,0.15207 -0.875,0.0459 -1.4003,-0.23587 -0.5251,-0.28114 -2.3059,-0.76049 -3.957,-1.06516 -3.3505,-0.61834 -4.082,-1.4202 -1.9679,-2.15718 1.7052,-0.59447 1.7478,-1.1235 0.2533,-3.14913 -0.7714,-1.04571 -0.9698,-1.62178 -0.6007,-1.74468 0.5364,-0.17893 2.173,1.42728 3.0488,2.99195 0.3701,0.66148 0.6144,0.69578 1.6368,0.22986 0.6609,-0.30112 1.4989,-0.54743 1.8622,-0.54743 1.1939,0 0.6909,0.90956 -0.9307,1.68296 -1.9167,0.91398 -2.0089,1.38944 -0.3409,1.76059 2.4875,0.55361 2.8417,0.72 2.8417,1.33426 0,0.34357 -0.2004,0.74848 -0.4453,0.89983 z m -1.0324,8.75906 c -1.303,1.21598 -3.093,1.65892 -5.1474,1.27346 -2.0285,-0.38052 -1.8269,-1.36486 0.2972,-1.45045 2.1594,-0.0866 4.0545,-0.91451 4.0545,-1.77013 0,-0.42878 -1.0078,-1.17973 -2.5007,-1.86331 -2.7008,-1.23631 -3.1998,-1.98744 -1.3206,-1.98744 1.1692,0 3.3092,0.98311 4.8444,2.22508 1.0948,0.88604 0.9965,2.4302 -0.2274,3.57279 z m -1.364,-20.79722 c -0.981,0.59802 -2.2879,0.90161 -3.8874,0.90268 -2.351,10e-4 -5.0926,-0.96845 -5.0926,-1.8018 0,-0.84429 0.9201,-0.94243 2.2735,-0.24259 1.7236,0.89134 2.1769,0.64309 1.9276,-1.05542 -0.1573,-1.07348 0.071,-1.51127 1.2121,-2.32411 1.6426,-1.16948 2.7823,-0.96507 4.1233,0.73964 1.3076,1.66263 1.1489,2.74174 -0.5565,3.7816 z m -1.0014,-3.16964 c -0.9265,-0.76899 -2.2951,-0.3989 -2.2951,0.62063 0,1.05615 1.2146,1.87658 2.2115,1.49394 0.9213,-0.35346 0.9621,-1.38556 0.084,-2.11457 z m 1.9297,-6.94207 c -0.609,1.23897 -1.7324,1.57191 -4.6631,1.38254 -1.6409,-0.10615 -2.3188,-0.37203 -2.6796,-1.05136 -0.2656,-0.50021 -0.8674,-1.4881 -1.337,-2.19538 -0.4696,-0.70745 -0.7511,-1.3889 -0.6256,-1.51461 0.4562,-0.45621 2.1325,0.81388 2.814,2.13206 1.0561,2.0419 2.8732,1.7712 1.9349,-0.28803 -0.812,-1.78198 0.074,-1.8886 1.4727,-0.17718 1.1103,1.35851 1.3428,1.47326 1.6049,0.79285 0.1681,-0.43763 0.1859,-1.11042 0.039,-1.49499 -0.2391,-0.62276 0.8407,-1.51074 1.2904,-1.06109 0.5022,0.50216 0.5916,2.57678 0.1503,3.47519 z m -1.6104,85.12131 c -1.1548,-0.0177 -2.0986,-0.72017 -1.7365,-1.30616 0.4644,-0.75129 1.9396,-0.61161 2.2563,0.2136 0.3958,1.03174 0.3633,1.10035 -0.5198,1.09256 z m -17.1166,-51.23811 c -1.0815,1.16683 -1.9671,1.43082 -4.2086,1.25436 -0.5629,-0.0443 -1.2827,0.35717 -1.6947,0.94527 -0.8441,1.20519 -1.2828,0.91645 -1.4906,-0.98064 -0.084,-0.75855 -0.5612,-2.18352 -1.0626,-3.16646 -1.0907,-2.13757 -1.1054,-2.27796 -0.239,-2.27796 0.37,0 1.0903,0.8185 1.6006,1.81875 0.9656,1.89267 2.5879,2.6164 2.0474,0.91346 -0.1574,-0.49793 -0.1539,-1.12174 0.018,-1.38609 0.4194,-0.6788 1.5803,0.35754 1.5803,1.41083 0,1.14402 0.7113,1.47309 1.8576,0.85952 0.7589,-0.40616 0.9109,-0.79851 0.7064,-1.82211 -0.4711,-2.35522 1.1671,-2.31403 1.7487,0.0443 0.2125,0.86111 0,1.47025 -0.8554,2.38706 z m -1.7279,36.89566 c -1.3265,0.1609 -3.1785,0.40402 -4.1156,0.54054 -1.3475,0.19627 -1.7677,0.0831 -2.0082,-0.54443 -0.3494,-0.91061 1.2742,-2.46963 2.5718,-2.46963 0.8968,0 3.6411,-2.59551 3.6411,-3.44335 0,-0.74653 -1.5302,-1.08992 -4.8878,-1.09734 -2.1075,0 -2.8416,-0.16798 -2.8416,-0.63249 0,-1.10493 1.1988,-1.76746 2.2144,-1.22393 0.4998,0.26753 2.0116,0.48624 3.3597,0.48624 1.9746,0 2.6439,0.20476 3.4401,1.05226 0.5437,0.5789 0.9885,1.16452 0.9885,1.30156 0,0.13615 -0.633,1.04464 -1.4067,2.01679 l -1.4068,1.76748 1.2876,0.23093 c 0.7081,0.12737 1.3522,0.56651 1.4312,0.97691 0.1131,0.58881 -0.365,0.80788 -2.2677,1.03846 z m 1.2416,-12.19234 c -0.3665,0.14145 -2.3102,-0.29177 -4.3194,-0.96084 -3.9711,-1.32259 -4.631,-2.21606 -2.2892,-3.0998 1.3161,-0.49686 1.364,-0.61515 1.364,-3.37068 0,-2.10982 -0.1627,-2.85563 -0.6207,-2.85563 -0.7778,0 -3.0166,-1.7307 -3.0166,-2.33207 0,-0.24594 0.6151,-1.00927 1.3671,-1.69602 l 1.3673,-1.24888 -1.8065,-1.33993 c -1.9804,-1.46882 -2.5828,-2.4134 -1.716,-2.69012 2.955,-0.94332 5.9959,-1.60534 7.375,-1.60534 2.6908,0 1.6795,1.05296 -1.7343,1.80602 -1.6687,0.36815 -3.0334,0.87967 -3.0329,1.13678 6e-4,0.25709 0.7657,0.87649 1.6998,1.37671 2.3432,1.25453 2.4272,2.28183 0.2612,3.1951 l -1.7348,0.73134 1.0735,0.8786 c 0.5904,0.48307 1.4874,0.87843 1.9933,0.87843 1.6504,0 4.4355,1.03899 4.4355,1.65466 0,0.72213 -1.6165,1.18628 -3.4452,0.9893 -1.185,-0.12737 -1.3123,-0.0194 -1.176,0.99337 0.2295,1.70577 0.7303,1.97294 2.5637,1.36788 0.915,-0.30202 1.7776,-0.43516 1.9167,-0.29599 0.5602,0.55998 -0.3538,1.65626 -1.3808,1.65626 -0.6024,0 -1.3428,0.29827 -1.6453,0.66288 -0.4452,0.5363 -0.3295,0.88338 0.6056,1.81858 0.6357,0.63584 1.4721,1.15586 1.8586,1.15586 0.8919,0 0.9181,0.85527 0.037,1.19353 z m -4.3352,-3.46689 c -0.2501,0 -0.4546,0.21679 -0.4546,0.48148 0,0.26488 0.2045,0.35506 0.4546,0.20052 0.25,-0.15385 0.4548,-0.37115 0.4548,-0.48148 0,-0.10966 -0.2048,-0.20052 -0.4548,-0.20052 z m 3.1507,26.97897 c -1.1906,0.83405 -1.7868,0.61763 -1.7868,-0.64875 0,-1.18062 1.2537,-1.62831 2.1235,-0.75854 0.6155,0.6155 0.5796,0.76562 -0.3367,1.40729 z m 0.021,-55.62357 c -0.2562,0 -0.6585,-0.46025 -0.8938,-1.02307 -0.6705,-1.60302 -1.7172,-2.73325 -2.235,-2.4134 -0.2599,0.16091 -0.7027,1.15304 -0.984,2.20528 -0.5161,1.93034 -1.1668,3.04996 -1.7728,3.04996 -0.1812,0 -0.8013,-0.40917 -1.3779,-0.90939 -0.5766,-0.50021 -1.1999,-0.90938 -1.385,-0.90938 -0.5632,0 -0.8284,-1.17991 -0.4156,-1.84793 0.3148,-0.50942 0.5933,-0.43674 1.465,0.38211 0.592,0.5561 1.2086,1.01123 1.3703,1.01123 0.1609,0 0.5059,-0.78597 0.7646,-1.74662 0.6074,-2.25549 2.0494,-3.62849 3.1152,-2.96577 1.8207,1.13218 3.655,5.16698 2.349,5.16698 z m -16.8137,43.84534 c -3.0957,1.21457 -3.2766,1.23313 -6.4791,0.66077 -3.652,-0.65264 -5.4574,-1.90346 -5.0416,-3.49305 0.4752,-1.81769 4.8773,-1.99522 7.8159,-0.31527 1.6912,0.96684 2.3313,1.08832 4.4332,0.84131 3.6698,-0.43144 3.305,0.72389 -0.7284,2.30624 z m -8.1992,-2.62558 c -2.53,0.50605 -1.2317,1.52648 1.8358,1.44285 0.8752,-0.0248 1.7707,-0.14677 1.9899,-0.27302 0.7659,-0.44098 -2.4906,-1.43682 -3.8257,-1.16983 z m 9.0885,-5.28847 c -1.7781,0.95145 -10.083,-0.84095 -11.0579,-2.38687 -0.3915,-0.62063 -0.22,-1.05578 0.8625,-2.18848 1.3846,-1.44867 1.5185,-1.46636 4.8751,-0.63991 1.2068,0.29724 1.2503,0.24472 1.2503,-1.50861 0,-1.59048 -0.1698,-1.887 -1.367,-2.38281 -0.7518,-0.31138 -2.0306,-1.15462 -2.8417,-1.87374 l -1.4748,-1.30776 1.5394,-1.36397 c 1.9383,-1.71762 4.7278,-1.88134 6.6252,-0.38882 1.1344,0.89221 1.2135,1.15321 0.9302,3.06904 -0.1697,1.15161 -0.5981,2.41693 -0.951,2.81176 -0.3528,0.39484 -0.6416,1.21881 -0.6416,1.83114 0,0.61231 -0.3322,1.58765 -0.7382,2.16726 -0.7375,1.05312 -1.4398,1.109 -4.0358,0.32181 -0.9474,-0.28733 -2.4566,0.38652 -1.9656,0.87755 0.1556,0.15559 1.5623,0.58032 3.1279,0.94563 2.1841,0.50941 3.1978,0.54796 4.3569,0.1662 0.8306,-0.27424 1.719,-0.36973 1.9739,-0.21218 0.7652,0.47299 0.525,1.53213 -0.4678,2.06348 z m -5.0498,-13.65215 c -0.9828,0 -1.2936,0.21465 -1.2936,0.89328 0,1.27611 1.4639,1.94713 2.9856,1.36858 1.1887,-0.45194 1.2015,-0.49403 0.4141,-1.36398 -0.447,-0.49385 -1.3948,-0.89788 -2.1061,-0.89788 z m 3.9851,-3.94676 c -0.3687,0.14145 -1.9239,0.39907 -3.4557,0.57235 -2.5729,0.29105 -2.804,0.24313 -3.0325,-0.63017 -0.1573,-0.60207 -0.6844,-0.99602 -1.4512,-1.08479 -1.854,-0.21465 -1.4332,-1.33533 0.7428,-1.97789 3.8896,-1.14843 4.077,-2.93554 0.308,-2.93554 -2.2339,0 -3.3916,-0.34656 -3.3916,-1.01511 0,-0.74989 7.7176,-0.19132 8.215,0.59446 0.6403,1.01158 0.527,1.31782 -1.083,2.92776 l -1.5069,1.50685 2.4938,0.37999 c 2.4552,0.37431 3.4746,1.15815 2.1613,1.66209 z m -0.5931,-28.65132 c -0.4515,0.11839 -2.5601,0.18707 -4.6856,0.15205 -3.0593,-0.0496 -3.8648,-0.2021 -3.8648,-0.72848 0,-0.39608 0.7042,-0.83139 1.7412,-1.07666 1.2663,-0.29952 2.1075,-0.91767 3.0849,-2.26699 0.7392,-1.02041 1.2835,-2.16955 1.2095,-2.55378 -0.1539,-0.79923 -2.5492,-1.32898 -6.1871,-1.36823 -1.6128,-0.0177 -2.3667,-0.20086 -2.251,-0.54796 0.2075,-0.62258 7.5867,-0.55485 9.2701,0.0849 1.5022,0.57113 1.4056,2.13704 -0.2747,4.45673 -0.7502,1.03561 -1.3641,1.97523 -1.3641,2.08803 0,0.11313 0.8537,0.26806 1.8971,0.34499 1.9651,0.14498 2.8633,1.03687 1.4245,1.41506 z m 0.026,-10.59621 c -0.6695,1.12952 -0.6725,1.12633 -0.4575,-0.51047 0.226,-1.71939 -0.4907,-3.29838 -2.3988,-5.28653 -1.2755,-1.32914 -2.6749,-1.29448 -4.5836,0.11312 -2.0871,1.53974 -3.4389,1.47538 -4.3078,-0.20493 -0.7538,-1.45753 -0.9234,-3.20519 -0.311,-3.20519 0.2106,0 0.6279,0.81831 0.9275,1.81875 0.2997,1.00026 0.6633,1.81858 0.8078,1.81858 0.145,0 0.9585,-0.61073 1.8089,-1.35743 2.974,-2.61127 5.2254,-2.26735 7.479,1.14241 1.5495,2.34462 1.8927,4.22473 1.0355,5.67111 z m -1.3682,19.80013 c -0.6617,0.61321 -1.48,1.11502 -1.8186,1.11502 -0.8728,0 -0.7733,0.36355 0.521,1.90169 0.6251,0.74299 1.1366,1.60286 1.1366,1.91106 0,1.08849 -1.2761,2.28308 -3.0146,2.82168 -0.9677,0.2997 -1.4015,0.56651 -0.9638,0.59268 1.0653,0.0636 1.025,0.95712 -0.043,0.95712 -0.8551,0 -1.6688,-0.79056 -2.6848,-2.60824 -0.9735,-1.7415 -0.6869,-3.14401 0.8954,-4.38228 1.2446,-0.97392 1.3467,-1.19052 0.6821,-1.44567 -1.3599,-0.5218 -0.8492,-1.00397 1.0916,-1.03068 1.3048,-0.0177 2.2119,-0.34374 2.988,-1.07275 l 1.1143,-1.04694 -1.4667,-1.31059 c -1.3355,-1.19317 -1.6844,-1.28811 -3.8973,-1.05967 -2.4554,0.25338 -2.8797,0.039 -1.8848,-0.95659 0.6952,-0.69525 4.2082,-0.70816 5.5087,-0.0194 3.1193,1.65025 3.8187,3.79682 1.8361,5.63432 z m -2.9903,3.64158 c -1.3943,-0.97674 -2.4997,-0.88549 -3.1111,0.25693 -0.7828,1.46247 0.7779,2.88019 2.7045,2.45707 1.7098,-0.37556 1.9032,-1.6658 0.4066,-2.714 z m 0.138,53.85327 c -0.6067,0 -0.9675,-0.42985 -1.1826,-1.40889 -0.4144,-1.88718 0.3622,-2.62558 1.3212,-1.25631 1.0064,1.43702 0.9427,2.6652 -0.1379,2.6652 z m -15.0394,-12.95849 c -0.2499,0.15382 -0.8744,-0.4311 -1.3878,-1.30139 -1.7826,-3.02113 -5.6874,-5.05719 -5.1868,-2.70463 1.8196,8.55413 1.8268,8.78045 0.2814,8.78045 -0.4307,0 -1.9299,-1.17654 -3.3316,-2.61443 -1.8435,-1.89126 -2.6314,-3.08601 -2.8479,-4.3195 -0.2687,-1.52753 -0.1997,-1.70506 0.6626,-1.70506 0.7465,0 0.9312,0.2396 0.8227,1.06693 -0.1503,1.14454 1.7957,4.06152 3.2164,4.82183 0.7923,0.4242 0.8029,0.31333 0.2248,-2.38086 -1.1467,-5.34381 -0.6253,-7.07026 1.9575,-6.48198 1.5657,0.35682 2.1877,0.84325 4.343,3.39703 1.7335,2.05392 2.0548,2.94156 1.2457,3.44161 z m -2.842,-12.96805 c -2.3743,1.04215 -6.4524,1.81221 -7.1886,1.35725 -0.7286,-0.45036 -0.1256,-1.34718 0.9064,-1.34718 0.4539,0 1.6211,-0.28078 2.5936,-0.62382 4.7412,-1.67286 7.7552,-1.17124 3.6886,0.61375 z m -0.5707,-9.65183 c -0.4022,0.56264 -0.9993,1.02308 -1.3267,1.02308 -0.3275,0 -1.697,-1.01758 -3.0432,-2.26132 -1.3463,-1.24358 -2.7038,-2.26666 -3.0163,-2.27337 -0.767,-0.0177 -0.7139,1.74415 0.099,3.30349 0.3641,0.69827 0.7988,1.99717 0.9655,2.8864 0.2656,1.41543 0.1975,1.59649 -0.5458,1.45327 -0.6147,-0.11853 -1.0731,-0.97851 -1.6588,-3.11378 -0.9557,-3.4835 -0.8751,-5.84685 0.2229,-6.5345 0.6569,-0.41146 1.2275,-0.06 3.4232,2.11369 2.8666,2.83653 3.5081,3.10864 3.8897,1.64919 0.3485,-1.33216 -0.2492,-2.57324 -2.3855,-4.95269 -1.7433,-1.94182 -2.3184,-2.98558 -1.4613,-2.65228 0.2142,0.0831 1.4514,1.11219 2.7492,2.28609 1.9886,1.79913 2.3956,2.44239 2.5893,4.09211 0.1609,1.37035 0.018,2.26452 -0.5017,2.98062 z m -1.1708,-12.04893 c -0.2716,0.46627 -1.0055,0.79567 -1.7725,0.79567 -0.72,0 -1.6159,0.30698 -1.991,0.682 -0.3751,0.37522 -0.7988,0.68198 -0.9418,0.68198 -0.1433,0 -0.2598,-0.30676 -0.2598,-0.68198 0,-1.02165 -0.7669,-0.82133 -1.0536,0.2753 -0.2983,1.14049 -1.3895,0.92494 -1.5842,-0.31296 -0.1785,-1.13554 -1.1054,-3.05914 -1.6677,-3.46141 -0.2433,-0.17327 -0.2926,-0.46591 -0.1101,-0.64874 0.1828,-0.18301 0.9442,0.25338 1.6917,0.96967 1.3383,1.28193 1.5436,1.23067 1.3831,-0.3455 -0.1166,-1.15092 0.6627,-0.97675 1.5258,0.34091 0.7715,1.17743 2.2349,1.46724 3.4519,0.68375 0.6013,-0.38705 0.5909,-0.60048 -0.087,-1.80159 -0.9689,-1.71763 -0.145,-2.44983 1.0698,-0.95006 0.9238,1.14084 1.053,2.55645 0.3446,3.77296 z m -2.7423,46.8569 c -0.6622,1.13836 -1.7681,0.18035 -1.7681,-1.53178 0,-1.73565 0.655,-2.01821 1.5416,-0.66519 0.8516,1.29962 0.8362,1.14914 0.2265,2.19697 z m -12.794,-12.24717 c -0.5627,0.1503 -2.0971,0.27708 -3.41,0.28044 -1.8317,0 -2.6148,0.23394 -3.3657,0.98471 -0.8387,0.83883 -1.0498,0.88356 -1.4777,0.31296 -0.2745,-0.36619 -0.8661,-0.80345 -1.3145,-0.97179 -0.6593,-0.24754 -0.7219,-0.48059 -0.3271,-1.2181 0.3683,-0.68835 0.3175,-1.24215 -0.2078,-2.25762 -0.7638,-1.47732 -0.924,-3.20943 -0.2968,-3.20943 0.6305,0 1.3696,1.08442 2.0468,3.00326 0.5133,1.45362 0.8185,1.74962 1.7042,1.65183 2.2486,-0.24825 2.2843,-0.40633 0.7796,-3.45767 -1.4297,-2.89949 -1.4347,-2.93396 -0.6606,-4.5653 1.1368,-2.3957 2.6359,-3.26122 4.3898,-2.5345 2.7518,1.13976 2.5885,3.14331 -0.4301,5.27962 -1.0141,0.71771 -1.8482,1.44408 -1.8534,1.61435 0,0.16974 0.4505,1.03104 1.0133,1.913 0.867,1.35922 1.283,1.60658 2.728,1.62303 1.9225,0.0213 2.3934,1.09273 0.682,1.55121 z m -2.9206,-10.65542 c -0.9295,-0.35347 -1.3697,-0.30767 -1.8723,0.19485 -0.8325,0.83246 -0.3467,1.65378 0.9777,1.65378 0.8608,0 2.1101,-0.73344 2.1101,-1.23896 0,-0.0813 -0.5469,-0.35558 -1.2155,-0.60967 z m 2.1232,-4.69701 c -0.5571,0.55698 -7.8103,-0.74989 -8.0435,-1.44921 -0.085,-0.25479 0.9231,-0.96437 2.2404,-1.57668 3.0717,-1.42816 3.2655,-2.33402 0.7097,-3.31642 -2.5222,-0.96948 -4.7006,-2.71204 -4.2672,-3.41313 0.2402,-0.38882 0.6558,-0.2836 1.4987,0.37928 0.6412,0.50464 1.4966,0.92424 1.9005,0.93254 1.1888,0.0248 4.3603,2.4454 4.5054,3.43947 0.074,0.50323 -0.2845,1.29343 -0.7957,1.75617 -1.2264,1.1099 -1.1737,1.6094 0.1697,1.6094 2.148,0 3.0277,0.69243 2.0815,1.63858 z m -0.9834,-15.54659 c -0.3333,0.10252 -1.8921,0.55326 -3.4641,1.00045 -2.7652,0.78665 -2.8487,0.85438 -2.5782,2.08627 0.2131,0.96985 0.1115,1.27309 -0.4298,1.27309 -0.4037,0 -0.8289,-0.53894 -0.9865,-1.25029 -0.1521,-0.68782 -0.6525,-2.68092 -1.1114,-4.4293 -0.459,-1.7482 -0.7307,-3.28246 -0.6039,-3.40924 0.3658,-0.36583 1.5521,1.46584 1.8306,2.8268 0.3946,1.92714 1.112,2.26947 3.2071,1.5302 2.5734,-0.90797 4.3251,-1.05544 4.5512,-0.38352 0.1057,0.31243 -0.082,0.65246 -0.415,0.75554 z m -2.5298,42.89369 c -0.2834,0.81265 -1.7922,0.70268 -2.1212,-0.15383 -0.3671,-0.95676 0.043,-1.55034 1.0677,-1.55034 0.8939,0 1.376,0.78047 1.0535,1.70506 z m -14.0397,-7.27485 c -0.1397,0.31263 -0.6528,0.5683 -1.1408,0.5683 -0.7365,0 -0.8075,-0.15029 -0.4168,-0.8795 0.9557,-1.78586 0.4676,-3.33285 -1.2172,-3.85853 -0.7795,-0.24312 -1.445,0.0849 -2.9554,1.46052 -2.5251,2.29811 -3.7331,2.60914 -4.6568,1.19936 -1.0083,-1.53885 -0.89,-3.24585 0.268,-3.8656 0.8855,-0.47388 0.9473,-0.42489 0.701,0.55608 -0.1485,0.59164 -0.09,1.3677 0.1309,1.7247 0.3218,0.5209 0.7666,0.31845 2.2557,-1.02679 1.4531,-1.31269 2.2297,-1.67571 3.5853,-1.67571 2.4373,0 3.3286,0.81054 3.5298,3.21031 0.094,1.11027 0.055,2.27425 -0.083,2.58686 z m -1.2192,-16.94716 c -0.9115,0.38087 -1.9586,0.69241 -2.3271,0.69241 -0.3683,0 -0.7925,0.19857 -0.9425,0.44135 -0.4042,0.65388 1.045,3.19618 1.8222,3.19618 0.3686,0 0.6702,0.29227 0.6702,0.64962 0,0.68464 -4.8191,1.95757 -5.3607,1.41597 -0.1574,-0.15738 0.2966,-0.75254 1.0098,-1.32138 1.2245,-0.97638 1.2616,-1.10617 0.6641,-2.32497 -0.6298,-1.28513 -1.2087,-1.74256 -2.8683,-2.26611 -1.49,-0.47016 -0.2113,-0.99302 3.9561,-1.61719 2.9964,-0.44875 4.1235,-0.46821 4.5135,-0.0777 0.3901,0.39007 0.1057,0.69278 -1.1373,1.21228 z m -0.8908,-4.0053 c -6.4763,-1.62708 -7.8172,-2.04436 -7.9618,-2.47811 -0.091,-0.2776 0.6806,-0.93785 1.7179,-1.46707 1.4252,-0.72707 1.8123,-1.14983 1.5836,-1.72945 -0.1661,-0.42189 -0.4162,-1.83927 -0.5554,-3.14949 l -0.253,-2.38245 -1.6638,0.26611 c -2.2131,0.35398 -2.8947,-0.44894 -2.4026,-2.82927 0.5107,-2.47016 2.0026,-2.67422 3.3132,-0.45302 1.052,1.78322 2.1112,2.29281 3.9588,1.90487 1.4126,-0.2967 2.6463,0.29793 2.1808,1.05119 -0.1714,0.27796 -0.8995,0.50552 -1.6171,0.50552 -1.1518,0 -2.7336,0.9748 -2.7336,1.68472 0,0.14146 0.239,1.05403 0.5315,2.02988 l 0.5315,1.77403 2.0272,-0.30395 c 1.6154,-0.24225 1.9846,-0.17682 1.8177,0.32465 -0.115,0.34585 -0.6006,0.70463 -1.079,0.79726 -0.4782,0.092 -1.348,0.54479 -1.9327,1.00467 l -1.0632,0.83637 1.2885,0.29972 c 1.6467,0.38298 3.3345,1.43257 3.3345,2.07355 0,0.28874 -0.4291,0.38953 -1.023,0.2403 z m -7.3125,-13.40903 c -0.4487,-0.0866 -0.7581,0.14501 -0.7581,0.56847 0,0.42171 0.3889,0.71523 0.9473,0.71523 1.1081,0 0.9515,-1.0625 -0.1892,-1.2837 z m 5.7466,-6.1043 c -0.7018,0.49191 -2.3499,1.03263 -3.6629,1.20149 l -2.3869,0.30712 0,-1.58022 c 0,-0.86906 -0.2048,-1.70666 -0.4549,-1.8612 -0.9512,-0.58792 -0.3922,-1.13676 1.1584,-1.13676 1.1647,0 1.9265,0.33808 2.7399,1.21579 1.1876,1.28142 1.9569,1.07596 2.2011,-0.5879 0.1897,-1.29309 1.3831,-1.02521 1.5421,0.34603 0.1024,0.89152 -0.1902,1.43205 -1.1368,2.09565 z m -4.0254,-2.01945 c -0.8727,-0.8726 -1.1595,-0.63566 -0.8168,0.67493 0.145,0.55167 0.5453,1.00308 0.8914,1.00308 0.8342,0 0.7985,-0.80487 -0.074,-1.67801 z m 0.6303,52.525 c -0.5849,-0.0831 -1.0634,-0.45742 -1.0634,-0.83264 0,-0.98612 1.7739,-0.85013 1.9665,0.1503 0.1239,0.64556 -0.078,0.79868 -0.9031,0.68199 z m -13.7821,-27.21395 c -0.6812,0.5651 -7.326,0.80487 -7.8479,0.2829 -0.5895,-0.58951 0.518,-0.93555 3.5405,-1.10635 3.3174,-0.18743 3.7148,-0.53029 2.4909,-2.14852 -0.3673,-0.48554 -0.6742,-1.24711 -0.6822,-1.69268 0,-0.44542 -0.3025,-0.92053 -0.6547,-1.05561 -0.3523,-0.13438 -0.9033,-0.89594 -1.2245,-1.69074 -0.3215,-0.7948 -0.7946,-1.58748 -1.0515,-1.7613 -0.8906,-0.60277 0.1046,-0.88072 1.046,-0.29245 0.7954,0.49668 1.0597,0.4774 1.6576,-0.12025 0.6453,-0.64538 0.5339,-0.88886 -1.2016,-2.62416 -1.3014,-1.30156 -2.0611,-1.76464 -2.3769,-1.44868 -0.316,0.3158 -0.2685,0.83017 0.1485,1.60941 0.7518,1.40482 0.1778,2.16478 -0.714,0.94527 -0.8852,-1.21067 -0.8082,-2.69276 0.1867,-3.59313 1.1907,-1.07754 1.604,-0.95907 3.3341,0.95588 2.0815,2.30394 2.9562,4.42771 2.1994,5.33957 -0.311,0.37485 -0.8475,0.68163 -1.1919,0.68163 -1.0159,0 -0.7363,0.7994 1.1923,3.41013 1.9708,2.66765 2.1801,3.45325 1.149,4.30923 z m -1.2316,18.04396 c -0.8305,1.71692 -3.5638,1.99506 -6.2316,0.63407 -1.9181,-0.9785 -3.4377,-2.93182 -3.0554,-3.92766 0.386,-1.00609 1.0626,-0.76598 1.9168,0.68004 0.8859,1.4996 2.362,2.31208 4.2005,2.31208 3.1108,0 3.0611,-2.15984 -0.1574,-6.86002 -2.5468,-3.71885 -3.0205,-5.41401 -2.0299,-7.26478 0.4708,-0.88001 2.0436,-1.1601 2.9848,-0.53151 0.7233,0.48289 1.5459,2.17981 1.5459,3.1891 0,0.47776 -0.4093,1.23897 -0.9093,1.69163 -1.156,1.04604 -1.1473,1.69002 0.037,2.76208 1.9237,1.74113 2.7251,5.19245 1.6985,7.31497 z m -2.6614,-13.06228 c -0.5685,-1.06216 -1.6026,-1.14756 -1.9802,-0.16445 -0.347,0.90425 0.8902,2.18495 1.7805,1.84334 0.7959,-0.30537 0.8211,-0.51844 0.1997,-1.67961 z m 1.1231,-23.60209 c -1.7143,0.65174 -4.29,0.56105 -4.29,-0.1503 0,-0.32694 -0.7879,-0.94225 -1.7508,-1.36698 -3.5773,-1.57829 -4.2193,-3.97187 -1.1618,-4.33117 1.0345,-0.12196 1.5884,0.16974 2.5954,1.36397 l 1.28,1.51853 1.0956,-1.25878 c 0.6837,-0.78577 1.2083,-2.10998 1.3957,-3.52364 0.2842,-2.14143 0.7241,-2.77445 1.291,-1.8573 0.5098,0.82469 -0.3629,4.70922 -1.4014,6.23993 -0.5887,0.8673 -1.0702,1.65733 -1.0702,1.75546 0,0.099 0.7162,0.0619 1.5914,-0.0796 1.2817,-0.20812 1.5913,-0.1114 1.5913,0.49439 0,0.41409 -0.525,0.95234 -1.1662,1.19618 z m -6.6496,-4.55802 c -1.2378,0 -0.8831,1.54892 0.3964,1.73211 0.7948,0.11311 0.9361,-0.039 0.738,-0.79568 -0.1415,-0.54284 -0.6187,-0.93643 -1.1344,-0.93643 z m 5.255,54.24243 c -0.175,0.17505 -0.694,0.31881 -1.1524,0.31881 -0.5921,0 -0.8336,-0.33862 -0.8336,-1.16843 0,-0.95004 0.1903,-1.14118 1.0185,-1.02289 1.0078,0.14323 1.583,1.25682 0.9675,1.87251 z m -28.7294,49.14564 c -0.4082,0.25215 -9.0425,1.64211 -10.2006,1.64211 -0.3168,0 -1.1172,-0.5018 -1.7787,-1.11518 -1.0645,-0.98701 -1.159,-1.30864 -0.8228,-2.79957 0.209,-0.92653 0.8685,-2.17292 1.4654,-2.76987 0.9528,-0.95288 1.2483,-1.02377 2.4186,-0.58014 1.9139,0.72531 3.3796,2.24896 3.3796,3.51357 0,1.05029 0.1057,1.08619 2.7953,0.94385 1.8295,-0.0972 2.859,0.0335 2.9793,0.37874 0.1002,0.28964 0,0.64362 -0.2361,0.78649 z m -7.7017,-3.37016 c -1.6044,-1.26195 -2.3319,-1.12402 -3.0537,0.57927 -0.5603,1.32224 -0.546,1.49482 0.1361,1.64034 0.4191,0.0902 0.9663,0.3211 1.2166,0.51507 0.25,0.19379 1.0952,0.25444 1.8784,0.13438 1.1372,-0.17329 1.3776,-0.39412 1.1943,-1.09451 -0.1255,-0.48201 -0.7431,-1.28087 -1.3712,-1.7749 z m 6.768,-5.47625 c -0.5518,0.2953 -1.3807,0.30379 -2.3564,0.0248 -0.8279,-0.23746 -2.2863,-0.30678 -3.2409,-0.15383 -1.1214,0.1793 -1.7357,0.10251 -1.7357,-0.21926 0,-0.87843 1.9548,-1.57757 4.1904,-1.49836 1.1964,0.0425 2.1757,-0.0796 2.1763,-0.27229 0,-0.19221 -0.4424,-1.18734 -0.9849,-2.21147 -0.918,-1.73336 -0.9259,-3.3668 -0.018,-3.3668 0.2157,0 0.6029,0.46043 0.8606,1.02307 2.2549,4.92422 2.4282,5.9685 1.1073,6.67542 z m -1.0432,-9.07732 c -0.5835,0 -2.1864,-0.41076 -3.5616,-0.89452 -1.3755,-0.48379 -2.9444,-0.8864 -3.4865,-0.89453 -2.6035,-0.039 -3.2386,-1.32667 -1.0602,-2.14907 1.4863,-0.56103 1.7557,-1.52152 0.6774,-2.41639 -0.8242,-0.68394 -2.2232,-5.24532 -1.8126,-5.90962 0.1592,-0.25799 1.2842,-0.97304 2.4992,-1.58873 3.7138,-1.88186 3.6532,-1.94041 -2.9191,-2.82166 -4.2382,-0.56829 -3.7035,-1.38643 0.7463,-1.14172 3.7641,0.20688 6.7194,1.02483 6.7194,1.85961 0,0.24383 -0.5627,0.87683 -1.2503,1.40676 -0.6877,0.52992 -1.7619,1.35708 -2.3869,1.83821 l -1.1369,0.87471 3.4969,0.0177 c 1.9233,0 3.6236,0.22013 3.7785,0.47068 0.522,0.84466 -2.185,1.44586 -5.1157,1.13642 -3.3652,-0.35559 -3.6131,0.11312 -1.5913,3.0091 1.0421,1.49252 1.4398,1.74607 2.387,1.52275 2.9522,-0.69612 3.6375,-0.74724 3.6375,-0.2707 0,0.27513 -0.6912,0.78896 -1.5358,1.14189 -2.7121,1.13324 -2.4714,2.00053 0.8759,3.1594 2.0071,0.6949 2.6229,1.67446 1.0388,1.65237 z m -1.0968,-84.44127 c -0.7361,0.73168 -1.1009,0.26823 -1.1009,-1.39846 0,-1.25099 -0.3082,-2.029 -1.0978,-2.77075 -1.0975,-1.03103 -1.0979,-1.0312 -1.5974,-0.0972 -0.275,0.51366 -0.4728,1.09557 -0.4397,1.29326 0.1895,1.13606 -0.161,1.97931 -1.0125,2.43496 -0.7987,0.42756 -1.1291,0.35206 -1.9197,-0.43851 -0.5253,-0.52533 -0.717,-0.955 -0.4261,-0.955 0.2908,0 0.6552,0.20459 0.8098,0.45461 0.5619,0.90902 1.1016,0.41747 1.3724,-1.25029 0.4603,-2.83422 1.0025,-3.7512 2.2183,-3.7512 0.7747,0 1.4022,0.47423 2.0812,1.57279 1.0583,1.71233 1.6593,4.36284 1.1124,4.90638 z m -1.1529,26.30954 c -0.8004,0.80061 -1.3621,0.92811 -3.3578,0.7626 -2.9133,-0.24153 -7.5513,-2.43125 -7.183,-3.3912 0.2086,-0.54353 0.3744,-0.53081 1.0498,0.0813 1.0859,0.98257 5.1657,2.49597 6.729,2.49597 2.6634,0 3.1052,-2.11916 0.9953,-4.77409 -0.75,-0.94405 -1.364,-1.87694 -1.364,-2.07322 0,-0.19643 -0.6946,-0.58614 -1.5434,-0.8664 -0.956,-0.31544 -1.6459,-0.89135 -1.8124,-1.51286 -0.3821,-1.42515 -0.3478,-1.68562 0.2218,-1.68562 0.2768,0 0.3856,0.30697 0.2417,0.68199 -0.4042,1.05331 0.2992,0.78031 1.2085,-0.46893 0.8003,-1.09962 0.7969,-1.12243 -0.1698,-1.12243 -0.825,0 -0.8936,-0.1114 -0.4201,-0.68199 0.3112,-0.37521 0.7622,-0.68198 1.0022,-0.68198 0.6986,0 4.4539,3.23789 4.4539,3.84014 0,0.30148 -0.5137,1.03068 -1.1415,1.62036 l -1.1416,1.07241 1.0861,1.16665 c 2.2888,2.45883 2.6203,4.06259 1.145,5.53795 z m -2.4487,-10.0548 c -0.6866,0 -1.1365,0.25939 -1.1365,0.65511 0,0.86075 0.651,1.23421 1.5503,0.88905 1.1528,-0.4424 0.8577,-1.54416 -0.4138,-1.54416 z m 0.7956,-5.46122 c -5.6458,-0.0177 -7.1342,-1.17265 -3.5437,-2.76101 2.2868,-1.01141 3.5636,-2.10626 3.1803,-2.72672 -0.1415,-0.22985 -1.7127,-0.41801 -3.4901,-0.41801 -3.7832,0 -3.8055,-0.37042 -0.053,-0.88814 1.9813,-0.27338 2.9746,-0.20424 3.907,0.27248 1.7194,0.87877 1.5678,1.7687 -0.5511,3.23436 -1.8064,1.24957 -2.3301,2.03216 -1.2677,1.89407 2.0117,-0.26117 3.9785,0.0937 3.9785,0.71593 0,0.51136 -0.5408,0.68076 -2.1597,0.67704 z m 1.5066,-21.9948 c -0.3591,0.13792 -1.6379,0.28485 -2.8417,0.32658 -1.676,0.0584 -2.1884,-0.0831 -2.1884,-0.60578 0,-0.51843 0.682,-0.71611 2.8416,-0.82415 1.8403,-0.0921 2.8419,0.0336 2.8419,0.35523 0,0.27354 -0.2942,0.61019 -0.6534,0.74812 z m -0.073,-17.52131 c -0.4559,0.3784 -2.0167,0.61003 -4.2056,0.624 l -3.4809,0.023 0.161,-3.75102 c 0.1255,-2.92335 0.024,-3.75422 -0.4546,-3.76553 -0.5978,-0.0177 -0.2209,-0.38617 2.113,-2.08575 0.8983,-0.65423 0.8957,-0.6728 -0.2273,-1.54416 -1.464,-1.13623 -2.5759,-1.13376 -3.2882,0 -0.7188,1.15091 -1.2587,1.16488 -1.2587,0.0318 0,-2.53434 3.3414,-3.1021 5.2072,-0.8848 0.6577,0.78171 1.319,1.29785 1.4696,1.14721 0.4982,-0.49793 2.4126,-5.50843 2.4147,-6.31932 0,-0.43762 0.2131,-0.79568 0.4711,-0.79568 0.9596,0 0.9754,1.46247 0.041,3.713 -1.248,3.0031 -1.221,3.56185 0.1733,3.56185 1.4612,0 1.4345,0.45512 -0.1132,1.93192 -0.891,0.85013 -1.8381,1.23383 -3.2964,1.3355 -1.8666,0.1308 -2.0588,0.25514 -2.1931,1.42675 -0.113,0.99283 0.071,1.34116 0.814,1.53549 0.5285,0.13792 1.2649,0.83917 1.6364,1.55759 0.792,1.53143 2.2069,1.71656 3.031,0.39696 0.3122,-0.50022 0.8256,-0.90939 1.1405,-0.90939 0.8206,0 0.7076,2.05005 -0.1521,2.76369 z m -4.8296,-7.84844 c -0.3262,0.32623 -0.3531,0.5379 -0.069,0.5379 0.6071,0 1.1447,-0.53771 0.8412,-0.84114 -0.1291,-0.12909 -0.4769,0 -0.7729,0.30324 z m -0.8107,5.08478 c -0.2502,0 -0.4548,0.40915 -0.4548,0.90937 0,0.50005 0.2046,0.9092 0.4548,0.9092 0.25,0 0.4546,-0.40915 0.4546,-0.9092 0,-0.50022 -0.2046,-0.90937 -0.4546,-0.90937 z m 5.4135,90.9351 c -0.2735,0 -0.6024,-0.40244 -0.7312,-0.89416 -0.3409,-1.30405 -1.8405,-1.62003 -2.9622,-0.62454 -0.5186,0.46027 -1.32,1.67925 -1.7809,2.70904 -1.2012,2.68357 -1.8848,3.1479 -3.5936,2.4401 -0.76,-0.31474 -1.5787,-0.93997 -1.8191,-1.38944 -0.5717,-1.06833 -0.5613,-2.69559 0.018,-2.69559 0.2501,0 0.4547,0.37749 0.4547,0.83882 0,1.01405 1.3746,2.34391 2.4228,2.34391 0.4179,0 0.7599,-0.26683 0.7599,-0.59305 0,-1.01282 2.6077,-4.76332 3.9015,-5.61098 1.2279,-0.80454 1.2335,-0.80276 2.5292,0.74936 1.3407,1.60585 1.67,2.72653 0.8015,2.72653 z m -0.1849,-76.8402 c -0.3906,0 -0.6819,-0.40968 -0.6819,-0.95871 0,-0.76297 -0.2089,-0.90901 -1.0231,-0.71559 -0.5627,0.13262 -2.1813,0.38158 -3.5966,0.55114 -2.0435,0.2449 -2.6228,0.49546 -2.8113,1.21616 -0.4846,1.85341 -1.2078,0.20883 -1.2078,-2.74668 0,-4.1991 0.7569,-5.26249 3.5242,-4.95057 1.1197,0.12552 2.575,0.62735 3.2341,1.11395 2.3066,1.70205 4.197,6.4903 2.5624,6.4903 z m -2.869,-4.9403 c -3.0779,-2.19167 -5.0875,-1.63575 -5.0875,1.40712 0,1.55582 0.1132,1.76235 0.7958,1.46122 0.4375,-0.19273 1.8697,-0.56547 3.1827,-0.82839 1.3128,-0.26293 2.387,-0.62469 2.387,-0.80381 0,-0.1793 -0.5752,-0.73557 -1.278,-1.23614 z m 1.9221,-29.16039 c -0.3959,0 -0.6388,-0.24294 -0.5399,-0.53999 0.2811,-0.84308 1.2597,-0.98294 1.2597,-0.18001 0,0.39607 -0.3239,0.72 -0.7198,0.72 z m -0.8714,102.30208 c -0.3751,0 -0.6821,-0.30679 -0.6821,-0.682 0,-0.37503 0.307,-0.68198 0.6821,-0.68198 0.3751,0 0.6821,0.30695 0.6821,0.68198 0,0.37521 -0.307,0.682 -0.6821,0.682 z m -5.0649,-54.42192 c -0.4243,0.42436 -1.0733,-0.0884 -1.0733,-0.84802 0,-0.36035 0.307,-0.65511 0.682,-0.65511 0.6848,0 0.9347,0.95976 0.3913,1.50313 z m -3.1388,-45.30904 c -0.3861,0.14854 -0.8205,0.1503 -0.9657,0 -0.4586,-0.45867 0.2449,-1.66703 0.971,-1.66703 0.9076,0 0.9033,1.31305 0,1.66173 z m -0.2078,70.85913 c -0.3488,0.81197 -0.3942,0.77819 -0.4228,-0.31419 -0.018,-0.67298 0.1733,-1.35002 0.4228,-1.50456 0.5428,-0.33541 0.5428,0.55557 0,1.81875 z m -12.8173,83.37596 c -0.5776,0.21765 -1.7153,0.54052 -2.5281,0.71733 -0.8127,0.17683 -1.4776,0.59005 -1.4776,0.91858 0,0.89683 -1.2482,1.19742 -1.5633,0.37663 -0.2456,-0.64009 -0.365,-0.63318 -1.1364,0.0655 -0.6748,0.61074 -1.0615,0.67351 -1.7794,0.28928 -1.2711,-0.68023 -2.1529,-0.61409 -2.9914,0.22421 -1.0078,1.00804 -2.3398,0.64804 -2.1674,-0.58563 0.076,-0.54158 -0.1885,-2.56387 -0.5872,-4.49402 -0.4602,-2.22738 -0.5664,-3.66774 -0.2909,-3.94305 0.6388,-0.63902 1.4225,0.0248 1.4225,1.2059 0,0.56582 0.3261,1.98602 0.7246,3.15586 0.6692,1.96393 0.8413,2.12713 2.2438,2.12713 0.8355,0 2.0505,-0.20211 2.7001,-0.44913 1.1628,-0.44203 1.1695,-0.47086 0.4432,-1.87515 -0.6542,-1.26513 -0.6608,-1.50296 -0.058,-2.10555 0.9558,-0.95554 1.546,-0.41324 1.9127,1.75722 l 0.3158,1.8695 2.641,-0.29865 c 2.7819,-0.31473 4.102,0.31881 2.1763,1.04464 z m -1.799,-25.69687 c -4.5092,0.47123 -6.2988,0.37362 -6.2988,-0.34373 0,-0.45637 0.9307,-0.72779 3.2964,-0.96102 1.8131,-0.17876 3.4545,-0.41905 3.6477,-0.53417 0.5416,-0.32198 -1.4861,-3.63203 -3.1555,-5.15106 -0.821,-0.74707 -1.8197,-1.99046 -2.219,-2.76297 -0.6765,-1.30828 -0.6696,-1.47184 0.1024,-2.38634 1.7864,-2.11598 2.8703,-2.19273 4.7284,-0.33454 1.5014,1.50135 1.6943,2.97001 0.5553,4.2286 -0.734,0.8109 -0.6987,0.99214 0.6819,3.50349 2.1652,3.93863 2.0382,4.38864 -1.3388,4.74174 z m -1.5416,-12.07457 c -1.3052,-0.59482 -2.2937,0.0531 -2.5617,1.67817 -0.1291,0.78331 0.066,0.88462 1.4419,0.75007 2.4156,-0.23623 3.0259,-1.55972 1.1198,-2.42824 z m 3.4383,-96.75563 c -0.2439,0 -0.3356,-0.56263 -0.204,-1.25047 0.1767,-0.9221 -0.1898,-1.93015 -1.3952,-3.84031 -2.754,-4.36388 -4.6103,-3.93279 -5.7077,1.3249 -0.6432,3.08335 -1.6521,4.67526 -2.9626,4.67526 -0.5916,0 -0.653,0.35928 -0.3677,2.15966 0.4782,3.02111 0.4653,3.94358 -0.058,4.20579 -0.3845,0.19222 -1.4826,-6.62838 -1.7499,-10.86796 -0.122,-1.94801 1.0233,-1.61877 1.3441,0.38616 0.5726,3.58235 1.7312,2.94846 2.7465,-1.50294 1.021,-4.47563 3.3378,-5.99362 5.8232,-3.81522 1.8394,1.6124 3.8928,8.52513 2.5321,8.52513 z m -1.3541,116.14943 c -0.9967,0.95482 -1.905,1.33357 -3.5239,1.46919 -1.1995,0.10086 -2.4629,0 -2.8074,-0.24119 -1.1006,-0.74475 -0.069,-1.43506 2.1435,-1.43506 1.9621,0 4.1665,-0.92229 4.1665,-1.74307 0,-0.18017 -0.6273,-1.01441 -1.394,-1.85395 -1.0333,-1.13111 -1.261,-1.65767 -0.8804,-2.03359 0.3797,-0.37485 0.9222,-0.0636 2.0761,1.19087 1.9121,2.07851 1.9549,2.98417 0.2196,4.6468 z m 0.9863,-25.91647 c -1.3774,1.38679 -7.6727,2.29123 -7.2616,1.04323 0.1024,-0.31261 0.6825,-0.62559 1.2881,-0.69561 2.0087,-0.23215 3.1472,-0.56776 3.1472,-0.9274 0,-0.19557 -0.9207,-0.80277 -2.046,-1.34949 -1.1254,-0.54672 -2.0461,-1.26072 -2.0461,-1.58641 0,-0.32588 1.0231,-1.18999 2.2734,-1.92025 1.2505,-0.73026 2.2733,-1.46406 2.2733,-1.63081 0,-0.36741 -3.5969,-1.93102 -6.2369,-2.7115 -1.0546,-0.31173 -1.8097,-0.74105 -1.6782,-0.95393 0.3067,-0.49634 2.2373,-0.50005 3.2609,0 4.8301,2.3294 6.2217,3.11095 6.3647,3.57421 0.091,0.29969 -0.8644,1.22039 -2.1268,2.04596 -1.2624,0.82574 -2.2991,1.61346 -2.3035,1.75086 0,0.13792 0.7591,0.52444 1.697,0.86039 2.0568,0.73681 3.8427,2.05571 3.3945,2.50711 z m -1.8032,-28.7544 c -2.99,1.013 -7.5641,1.80001 -8.4613,1.45575 -1.4527,-0.55751 -0.7091,-0.97658 2.2757,-1.28247 3.2481,-0.33278 4.7152,-0.88392 4.6956,-1.76429 -0.02,-0.84344 -3.0735,-3.94801 -4.3694,-4.4408 -1.9348,-0.73556 -0.9837,-1.38909 2.1883,-1.50366 1.6594,-0.0601 3.299,-0.34286 3.6435,-0.62877 0.7388,-0.61302 1.9987,0 1.5374,0.74016 -0.1715,0.27725 -1.0902,0.62877 -2.0417,0.78083 -2.9792,0.47652 -3.0918,0.78295 -1.1293,3.07717 1.1119,1.30016 2.1568,2.08045 2.7977,2.08983 1.6822,0.0247 1.1646,0.69666 -1.1365,1.47625 z m 1.1864,-33.99265 c -0.9192,1.16859 -1.1774,1.24392 -3.6514,1.06497 -3.6708,-0.26557 -6.4177,-2.35504 -5.6232,-4.27759 0.311,-0.75289 0.43,-0.67952 0.975,0.60066 0.7769,1.82512 1.8431,2.40668 4.4132,2.40668 3.5761,0 3.9586,-2.03678 0.9605,-5.11519 -1.1618,-1.19282 -2.0549,-1.70507 -2.9729,-1.70507 -1.7079,0 -1.6507,-0.51276 0.1521,-1.36397 0.7944,-0.37521 1.524,-0.94033 1.6213,-1.25612 0.227,-0.73609 -2.7633,-3.74537 -3.722,-3.74537 -0.3999,0 -0.7274,-0.28132 -0.7274,-0.62522 0,-0.63815 1.8831,-1.19354 4.0478,-1.19354 0.6634,0 1.6612,-0.31861 2.2175,-0.70833 1.1514,-0.80664 1.9189,-0.53328 1.9189,0.68359 0,0.63565 -0.4786,0.90265 -2.0354,1.13623 -2.462,0.3692 -2.7886,0.77146 -1.5391,1.8969 0.523,0.47105 1.1268,1.31678 1.3421,1.87941 0.2898,0.75766 0.758,1.02307 1.8043,1.02307 1.8133,0 1.571,1.07735 -0.289,1.2853 -1.9166,0.21448 -2.389,0.86499 -1.2219,1.68243 1.161,0.81318 2.6111,2.78984 3.0241,4.12199 0.1955,0.63054 -0.039,1.37584 -0.6943,2.20917 z m -0.3908,97.09529 c -1.2023,1.20237 -3.2124,1.15303 -4.6883,-0.11498 -1.1136,-0.95694 -1.1556,-1.1297 -0.6355,-2.61443 0.8056,-2.29918 1.1651,-2.72655 2.2939,-2.72655 1.3114,0 3.9393,2.40932 3.9393,3.61187 0,0.51419 -0.4093,1.34418 -0.9094,1.84423 z m -2.3985,-3.70434 c -1.1887,-0.6362 -1.8932,0.12024 -1.5151,1.62513 0.2309,0.91999 0.5748,1.16983 1.611,1.16983 2.1344,0 2.0783,-1.63133 -0.096,-2.79496 z m 2.744,-137.31797 c -0.7842,0.78419 -1.2548,0.64096 -1.2548,-0.38194 0,-0.50021 0.2948,-0.90937 0.6551,-0.90937 0.9178,0 1.2266,0.66448 0.5997,1.29131 z m -0.4837,56.25393 c -0.7819,0.30006 -7.0103,-0.43285 -7.4547,-0.8772 -0.5016,-0.50165 0.391,-1.09292 2.05,-1.35833 0.9637,-0.15382 2.1106,-0.67615 2.5485,-1.16011 0.7614,-0.84129 0.7561,-0.90177 -0.1202,-1.37105 -0.5045,-0.26982 -1.5565,-0.49084 -2.3379,-0.49084 -0.8314,0 -1.3042,-0.18849 -1.1397,-0.45461 0.3594,-0.58172 2.5521,-0.58544 4.074,0 1.8969,0.72125 1.9641,1.7841 0.2053,3.24268 l -1.5514,1.28653 1.5913,0.0194 c 2.0357,0.0247 3.3065,0.72124 2.1353,1.1707 z m -3.3355,-32.20132 c -2.2157,0.26948 -4.1049,0.41518 -4.1983,0.32358 -0.5111,-0.50093 0.5334,-1.56962 1.5338,-1.56962 1.4355,0 1.9063,-1.06302 1.1207,-2.5308 -0.9965,-1.86226 -0.1956,-1.68826 1.147,0.24914 2.0271,2.92492 3.7642,2.17964 2.5239,-1.08267 -0.4799,-1.26212 -0.094,-1.79134 0.8728,-1.1944 0.3501,0.21644 0.7084,1.45521 0.8237,2.84873 l 0.2046,2.46573 -4.0282,0.49031 z m 1.8297,40.54431 c -1.5134,1.19035 -2.9983,1.59261 -4.4942,1.21723 -1.5671,-0.39342 -1.4301,-1.17745 0.206,-1.17745 1.6243,0 3.6589,-0.86605 3.6589,-1.55758 0,-0.2762 -1.023,-0.86571 -2.2735,-1.3097 -1.3201,-0.46893 -2.2733,-1.08567 -2.2733,-1.47078 0,-0.36478 0.073,-0.66324 0.1591,-0.66324 0.572,0 5.9464,3.08478 6.0816,3.49091 0.091,0.27585 -0.387,0.93768 -1.0646,1.47061 z m -0.6878,-91.43285 c -0.402,1.08691 -0.9356,1.22218 -2.1846,0.55363 -0.5439,-0.29105 -1.7806,-0.24225 -3.6809,0.14498 -2.2268,0.45424 -2.9429,0.80364 -3.2283,1.5751 -0.511,1.38149 -1.0185,1.23968 -1.8573,-0.51913 -0.6721,-1.40961 -0.6655,-1.54488 0.099,-2.02245 0.4681,-0.29247 0.9589,-1.35071 1.1446,-2.46786 0.9949,-5.9869 4.3518,-6.44292 8.0876,-1.09858 1.5593,2.23038 1.9078,3.05543 1.6197,3.83396 z m -2.8408,-3.61152 c -0.5784,-0.65652 -1.6081,-1.5583 -2.2884,-2.00405 -1.1989,-0.78543 -1.2652,-0.78172 -2.1667,0.12025 -0.5641,0.56404 -1.0253,1.77525 -1.1721,3.07734 l -0.242,2.14729 1.3151,-0.24701 c 0.7233,-0.13615 2.132,-0.38176 3.1304,-0.54639 2.906,-0.47898 3.0379,-0.71504 1.4237,-2.54689 z m 1.3709,-13.58338 c -0.3989,0 -0.5485,-0.36813 -0.421,-1.0358 0.2672,-1.39758 -1.4291,-2.9877 -2.4801,-2.32481 -0.4063,0.25639 -0.9569,1.11077 -1.2237,1.89869 -0.2667,0.7879 -0.8228,1.76959 -1.2357,2.18158 -0.697,0.6956 -0.8474,0.69172 -2.1093,-0.0531 -1.4551,-0.85952 -2.7049,-3.68083 -2.2063,-4.98045 0.3813,-0.99337 1.1759,-0.4599 0.8982,0.60278 -0.1274,0.48961 0.2864,1.43399 1.0032,2.28608 1.4409,1.71232 2.0642,1.43329 2.88,-1.28953 0.9018,-3.00998 3.0204,-3.37016 4.8084,-0.81762 0.8809,1.2579 0.9367,3.53285 0.087,3.53285 z m 0.1149,-10.60043 c -0.3607,0.29652 -1.682,0.67526 -2.9361,0.84164 -4.1212,0.54655 -7.2447,-1.64776 -6.9355,-4.87241 0.2197,-2.28785 1.5499,-2.19767 3.9707,0.26913 1.6372,1.6681 2.1552,1.95862 2.8395,1.59243 1.793,-0.9596 0.4122,-5.25327 -2.2246,-6.91768 -1.0004,-0.63159 -0.6328,-1.21244 1.2429,-1.96287 2.3536,-0.94172 2.4525,-2.22931 0.2419,-3.15283 -0.8673,-0.36248 -2.3116,-0.65884 -3.2096,-0.65884 -1.0943,0 -1.5285,-0.16974 -1.3164,-0.51189 0.3964,-0.64149 4.7117,-0.25143 5.9798,0.54053 1.2209,0.76245 1.9808,2.0686 1.6718,2.87366 -0.1396,0.36566 -1.0066,1.01495 -1.925,1.44302 -0.9183,0.42808 -1.7454,0.84326 -1.8376,0.92282 -0.092,0.0796 0.5912,1.02378 1.5188,2.09865 1.5979,1.85147 1.6726,2.0778 1.4178,4.31084 -0.2618,2.29317 -0.2363,2.36071 0.9444,2.50074 1.0081,0.12025 1.1024,0.235 0.5572,0.68306 z m -5.9509,-2.44983 c -1.6311,-1.68259 -2.3984,-1.87285 -2.8465,-0.70497 -0.3927,1.02307 1.6482,2.84288 3.1882,2.84288 1.4572,0 1.4033,-0.33754 -0.3417,-2.13791 z m 5.2043,20.04114 c -0.8688,0.25339 -3.2445,0.40244 -5.2558,0.32994 -1.8478,-0.0672 -1.1174,-0.78524 1.1536,-1.13517 1.0683,-0.16444 2.6073,-0.41889 3.4199,-0.56494 1.144,-0.20581 1.4779,-0.10779 1.4779,0.43622 0,0.38599 -0.358,0.80629 -0.7956,0.93395 z m -0.4549,-37.8618 c -1.9228,0.73681 -4.6236,0.66326 -7.5235,-0.2051 -4.1116,-1.23101 -4.0947,-3.04924 0.043,-4.47881 1.281,-0.44294 2.6215,-0.69295 2.9788,-0.55574 0.3574,0.13792 0.9093,1.17549 1.2261,2.3073 l 0.5763,2.05799 1.9753,-0.29618 c 2.2685,-0.34018 2.7285,0.40263 0.7252,1.17054 z m -6.4101,-3.50594 c -3.5127,0.48147 -3.7362,1.85199 -0.3907,2.395 2.321,0.37662 2.9848,0.0194 2.7031,-1.45415 -0.2241,-1.17179 -0.3255,-1.21316 -2.3124,-0.94085 z m 5.7282,-7.24479 c -0.3126,0.099 -1.7575,0.31368 -3.2109,0.4767 -2.6917,0.302 -3.6914,1.11944 -2.6466,2.16425 0.7089,0.70887 0.647,1.69729 -0.1057,1.69729 -0.3531,0 -1.0482,-1.22606 -1.6112,-2.84183 -0.5446,-1.56289 -1.2849,-3.50667 -1.6449,-4.31933 -0.3602,-0.81283 -0.5047,-1.4713 -0.3213,-1.46334 0.3764,0.0177 2.8344,3.92838 2.8344,4.51135 0,0.20777 0.7594,-0.0177 1.6875,-0.48272 1.7914,-0.91326 5.5873,-1.1792 5.5873,-0.3913 0,0.25781 -0.2557,0.54992 -0.5683,0.64893 z m -1.318,-19.6921 c -0.7906,0.79055 -1.2444,0.88639 -2.8242,0.59641 -1.0352,-0.19009 -2.3556,-0.33578 -2.9341,-0.32376 -1.3822,0.0283 -1.9957,-1.55936 -1.4151,-3.66244 0.4955,-1.79471 1.0747,-2.39501 2.6968,-2.79532 1.4326,-0.35346 4.2294,1.83202 4.9351,3.85676 0.4127,1.18362 0.3456,1.52435 -0.4585,2.32835 z m -2.347,-4.08344 c -1.5075,-1.40996 -3.0618,-1.16808 -3.6368,0.56615 -0.521,1.57104 0.1698,2.2739 2.6996,2.74866 3.0207,0.5667 3.453,-0.96207 0.9372,-3.31481 z m 1.7325,-14.17573 c -0.8133,0.37326 -2.6028,0.58951 -4.433,0.53594 -3.4014,-0.099 -3.3382,-0.17504 -2.7704,3.26141 l 0.2886,1.74662 2.0933,-0.28113 c 1.1514,-0.15562 2.8852,-0.40015 3.853,-0.5455 1.328,-0.19945 1.7108,-0.1184 1.5615,0.32836 -0.2184,0.65565 -1.8089,1.20413 -4.9123,1.69373 -1.9906,0.31404 -2.0487,0.37009 -2.1428,2.0695 -0.09,1.63646 -0.9061,3.30279 -1.3828,2.82608 -0.1167,-0.11668 -0.2996,-2.19466 -0.405,-4.61638 -0.1058,-2.4217 -0.4013,-4.79373 -0.6567,-5.27113 -0.2556,-0.47741 -0.3371,-1.26938 -0.1813,-1.76005 0.2244,-0.70745 0.6953,-0.89224 2.2716,-0.89224 2.3617,0 2.781,-0.48995 2.0109,-2.3492 -0.3999,-0.96543 -1.1903,-1.64936 -2.6089,-2.25745 -1.1193,-0.4797 -1.8869,-1.02059 -1.7056,-1.20183 0.1812,-0.18142 1.6761,-0.34886 3.3219,-0.37238 2.4661,-0.0353 3.1292,-0.21183 3.7704,-1.00379 0.4279,-0.52852 0.9059,-0.83317 1.0618,-0.67704 0.3998,0.39979 0.3544,1.95048 -0.056,1.9526 -0.1874,9e-4 -1.0003,0.40369 -1.806,0.89506 l -1.4652,0.89328 0.824,1.94678 c 0.7585,1.79241 0.9828,1.96675 2.8291,2.19979 l 2.0051,0.25303 -1.3639,0.62594 z m 0.4548,-28.64 c -0.7128,0.59145 -0.8307,0.3966 -0.71,-1.17248 0.041,-0.51984 -0.3231,-1.43383 -0.8069,-2.03129 -0.7547,-0.93202 -0.9839,-0.99973 -1.6137,-0.47688 -0.4039,0.33507 -0.7341,1.06392 -0.7341,1.61982 0,1.16772 -1.308,2.51543 -2.4413,2.51543 -1.0223,0 -3.4696,-1.82424 -3.4696,-2.58615 0,-0.85456 0.3716,-0.7474 1.9176,0.55363 1.6794,1.41295 2.3178,1.022 3.0446,-1.86456 0.5864,-2.3287 1.4116,-2.86092 3.0641,-1.97648 2.0871,1.11697 3.111,4.28892 1.7493,5.41896 z m -1.2505,16.54137 c -1.325,0.84042 -4.4839,1.3157 -5.2825,0.7948 -0.5029,-0.32835 -0.436,-0.59181 0.3516,-1.37936 0.7315,-0.73132 0.8657,-1.17478 0.54,-1.78322 -0.5052,-0.94402 0.078,-2.15824 0.8164,-1.70152 0.2781,0.17151 0.5055,0.6705 0.5055,1.10813 0,0.43763 0.2582,1.14861 0.5737,1.58022 0.5038,0.68906 0.6812,0.70603 1.4563,0.13968 0.7752,-0.56687 0.8212,-0.84572 0.3785,-2.28856 -0.6316,-2.05816 0.043,-2.58861 0.9822,-0.77216 1.0057,1.94482 0.8869,3.5362 -0.3217,4.30251 z m -0.5764,-10.43318 c -0.3888,0.73381 -0.6061,1.59686 -0.4829,1.91778 0.3064,0.79869 -0.5091,1.22765 -2.8705,1.51039 -1.9117,0.2288 -2.0237,0.3271 -2.6075,2.2852 -0.3355,1.12527 -0.613,2.59534 -0.6169,3.26673 -0.018,1.73139 -0.8618,3.79097 -1.3594,3.28633 -0.3581,-0.36265 0.3758,-5.55599 1.1134,-7.8799 0.1663,-0.52285 -0.1733,-0.90268 -1.1257,-1.26232 -1.4648,-0.55291 -1.701,-1.4644 -0.9153,-3.53107 0.6619,-1.74078 1.6322,-1.86684 3.6432,-0.47333 1.2975,0.89929 2.109,1.16347 2.9362,0.9557 1.3345,-0.33489 1.9281,-2.01468 1.1956,-3.38342 -0.8122,-1.51764 -0.5931,-2.1945 0.3873,-1.19635 1.264,1.28704 1.524,2.9541 0.7025,4.50426 z m -5.9352,0.15915 c -0.9466,-0.43127 -1.2482,-0.40775 -1.584,0.12381 -0.6519,1.03138 -0.2511,1.5537 1.3106,1.70807 1.8186,0.17946 2.0012,-1.0443 0.2734,-1.83148 z m -3.2637,-14.74684 c -2.3453,-0.32658 -2.8419,-0.511 -2.8419,-1.05509 0,-0.59251 1.8524,-0.60648 3.3806,-0.0247 1.7517,0.66607 1.4097,1.35213 -0.5387,1.08053 z m -6.0054,313.78211 c -0.7322,0.4525 -12.2953,0.18885 -12.2953,-0.28042 0,-0.53399 1.6854,-2.12448 5.1273,-4.83794 1.4446,-1.13888 2.5488,-2.29192 2.4537,-2.56227 -0.1101,-0.30961 -1.5452,-0.45443 -3.8771,-0.39112 -2.8911,0.0777 -3.7039,-0.0371 -3.7039,-0.52568 0,-1.17195 5.6355,-1.42922 9.2071,-0.4203 1.4144,0.39943 0.8598,1.3799 -2.4784,4.37979 l -3.2737,2.94226 3.4969,0.0672 c 4.2521,0.0831 6.6582,0.81531 5.3434,1.62796 z m -1.8323,-45.91392 c -0.247,0.15206 -1.935,-0.42189 -3.7511,-1.27682 -1.8161,-0.85491 -4.3762,-1.82494 -5.6891,-2.15541 -3.3012,-0.83105 -3.118,-1.40093 0.9318,-2.89769 1.2003,-0.44346 2.115,-0.93909 2.0325,-1.10123 -1.1475,-2.25797 -2.6232,-5.77189 -2.6232,-6.2463 0,-0.33506 -0.4092,-0.8284 -0.9094,-1.09609 -1.4301,-0.76527 -1.0709,-1.76129 0.9226,-2.55911 1.0076,-0.40313 2.0324,-1.1074 2.2775,-1.56518 0.3812,-0.71241 0.1993,-0.90143 -1.2637,-1.31324 -0.94,-0.2647 -2.4808,-0.6086 -3.4241,-0.7642 -0.9434,-0.1556 -1.825,-0.46079 -1.9592,-0.67811 -0.5973,-0.96613 6.1512,0.0955 7.9034,1.24446 l 1.0997,0.72052 -1.6414,1.68103 c -0.9027,0.9244 -1.6414,1.80778 -1.6414,1.96267 0,0.15562 0.8695,0.41712 1.9324,0.58246 2.6956,0.41923 3.5236,0.68799 3.5236,1.14347 0,0.75326 -1.7908,0.95411 -3.6201,0.40598 -1.013,-0.30341 -1.97,-0.42348 -2.1266,-0.26681 -0.1574,0.15737 0.2539,1.42267 0.9122,2.81334 0.6584,1.39068 1.1972,2.71542 1.1972,2.94386 0,0.98434 1.0749,0.91309 2.969,-0.1968 1.6066,-0.94155 2.0325,-1.04553 2.0325,-0.4965 0,0.3821 -0.8185,1.23632 -1.8188,1.89831 -1.4217,0.94087 -1.8187,1.48918 -1.8187,2.51207 0,1.13448 0.333,1.47184 2.5007,2.53505 2.4982,1.22517 2.8974,1.64759 2.0517,2.17027 z m -6.1736,-5.67994 c -0.1415,0 -0.6806,0.2265 -1.1981,0.50358 -0.7547,0.40385 -0.8163,0.58244 -0.3111,0.9023 1.0498,0.66484 1.7664,0.46344 1.7664,-0.49651 0,-0.50022 -0.115,-0.90937 -0.2572,-0.90937 z m 5.145,24.96093 c -0.5626,0.21395 -1.6202,0.56759 -2.3499,0.78596 -2.0269,0.60632 -1.9033,1.39988 0.3855,2.47564 1.1429,0.53736 2.0781,1.24198 2.0781,1.56608 0,0.76191 -3.7522,2.03871 -5.9918,2.03871 -0.9558,0 -1.7378,0.13616 -1.7378,0.30379 0,1.86773 1.1256,6.04737 1.6867,6.26256 0.712,0.27336 0.6923,-0.22121 -0.1115,-2.8153 -0.2429,-0.7835 -0.1361,-1.02291 0.4545,-1.02291 0.4781,0 1.0436,0.69189 1.4861,1.81858 0.3929,1.00026 0.8562,1.81876 1.0296,1.81876 0.5347,0 1.7176,-1.54416 1.8869,-2.46308 0.2854,-1.54805 1.2973,-1.3829 1.2973,0.21182 0,2.13067 -2.7895,4.71699 -4.68,4.33878 -0.7393,-0.14853 -1.9107,-0.26877 -2.603,-0.26877 -1.3198,0 -2.1787,-1.17761 -1.4157,-1.94075 0.2582,-0.25816 0.2641,-0.98489 0.018,-1.85341 -0.2254,-0.78579 -0.4096,-2.30467 -0.4096,-3.37529 0,-1.65626 0.1696,-2.01096 1.1326,-2.37734 0.6229,-0.23675 1.3902,-0.33507 1.7051,-0.21819 0.3147,0.1167 1.1861,0.0337 1.9363,-0.18618 l 1.364,-0.39856 -1.705,-0.7421 c -0.938,-0.40809 -1.7051,-1.03015 -1.7051,-1.38255 0,-0.35222 0.8538,-1.37124 1.8972,-2.26452 1.0436,-0.89311 1.8108,-1.70735 1.7051,-1.80937 -0.1057,-0.10262 -1.7776,-0.66608 -3.7149,-1.25331 -3.8075,-1.15373 -4.6382,-2.07372 -1.6431,-1.81926 1.968,0.16797 3.9496,0.86021 7.0981,2.48252 2.1924,1.1297 2.3681,1.53302 0.9094,2.08769 z m -1.4782,-108.36446 c -0.964,0.40281 -3.0921,0.82822 -4.7288,0.94546 -1.6367,0.11668 -3.0744,0.31154 -3.1947,0.43195 -0.1203,0.12025 0.049,0.87632 0.378,1.67943 0.7614,1.8626 0.8446,2.7803 0.2712,2.993 -0.911,0.33791 -2.5089,-5.44777 -2.4327,-8.8075 0.1046,-4.63033 0.4824,-5.41242 2.9857,-6.1897 1.1589,-0.36 2.1743,-0.85527 2.2561,-1.10087 0.081,-0.24561 -0.9909,-1.35585 -2.3837,-2.46733 -2.4232,-1.93352 -2.4871,-2.03819 -1.4791,-2.41907 1.6691,-0.6307 9.4651,-0.99477 9.4651,-0.44204 0,0.70604 -1.1671,1.02396 -3.7882,1.03175 -3.4792,0.0177 -3.9392,0.50304 -2.0705,2.21642 0.8467,0.77622 2.0509,1.53123 2.676,1.67799 1.9835,0.46539 2.2733,0.60562 2.2733,1.10017 0,0.26577 -0.358,0.61002 -0.7956,0.76527 -0.4377,0.15561 -1.1662,0.60101 -1.6192,0.99071 -0.6766,0.58227 -0.8907,0.59978 -1.2004,0.099 -0.4594,-0.74317 -3.3078,-0.32252 -4.2593,0.62912 -0.727,0.72691 -1.3782,5.26866 -0.8336,5.81326 0.7664,0.76615 4.851,0.8581 7.1073,0.15914 2.8517,-0.88268 3.9357,-0.17699 1.3731,0.89382 z m -1.0057,-19.9193 c -1.1971,0.50851 -3.2279,1.06443 -4.5128,1.2356 -2.0693,0.27548 -2.4146,0.19945 -3.0211,-0.66643 -0.9509,-1.35779 -0.3776,-3.36379 1.0195,-3.56696 0.703,-0.10251 1.3982,0.24278 2.0742,1.02979 1.1076,1.28883 2.4909,1.19175 2.4909,-0.17505 0,-1.45291 -0.9757,-3.61629 -1.7429,-3.86472 -1.0064,-0.32569 -2.8038,-3.01634 -2.8038,-4.1975 0,-1.257 1.0253,-2.03553 2.7909,-2.11881 1.1961,-0.0566 1.6094,0.19767 2.3477,1.44337 0.7763,1.31021 0.8259,1.74519 0.3716,3.26124 -0.4025,1.34312 -0.3936,2.2371 0.037,3.85004 0.4918,1.83891 0.7006,2.08434 1.6731,1.96764 1.9578,-0.23463 1.5226,0.84696 -0.7252,1.8016 z m -3.5804,-11.1638 c -0.5221,-0.0743 -1.2042,0.17152 -1.5159,0.54725 -0.4591,0.55309 -0.4113,0.94581 0.2516,2.0679 0.9779,1.65556 1.2356,1.70471 1.8946,0.36212 0.7432,-1.51393 0.4665,-2.82061 -0.6303,-2.97727 z m -2.5125,9.71565 c -0.6268,0.3874 -0.4741,1.55953 0.2033,1.55953 0.3333,0 0.7408,-0.13437 0.9053,-0.29917 0.4112,-0.41128 -0.6078,-1.5698 -1.1086,-1.26036 z m 6.5418,-21.08685 c -0.4436,0.38671 -1.4205,0.90037 -2.1708,1.14136 -1.7776,0.57113 -1.7219,1.19548 0.2242,2.50695 1.7479,1.17794 2.1979,2.31066 1.3323,3.3537 -0.537,0.64698 -1.5898,0.62012 -4.1709,-0.10614 -1.5045,-0.42349 -0.85,-1.1999 0.7874,-0.93414 2.2662,0.36779 2.4913,-0.50499 0.5353,-2.07427 -0.915,-0.73396 -1.6636,-1.59329 -1.6636,-1.90928 0,-0.31615 0.9207,-1.0632 2.0459,-1.66014 1.1254,-0.59711 2.0462,-1.23401 2.0462,-1.41561 0,-0.6003 -2.4771,-1.62409 -4.7802,-1.97541 -2.1455,-0.32748 -2.1957,-0.36566 -0.9325,-0.7094 1.66,-0.45177 4.5881,0.17505 6.1023,1.30509 1.493,1.11449 1.6253,1.62302 0.6444,2.47777 z m -0.4658,95.10519 c -2.5436,0.72462 -6.2494,1.24074 -7.1982,1.00257 -1.9608,-0.49209 -1.1681,-1.03792 1.8603,-1.28105 1.6278,-0.13081 3.263,-0.48925 3.6336,-0.79675 0.5845,-0.48519 0.5214,-0.74016 -0.4778,-1.92784 -1.8087,-2.14941 -0.8471,-2.09726 1.1677,0.0636 2.0178,2.16372 2.1717,2.61002 1.0144,2.93961 z m 0.3412,-17.67034 c -0.2502,-0.15385 -0.4548,-0.67104 -0.4548,-1.14756 0,-0.47653 -0.4092,-1.08548 -0.9094,-1.35319 -1.3525,-0.7239 -2.5428,0.12024 -3.8731,2.7444 -1.3047,2.57465 -2.3247,2.8733 -3.0184,0.88338 -0.2635,-0.75553 -0.8666,-1.58111 -1.3405,-1.83467 -0.9508,-0.50887 -1.2146,-2.43637 -0.2932,-2.14198 0.3127,0.10086 1.0758,0.95518 1.6959,1.90063 l 1.1276,1.71867 0.6912,-1.04799 c 2.3943,-3.63115 4.4432,-4.55998 6.0767,-2.75501 0.8075,0.89221 1.0641,3.50683 0.298,3.03332 z m -0.7953,10.35414 c -0.4773,0.43196 -1.3,0.78542 -1.8282,0.78542 -0.5282,0 -1.0871,0.20511 -1.2421,0.45584 -0.1818,0.29422 -0.5688,0.30236 -1.0901,0.023 -0.4445,-0.23781 -1.2192,-0.32498 -1.7214,-0.19361 -0.7891,0.20635 -1.0218,-0.14853 -1.7135,-2.6139 -0.4403,-1.56891 -0.9027,-3.11908 -1.0277,-3.44479 -0.1256,-0.32587 -0.023,-0.59233 0.2267,-0.59233 0.2497,0 0.5924,0.56263 0.7614,1.25029 0.4684,1.9045 1.5317,3.29641 2.5184,3.29641 0.7462,0 0.8501,-0.23517 0.6532,-1.47767 -0.2079,-1.31269 -0.1681,-1.38272 0.3523,-0.62805 1.5966,2.31207 2.0589,2.70338 2.8402,2.40367 0.6754,-0.25922 0.7536,-0.64185 0.4901,-2.39889 -0.2352,-1.56909 -0.1733,-2.0435 0.2505,-1.90239 0.5737,0.19131 0.6755,0.4484 1.1369,2.87701 0.1917,1.00786 0.03,1.58359 -0.6067,2.15966 z m -0.5689,17.60845 c -0.856,0.85599 -2.235,1.16507 -4.3153,0.96738 -1.2386,-0.1184 -4.3235,-2.31207 -4.3235,-3.07523 0,-0.98381 1.3132,-0.72194 2.4317,0.48501 1.4108,1.52207 3.0718,1.85678 4.7941,0.96615 1.6177,-0.83653 1.6765,-1.03845 0.7052,-2.42489 -0.9761,-1.39369 -2.2051,-1.35461 -1.8505,0.0584 0.1468,0.58792 0.1398,1.19865 -0.02,1.3569 -0.5478,0.54779 -1.3423,-1.16099 -1.1499,-2.4728 0.2519,-1.71603 1.6294,-1.75527 3.3618,-0.0955 1.5001,1.43736 1.6324,2.96772 0.3658,4.23445 z m 0.2876,-42.78971 c -0.4682,0.38864 -0.7422,0.37062 -1.1105,-0.0724 -0.6523,-0.78596 0.074,-1.90558 1.0043,-1.54859 0.8921,0.34233 0.9309,0.93732 0.1057,1.62179 z m -2.0284,-80.27065 c -2.055,1.8596 -5.5341,0.0689 -5.5341,-2.8475 0,-3.14684 2.4548,-4.15665 4.9667,-2.04313 1.6474,1.38626 1.9126,3.67305 0.5674,4.89063 z m -2.036,-4.4217 c -0.9792,-0.73098 -1.3035,-0.78262 -1.8857,-0.29937 -1.4902,1.23668 -0.2478,4.10944 1.7773,4.10944 2.283,0 2.3439,-2.14092 0.1079,-3.81007 z m 1.7738,-5.49712 c -0.8425,0.55203 -1.4429,0.61764 -2.6144,0.28539 l -1.5207,-0.43126 1.5167,-0.33949 c 2.1376,-0.47866 2.3462,-1.48581 0.6084,-2.93661 -2.0406,-1.70347 -1.8599,-2.07072 0.603,-1.22553 0.8509,0.29211 2.5006,2.61656 2.5006,3.52347 0,0.22402 -0.4921,0.7299 -1.0936,1.12403 z m 0.2111,-43.88988 c -0.2353,0 -0.5607,-0.2152 -0.7233,-0.47813 -0.4156,-0.67244 -6.527,-0.0512 -7.8812,0.80046 -0.9478,0.59641 -1.1551,0.59712 -1.7459,0 -0.5907,-0.59075 -0.5845,-0.83634 0.053,-2.06824 0.3976,-0.76899 0.7236,-1.76624 0.7245,-2.21625 9e-4,-0.45017 0.4073,-1.48334 0.9027,-2.29599 1.1403,-1.87004 2.4491,-1.91388 4.866,-0.16266 2.4221,1.75456 5.1862,6.41497 3.8046,6.41497 z m -3.746,-4.73874 c -2.0717,-1.77332 -2.5619,-1.91565 -3.6453,-1.05844 -0.8627,0.6827 -1.4939,3.78904 -0.8507,4.18652 0.6003,0.37097 6.3966,-0.65175 6.3966,-1.12863 0,-0.20492 -0.8554,-1.10476 -1.9006,-1.99945 z m 3.4161,37.1722 c -0.1663,0.16621 -0.7295,0.30997 -1.2503,0.31827 -0.5211,0 -1.4318,0.41888 -2.0242,0.91238 -0.9807,0.81673 -1.0261,1.02024 -0.5072,2.27284 0.3134,0.7566 0.4488,1.49658 0.3008,1.64458 -0.6155,0.61568 -1.5576,-0.32517 -1.7957,-1.79384 -0.1415,-0.86622 -0.6818,-2.45705 -1.2028,-3.53511 -1.0588,-2.19131 -1.1525,-2.69861 -0.4984,-2.69861 0.2466,0 0.7477,0.71611 1.1136,1.59137 0.7399,1.77101 1.0478,1.89318 2.3294,0.9237 1.4962,-1.13164 4.7008,-0.80135 3.5348,0.36442 z m -0.6859,-44.27836 c -0.5439,0.50676 -1.7204,1.03792 -2.6144,1.18043 -0.8939,0.14323 -2.0803,0.3524 -2.6362,0.4661 -0.8113,0.16621 -1.1931,-0.1503 -1.9324,-1.5995 -0.9567,-1.87516 -1.2757,-4.84306 -0.4669,-4.3432 0.2502,0.15385 0.4613,0.72938 0.4693,1.27717 0.02,1.39369 1.1228,2.69949 2.1109,2.49968 0.8534,-0.17328 1.0105,-1.28635 0.3881,-2.75377 -0.2354,-0.55521 -0.1308,-0.79569 0.3481,-0.79569 0.417,0 0.8431,0.66643 1.088,1.70188 0.6665,2.81831 3.3253,2.27547 3.3253,-0.67898 0,-0.60189 0.2002,-0.95271 0.4545,-0.79551 0.8221,0.50801 0.4914,2.88568 -0.5343,3.84139 z m -0.033,16.59795 c -1.4826,0.46379 -9.3748,0.71311 -9.6275,0.30413 -0.4676,-0.75679 0.389,-0.958 5.3814,-1.26337 3.5697,-0.21854 4.8144,-0.1556 4.8144,0.24347 0,0.29583 -0.2557,0.61799 -0.5683,0.71577 z m 0.2832,-23.71596 c -0.1573,0.15737 -1.0002,-0.0177 -1.8743,-0.37892 -0.874,-0.36513 -1.9416,-0.66396 -2.3724,-0.66396 -0.4308,0 -1.1537,-0.40915 -1.6064,-0.90937 -0.4526,-0.50005 -1.0448,-0.90938 -1.316,-0.90938 -1.072,0 -4.3641,-1.62443 -4.3656,-2.15435 -9e-4,-0.30962 0.8211,-0.69456 1.827,-0.85528 1.0058,-0.16091 1.8966,-0.41906 1.9794,-0.57378 0.084,-0.1556 -0.03,-0.94633 -0.2504,-1.75899 -0.3117,-1.14844 -0.6456,-1.47767 -1.4989,-1.47767 -1.3863,0 -2.5345,-1.59542 -2.4455,-3.39757 0.066,-1.30651 0.078,-1.31535 0.2531,-0.17328 0.1024,0.66166 0.5782,1.55919 1.0591,1.99433 0.8325,0.75342 0.8895,0.75025 1.1939,-0.0672 0.4084,-1.09522 1.8673,-3.23383 3.2989,-4.83599 2.3964,-2.68197 4.9918,-0.8459 5.1617,3.65166 0.069,1.84227 -0.1013,2.97832 -0.5034,3.37139 -0.5052,0.49244 -0.5902,0.3234 -0.5021,-0.99867 0.1884,-2.83104 -0.018,-3.97099 -0.877,-5.0418 -0.8102,-1.00062 -0.9044,-1.01512 -1.986,-0.3066 -0.6243,0.40916 -1.6876,1.68667 -2.3629,2.83882 l -1.2277,2.09495 0.999,2.06364 c 0.8352,1.72521 1.1571,2.01644 1.9632,1.77508 0.5303,-0.15913 1.7316,-0.40722 2.6693,-0.55221 1.3813,-0.2134 1.705,-0.12195 1.705,0.47848 0,0.52463 -0.4079,0.74175 -1.3938,0.74175 -4.4157,0 -4.0104,2.78083 0.6359,4.36388 2.0415,0.69561 2.4491,1.06835 1.8369,1.68049 z m -7.4444,-4.68021 c -0.5001,0 -0.9094,0.18267 -0.9094,0.40598 0,0.511 1.1827,0.9877 1.547,0.62346 0.5472,-0.54726 0.2486,-1.02944 -0.6376,-1.02944 z m 6.517,-18.49027 c -0.4441,0.44434 -1.9703,0.37009 -1.9703,-0.0955 0,-0.21943 0.2979,-0.64628 0.6622,-0.94846 0.9732,-0.8077 2.1892,0.16268 1.3081,1.04429 z m -10.3817,7.57792 c -0.375,0 -0.682,-0.20458 -0.682,-0.4546 0,-0.25003 0.307,-0.45479 0.682,-0.45479 0.375,0 0.682,0.20476 0.682,0.45479 0,0.25002 -0.307,0.4546 -0.682,0.4546 z m -2.1491,174.59572 c -0.6991,0 -1.7156,-0.88091 -1.7156,-1.48651 0,-0.21749 0.4583,-0.33012 1.0183,-0.25019 1.0996,0.15735 1.7339,1.7367 0.6973,1.7367 z m -2.8518,111.10301 c -0.8274,0.8272 -2.0465,1.0015 -2.0465,0.2927 0,-0.2501 0.2045,-0.45464 0.4545,-0.45464 0.2502,0 0.4548,-0.29652 0.4548,-0.65884 0,-0.56635 -0.2077,-0.57253 -1.4777,-0.0443 -0.8128,0.3379 -2.7053,0.75342 -4.2057,0.92338 -3.9167,0.4434 -4.2621,0.5831 -3.9925,1.6143 0.1843,0.7041 0,0.8912 -0.8423,0.8823 -1.3895,-0.018 -2.6675,-2.4797 -2.6675,-5.14537 0,-3.39616 1.6115,-3.93386 4.383,-1.46228 l 1.7552,1.56519 0.3185,-1.79949 c 0.4198,-2.37236 0.6599,-2.69506 2.0043,-2.69506 3.5555,0 7.7946,5.04922 5.8619,6.98221 z m -3.6406,-4.45262 c -1.897,-1.44691 -2.4981,-1.21687 -2.4981,0.95658 0,1.54116 0.056,1.59827 1.2503,1.26903 0.6878,-0.18972 1.6085,-0.35806 2.0461,-0.37397 1.1753,-0.0425 0.9805,-0.49492 -0.7983,-1.85164 z m -7.1585,1.9915 c -1.3721,-1.14454 -1.705,-1.09521 -1.705,0.25303 0,0.95994 0.2121,1.13676 1.3639,1.13676 1.6322,0 1.6959,-0.25939 0.3411,-1.38979 z m 9.7231,-36.46563 c -0.7165,0.52975 -2.0975,1.31234 -3.0691,1.73918 l -1.7661,0.77623 1.8185,0.418 c 1.0004,0.23004 2.2937,0.51649 2.8742,0.63655 0.5803,0.12025 0.9714,0.46645 0.869,0.76987 -0.3425,1.01457 -11.4726,-0.17947 -11.4726,-1.23083 0,-0.23023 1.4322,-0.86306 3.1827,-1.4066 1.7505,-0.54353 4.0012,-1.33975 5.0015,-1.76925 1.6108,-0.69188 1.7229,-0.83511 0.9815,-1.25363 -0.4606,-0.25993 -2.4375,-0.58227 -4.3934,-0.71647 -3.684,-0.25251 -4.8539,-0.6155 -4.392,-1.36275 0.1626,-0.26204 1.1368,-0.29315 2.4452,-0.0777 1.1967,0.19698 3.158,0.37029 4.3582,0.38511 2.1022,0.0265 4.8652,1.03247 4.8652,1.77191 0,0.19661 -0.5861,0.7909 -1.3028,1.32065 z m -0.5002,28.75528 c -1.0358,0.42914 -2.5964,0.47335 -6.2224,0.17682 -5.6441,-0.46255 -6.3988,-0.97409 -4.7843,-3.24161 1.4139,-1.98549 2.9821,-2.2348 5.127,-0.81532 0.9639,0.63762 1.8399,1.15958 1.9467,1.15958 0.253,0 1.6439,-4.08203 1.6439,-4.82449 0,-0.31368 -0.3581,-0.66253 -0.7958,-0.77517 -9.1789,-2.36248 -10.1002,-3.16364 -5.581,-4.85366 2.9228,-1.0931 3.0383,-1.49802 0.9627,-3.37618 -1.5487,-1.40182 -1.2413,-2.82628 0.7536,-3.49234 1.697,-0.56635 5.8458,-0.74087 6.3209,-0.26576 0.5601,0.55998 -0.4445,1.21916 -1.8577,1.21916 -2.3027,0 -4.351,0.51029 -4.3351,1.07983 0,0.28131 0.539,1.1083 1.1801,1.83767 1.0816,1.23049 1.2711,1.28777 2.6323,0.79568 3.0577,-1.10581 3.4886,-0.23216 0.741,1.50243 -1.6901,1.06693 -1.7698,1.21474 -1.3316,2.47192 0.3768,1.08072 0.8083,1.39476 2.25,1.63841 0.9811,0.16621 1.8817,0.45973 2.0014,0.65334 0.1202,0.19344 -0.4926,1.7613 -1.3603,3.48404 -0.8678,1.72291 -1.5784,3.36026 -1.5791,3.63892 -9e-4,0.28928 0.7094,0.48431 1.6564,0.4546 2.0946,-0.0655 2.4439,0.78224 0.6313,1.53301 z m -5.4977,-12.0583 c -0.6456,-0.39908 -2.8026,0.16797 -2.5002,0.65705 0.2888,0.46698 2.4079,0.9168 2.7427,0.58208 0.3814,-0.3814 0.2763,-0.91857 -0.2425,-1.23913 z m -2.6745,8.97424 c -0.6702,0.0777 -1.22,0.46998 -1.3075,0.93094 -0.1273,0.66679 0.197,0.79569 1.9989,0.79569 2.1377,0 2.1451,0 1.3075,-0.93095 -0.5237,-0.57873 -1.2798,-0.87966 -1.9989,-0.79568 z m 8.1564,-32.24233 c -0.9404,0.24595 -1.2559,-0.31863 -0.4545,-0.81372 0.8071,-0.49898 0.4846,-1.85943 -0.7062,-2.97798 -0.9786,-0.91945 -1.2269,-0.98523 -1.5842,-0.42031 -0.233,0.36868 -0.427,0.92123 -0.4307,1.22804 0,0.30675 -0.539,0.90637 -1.1893,1.3325 -1.0206,0.6687 -1.4613,0.70001 -3.2227,0.22878 -3.5164,-0.94049 -4.7483,-2.29598 -3.9579,-4.35539 0.4258,-1.10935 1.088,-0.85119 1.088,0.4242 0,0.79973 0.4441,1.41754 1.4778,2.05533 2.1457,1.32436 3.5675,1.0091 4.6605,-1.03368 1.0533,-1.9687 1.7506,-2.35717 2.9203,-1.62672 2.1723,1.35672 3.1456,5.50222 1.3989,5.95895 z m 0.5685,-86.82762 c -0.1876,0.10967 -3.0009,0.27602 -6.252,0.36779 -5.0059,0.14145 -5.9107,0.0636 -5.9107,-0.51012 0,-0.54992 0.9349,-0.70268 4.9825,-0.81443 2.7403,-0.076 5.0747,-0.23004 5.1874,-0.34286 0.1131,-0.11311 -0.9249,-1.38979 -2.306,-2.83776 -2.3887,-2.50427 -3.4919,-4.39835 -2.9039,-4.98611 0.1486,-0.14851 0.2688,0.0601 0.2688,0.46186 0,0.65229 0.1343,0.66077 1.2504,0.0777 0.6876,-0.35878 1.6147,-0.65353 2.0604,-0.65512 1.5089,0 1.4788,-1.42747 -0.059,-2.80187 -0.7959,-0.71117 -1.5975,-1.28989 -1.781,-1.286 -0.8531,0.0177 -1.5908,0.91699 -1.9044,2.32127 l -0.3427,1.53656 -0.3427,-1.24941 c -0.4347,-1.58411 -0.1274,-2.37396 1.2874,-3.30048 1.0692,-0.70056 1.2167,-0.6781 2.911,0.4431 3.3295,2.20333 3.7065,4.95286 0.755,5.50649 -1.9399,0.36389 -2.3282,0.9016 -1.1187,1.54875 0.507,0.27142 0.922,0.71911 0.922,0.99496 0,0.27582 0.8184,1.38943 1.8186,2.47457 1.7981,1.95066 2.1413,2.659 1.4777,3.05013 z m -0.8437,47.90226 c -0.4014,0.15383 -1.7471,0.0459 -2.9901,-0.24153 -1.243,-0.28698 -2.8478,-0.5218 -3.5661,-0.5218 -0.7627,0 -1.8159,-0.47263 -2.5324,-1.13659 -0.6745,-0.62523 -1.4012,-1.13676 -1.6146,-1.13676 -0.2136,0 -0.3884,-0.2997 -0.3884,-0.66589 0,-0.93467 1.4533,-1.60623 3.4938,-1.61436 1.6305,0 3.3325,-0.62595 2.8584,-1.04006 -0.1185,-0.10251 -1.9211,-1.06744 -4.0074,-2.14338 -5.6555,-2.91681 -5.564,-3.64795 0.5644,-4.51629 2.026,-0.28699 4.3542,-0.85403 5.1737,-1.26001 1.0666,-0.52834 1.63,-0.59871 1.9811,-0.24755 0.8905,0.89045 -1.5717,1.93828 -5.9252,2.52143 -2.2928,0.30714 -4.1926,0.76209 -4.2217,1.01122 -0.029,0.24898 2.0237,1.46371 4.5617,2.69932 2.5381,1.23542 4.6147,2.37908 4.6147,2.5414 0,0.49316 -2.2389,1.34983 -3.5451,1.35639 -1.8719,0.0177 -3.3316,0.50622 -3.1438,1.06976 0.2076,0.62239 3.3139,1.47856 6.8025,1.87515 2.5592,0.29069 3.3396,0.89118 1.8845,1.44955 z m -1.8005,27.438 c -0.6412,0.24382 -1.92,0.44646 -2.8415,0.45035 -2.5507,0.0177 -2.9786,0.45424 -2.4133,2.50182 0.4631,1.67746 0.3537,2.49259 -0.3347,2.49259 -0.5974,0 -1.8506,-6.47563 -2.0469,-10.57746 -0.1832,-3.82564 -0.145,-4.02068 0.9573,-4.88779 3.0072,-2.36548 8.9584,0.2601 7.3599,3.24691 -0.475,0.88728 -0.7621,0.94246 -3.4697,0.66502 -2.3094,-0.23676 -2.9069,-0.17506 -2.7446,0.28291 0.115,0.32216 0.6624,0.53381 1.2187,0.47051 1.5199,-0.17328 0.8888,0.97764 -0.6945,1.26602 -1.1578,0.21095 -1.3081,0.41358 -1.182,1.59138 0.079,0.74245 0.2909,1.4996 0.4696,1.68295 0.1791,0.18337 1.5462,0.13262 3.0384,-0.11141 1.4922,-0.24437 2.9687,-0.44541 3.2813,-0.44682 1.006,0 0.6053,0.91521 -0.598,1.37264 z m -1.5181,-9.23417 c -2.2366,-1.3212 -5.5009,-0.67475 -5.4991,1.08884 5e-4,0.48112 0.7328,0.6217 3.0693,0.58916 1.6875,-0.023 3.2218,-0.0743 3.4094,-0.11311 0.7098,-0.14853 0.2939,-0.81213 -0.9796,-1.56432 z m 2.4222,-93.42331 c -0.1555,0.15384 -0.5687,0.17151 -0.9198,0.0353 -0.3511,-0.13437 -1.4605,0.0849 -2.4653,0.48609 -2.0226,0.80929 -3.6273,0.95128 -3.6273,0.32075 0,-0.22545 0.6137,-0.62417 1.364,-0.88568 1.5225,-0.53064 1.7756,-1.31041 0.5682,-1.75104 -0.4375,-0.15914 -1.3455,-0.71612 -2.0176,-1.23614 -0.6721,-0.52003 -1.7503,-1.31642 -2.3964,-1.76961 -0.6459,-0.45317 -1.0463,-1.0312 -0.8898,-1.28458 0.1698,-0.27566 0.6876,-0.0813 1.289,0.48307 0.5524,0.51878 1.1531,0.9435 1.3344,0.9435 0.1816,0 0.8847,0.40793 1.5623,0.90638 0.6775,0.49844 2.3512,1.29926 3.7193,1.77915 2.3993,0.84183 3.0731,1.37794 2.479,1.97188 z m -1.4426,87.68978 c -1.6521,0.63443 -3.5606,0.28999 -6.9079,-1.24639 -2.9169,-1.33887 -3.1183,-1.71302 -2.2548,-4.1899 0.6319,-1.81274 1.6721,-1.83537 3.3609,-0.0725 1.5767,1.64565 1.1594,2.42613 -0.4759,0.88994 -0.9772,-0.91821 -1.2253,-0.98365 -1.5827,-0.41871 -0.786,1.24338 -0.446,2.07584 1.0725,2.62488 1.9905,0.71984 2.5821,0.68871 2.5821,-0.13615 0,-0.37504 0.2045,-0.68198 0.4546,-0.68198 0.2502,0 0.4547,0.20457 0.4547,0.45459 0,0.2502 0.312,0.45478 0.6932,0.45478 0.9845,0 1.5802,-1.8969 1.5802,-5.03102 0,-2.38671 0.1046,-2.69862 0.9007,-2.69862 0.9586,0 0.9587,0.8657 8e-4,6.30712 -0.3051,1.73335 -0.2399,2.01643 0.5111,2.2127 1.2292,0.32146 1.0636,0.97324 -0.3894,1.53108 z m 0.624,-105.53288 c -0.3447,0 -0.8496,-0.26877 -1.1224,-0.59748 -0.5339,-0.64344 -3.5294,-2.05445 -7.0039,-3.29907 -1.1879,-0.4256 -2.1597,-0.96703 -2.1597,-1.20325 0,-0.23605 0.8343,-0.75715 1.8538,-1.15761 1.7742,-0.69685 1.8431,-0.79782 1.6063,-2.35045 -0.1362,-0.89224 -0.1255,-1.31536 0.024,-0.94033 0.7178,1.80143 1.6417,2.3105 3.6474,2.00972 2.4075,-0.36106 2.6538,0.41941 0.3704,1.17302 -0.8753,0.28891 -1.5848,0.76509 -1.5769,1.05825 0.032,1.1953 2.0158,2.97515 4.1913,3.76164 0.9409,0.3402 1.073,1.54557 0.1698,1.54557 z m -6.3944,-5.45609 c -1.3271,0 -1.905,0.70197 -0.8964,1.08902 1.216,0.46662 2.0062,0.30642 2.0062,-0.40704 0,-0.41993 -0.4263,-0.68198 -1.1098,-0.68198 z m 5.5136,17.6532 c -0.6937,0.65158 -1.6326,0.9886 -2.7548,0.9886 -1.9473,0 -1.8437,-0.69455 0.1698,-1.1366 0.7442,-0.16267 1.7432,-0.79304 2.2199,-1.39916 1.0355,-1.3164 1.4178,-1.38962 1.4178,-0.2716 0,0.45655 -0.4736,1.27504 -1.0523,1.81876 z m 0.6666,-47.477 c -0.2559,0.15736 -2.6765,0.49685 -5.3791,0.75306 -2.7027,0.25604 -5.0862,0.63779 -5.2966,0.84838 -0.2107,0.21042 -0.043,1.03898 0.3715,1.8412 0.4148,0.80224 0.6456,1.56714 0.5129,1.69976 -0.5887,0.58845 -1.6278,-0.41923 -2.0684,-2.00565 -0.545,-1.96303 -0.6445,-9.18837 -0.1379,-9.98353 0.1837,-0.28803 1.3059,-0.66925 2.4938,-0.84731 1.1879,-0.17787 2.1596,-0.51207 2.1596,-0.74245 0,-0.96915 -1.627,-2.77641 -3.4746,-3.85908 -1.0899,-0.63866 -1.8672,-1.34647 -1.7273,-1.57279 0.1397,-0.22615 1.214,-0.4157 2.3872,-0.42083 1.173,0 3.4626,-0.29034 5.0882,-0.63372 1.6254,-0.34338 3.0357,-0.54866 3.1339,-0.45619 0.5815,0.54778 -1.2949,1.53301 -3.8314,2.01166 -3.0472,0.57503 -3.5471,1.00417 -2.0823,1.788 0.4716,0.25249 1.283,1.18044 1.8033,2.06205 0.6771,1.14772 1.2655,1.60321 2.071,1.60321 1.615,0 1.9026,0.83177 0.4019,1.16136 -0.6981,0.15382 -1.576,0.3943 -1.9511,0.53558 -0.3752,0.14145 -1.705,0.27777 -2.9553,0.30306 l -2.2735,0.0459 -0.1345,2.55769 c -0.097,1.85377 0.039,2.62416 0.4941,2.79886 0.3457,0.13261 2.7592,0.0708 5.3634,-0.13615 4.3158,-0.34444 6.2366,-0.0972 5.031,0.64821 z m -0.6659,63.29536 c -1.7561,3.17495 -4.6319,2.24896 -4.1487,-1.33586 0.4462,-3.30827 0.6272,-3.83837 1.4151,-4.14057 1.6902,-0.64875 3.7923,3.56273 2.7336,5.47643 z m -1.2174,-3.22429 c -0.3835,-1.00839 -0.5852,-1.11236 -1.3575,-0.69912 -0.8571,0.45883 -0.9295,0.98503 -0.5164,3.75685 0.078,0.52833 1.1716,0.40261 1.7787,-0.20458 0.6634,-0.66343 0.6847,-1.30262 0.096,-2.85315 z m 0.7913,-41.20436 c -0.5626,0.21306 -2.5011,0.53522 -4.3078,0.71575 l -3.2848,0.32854 0.6705,1.29643 c 0.8187,1.58305 0.895,3.7657 0.1238,3.50826 -0.3011,-0.10086 -0.7182,-0.8413 -0.9269,-1.64653 -0.2086,-0.80524 -0.7807,-2.17859 -1.2713,-3.05207 -0.4904,-0.87331 -0.8906,-1.73511 -0.8893,-1.91495 0,-0.17999 2.4568,-0.3363 5.4564,-0.34727 5.275,-0.0194 6.5639,0.30414 4.4304,1.11184 z m -0.8289,-57.44144 c -1.8577,1.68102 -11.3336,1.22623 -11.3336,-0.54389 0,-0.71205 1.0629,-0.81584 2.1895,-0.21395 0.4212,0.22509 1.4532,0.48077 2.2933,0.56829 1.5107,0.15736 1.5284,0.13792 1.6228,-1.80904 0.1362,-2.80132 1.9857,-3.66438 4.3644,-2.03641 2.0948,1.43365 2.3614,2.67933 0.8636,4.035 z m -1.4613,-3.03668 c -1.5034,-1.08992 -3.1604,-0.36549 -2.9691,1.29802 0.115,0.99318 0.4098,1.28424 1.4222,1.40024 1.3276,0.15204 2.5972,-0.5646 2.5725,-1.45258 0,-0.28184 -0.4693,-0.84254 -1.0256,-1.24568 z m -0.6775,16.87413 c -3.5958,0 -6.9214,-0.47898 -6.9214,-0.99672 0,-0.23021 0.9718,-0.84094 2.1596,-1.35707 2.348,-1.02043 5.1152,-2.92566 5.1152,-3.52152 0,-0.20512 -1.025,-0.50907 -2.2776,-0.67509 -4.4178,-0.58616 -4.5681,-1.21387 -0.2232,-0.93131 2.2507,0.14677 4.2967,0.47583 4.5468,0.73221 0.3064,0.31419 -0.4127,1.26 -2.2055,2.90054 l -2.66,2.43425 2.3969,0.13968 c 3.5114,0.20369 3.5695,1.27573 0.069,1.27573 z m 1.4529,4.72548 c -0.3955,0.15208 -2.2541,0.27584 -4.13,0.27584 -2.5257,0 -3.362,-0.14677 -3.2232,-0.56829 0.1896,-0.57413 6.3728,-1.3212 7.504,-0.90655 0.7848,0.2875 0.7117,0.86799 -0.1503,1.199 z m -1.0178,-27.45937 c -0.5081,-1.12139 -2.8036,-4.54671 -3.0471,-4.54671 -0.1238,0 -0.8341,0.98858 -1.5774,2.1966 -1.5298,2.48626 -3.2128,3.52082 -4.5571,2.80135 -1.3968,-0.74743 -1.8145,-4.99795 -0.4912,-4.99795 0.2442,0 0.3321,0.66783 0.1972,1.49871 -0.1716,1.05631 -0.025,1.68013 0.4966,2.11281 0.6348,0.5269 0.8985,0.46483 1.8591,-0.43746 0.6157,-0.57838 1.5485,-1.93847 2.0733,-3.02218 1.4043,-2.90106 2.4364,-2.60242 4.5204,1.30775 0.4945,0.92777 0.8849,2.15541 0.8671,2.72796 -0.023,0.7451 -0.1202,0.84731 -0.3409,0.35912 z m -1.2602,-30.28282 c -0.4192,0.1609 -1.4111,0.1715 -2.2042,0.023 -1.2416,-0.23306 -1.5172,-0.10427 -1.985,0.92158 -0.2988,0.65565 -0.5431,2.10308 -0.5431,3.21669 l 0,2.02473 1.7919,0 c 0.9856,0 1.9125,0.19504 2.0597,0.43339 0.2815,0.4553 -1.7752,1.09715 -5.2156,1.62744 -1.1253,0.17329 -2.2991,0.51968 -2.6086,0.76952 -0.3095,0.24966 -0.8337,0.34991 -1.1652,0.22278 -0.8217,-0.31526 -1.0111,-7.29925 -0.1906,-7.02959 0.3047,0.10086 0.6567,1.18928 0.7816,2.42029 0.1835,1.80514 0.4032,2.26063 1.1367,2.35434 1.5405,0.19698 2.116,-0.57112 2.51,-3.35195 0.2087,-1.47132 0.4453,-3.06851 0.5261,-3.54929 0.1219,-0.72937 -0.2679,-0.95534 -2.354,-1.36397 -2.0453,-0.40067 -2.5267,-0.6719 -2.6431,-1.48934 -0.4281,-3.00963 2.3195,-3.82494 4.2704,-1.26725 0.9608,1.25983 1.3507,1.48862 1.8417,1.08105 0.3427,-0.28431 0.623,-1.20802 0.623,-2.05267 0,-1.19565 -0.1878,-1.53568 -0.8481,-1.53568 -1.2499,0 -3.0968,-1.62514 -3.4511,-3.03668 -0.3908,-1.55706 1.1009,-2.84925 3.3061,-2.8641 3.0889,-0.0213 4.1253,1.51798 2.3182,3.44142 -0.7982,0.84979 -0.8633,1.16842 -0.4109,2.01396 0.515,0.96189 0.4462,2.247 -0.2347,4.39359 -0.2816,0.88708 -0.1327,1.00822 1.4,1.13676 1.827,0.15383 2.5528,0.97587 1.2888,1.46088 z m -3.6863,-11.22127 c -2.5354,-0.48465 -4.2369,1.07453 -2.6289,2.40897 0.5603,0.46505 0.8392,0.44576 1.4778,-0.10251 0.4329,-0.37149 1.1452,-0.80257 1.5827,-0.95783 1.1782,-0.41764 0.9657,-1.08142 -0.4316,-1.34859 z m -2.9557,7.49428 c -0.6802,-0.68022 -2.028,-0.70851 -2.4343,-0.0512 -0.396,0.64097 0.1734,1.13483 1.7295,1.50172 1.3514,0.31845 1.7184,-0.43674 0.7048,-1.45044 z m 6.1602,183.74308 c -0.1698,0.16974 -0.8832,0.30997 -1.5839,0.30997 -0.9456,0 -1.2067,-0.17506 -1.0124,-0.682 0.2839,-0.73962 1.4122,-0.88621 2.3311,-0.30306 0.3163,0.20086 0.4357,0.50464 0.2652,0.67509 z m -0.9163,-194.14 c -0.4808,0.48095 -5.0694,0.35168 -5.3803,-0.15207 -0.1538,-0.25003 -0.064,-0.45461 0.2005,-0.45461 1.1192,0 0.3431,-0.77197 -1.4237,-1.41614 -2.5249,-0.92051 -2.6482,-1.60727 -0.3977,-2.21341 1.0166,-0.27371 1.8482,-0.69472 1.8482,-0.93554 0,-0.24082 -1.0229,-1.17284 -2.2734,-2.07108 -1.2502,-0.89842 -2.2734,-1.87305 -2.2734,-2.16603 0,-0.2928 1.0743,-0.9046 2.3871,-1.35938 1.3128,-0.4546 3.4804,-1.54062 4.8169,-2.41304 1.3363,-0.8726 2.5568,-1.45946 2.712,-1.3042 0.6292,0.62912 -0.848,1.92094 -4.0413,3.53424 -3.2384,1.6361 -4.3582,2.59587 -3.0708,2.63211 0.3335,0.0177 1.4246,0.73274 2.425,1.60728 l 1.8186,1.59013 -1.4844,1.27327 -1.4844,1.27327 2.9621,0.84715 c 2.8752,0.82219 3.2931,1.09361 2.659,1.7275 z m -5.153,58.9564 c -0.2501,0 -0.4547,-0.21659 -0.4547,-0.48147 0,-0.26487 0.2046,-0.35505 0.4547,-0.20051 0.2501,0.15383 0.4547,0.37115 0.4547,0.48148 0,0.10966 -0.2046,0.2005 -0.4547,0.2005 z m -21.8608,187.8955 c -1.1084,1.90309 -3.0577,2.38581 -9.7392,2.41198 -3.501,0.0177 -8.292,-0.11853 -10.6467,-0.29387 -2.3547,-0.17505 -6.3326,-0.13969 -8.8399,0.0777 -2.5071,0.21767 -4.6493,0.30519 -4.7601,0.19432 -0.4093,-0.40934 1.372,-2.56139 2.5598,-3.09203 0.8641,-0.38615 5.0555,-0.54796 14.1847,-0.54796 12.7034,0 12.9554,-0.0177 12.8142,-0.90937 -0.3466,-2.18566 -0.2225,-3.90628 0.3198,-4.43319 0.6438,-0.62541 0.7617,-0.50589 3.2454,3.29644 1.5118,2.31454 1.4876,2.22205 0.862,3.29641 z m -0.7227,12.96789 c -0.4052,1.00732 -2.5798,1.83286 -6.1279,2.32636 -3.4433,0.47885 -4.8724,0.91664 -6.4707,1.98232 -0.6831,0.45531 -0.8956,0.45567 -1.0609,8.8e-4 -0.1132,-0.31261 -0.9572,-0.57023 -1.874,-0.57271 -2.2375,0 -10.7021,1.03068 -10.988,1.34541 -0.1255,0.13792 -0.5708,0.51897 -0.9904,0.84733 -1.1946,0.93447 -3.2621,-0.38389 -4.45,-2.83795 -1.2686,-2.62045 -0.936,-5.78603 0.8032,-7.64687 1.5167,-1.62285 5.4346,-3.07045 8.3097,-3.07045 2.9988,0 5.1646,1.15461 8.6111,4.59039 l 2.7893,2.78065 2.5729,-0.32146 c 1.415,-0.17683 3.891,-0.59729 5.5024,-0.93429 3.5795,-0.74903 4.175,-0.48238 3.3733,1.5102 z m -21.2208,-2.76883 c -1.334,-0.42047 -2.8164,-0.76437 -3.2947,-0.76421 -1.2434,5.2e-4 -5.3514,1.62444 -5.5399,2.19007 -0.2764,0.82911 1.2517,3.26567 2.0481,3.26567 0.9179,0 9.63,-1.35833 10.5337,-1.6423 1.1498,-0.36141 -1.1456,-2.22914 -3.7472,-3.04923 z m 19.9221,46.60656 c -0.3929,1.22937 -1.0153,2.22467 -1.4713,2.35307 -0.4348,0.122 -2.4272,0.2184 -4.4278,0.2136 -2.0006,0 -5.7978,0.32 -8.4384,0.7218 -2.6406,0.4017 -7.8253,0.7502 -11.5215,0.7746 -7.6302,0.05 -8.6853,-0.3004 -6.4112,-2.131 1.3326,-1.07274 1.3639,-1.19175 1.3639,-5.17776 0,-3.18893 0.1644,-4.24419 0.7521,-4.83265 1.0247,-1.02587 1.6562,-0.50568 2.2505,1.85449 0.2758,1.09504 0.8893,2.34212 1.3638,2.77146 0.4743,0.4293 0.8623,1.22129 0.8623,1.75985 0,0.53861 0.2769,1.35781 0.6151,1.82055 0.5562,0.76036 1.0852,0.81456 5.5096,0.56404 2.6918,-0.15206 5.0181,-0.40102 5.1694,-0.55239 0.152,-0.15207 0.2808,-1.17709 0.2877,-2.27953 0.018,-2.33242 1.2991,-4.16249 2.0681,-2.94632 0.5617,0.88834 0.555,1.9252 -0.023,3.44353 -0.2571,0.67615 -0.3824,1.3143 -0.2788,1.4181 0.1046,0.10427 2.3839,-0.0672 5.067,-0.37858 l 4.8785,-0.56706 -0.3394,-2.29899 c -0.1865,-1.26443 -0.3639,-3.01511 -0.394,-3.89036 -0.047,-1.41401 0.085,-1.60745 1.1957,-1.7353 0.9971,-0.11498 1.342,0.0972 1.7044,1.05083 0.8289,2.18054 0.9269,5.82053 0.2164,8.04402 z m 0.032,-20.09049 c -0.3638,0 -2.0518,-0.52391 -3.7512,-1.16418 -4.0983,-1.54433 -5.3714,-1.8831 -8.1809,-2.17732 -2.2288,-0.23341 -2.5384,-0.1291 -5.4561,1.82191 -2.683,1.79506 -6.7649,5.01423 -8.6982,6.85986 -1.2609,1.2038 -2.35,1.55812 -2.6208,0.85298 -0.5892,-1.53568 2.5646,-5.07347 7.885,-8.84518 0.8128,-0.57607 1.4777,-1.22888 1.4777,-1.45063 0,-0.421 -0.3759,-0.49243 -7.0474,-1.33905 -2.4309,-0.30835 -4.369,-0.79745 -4.7741,-1.20483 -0.6067,-0.60984 -0.5457,-0.80417 0.5524,-1.75828 1.1657,-1.0128 1.482,-1.05897 5.6834,-0.82787 2.447,0.13438 5.8812,0.50728 7.6316,0.82803 l 3.1829,0.58315 2.5007,-1.48174 c 6.5518,-3.88204 8.3338,-4.79176 9.3841,-4.79176 0.9656,0 1.0884,0.15205 0.8245,1.02288 -0.431,1.42091 -1.8205,2.84342 -4.3853,4.48924 -1.2022,0.77148 -2.1858,1.55144 -2.1858,1.73318 0,0.18179 1.4833,0.79657 3.2962,1.36628 5.535,1.73901 5.3425,1.60746 5.3425,3.65485 0,1.29678 -0.1923,1.82848 -0.6612,1.82848 z m -0.3031,-54.56124 c -0.5682,1.42921 -2.542,3.53124 -4.0617,4.32569 -2.5756,1.34629 -9.5971,2.59781 -14.9256,2.66004 -4.6871,0.0548 -5.5394,-0.06 -7.5563,-1.01388 -3.2447,-1.53513 -3.7059,-2.50904 -1.9595,-4.13594 0.5476,-0.51029 1.4306,-1.79701 1.9623,-2.85953 0.5317,-1.0625 1.6261,-2.34089 2.4317,-2.84111 0.8058,-0.50005 3.3388,-2.12677 5.6289,-3.61488 3.5969,-2.3372 4.5164,-2.73096 6.7545,-2.89275 1.425,-0.10263 3.3235,0.0547 4.2189,0.34992 3.1652,1.04464 8.0677,6.08132 7.9852,8.20385 -0.018,0.37504 -0.2298,1.19352 -0.4784,1.81858 z m -3.8878,-2.59286 c -0.9618,-1.64105 -1.7432,-2.30766 -3.7511,-3.19936 -3.3275,-1.47766 -6.6439,-1.25683 -11.5005,0.7658 -4.0549,1.68861 -5.5545,2.75343 -6.5273,4.63476 -1.5903,3.07542 0.7652,4.48642 7.4766,4.47883 7.1339,0 15.517,-2.27213 15.517,-4.19025 0,-0.22933 -0.5466,-1.34966 -1.2147,-2.48978 z m 4.0795,-15.13938 c -0.3799,1.61117 -2.9054,2.37449 -8.4376,2.55043 -3.7974,0.12025 -6.1384,0.4371 -8.0832,1.09221 -2.0582,0.6933 -2.9586,0.80418 -3.6272,0.44646 -0.539,-0.28857 -2.6368,-0.38315 -5.3293,-0.24029 -3.781,0.20051 -4.5334,0.37115 -5.0645,1.14879 -1.053,1.54168 -1.7797,1.07046 -2.3133,-1.49977 -0.5918,-2.85121 0.038,-6.63742 1.4337,-8.61301 0.7838,-1.10938 1.1697,-1.2503 3.4234,-1.2503 2.3492,0 2.6632,0.12909 4.1749,1.72241 0.8992,0.94739 1.8393,2.43071 2.0894,3.29642 0.4501,1.55865 0.4796,1.57386 3.032,1.56413 3.2165,-0.0177 4.102,-0.73891 5.33,-4.37519 1.0354,-3.06604 3.1727,-6.01059 5.0773,-6.99565 1.7505,-0.90513 5.1658,-0.86729 6.1009,0.0672 0.6782,0.67828 0.6751,0.80329 -0.039,1.59138 -0.5933,0.65561 -1.4088,0.85543 -3.4917,0.85543 -2.5144,0 -2.8293,0.1184 -4.2111,1.58359 -0.8216,0.87099 -1.6287,2.19857 -1.7938,2.95021 -0.1645,0.75148 -0.4889,1.48314 -0.7199,1.62586 -0.2307,0.14323 -0.4195,0.78277 -0.4195,1.42233 0,1.03137 0.1413,1.13197 1.2502,0.89046 2.68,-0.5837 11.1615,-1.24092 11.4614,-0.88836 0.175,0.20493 0.2446,0.67952 0.1556,1.05472 z m -25.4944,-1.24746 c -1.7337,-1.94182 -3.3781,-2.29881 -4.6642,-1.01263 -0.8073,0.80718 -0.9547,1.35159 -0.7597,2.80505 0.1326,0.99194 0.3251,1.88665 0.4267,1.98832 0.1024,0.10086 0.9885,-0.10614 1.9706,-0.46326 0.9823,-0.35664 2.3483,-0.76757 3.0362,-0.91327 1.5632,-0.33101 1.562,-0.6438 0,-2.40421 z m 24.9134,-20.99861 c -0.8709,1.64725 -3.2127,3.45875 -5.6938,4.40437 -2.2105,0.84237 -7.6722,1.4211 -15.7184,1.66528 -4.1439,0.12553 -7.8493,0.34958 -8.2345,0.49722 -0.8667,0.33277 -1.2693,-1.7178 -1.2766,-6.50091 0,-1.82105 -0.2945,-4.0039 -0.6483,-4.85067 -0.6891,-1.64936 -0.5577,-2.0686 0.6485,-2.0686 1.7148,0 2.4837,1.70135 2.4837,5.49694 l 0,3.59579 1.3699,0.20864 c 4.1459,0.63142 6.7177,0.70462 8.442,0.24029 l 1.9203,-0.51702 -0.264,-3.14825 c -0.238,-2.83831 -0.1825,-3.14827 0.5638,-3.14827 1.1163,0 1.9559,2.1717 1.7856,4.61852 l -0.1379,1.97435 3.6234,-0.1662 c 3.7282,-0.17151 7.8692,-1.37777 8.8712,-2.5851 0.3759,-0.45283 0.4828,-1.707 0.3289,-3.85782 -0.1255,-1.75281 -0.069,-3.28529 0.1256,-3.40552 0.7847,-0.48502 1.8076,0.42224 2.2429,1.9892 0.6546,2.35664 0.5501,3.69852 -0.4329,5.55776 z m -53.5842,101.89256 c -0.9575,0.83228 -2.2209,2.37945 -2.8078,3.43824 -1.0032,1.81008 -2.4782,3.05577 -8.4098,7.10261 -1.6551,1.12916 -2.2441,1.81113 -2.1662,2.50729 0.1644,1.46791 -1.6817,2.49101 -3.3422,1.85201 -3.1911,-1.2278 -13.704,-0.8625 -20.9765,0.7288 -0.7573,0.1662 -1.0259,0.018 -1.034,-0.5805 0,-0.4424 -0.7153,-1.725 -1.5762,-2.85048 -0.8608,-1.12525 -3.1085,-4.2394 -4.9949,-6.92013 -1.8863,-2.68093 -3.837,-5.09218 -4.3346,-5.3585 -0.4978,-0.26627 -0.905,-0.8687 -0.905,-1.33866 0,-0.48059 2.2875,-3.16312 5.2289,-6.13192 2.8758,-2.90263 5.2287,-5.48488 5.2287,-5.73847 0,-0.25338 0.3581,-1.0082 0.7957,-1.67712 0.4377,-0.6689 0.7956,-1.83821 0.7956,-2.59834 l 0,-1.38219 8.3286,0 c 7.4586,0 8.3752,-0.0831 8.7751,-0.79569 0.9926,-1.76819 4.7337,-0.70407 8.9363,2.54194 4.3442,3.35566 11.9257,11.92322 11.9257,13.47731 0,0.26697 0.5114,0.67985 1.1366,0.91749 1.5345,0.5835 1.4384,1.03103 -0.604,2.80631 z m -3.4523,-2.68873 c -1.9218,-2.67332 -6.9505,-8.22294 -10.2003,-11.25712 l -2.4349,-2.27338 -9.3866,0.1609 -9.3866,0.1609 -1.9457,2.11195 c -1.0701,1.16151 -2.693,3.0326 -3.606,4.15806 -0.9133,1.12526 -3.0267,3.24073 -4.6961,4.70107 l -3.0359,2.6551 2.1507,2.24313 c 1.1829,1.23385 3.1054,4.0288 4.2722,6.2111 1.1667,2.18246 2.749,4.6604 3.5161,5.50666 l 1.3948,1.53868 4.5892,-0.80614 c 4.1291,-0.72529 12.6434,-0.81016 15.2491,-0.15205 0.3358,0.0849 0.8473,-0.25408 1.1366,-0.75325 1.5247,-2.62999 2.4201,-3.50171 6.0803,-5.91881 3.2488,-2.14552 7.6182,-5.50789 7.8158,-6.01447 0.023,-0.0601 -0.657,-1.08338 -1.5126,-2.27337 z"
       id="path8357" />
  </g>
</svg>
